<?xml version="1.0" encoding="UTF-8" standalone="no"?>
<svg
   width="530"
   zoomAndPan="magnify"
   viewBox="0 0 397.5 323.71875"
   height="431.625"
   preserveAspectRatio="xMidYMid"
   version="1.0"
   id="svg41"
   sodipodi:docname="Дизайн без названия (7).svg"
   xmlns:inkscape="http://www.inkscape.org/namespaces/inkscape"
   xmlns:sodipodi="http://sodipodi.sourceforge.net/DTD/sodipodi-0.dtd"
   xmlns="http://www.w3.org/2000/svg"
   xmlns:svg="http://www.w3.org/2000/svg">
  <sodipodi:namedview
     id="namedview41"
     pagecolor="#ffffff"
     bordercolor="#000000"
     borderopacity="0.25"
     inkscape:showpageshadow="2"
     inkscape:pageopacity="0.0"
     inkscape:pagecheckerboard="0"
     inkscape:deskcolor="#d1d1d1">
    <inkscape:page
       x="0"
       y="0"
       width="397.5"
       height="323.71875"
       id="page2"
       margin="0"
       bleed="0" />
  </sodipodi:namedview>
  <defs
     id="defs12">
    <clipPath
       id="c111ad0e14">
      <path
         d="M 14.753906,17.261719 H 412.25391 V 341.26172 H 14.753906 Z m 0,0"
         clip-rule="nonzero"
         id="path1" />
    </clipPath>
  </defs>
  <g
     id="g41"
     transform="translate(-14.753906,-17.441406)">
    <g
       clip-path="url(#c111ad0e14)"
       id="g13">
      <path
         fill="#8ec544"
         d="m 412.20703,102.75 c -0.004,-6.796875 -2.67969,-12.792969 -7.73437,-17.335938 L 344.05078,31.097656 c -7.51953,-6.753906 -16.99219,-13.65625 -30.31641,-13.65625 -0.004,0 -0.0117,0 -0.0156,0 -13.33203,0.0039 -22.80859,6.917969 -30.32031,13.679688 l -60.38672,54.355468 c -5.05078,4.546876 -7.72266,10.546876 -7.71875,17.343748 l 0.0273,69.76172 h -40.10156 c 7.25781,-15.07422 12.3125,-38.88281 6.63281,-56.71094 -3.99219,-12.55078 -12.79297,-20.820309 -25.44531,-23.921871 -1.61328,-0.398438 -3.32031,-0.128907 -4.73438,0.742187 -1.41796,0.871094 -2.42187,2.273438 -2.79687,3.894532 -0.6875,2.992187 -1.32813,5.796872 -1.92578,8.433592 -7.46094,32.85156 -8.41797,37.07422 -29.02734,50.54297 -14.5586,9.51562 -15.58985,10.74609 -24.644536,23.95312 -0.925782,1.34766 -1.945313,2.83594 -3.085938,4.48829 -3.667968,5.30468 -8.359375,7.69531 -15.175781,7.7539 l -0.523437,0.004 v -1.48828 c 0,-7.73828 -6.292969,-14.03125 -14.03125,-14.03125 H 28.785156 c -7.738281,0 -14.03125,6.29297 -14.03125,14.03125 V 327.129 c 0,7.73828 6.292969,14.03125 14.03125,14.03125 h 31.675782 c 7.738281,0 14.03125,-6.29297 14.03125,-14.03125 v -6.36719 c 2.800781,0.97656 5.597656,2.01953 8.480468,3.09765 14.113282,5.26954 30.105474,11.24219 53.851564,11.24219 h 82.45703 c 3.51562,0 6.85937,-0.73437 9.89453,-2.05078 2.98438,1.34375 6.21094,2.05078 9.52344,2.05078 0.004,0 0.004,0 0.008,0 l 150.26953,-0.0508 c 12.85938,-0.008 23.31641,-10.47266 23.3125,-23.33203 z M 62.070312,327.12891 c 0,0.87109 -0.738281,1.60937 -1.609374,1.60937 H 28.785156 c -0.871094,0 -1.609375,-0.73828 -1.609375,-1.60937 V 190.27344 c 0,-0.8711 0.738281,-1.60938 1.609375,-1.60938 h 31.675782 c 0.871093,0 1.609374,0.73828 1.609374,1.60938 z m 74.753908,-4.44922 c -21.5,0 -35.73828,-5.31641 -49.503908,-10.46094 -4.15625,-1.55078 -8.417968,-3.14453 -12.828124,-4.5625 V 204.18359 h 0.597656 c 10.851562,-0.0977 19.371094,-4.50781 25.320316,-13.11718 1.15234,-1.66407 2.17968,-3.16407 3.11328,-4.52735 8.35156,-12.17969 8.35156,-12.17969 21.19922,-20.57812 24.8125,-16.21875 26.64062,-24.27735 34.34375,-58.19141 0.11328,-0.5039 0.22656,-1.01562 0.34375,-1.53125 5.12109,2.71875 8.61328,7.14453 10.60546,13.40235 5.86329,18.40234 -3.3789,46.73828 -10.61328,55.08593 -1.58984,1.83985 -1.96093,4.4375 -0.95312,6.64844 1.01172,2.21094 3.21875,3.62891 5.65234,3.62891 h 71.01172 c 6.91797,0 12.55078,5.63281 12.55078,12.55078 0,6.92187 -5.63281,12.55078 -12.55078,12.55078 h -48.95703 c -3.43359,0 -6.21484,2.78125 -6.21484,6.21484 0,3.42969 2.78125,6.21094 6.21484,6.21094 h 59.21484 c 6.92188,0 12.55078,5.62891 12.55078,12.55078 0,6.91797 -5.6289,12.55078 -12.55078,12.55078 h -59.21484 c -3.43359,0 -6.21484,2.78125 -6.21484,6.21094 0,3.42969 2.78125,6.21094 6.21484,6.21094 h 52.76562 c 6.92188,0 12.55079,5.6289 12.55079,12.55078 0,6.91797 -5.62891,12.55078 -12.55079,12.55078 h -52.76562 c -3.43359,0 -6.21484,2.78125 -6.21484,6.21094 0,3.42968 2.78125,6.21093 6.21484,6.21093 h 33.125 c 6.92187,0 12.55078,5.62891 12.55078,12.55079 0,6.92187 -5.62891,12.55078 -12.55078,12.55078 z m 252.14844,-0.0508 -148.11329,0.0508 c 2.15235,-3.69141 3.39454,-7.97657 3.39454,-12.55078 0,-4.60157 -1.25,-8.91797 -3.42969,-12.6211 12.88672,-0.97656 23.07422,-11.77344 23.07422,-24.90234 0,-6.09375 -2.19532,-11.6836 -5.83203,-16.02344 7.34375,-4.35156 12.28125,-12.36328 12.28125,-21.5 0,-10.23047 -6.1836,-19.03906 -15.00391,-22.89844 2.98047,-4.11328 4.74219,-9.16797 4.74219,-14.6289 0,-13.76953 -11.20313,-24.97266 -24.97266,-24.97266 h -7.36719 l -0.0312,-69.76562 c 0,-3.269535 1.17969,-5.917972 3.60938,-8.105472 l 60.38672,-54.355469 c 8.27343,-7.449219 14.65234,-10.488281 22.01172,-10.492188 0.004,0 0.008,0 0.0117,0 7.35547,0 13.73438,3.035157 22.01172,10.472657 l 60.42578,54.316406 c 2.42969,2.1875 3.60938,4.835937 3.61329,8.101566 l 0.082,208.96875 c 0,6.01171 -4.88672,10.90234 -10.89453,10.90625 z m -37.9336,-84.0625 c 0.91016,7.5 -1.10156,14.33984 -5.8125,19.78515 -5.53906,6.40625 -14.74609,10.70313 -25.22265,11.90625 v 7.90235 c 0,3.42968 -2.78125,6.21093 -6.21094,6.21093 -3.4336,0 -6.21485,-2.78125 -6.21485,-6.21093 v -7.99219 c -15.51562,-2.13281 -27.57421,-11.94141 -31.0664,-25.94922 -0.83203,-3.32813 1.19531,-6.69922 4.52344,-7.52734 3.33203,-0.82422 6.69921,1.19531 7.53125,4.52343 3.21484,12.90235 16.20312,17.20703 26.34765,16.95703 8.71485,-0.21093 16.92578,-3.32812 20.91797,-7.94531 2.42578,-2.80078 3.36328,-6.125 2.875,-10.16015 -1.16016,-9.55079 -9.125,-15.03125 -25.83203,-17.77735 -26.58984,-4.36328 -32.78125,-17.84765 -33.29297,-28.39062 -0.70703,-14.60938 9.51953,-26.85547 25.44922,-30.46875 0.83594,-0.1875 1.6875,-0.35157 2.55078,-0.48828 v -8.07813 c 0,-3.42969 2.78125,-6.21094 6.21094,-6.21094 3.42969,0 6.21094,2.78125 6.21094,6.21094 v 8.02734 c 11.37109,1.6836 22.58984,8.26954 28.19531,21.6211 1.32812,3.16406 -0.15625,6.80469 -3.32031,8.13281 -3.16407,1.32813 -6.80469,-0.16016 -8.13282,-3.32422 -5.38672,-12.82812 -18.42968,-16.16406 -28.96484,-13.77344 -7.96094,1.80469 -16.28906,7.41797 -15.78906,17.75 0.15625,3.23438 0.63672,13.08204 22.89453,16.73438 8.25,1.35547 33.35156,5.47656 36.15234,28.53516 z M 313.73828,100.73047 c 12.19922,0 22.12109,-9.921876 22.12109,-22.117189 0,-12.199219 -9.92187,-22.121093 -22.12109,-22.121093 -12.19531,0 -22.12109,9.921874 -22.12109,22.121093 0,12.195313 9.92578,22.117189 22.12109,22.117189 z m 0,-31.816408 c 5.34766,0 9.69922,4.351563 9.69922,9.695313 0,5.347656 -4.35156,9.699219 -9.69922,9.699219 -5.34375,0 -9.69531,-4.351563 -9.69531,-9.699219 0,-5.34375 4.35156,-9.695313 9.69531,-9.695313 z m 0,0"
         fill-opacity="1"
         fill-rule="nonzero"
         id="path13" />
    </g>
  </g>
</svg>
