<?xml version="1.0" encoding="UTF-8" standalone="no"?>
<svg
   width="459.93747"
   zoomAndPan="magnify"
   viewBox="0 0 344.9531 324"
   height="432"
   preserveAspectRatio="xMidYMid"
   version="1.0"
   id="svg41"
   sodipodi:docname="Дизайн без названия (7).svg"
   xmlns:inkscape="http://www.inkscape.org/namespaces/inkscape"
   xmlns:sodipodi="http://sodipodi.sourceforge.net/DTD/sodipodi-0.dtd"
   xmlns="http://www.w3.org/2000/svg"
   xmlns:svg="http://www.w3.org/2000/svg">
  <sodipodi:namedview
     id="namedview41"
     pagecolor="#ffffff"
     bordercolor="#000000"
     borderopacity="0.25"
     inkscape:showpageshadow="2"
     inkscape:pageopacity="0.0"
     inkscape:pagecheckerboard="0"
     inkscape:deskcolor="#d1d1d1">
    <inkscape:page
       x="0"
       y="0"
       width="344.95309"
       height="324"
       id="page2"
       margin="0"
       bleed="0" />
  </sodipodi:namedview>
  <defs
     id="defs12">
    <clipPath
       id="08de7acf52">
      <path
         d="M 563,35 H 851.11719 V 277.96094 H 563 Z m 0,0"
         clip-rule="nonzero"
         id="path2" />
    </clipPath>
    <clipPath
       id="9659ceaf7d">
      <path
         d="M 563,94.101562 H 851.11719 V 108.73438 H 563 Z m 0,0"
         clip-rule="nonzero"
         id="path3" />
    </clipPath>
    <clipPath
       id="0ac20173f3">
      <path
         d="m 608,17.261719 h 15 V 67 h -15 z m 0,0"
         clip-rule="nonzero"
         id="path4" />
    </clipPath>
    <clipPath
       id="fae62458eb">
      <path
         d="m 669,17.261719 h 15 V 67 h -15 z m 0,0"
         clip-rule="nonzero"
         id="path5" />
    </clipPath>
    <clipPath
       id="0205fa4183">
      <path
         d="m 730,17.261719 h 15 V 67 h -15 z m 0,0"
         clip-rule="nonzero"
         id="path6" />
    </clipPath>
    <clipPath
       id="032b61cdad">
      <path
         d="m 791,17.261719 h 15 V 67 h -15 z m 0,0"
         clip-rule="nonzero"
         id="path7" />
    </clipPath>
    <clipPath
       id="f7a45c6e82">
      <path
         d="M 506.16406,129 H 718 V 341.26172 H 506.16406 Z m 0,0"
         clip-rule="nonzero"
         id="path8" />
    </clipPath>
  </defs>
  <g
     id="g42"
     transform="translate(-506.16409,-17.261719)">
    <g
       clip-path="url(#08de7acf52)"
       id="g14">
      <path
         fill="#8ec544"
         d="M 577.25391,128.08984 V 61.683594 c 0,-3.375 1.38671,-6.445313 3.61718,-8.679688 2.23438,-2.230468 5.3086,-3.613281 8.67969,-3.613281 h 235.34375 c 3.375,0 6.44922,1.382813 8.67578,3.613281 2.23047,2.234375 3.61719,5.304688 3.61719,8.679688 V 250.84766 c 0,3.375 -1.38672,6.44921 -3.61719,8.67968 -2.22656,2.23047 -5.30078,3.61719 -8.67578,3.61719 H 721.35937 c -1.20703,4.78516 -2.73046,9.48047 -4.55078,14.05078 h 108.08594 c 7.25,0 13.83984,-2.96484 18.60938,-7.73437 4.77343,-4.77344 7.73437,-11.35938 7.73437,-18.61328 V 61.683594 c 0,-7.253906 -2.96094,-13.84375 -7.73437,-18.613282 -4.76954,-4.769531 -11.35938,-7.730468 -18.60938,-7.730468 H 589.55078 c -7.25391,0 -13.83984,2.960937 -18.61328,7.730468 -4.76953,4.769532 -7.73047,11.359376 -7.73047,18.613282 v 72.011716 c 4.55078,-2.18359 9.24219,-4.05469 14.04688,-5.60547"
         fill-opacity="1"
         fill-rule="nonzero"
         id="path14" />
    </g>
    <g
       clip-path="url(#9659ceaf7d)"
       id="g15">
      <path
         fill="#8ec544"
         d="m 570.23047,94.539062 c -3.87891,0 -7.02344,3.144532 -7.02344,7.027348 0,3.8789 3.14453,7.02343 7.02344,7.02343 h 273.98047 c 3.88281,0 7.02734,-3.14453 7.02734,-7.02343 0,-3.882816 -3.14453,-7.027348 -7.02734,-7.027348 H 570.23047"
         fill-opacity="1"
         fill-rule="nonzero"
         id="path15" />
    </g>
    <g
       clip-path="url(#0ac20173f3)"
       id="g16">
      <path
         fill="#8ec544"
         d="m 622.92187,24.289062 c 0,-3.882812 -3.14453,-7.027343 -7.02734,-7.027343 -3.87891,0 -7.02344,3.144531 -7.02344,7.027343 v 35.121094 c 0,3.882813 3.14453,7.03125 7.02344,7.03125 3.88281,0 7.02734,-3.148437 7.02734,-7.03125 V 24.289062"
         fill-opacity="1"
         fill-rule="nonzero"
         id="path16" />
    </g>
    <g
       clip-path="url(#fae62458eb)"
       id="g17">
      <path
         fill="#8ec544"
         d="m 683.80469,24.289062 c 0,-3.882812 -3.14453,-7.027343 -7.02344,-7.027343 -3.88281,0 -7.02734,3.144531 -7.02734,7.027343 v 35.121094 c 0,3.882813 3.14453,7.03125 7.02734,7.03125 3.87891,0 7.02344,-3.148437 7.02344,-7.03125 V 24.289062"
         fill-opacity="1"
         fill-rule="nonzero"
         id="path17" />
    </g>
    <g
       clip-path="url(#0205fa4183)"
       id="g18">
      <path
         fill="#8ec544"
         d="m 744.6875,24.289062 c 0,-3.882812 -3.14453,-7.027343 -7.02344,-7.027343 -3.8789,0 -7.02344,3.144531 -7.02344,7.027343 v 35.121094 c 0,3.882813 3.14454,7.03125 7.02344,7.03125 3.87891,0 7.02344,-3.148437 7.02344,-7.03125 V 24.289062"
         fill-opacity="1"
         fill-rule="nonzero"
         id="path18" />
    </g>
    <g
       clip-path="url(#032b61cdad)"
       id="g19">
      <path
         fill="#8ec544"
         d="m 805.57422,24.289062 c 0,-3.882812 -3.14453,-7.027343 -7.02344,-7.027343 -3.87891,0 -7.02344,3.144531 -7.02344,7.027343 v 35.121094 c 0,3.882813 3.14453,7.03125 7.02344,7.03125 3.87891,0 7.02344,-3.148437 7.02344,-7.03125 V 24.289062"
         fill-opacity="1"
         fill-rule="nonzero"
         id="path19" />
    </g>
    <g
       clip-path="url(#f7a45c6e82)"
       id="g20">
      <path
         fill="#8ec544"
         d="m 611.96094,129.66797 c 29.21484,0 55.66406,11.83984 74.80859,30.98828 19.14453,19.14453 30.99219,45.59375 30.99219,74.80859 0,29.21094 -11.84766,55.66407 -30.99219,74.8086 -19.14453,19.14843 -45.59375,30.98828 -74.80859,30.98828 v -14.05078 c 25.33984,0 48.27343,-10.26953 64.875,-26.8711 16.60547,-16.60156 26.875,-39.53906 26.875,-64.875 0,-25.33593 -10.26953,-48.27343 -26.875,-64.875 -16.60157,-16.60156 -39.53516,-26.87109 -64.875,-26.87109 z m 0,0 v 14.05078 c -25.33594,0 -48.27344,10.26953 -64.875,26.87109 -16.60157,16.60157 -26.8711,39.53907 -26.8711,64.875 0,25.33594 10.26953,48.27344 26.8711,64.875 16.60156,16.60157 39.53906,26.8711 64.875,26.8711 v 14.05078 c -29.21485,0 -55.66016,-11.83985 -74.8125,-30.98828 -19.14453,-19.14453 -30.98438,-45.59766 -30.98438,-74.8086 0,-29.21484 11.83985,-55.66406 30.98438,-74.80859 19.15234,-19.14844 45.59765,-30.98828 74.8125,-30.98828"
         fill-opacity="1"
         fill-rule="nonzero"
         id="path20" />
    </g>
    <path
       fill="#8ec544"
       d="m 800.75781,122.53906 h 14.05078 c 1.94141,0 3.51172,1.57422 3.51172,3.51172 v 28.88672 c 0,1.94141 -1.57031,3.51172 -3.51172,3.51172 h -14.05078 v -7.02344 h 10.53906 V 129.5625 h -10.53906 z m -14.04687,0 h 14.04687 v 7.02344 h -10.53515 v 21.86328 h 10.53515 v 7.02344 h -14.04687 c -1.94141,0 -3.51953,-1.57031 -3.51953,-3.51172 v -28.88672 c 0,-1.9375 1.57812,-3.51172 3.51953,-3.51172"
       fill-opacity="1"
       fill-rule="nonzero"
       id="path21" />
    <path
       fill="#8ec544"
       d="m 745.85937,122.53906 h 14.05079 c 1.9414,0 3.51171,1.57422 3.51171,3.51172 v 28.88672 c 0,1.94141 -1.57031,3.51172 -3.51171,3.51172 h -14.05079 v -7.02344 h 10.53907 V 129.5625 h -10.53907 z m -14.04687,0 h 14.04687 v 7.02344 h -10.53515 v 21.86328 h 10.53515 v 7.02344 H 731.8125 c -1.94141,0 -3.51563,-1.57031 -3.51563,-3.51172 v -28.88672 c 0,-1.9375 1.57422,-3.51172 3.51563,-3.51172"
       fill-opacity="1"
       fill-rule="nonzero"
       id="path22" />
    <path
       fill="#8ec544"
       d="m 800.75781,167.44141 h 14.05078 c 1.94141,0 3.51172,1.57031 3.51172,3.51171 v 28.88672 c 0,1.9375 -1.57031,3.51172 -3.51172,3.51172 h -14.05078 v -7.02734 h 10.53906 v -21.85938 h -10.53906 z m -14.04687,0 h 14.04687 v 7.02343 h -10.53515 v 21.85938 h 10.53515 v 7.02734 h -14.04687 c -1.94141,0 -3.51953,-1.57422 -3.51953,-3.51172 v -28.88672 c 0,-1.9414 1.57812,-3.51171 3.51953,-3.51171"
       fill-opacity="1"
       fill-rule="nonzero"
       id="path23" />
    <path
       fill="#8ec544"
       d="m 745.85937,167.44141 h 14.05079 c 1.9414,0 3.51171,1.57031 3.51171,3.51171 v 28.88672 c 0,1.9375 -1.57031,3.51172 -3.51171,3.51172 h -14.05079 v -7.02734 h 10.53907 v -21.85938 h -10.53907 z m -14.04687,0 h 14.04687 v 7.02343 h -10.53515 v 21.85938 h 10.53515 v 7.02734 H 731.8125 c -1.94141,0 -3.51563,-1.57422 -3.51563,-3.51172 v -28.88672 c 0,-1.9414 1.57422,-3.51171 3.51563,-3.51171"
       fill-opacity="1"
       fill-rule="nonzero"
       id="path24" />
    <path
       fill="#8ec544"
       d="m 800.75781,212.33984 h 14.05078 c 1.94141,0 3.51172,1.57422 3.51172,3.51172 v 28.88672 c 0,1.94141 -1.57031,3.51172 -3.51172,3.51172 h -14.05078 v -7.02344 h 10.53906 v -21.85937 h -10.53906 z m -14.04687,0 h 14.04687 v 7.02735 h -10.53515 v 21.85937 h 10.53515 V 248.25 h -14.04687 c -1.94141,0 -3.51953,-1.57031 -3.51953,-3.51172 v -28.88672 c 0,-1.9375 1.57812,-3.51172 3.51953,-3.51172"
       fill-opacity="1"
       fill-rule="nonzero"
       id="path25" />
    <path
       fill="#8ec544"
       d="m 745.85937,212.33984 h 14.05079 c 1.9414,0 3.51171,1.57422 3.51171,3.51172 v 28.88672 c 0,1.94141 -1.57031,3.51172 -3.51171,3.51172 h -14.05079 v -7.02344 h 10.53907 v -21.85937 h -10.53907 z m -14.04687,0 h 14.04687 v 7.02735 h -10.53515 v 21.85937 h 10.53515 V 248.25 H 731.8125 c -1.94141,0 -3.51563,-1.57031 -3.51563,-3.51172 v -28.88672 c 0,-1.9375 1.57422,-3.51172 3.51563,-3.51172"
       fill-opacity="1"
       fill-rule="nonzero"
       id="path26" />
    <path
       fill="#8ec544"
       d="m 619.41016,164.79297 c 0,-3.88281 -3.14454,-7.02735 -7.02735,-7.02735 -3.8789,0 -7.02344,3.14454 -7.02344,7.02735 v 70.25 c 0,3.8789 3.14454,7.02734 7.02344,7.02734 3.88281,0 7.02735,-3.14844 7.02735,-7.02734 v -70.25"
       fill-opacity="1"
       fill-rule="nonzero"
       id="path27" />
    <path
       fill="#8ec544"
       d="m 616.80078,229.60937 c -3,-2.4414 -7.41016,-1.98437 -9.85156,1.01563 -2.44141,3 -1.98438,7.41016 1.01562,9.85156 l 38.19532,30.97266 c 3.0039,2.4414 7.41015,1.98437 9.85156,-1.01563 2.4414,-3 1.98828,-7.41406 -1.01563,-9.85156 l -38.19531,-30.97266"
       fill-opacity="1"
       fill-rule="nonzero"
       id="path28" />
  </g>
</svg>
