<?xml version="1.0" encoding="UTF-8" standalone="no"?>
<svg
   width="539.86975"
   zoomAndPan="magnify"
   viewBox="0 0 404.90231 322.68548"
   height="430.24731"
   preserveAspectRatio="xMidYMid"
   version="1.0"
   id="svg41"
   sodipodi:docname="Дизайн без названия (7).svg"
   xmlns:inkscape="http://www.inkscape.org/namespaces/inkscape"
   xmlns:sodipodi="http://sodipodi.sourceforge.net/DTD/sodipodi-0.dtd"
   xmlns="http://www.w3.org/2000/svg"
   xmlns:svg="http://www.w3.org/2000/svg">
  <sodipodi:namedview
     id="namedview41"
     pagecolor="#ffffff"
     bordercolor="#000000"
     borderopacity="0.25"
     inkscape:showpageshadow="2"
     inkscape:pageopacity="0.0"
     inkscape:pagecheckerboard="0"
     inkscape:deskcolor="#d1d1d1">
    <inkscape:page
       x="0"
       y="0"
       width="404.90231"
       height="322.68549"
       id="page2"
       margin="0"
       bleed="0" />
  </sodipodi:namedview>
  <defs
     id="defs12">
    <clipPath
       id="07e0ecf66c">
      <path
         d="M 930.61328,112 H 1335.6133 V 341 H 930.61328 Z m 0,0"
         clip-rule="nonzero"
         id="path9" />
    </clipPath>
    <clipPath
       id="dc830ca944">
      <path
         d="m 1094,17.261719 h 26 V 96 h -26 z m 0,0"
         clip-rule="nonzero"
         id="path10" />
    </clipPath>
    <clipPath
       id="964f168f4b">
      <path
         d="m 1152,17.261719 h 24 V 96 h -24 z m 0,0"
         clip-rule="nonzero"
         id="path11" />
    </clipPath>
  </defs>
  <g
     id="g43"
     transform="translate(-930.61329,-17.480471)">
    <g
       clip-path="url(#07e0ecf66c)"
       id="g29">
      <path
         fill="#8ec544"
         d="m 930.39844,246.53516 c 0,-2.60547 0,-5.1875 0,-7.79688 1.30859,-0.0898 1.52734,-1.15234 1.85547,-2.09766 7.40625,-21.01953 14.8164,-42.04687 22.22265,-63.0664 3.42578,-8.21485 6.70703,-16.46875 8.78125,-25.16016 3.70703,-9.80859 7.38281,-19.64062 11.17188,-29.42968 2.68359,-6.94141 8.77343,-8.72266 15.28906,-4.96875 10.89845,6.27343 22.49995,10.98828 34.17575,15.53515 8.9102,8.44531 20.0899,8.02734 31.1563,7.95703 10.3203,1.79688 20.75,2.26172 31.1875,2.6836 4.0234,0.40625 8.1328,2.05078 12.0039,-0.52344 6.4297,-4.26953 12.832,-8.5625 19.2461,-12.85547 9.7265,-5.10547 20.5039,-5.375 31.0586,-6.65625 10.1562,0.35156 19.8359,2.68359 29.125,6.68359 10.4531,5.44922 19.7148,14.75391 33.2265,10.16016 11.6172,0.38672 22.6055,-1.25 31.3516,-9.93359 8.0586,-4.31641 15.7109,-9.3125 23.0898,-14.71094 2.0938,-0.043 4.1836,-0.0937 6.2735,-0.15234 0.457,0.25781 0.9101,0.5039 1.3672,0.75781 5.3242,9.71484 10.664,19.44531 15.9883,29.16015 4.0117,9.13672 8.2382,18.16016 13.6562,26.56641 0.6914,1.53516 1.4023,3.0625 2.0977,4.58984 10.2656,20.25391 20.5312,40.52344 30.7929,60.79297 0,1.57422 0,3.11328 0,4.67578 -15.414,10.59375 -33.2578,16.27735 -49.832,24.53907 -2.7734,1.375 -6.1328,0.40625 -7.5742,-2.23829 -3.2735,-6.04687 -6.6172,-4.57421 -10.6172,-1 -2.6602,2.375 -5.5977,4.48047 -8.4102,6.71875 -2.8867,1.3125 -5.8203,2.45313 -4.1797,6.72266 3.3125,8.67969 0.7618,16.16406 -5.1132,22.84766 -2.5899,1.5664 -5.1797,3.14062 -7.75,4.70703 -3.4063,1.51562 -9.086,-2.55078 -10.4727,3.34375 -2.6523,11.23437 -9.8984,17.08203 -20.6289,19.50781 -6.4414,-0.46875 -14.4297,-6.125 -17.3789,5.16797 -4.0859,3.51562 -8.75,6.00391 -13.9063,7.56641 -4.8085,-0.33985 -9.7031,-0.60547 -14.0507,-2.96485 -2.1446,-1.16406 -3.6758,-0.63281 -5.6055,0.4375 -3.7539,2.0586 -7.6719,3.82813 -11.5273,5.69531 -10.129,1.3125 -19.6524,-1.01171 -28.9258,-4.8125 -2.4727,-1.74218 -4.5,-3.95312 -8.1602,-1.71484 -8.8906,5.40625 -17.3125,3.44141 -25.1836,-2.55469 -0.5,-0.53125 -1.0039,-1.07422 -1.5039,-1.60547 -1.4844,-2.40625 -1.5273,-6.20703 -5.9726,-5.63671 -9.3399,1.1914 -16.1211,-3.47266 -22.043,-9.94922 -0.7266,-3.82813 -2.625,-5.17969 -6.8711,-5.17969 -9.207,-0.0117 -16.2852,-4.41016 -20.3086,-12.88281 -1.2148,-2.54297 -2.4961,-3.69922 -5.4922,-4.17578 -10.6875,-1.66797 -17.0195,-8.06641 -18.0469,-18.95704 -0.3281,-3.52734 -1.9726,-5.03125 -5.0117,-5.73828 -4.29295,-2.13672 -7.83201,-8.5 -12.98436,-5.39843 -4.55078,2.73437 -8.05859,2.32421 -12.36718,1.01953 -11.65235,-3.57032 -23.30469,-7.11328 -35.02344,-10.4375 -3.79297,-1.11719 -7.26953,-2.54297 -10.17578,-5.23828 z m 309.59376,8.04296 c 2.3125,4.20704 5.0625,4.38672 8.6055,1.28516 2.5312,-2.21484 5.414,-4.01172 8.1406,-5.99609 9.207,-6.65625 9.207,-6.65625 2.5547,-16.03907 -10.3946,-19.53515 -19.5742,-39.62109 -26.9766,-60.49609 -0.8984,-3.22266 -1.7539,-6.46484 -2.707,-9.67578 -4.0156,-13.49219 -4.0352,-13.49219 -18.7891,-11.49219 -10.2617,1.25781 -20.4023,1.81641 -28.9101,-5.74219 -10.9102,-7.32421 -22.5547,-13.29687 -36.0235,-10.35546 -5.9101,1.29296 -12.7851,-1.23438 -17.8203,3.89843 -4.1914,0.41797 -7.7109,2.2461 -10.7812,5.04688 -3.2539,1.98437 -6.5313,3.92969 -9.75,5.94922 -8.3164,5.21484 -15.1329,11.45703 -14.9805,22.34765 -0.9063,6 -3.1953,11.22266 -7.7461,15.50391 -1.5859,1.48828 -2.4805,3.91406 -3.207,6.07812 -1.7227,5.16016 0.3632,7.96094 5.7773,8.25782 5.9492,0.35156 11.2149,-1.33594 15.7461,-5.28516 4.75,-4.12109 9.0625,-8.84766 11.3633,-14.58594 3.3125,-8.32812 9.7812,-10.86328 17.6133,-11.38672 4.6054,-0.3125 9.2578,0.23438 13.9062,0.38672 1.8828,0.875 3.7735,1.73828 5.6445,2.59766 9.3008,8.06641 18.5782,16.12109 27.8711,24.17578 1.7539,2.19531 3.5938,4.26953 6.2227,5.47656 7.875,8.28125 16.375,15.85157 25.1914,23.09375 3.082,3.82422 6.6484,7.12891 10.7031,9.88672 5.6367,6.19922 11.8164,11.82813 18.3516,17.07031 z m -163.1484,-81.28515 c 1.414,-4.92188 2.6367,-9.91406 4.3046,-14.75 1.1211,-3.26563 -0.043,-3.94531 -3.0312,-4.08594 -7.6953,-0.33594 -15.3711,-0.91016 -23.0586,-1.40234 -6.6563,-0.66407 -13.3438,-1.15235 -19.9766,-2.0625 -3.8476,-0.52344 -4.7851,1.1914 -5.3203,4.5625 -0.914,5.85547 -2.3672,11.61718 -3.5898,17.41406 -1.3086,4.76562 -2.6133,9.54297 -3.9297,14.30859 -6.5235,16.22266 -12.5781,32.63672 -20.375,48.32813 -5.72658,11.48437 -5.55079,11.4414 5.914,17.66406 2.8946,1.56641 4.8985,2.37109 6.9297,-1.05859 2.168,-3.66797 5.8789,-5.67969 9.4805,-7.69922 8.9024,-2.34375 16.8594,-0.76172 22.7227,6.64844 2.7187,3.42968 5.2929,1.66015 8.1211,1.08984 6.8711,0.0273 13.9531,0.9375 18.1054,6.70312 3.9297,5.44532 7.9649,5.26954 13.086,3.19532 5.3164,0.72656 10.3593,2.22265 15.0429,4.875 2.6719,3.3164 6.3008,6.1875 7.0821,10.52734 0.9257,5.23438 4.0039,7.00781 8.7734,7.0625 3.0547,2.32031 6.918,7.19922 9.0195,6.53516 9.4571,-3.01172 13.3594,4.43359 19.1328,8.42578 7.7305,6.39062 15.3477,12.89062 23.2383,19.08594 4.4063,3.45312 9.7539,5.125 13.8008,0.0547 3.9766,-5.01953 0.2813,-9.46093 -3.457,-12.71484 -9.9024,-8.67578 -20.125,-16.96484 -30.2227,-25.41016 -4.8086,-5.11328 -10.1367,-9.6289 -15.8164,-13.74218 -3.2226,-2.97266 -6.4062,-5.98438 -9.6719,-8.89844 -3.6289,-3.26563 -4.7031,-7.11328 -1.3906,-10.90235 3.3594,-3.83203 7.3516,-3.03515 11.0352,-0.0156 4.3867,3.61328 8.7578,7.21875 13.1445,10.82422 3.0469,3.45703 6.4414,6.5 10.3477,8.96094 6.3086,6.46484 13.1679,12.29296 20.5117,17.58593 5.4414,5.72266 11.4804,10.78125 17.9531,15.34766 4.6016,4.43359 8.7773,9.69531 16.2969,8.68359 7.6289,-5.60156 8.3359,-10.46875 1.5273,-16.35937 -20.7148,-17.91016 -41.6562,-35.5586 -62.5078,-53.29688 -0.7344,-1.11328 -1.4805,-2.23437 -2.2109,-3.33593 -0.6133,-2.5 0.3086,-4.79297 0.9297,-7.14063 5.0507,-4.05859 9.2695,-2.5 13.7304,1.38672 19.1641,16.66797 38.5117,33.12109 57.7461,49.69141 3.7813,3.26953 7.7266,6.11718 12.6836,7.24609 2.9688,0.67187 5.6758,0.16406 7.6485,-2.41797 2.0546,-2.70312 1.4179,-5.49609 -0.2344,-7.96094 -2.6172,-3.88281 -5.9766,-7.09375 -9.9414,-9.62109 -6.0625,-5.62891 -12.1094,-11.26563 -18.168,-16.88281 -21.332,-20.72657 -43.3789,-40.6875 -65.9453,-60.05078 -7.6992,-6.59375 -15.1797,-4.98047 -20.5547,3.44531 -2.4961,3.89453 -5.332,7.58203 -8.0039,11.38281 -0.4922,0.0195 -0.6953,0.26953 -0.6641,0.74609 -8.539,8.48438 -18.8476,12.78516 -30.8437,13.125 -8.6875,-1.73437 -16.0703,-5.25 -19.4531,-14.23828 -1.6211,-8.28125 0.6289,-15.58593 5.0429,-22.60156 1.6914,-2.74219 5.2735,-4.36328 5.0157,-8.25781 z m 14.1718,105.58594 c -1.2968,-1.69922 -2.9883,-1.65625 -4.8086,-1.10547 -3.8164,-0.56641 -5.5781,2.16797 -7.3007,4.71093 -2.9024,4.26954 -5.4336,8.79297 -8.4805,12.96485 -3.1289,4.26172 -3.3164,8.30078 0.8008,11.58594 4.3789,3.47656 8.8437,2.53125 12.1757,-1.79688 3.629,-4.71484 7.0586,-9.58594 10.2188,-14.60156 2.8789,-4.57813 2.5859,-8.8125 -2.6055,-11.75781 z M 1287.418,173.21094 c -3.5469,-8.6211 -7.6524,-16.95703 -12.6563,-24.84375 -0.5234,-2.33203 -1.3281,-4.52344 -3.1015,-6.24219 -5.1368,-12.96094 -5.1368,-12.96875 -16.3204,-5.6875 -1.4765,0.96875 -2.8203,2.125 -4.2226,3.19531 -11.3945,6.14453 -11.4649,6.16797 -7.7461,18.44141 1.5391,5.12109 3.4531,10.13672 5.1836,15.20312 7.9766,25.07422 19.8711,48.23828 34.4062,70.09375 1.7696,2.67578 3.2188,4.20313 6.8008,2.3711 8.0664,-4.11719 16.3321,-7.83203 24.5977,-11.51563 2.7812,-1.22656 3.4023,-2.60547 1.9336,-5.32031 -4.4453,-8.14063 -8.7344,-16.36719 -13.0821,-24.5625 -4.6523,-10.69531 -9.8437,-21.10938 -15.7929,-31.13281 z m -277.4493,-32.90235 c -6.6601,-3.19531 -13.37495,-6.30859 -19.98823,-9.63281 -2.625,-1.31641 -4.09375,-1.21484 -5.13281,1.90234 -4.5625,13.59766 -9.28907,27.15625 -13.95313,40.72266 -8.1875,20.44922 -15.38672,41.26563 -22.35156,62.16406 -1.77344,2.09766 -0.7461,3.16797 1.40234,3.82422 8.63281,2.62891 17.29688,5.15235 25.89453,7.91016 2.80078,0.8789 3.65235,-0.75391 4.67969,-2.64453 12.29297,-22.72266 23.36327,-45.94141 29.53127,-71.1875 3.332,-7.79297 4.1523,-16.21485 6.0976,-24.34375 1.3477,-5.59375 -0.8476,-8.13282 -6.1797,-8.71485 z m 47.043,126.57813 c -0.4453,0.13281 -1.6328,0.16797 -2.3672,0.76172 -5.9492,4.80468 -10.2851,10.89843 -12.3984,18.1875 -0.9102,3.14843 1.1992,6.11328 4.5156,7.27734 3.086,1.06641 6.3203,1.01563 8.4649,-1.93359 3.2109,-4.38672 6.4101,-8.8125 9.1132,-13.51172 2.836,-4.92578 -1.0625,-10.85156 -7.3281,-10.78125 z m 73.5938,39.33203 c -2.086,3.92187 -3.7539,7.35937 -5.7383,10.62109 -1.0469,1.7461 -1.6563,2.77344 0.4414,4.3711 5.8477,4.39062 17.8984,5.22265 24.7305,1.15625 -6.3946,-5.32422 -12.6758,-10.53907 -19.4336,-16.14844 z m -15.6211,-1.67969 c 0.1015,-2.51953 -0.6914,-4.29687 -2.5664,-5.52734 -1.9375,-1.26172 -4.1094,-1.39453 -5.7188,0.17187 -4.6172,4.49219 -8.1875,9.84375 -11.0351,15.57813 -1.2852,2.5625 0.039,5.1875 2.707,6.39062 3.0352,1.37891 4.6328,0.1211 5.2734,-3.19531 0.4649,-2.36719 2.543,-3.57031 4.75,-4.64453 3.6875,-1.79688 5.2266,-5.42188 6.5899,-8.77344 z m -78.1953,-41.30469 c -0.211,-2.99609 -2.1485,-4.82421 -5.4219,-5.04296 -3.3828,-0.23829 -10.8594,8.86718 -10.7656,12.97656 0.07,3.45312 2.0156,5.23047 5.3632,5.39844 3.2735,0.13671 10.8829,-9.01563 10.8243,-13.33204 z m 0,0"
         fill-opacity="1"
         fill-rule="nonzero"
         id="path29" />
    </g>
    <g
       clip-path="url(#dc830ca944)"
       id="g30">
      <path
         fill="#8ec544"
         d="m 1104.918,17.480469 c 6.8476,8.816406 5.2578,19.84375 7.5937,29.816406 2.5156,10.707031 4.0938,21.640625 6.0742,32.476563 -0.3007,4.664062 2.1446,9.574218 -1.2461,13.960937 -8.1992,3.058594 -11.125,1.480469 -12.7851,-6.824219 -0.5039,-2.488281 -1.0625,-4.945312 -1.5859,-7.417968 C 1101.2734,69.125 1099.5859,58.765625 1097.8906,48.394531 1096.9727,42 1096.457,35.507812 1095,29.242188 c -1.1445,-4.960938 0.1133,-8.574219 3.6719,-11.761719 2.0976,0 4.1719,0 6.2461,0 z m 0,0"
         fill-opacity="1"
         fill-rule="nonzero"
         id="path30" />
    </g>
    <g
       clip-path="url(#964f168f4b)"
       id="g31">
      <path
         fill="#8ec544"
         d="m 1164.1289,17.480469 c 2.6016,0 5.1875,0 7.793,0 3.3086,3.746093 3.8242,8.039062 2.9961,12.855469 -1.0469,6.066406 -1.6367,12.226562 -2.4297,18.335937 -1.375,10.34375 -2.7578,20.695313 -4.1367,31.03125 -0.5664,2.996094 -1.0235,6.007813 -1.6914,8.96875 -1.0352,4.582031 -3.711,7.519531 -8.6914,6.507813 -4.3829,-0.886719 -6.2422,-4.09375 -5.7735,-8.566407 0.2383,-2.269531 0.461,-4.558593 0.6758,-6.832031 1.4609,-10.308594 2.8984,-20.621094 4.3633,-30.933594 2.9258,-10.308594 1.0625,-21.683594 6.8945,-31.367187 z m 0,0"
         fill-opacity="1"
         fill-rule="nonzero"
         id="path31" />
    </g>
    <path
       fill="#8ec544"
       d="m 1203.3711,81.890625 c 5.9219,-8.933594 12.0352,-17.761719 17.7109,-26.859375 3.2657,-5.230469 7.1055,-7.101562 12.7852,-4.167969 2.8476,3.824219 2.5703,7.511719 -0.035,11.433594 -3.2773,4.9375 -6.2422,10.078125 -9.3476,15.113281 -5.2578,7.972656 -10.5078,15.9375 -15.7735,23.902344 -3.6757,1.87891 -7.3593,2.55469 -10.3984,-1.01172 -3.3125,-3.898436 -1.5312,-7.562499 0.8281,-11.187499 1.5274,-2.332031 2.836,-4.804687 4.2305,-7.222656 z m 0,0"
       fill-opacity="1"
       fill-rule="nonzero"
       id="path32" />
    <path
       fill="#8ec544"
       d="m 1057.3516,98.175781 c -3.8985,-6.425781 -7.8633,-12.792969 -12.8086,-18.472656 -2.3086,-3.652344 -4.5039,-7.386719 -6.9492,-10.941406 -2.8204,-4.125 -3.5704,-8.316407 0.8984,-11.382813 4.3125,-2.976562 8.2109,-1.378906 11.043,2.949219 0.9648,1.484375 2.1601,2.824219 3.2578,4.222656 3.4883,5.082031 6.9883,10.183594 10.4726,15.265625 1.9336,3.046875 3.7539,6.160156 5.8203,9.101563 2.9141,4.136719 4.918,8.40625 0.09,12.269531 -4.9297,3.9375 -8.5664,0.74219 -11.8242,-3.011719 z m 0,0"
       fill-opacity="1"
       fill-rule="nonzero"
       id="path33" />
  </g>
</svg>
