<?xml version="1.0" encoding="UTF-8" standalone="no"?>
<svg
   width="387.65625"
   zoomAndPan="magnify"
   viewBox="0 0 290.74219 324"
   height="432"
   preserveAspectRatio="xMidYMid"
   version="1.0"
   id="svg41"
   sodipodi:docname="Дизайн без названия (7).svg"
   xmlns:inkscape="http://www.inkscape.org/namespaces/inkscape"
   xmlns:sodipodi="http://sodipodi.sourceforge.net/DTD/sodipodi-0.dtd"
   xmlns="http://www.w3.org/2000/svg"
   xmlns:svg="http://www.w3.org/2000/svg">
  <sodipodi:namedview
     id="namedview41"
     pagecolor="#ffffff"
     bordercolor="#000000"
     borderopacity="0.25"
     inkscape:showpageshadow="2"
     inkscape:pageopacity="0.0"
     inkscape:pagecheckerboard="0"
     inkscape:deskcolor="#d1d1d1">
    <inkscape:page
       x="0"
       y="0"
       width="290.74219"
       height="324"
       id="page2"
       margin="0"
       bleed="0" />
  </sodipodi:namedview>
  <defs
     id="defs12">
    <clipPath
       id="792f883498">
      <path
         d="M 39.03125,405 H 330 V 696 H 39.03125 Z m 0,0"
         clip-rule="nonzero"
         id="path12" />
    </clipPath>
  </defs>
  <g
     id="g44"
     transform="translate(-39.054687,-405)">
    <path
       fill="#8ec544"
       d="m 125.46484,575.48828 c -42.390621,0 -76.757809,34.36719 -76.757809,76.75781 0,42.38672 34.367188,76.75391 76.757809,76.75391 42.39063,0 76.75391,-34.36719 76.75391,-76.75391 0,-42.39062 -34.36328,-76.75781 -76.75391,-76.75781 z m 40.76172,113.33203 c -6.28125,9.82813 -16.22265,19.36328 -29.65625,14.82813 C 112.67188,695.625 99.179688,672.13281 97.785156,669.57422 96.15625,667.1875 81.15625,644.57031 84.644531,619.625 c 1.976563,-14.07422 14.886719,-18.66797 26.515629,-19.88672 1.85937,-0.17578 3.54687,1.16016 3.77734,3.02344 l 2.96875,25.58594 c 0.17188,1.45312 -0.58203,2.84765 -1.92187,3.48828 l -10.8711,5.34765 c 0,0 -4.48047,5.58203 6.57031,23.78516 C 123.02344,678.99219 130,677.48047 130,677.48047 l 9.65234,-7.32422 c 1.16407,-0.875 2.73438,-0.93359 3.95313,-0.17578 l 21.57422,14.07031 c 1.6289,1.04688 2.09375,3.14063 1.04687,4.76953 z m 0,0"
       fill-opacity="1"
       fill-rule="nonzero"
       id="path34" />
    <g
       clip-path="url(#792f883498)"
       id="g35">
      <path
         fill="#8ec544"
         d="M 287.23047,447.5625 C 259.78516,420.11719 223.26953,405 184.42578,405 c -38.84375,0 -75.35937,15.11719 -102.804686,42.5625 -27.445313,27.44922 -42.566406,63.96484 -42.566406,102.80859 0,22.15235 4.945312,43.55078 14.246093,62.97266 4.070313,-7.44141 9.246094,-14.24609 15.292969,-20.11719 -4.941406,-13.375 -7.675781,-27.79687 -7.675781,-42.91406 0,-68.09375 55.417971,-123.50781 123.507811,-123.50781 68.08984,0 123.50781,55.41406 123.50781,123.50781 0,61.11328 -44.60156,111.99219 -102.98047,121.76172 -2.09375,8.3125 -5.41015,16.10547 -9.82812,23.19922 34.77344,-2.5 67.16016,-17.26953 92.10547,-42.21485 27.44531,-27.32812 42.5664,-63.84765 42.5664,-102.6875 0,-38.84375 -15.12109,-75.35937 -42.5664,-102.80859 z m 0,0"
         fill-opacity="1"
         fill-rule="nonzero"
         id="path35" />
    </g>
    <path
       fill="#8ec544"
       d="m 103.60156,548.50781 -7.562498,7.38672 c -0.695312,0.69531 -1.160156,1.68359 -1.160156,2.67578 v 3.95313 c 0,2.09375 1.683594,3.71875 3.71875,3.71875 h 45.355464 c 2.09375,0 3.72266,-1.6836 3.72266,-3.71875 v -5.23438 c 0,-2.09375 -1.6875,-3.72265 -3.72266,-3.72265 h -27.5039 l 2.44531,-2.26563 c 15.75781,-15.17578 26.92188,-27.09766 26.92188,-42.39062 0,-12.09375 -7.85157,-24.2461 -25.41016,-24.2461 -7.26953,0 -14.30469,2.14844 -20.12109,6.10547 -1.62891,1.10156 -2.093754,3.25391 -1.164066,4.94141 l 2.269536,4.01172 c 1.04687,1.85937 3.42968,2.4414 5.17578,1.33593 2.96484,-1.85937 7.03515,-3.66015 11.6875,-3.66015 10.75781,0 13.02343,6.97656 13.02343,12.79297 -0.0586,10.34765 -8.19921,19.76953 -27.67578,38.3164 z m 0,0"
       fill-opacity="1"
       fill-rule="nonzero"
       id="path36" />
    <path
       fill="#8ec544"
       d="m 197.04297,485.88281 h -8.60547 c -1.21875,0 -2.38281,0.58203 -3.08203,1.57031 l -33.20313,47.50782 c -0.46484,0.64062 -0.69531,1.39453 -0.69531,2.15234 v 4.59375 c 0,2.09375 1.68359,3.71875 3.71875,3.71875 h 31.69141 v 17.03906 c 0,2.09375 1.6875,3.72266 3.72265,3.72266 h 6.39453 c 2.09375,0 3.72266,-1.6875 3.72266,-3.72266 v -17.03906 h 6.91797 c 2.09375,0 3.72266,-1.68359 3.72266,-3.71875 v -4.71094 c 0,-2.09375 -1.6875,-3.72265 -3.72266,-3.72265 h -6.91797 v -43.60938 c 0.0586,-2.09375 -1.57031,-3.78125 -3.66406,-3.78125 z m -10.17578,24.01563 v 23.375 h -19.01172 l 16.51172,-22.91016 0.0586,-0.0586 c 0.87109,-1.51172 1.6875,-2.84766 2.5,-4.24219 0,1.21875 -0.0586,2.55859 -0.0586,3.83594 z m 0,0"
       fill-opacity="1"
       fill-rule="nonzero"
       id="path37" />
    <path
       fill="#8ec544"
       d="m 239.49219,521.29687 h -4.47657 c -1.57031,0 -2.91015,0.92969 -3.48828,2.38282 L 200.125,605.4375 c -0.92969,2.44141 0.87109,5.05859 3.48828,5.05859 h 4.36328 c 1.57031,0 2.90625,-0.93359 3.48828,-2.38672 l 31.57422,-81.69531 c 0.8711,-2.44531 -0.92969,-5.11719 -3.54687,-5.11719 z m 0,0"
       fill-opacity="1"
       fill-rule="nonzero"
       id="path38" />
    <path
       fill="#8ec544"
       d="m 246.17969,616.13672 h 5.34765 c 0.69922,0 1.39844,-0.41016 1.6875,-1.04688 l 20.52735,-42.97265 c 0.11328,-0.23438 0.17187,-0.52344 0.17187,-0.8125 v -3.54688 c 0,-1.04687 -0.87109,-1.86328 -1.85937,-1.86328 h -28.89844 c -1.04688,0 -1.86328,0.87109 -1.86328,1.86328 v 4.1836 c 0,1.04687 0.875,1.86328 1.86328,1.86328 h 20.69922 l -19.42188,39.59765 c -0.52343,1.27735 0.35157,2.73438 1.7461,2.73438 z m 0,0"
       fill-opacity="1"
       fill-rule="nonzero"
       id="path39" />
  </g>
</svg>
