<?xml version="1.0" encoding="UTF-8" standalone="no"?>
<svg
   width="430.08139"
   zoomAndPan="magnify"
   viewBox="0 0 322.56104 322.56372"
   height="430.08496"
   preserveAspectRatio="xMidYMid"
   version="1.0"
   id="svg41"
   sodipodi:docname="Дизайн без названия (7).svg"
   xmlns:inkscape="http://www.inkscape.org/namespaces/inkscape"
   xmlns:sodipodi="http://sodipodi.sourceforge.net/DTD/sodipodi-0.dtd"
   xmlns="http://www.w3.org/2000/svg"
   xmlns:svg="http://www.w3.org/2000/svg">
  <sodipodi:namedview
     id="namedview41"
     pagecolor="#ffffff"
     bordercolor="#000000"
     borderopacity="0.25"
     inkscape:showpageshadow="2"
     inkscape:pageopacity="0.0"
     inkscape:pagecheckerboard="0"
     inkscape:deskcolor="#d1d1d1">
    <inkscape:page
       x="0"
       y="0"
       width="322.56104"
       height="322.56372"
       id="page2"
       margin="0"
       bleed="0" />
  </sodipodi:namedview>
  <defs
     id="defs12" />
  <g
     id="g45"
     transform="translate(-398.26404,-405.71814)">
    <path
       fill="#8ec544"
       d="m 718.42578,562.62891 -42.23828,-26.875 23.13672,-44.41407 c 0.33594,-0.65625 0.54687,-1.38672 0.57812,-2.17187 0.1211,-2.86328 -2.09765,-5.28125 -4.95703,-5.40235 l -50.01953,-2.15234 -2.14453,-49.66406 c 0.0234,-0.85547 -0.16406,-1.71875 -0.58203,-2.53125 -1.32422,-2.55078 -4.46094,-3.53906 -7.00781,-2.21875 l -44.41407,23.15234 -26.82031,-42.16797 c -0.39453,-0.64453 -0.94531,-1.21484 -1.62891,-1.65234 -2.41015,-1.53906 -5.61328,-0.82813 -7.15234,1.58203 l -26.875,42.23828 -44.41797,-23.13672 c -0.65234,-0.33984 -1.38672,-0.54687 -2.16797,-0.57812 -2.86328,-0.1211 -5.28125,2.09375 -5.40234,4.95703 l -2.16016,50.01953 -49.66406,2.14453 c -0.85547,-0.0234 -1.71875,0.16016 -2.53516,0.58203 -2.54687,1.32032 -3.53906,4.45703 -2.21484,7.00782 l 23.14844,44.41406 -42.15625,26.82812 c -0.64453,0.39453 -1.21875,0.94141 -1.65235,1.62891 -1.53906,2.41016 -0.83203,5.61328 1.58204,7.15234 l 42.23437,26.875 -23.13281,44.41407 c -0.33985,0.65625 -0.54688,1.38671 -0.58203,2.17187 -0.1211,2.86328 2.09765,5.28125 4.96093,5.40234 l 50.01954,2.15235 2.14453,49.66406 c -0.0234,0.85547 0.16015,1.71875 0.58203,2.53125 1.32031,2.55078 4.45703,3.54297 7.0039,2.21875 l 44.41797,-23.15234 26.82813,42.16797 c 0.39453,0.64453 0.9414,1.21484 1.6289,1.65234 2.41016,1.53906 5.60938,0.82812 7.15235,-1.58203 l 26.875,-42.23828 44.41406,23.13672 c 0.65234,0.33984 1.38672,0.54687 2.17188,0.57812 2.85937,0.12109 5.28125,-2.09375 5.40234,-4.95703 l 2.16016,-50.01953 49.66406,-2.14453 c 0.85547,0.0234 1.71875,-0.16016 2.53125,-0.58203 2.54687,-1.32032 3.53906,-4.45704 2.21875,-7.00782 l -23.15235,-44.41406 42.16407,-26.82812 c 0.64843,-0.39454 1.21875,-0.94141 1.65625,-1.62891 1.52343,-2.41016 0.8125,-5.61328 -1.59766,-7.15234 z m -51.82422,29.43359 c -2.28515,1.44922 -3.04297,4.40234 -1.8164,6.75781 l -0.0156,0.008 21.57031,41.39063 -46.61718,2.00781 c -2.70704,0.11328 -4.84375,2.29688 -4.95704,4.95703 l -2.00781,46.61719 -41.39062,-21.57031 c -2.54297,-1.32031 -5.67969,-0.33594 -7,2.20312 l -24.82032,39.01953 -25.0625,-39.39062 c -1.45312,-2.28125 -4.40234,-3.03906 -6.75781,-1.81641 l -0.008,-0.0156 -41.39063,21.57031 -2.00781,-46.61328 c -0.11328,-2.71094 -2.30078,-4.84766 -4.96094,-4.96094 l -46.61718,-2.00781 21.57422,-41.39063 c 1.32031,-2.53906 0.33593,-5.66796 -2.20313,-7 L 413.10156,567 452.49219,541.9375 c 2.28125,-1.44922 3.03906,-4.40234 1.8125,-6.75781 l 0.0195,-0.008 -21.58203,-41.39062 46.61718,-2.00781 c 2.71094,-0.11328 4.84766,-2.29688 4.96094,-4.96094 l 2.00781,-46.61328 41.39063,21.57031 c 2.53906,1.32031 5.67578,0.33594 7,-2.20312 l 24.82812,-39.01172 25.0625,39.39062 c 1.44922,2.28125 4.40235,3.03906 6.75782,1.81641 l 0.008,0.0156 41.39062,-21.57031 2.00782,46.61719 c 0.11328,2.70703 2.29687,4.84375 4.95703,4.95703 l 46.61719,2.00781 -21.57032,41.39063 c -1.32422,2.53906 -0.33984,5.66797 2.20313,7 L 705.99219,567 Z m -53.65625,-71.09766 -99.4414,99.42578 c -2.03516,2.03125 -5.32422,2.03125 -7.35547,0 -2.03125,-2.03125 -2.03125,-5.32421 0,-7.35546 l 99.4414,-99.42579 c 2.03125,-2.03125 5.32032,-2.03125 7.35547,0 2.02344,2.02344 2.02344,5.32422 0,7.35547 z m -72.45312,20.63282 c 4.59375,-4.59375 7.4414,-10.94141 7.4414,-17.94922 0,-7.00782 -2.84765,-13.35938 -7.4414,-17.94922 -4.59766,-4.59766 -10.94141,-7.4336 -17.95703,-7.4336 -7.00782,0 -13.36329,2.84766 -17.96094,7.4336 -4.59375,4.59765 -7.44141,10.9414 -7.44141,17.94922 0,7.00781 2.84766,13.36328 7.44141,17.94922 4.59765,4.59765 10.94531,7.4375 17.96094,7.4375 7.0039,0.008 13.35937,-2.83985 17.95703,-7.4375 z m -32.94922,-17.94922 c 0,-4.13672 1.67578,-7.88672 4.38672,-10.59375 2.71093,-2.71094 6.46093,-4.38672 10.60547,-4.38672 4.13671,0 7.89453,1.67578 10.60156,4.38672 2.71094,2.70703 4.38672,6.45703 4.38672,10.59375 0,4.13672 -1.67578,7.88672 -4.38672,10.59765 -2.70703,2.70703 -6.45703,4.38672 -10.60156,4.38672 -4.13672,0 -7.89454,-1.67969 -10.60547,-4.38672 -2.71094,-2.71093 -4.38672,-6.46093 -4.38672,-10.59765 z m 89.01562,61.30859 c -7.00781,0 -13.36328,2.84766 -17.95703,7.4375 -4.59765,4.59375 -7.44531,10.94141 -7.44531,17.94922 0,7.00781 2.84766,13.35937 7.44531,17.94922 4.59375,4.59375 10.94141,7.43359 17.95703,7.43359 7.00782,0 13.36328,-2.84765 17.95703,-7.43359 4.59766,-4.59766 7.44532,-10.94141 7.44532,-17.94922 0,-7.00781 -2.84766,-13.36328 -7.44532,-17.94922 -4.59375,-4.58984 -10.94921,-7.4375 -17.95703,-7.4375 z m 10.60547,35.99609 c -2.71094,2.71094 -6.46094,4.38672 -10.60547,4.38672 -4.13672,0 -7.89453,-1.67578 -10.60547,-4.38672 -2.70703,-2.70703 -4.38671,-6.45703 -4.38671,-10.59375 0,-4.13671 1.67968,-7.88671 4.38671,-10.59765 2.71094,-2.70703 6.46094,-4.38672 10.60547,-4.38672 4.13672,0 7.89453,1.67969 10.60547,4.38672 2.70703,2.71094 4.38672,6.46094 4.38672,10.59765 0,4.12891 -1.67969,7.87891 -4.38672,10.59375 z m 0,0"
       fill-opacity="1"
       fill-rule="nonzero"
       id="path40" />
  </g>
</svg>
