<?xml version="1.0" encoding="UTF-8" standalone="no"?>
<svg
   width="667.4408"
   zoomAndPan="magnify"
   viewBox="0 0 500.5806 307.29291"
   height="409.72388"
   preserveAspectRatio="xMidYMid"
   version="1.0"
   id="svg41"
   sodipodi:docname="Дизайн без названия (7).svg"
   xmlns:inkscape="http://www.inkscape.org/namespaces/inkscape"
   xmlns:sodipodi="http://sodipodi.sourceforge.net/DTD/sodipodi-0.dtd"
   xmlns="http://www.w3.org/2000/svg"
   xmlns:svg="http://www.w3.org/2000/svg">
  <sodipodi:namedview
     id="namedview41"
     pagecolor="#ffffff"
     bordercolor="#000000"
     borderopacity="0.25"
     inkscape:showpageshadow="2"
     inkscape:pageopacity="0.0"
     inkscape:pagecheckerboard="0"
     inkscape:deskcolor="#d1d1d1">
    <inkscape:page
       x="0"
       y="0"
       width="500.5806"
       height="307.29291"
       id="page2"
       margin="0"
       bleed="0" />
  </sodipodi:namedview>
  <defs
     id="defs12" />
  <g
     id="g46"
     transform="translate(-850.03197,-388.56905)">
    <path
       fill="#8ec544"
       d="m 1315.082,416.16016 34.2539,127.84375 c 5.3204,19.84765 -6.4765,40.26171 -26.3125,45.57812 L 931.13672,694.58594 c -19.83203,5.3164 -40.25391,-6.46485 -45.57422,-26.31641 L 851.30859,540.42969 c -5.32031,-19.85157 6.47657,-40.26563 26.3086,-45.57813 L 1269.5078,389.84375 c 19.832,-5.3125 40.2539,6.46484 45.5742,26.31641 z m -16.2734,4.35937 c -2.9141,-10.875 -14.0859,-17.33984 -24.9492,-14.42969 L 881.97266,511.09766 c -10.86329,2.91015 -17.30469,14.09375 -14.39063,24.96875 l 34.25391,127.84375 c 2.91406,10.875 14.08593,17.33984 24.94922,14.42968 L 1318.6719,573.33203 c 10.8633,-2.91016 17.3047,-14.09375 14.3906,-24.96875 z m -350.54298,122.05078 -1.85546,-6.92187 26.58593,-7.125 6.48438,24.20703 c 0.16406,0.59765 0.64844,2.89844 -2.9336,3.85937 -2.03125,0.54688 -2.94531,-0.49609 -4.01171,-2.125 -5.69922,-8.82422 -13.32813,-13.03906 -24.26954,-11.89453 z m -16.11328,78.17578 -16.74218,-62.46875 c -1.1836,-4.42187 -1.25391,-5.17187 -5.77344,-5.35547 -1.67188,-0.0703 -3.03906,-0.84765 -3.48438,-2.51562 -0.92578,-3.45313 2.9336,-4.75781 3.42188,-4.88672 l 31.46875,-8.43359 20.3164,75.83203 c 1.17969,4.40625 1.25,5.15625 5.77344,5.35547 1.67188,0.0508 3.03906,0.84765 3.48828,2.51562 0.92188,3.45313 -2.9375,4.73828 -3.42578,4.8711 l -33.72656,9.03515 c -0.48828,0.12891 -4.47656,0.94922 -5.40234,-2.5039 -0.44532,-1.66797 0.33984,-3.04297 1.76171,-3.92188 3.81641,-2.4375 3.50391,-3.12109 2.32422,-7.52344 z m 88.17576,-90.58203 16.7422,62.46875 c 1.1797,4.40235 1.25,5.15235 5.7735,5.35547 1.6679,0.0508 3.039,0.84766 3.4843,2.51563 0.9258,3.45312 -2.9375,4.73828 -3.4258,4.86718 l -33.7461,9.04297 c -0.4687,0.125 -4.457,0.94531 -5.3828,-2.50781 -0.4453,-1.66797 0.3203,-3.03516 1.7618,-3.92188 3.8164,-2.4375 3.5039,-3.12109 2.3242,-7.52343 l -16.73831,-62.47266 c -1.18359,-4.41797 -1.2539,-5.16797 -5.77343,-5.35156 -1.69532,-0.0664 -3.03907,-0.85156 -3.48829,-2.51953 -0.92187,-3.45313 2.9336,-4.75391 3.40235,-4.87891 l 33.74608,-9.04297 c 0.4883,-0.1289 4.4805,-0.92969 5.4063,2.52344 0.4453,1.66797 -0.3438,3.02344 -1.7618,3.92187 -3.8203,2.41797 -3.5078,3.10157 -2.3242,7.52344 z m -61.26169,52.70703 -1.98829,-7.40625 c 4.65625,-2.64062 5.66797,-7.89843 5.53125,-12.72656 0.0469,-2.17578 0.25,-4.26953 2.77344,-4.94531 3.67969,-0.98438 4.23828,3.46094 4.4961,4.41015 l 6.89843,25.75391 c 0.25782,0.95313 1.9961,5.08203 -1.6875,6.06641 -2.52343,0.67578 -3.74218,-1.03516 -4.8789,-2.91016 -2.28907,-4.23047 -5.79297,-8.28125 -11.14453,-8.24219 z m 114.74219,-67.67968 48.8242,55.78125 c 1.6367,1.87109 2.4766,3.05859 5.0508,3.63671 1.8945,0.38672 3.4062,0.75 3.9844,2.90235 1.0195,3.80469 -3.6407,5.05078 -6.3867,5.78515 l -27.7657,7.44141 c -2.8672,0.76953 -8.0742,2.80859 -9.2539,-1.59766 -0.8008,-2.98437 3.2969,-3.95703 2.5352,-6.80859 -0.5781,-2.15234 -1.5352,-2.79297 -2.8789,-4.46875 l -47.4883,-53.73047 c -2.2266,-2.60156 -2.6914,-3.37109 -5.9883,-4.27734 -1.668,-0.44531 -2.7461,-0.65625 -3.2617,-2.57422 -1.1484,-4.28906 3.5703,-5.30469 6.6641,-6.13281 l 27.5429,-7.37891 c 2.9883,-0.80078 7.625,-2.04297 8.711,2.00781 0.8632,3.22266 -3.0743,3.25782 -2.2422,6.35938 0.3867,1.43359 1.039,2.01172 1.9531,3.05469 z m 18.5508,13.42578 -5.5274,-6.31641 0.8633,-3.92969 c 0.7461,-2.50781 1.6602,-4.79297 0.9922,-7.29297 -0.7695,-2.87109 -2.5742,-3.90625 -5.2969,-4.46484 -1.7695,-0.41797 -3.2617,-0.78516 -3.8047,-2.80469 -0.2226,-0.83593 -0.1367,-1.89453 0.3204,-2.64062 0.9453,-1.66797 2.5234,-1.96485 4.1914,-2.41406 l 15.9882,-4.28125 c 1.9141,-0.51172 5.7461,-1.41407 6.5157,1.45312 0.6718,2.50391 -1.1172,3.875 -2.7774,5.33984 -3.3359,3.32422 -4.8945,6.55079 -6.2812,10.89063 z m -23.4688,35.42968 5.6836,6.39844 -1.1992,4.14453 c -0.7266,2.50391 -2.5977,7.47266 -1.8672,10.21094 1.5391,5.73828 8,1.69922 9.2774,6.46875 0.3476,1.30078 -0.2539,2.875 -1.1719,3.76563 -1.0235,0.89843 -3.6758,1.48437 -4.8789,1.80859 l -13.9531,3.73828 c -2.2579,0.60547 -5.9922,1.48047 -6.8204,-1.625 -0.6054,-2.25 0.7696,-3.38672 2.3477,-4.57812 3.7422,-2.79297 5.0586,-5.44922 6.4687,-9.78125 z M 1115.5,494.30859 c -0.9258,-3.45312 2.9336,-4.7539 3.4219,-4.88281 l 31.4687,-8.43359 23.8946,89.17578 -31.4688,8.43359 c -0.4883,0.12891 -4.4766,0.94922 -5.4023,-2.5039 -0.4453,-1.66797 0.3398,-3.04297 1.7617,-3.92188 3.8164,-2.4375 3.5039,-3.12109 2.3242,-7.52344 l -16.7383,-62.47265 c -1.1875,-4.41797 -1.2578,-5.16797 -5.7734,-5.35157 -1.6758,-0.0703 -3.0391,-0.85156 -3.4883,-2.51953 z m 42.1133,-7.83203 -1.8555,-6.92187 26.586,-7.125 6.4882,24.20312 c 0.1602,0.60156 0.6446,2.90235 -2.9336,3.86328 -2.0156,0.53907 -2.9453,-0.5 -4.0156,-2.125 -5.6797,-8.83203 -13.3242,-13.03906 -24.2695,-11.89453 z m 22.039,82.25391 -1.8476,-6.90625 c 9.3398,-3.78906 14.9648,-12.32422 15.625,-22.72656 0.3555,-2.00782 0.5781,-4.10547 2.7109,-4.67969 3.8242,-1.02344 4.418,2.64453 4.5469,3.1289 l 6.3867,23.83594 z m -11.2382,-41.95313 -1.9844,-7.40625 c 4.6523,-2.64062 5.6836,-7.90625 5.5273,-12.72656 0.07,-2.18359 0.2735,-4.27344 2.7735,-4.94531 3.7031,-0.99219 4.2422,3.45703 4.4961,4.41015 l 6.8984,25.75391 c 0.2578,0.95313 2.0156,5.07422 -1.6875,6.06641 -2.5,0.67187 -3.7227,-1.03907 -4.8789,-2.91016 -2.2695,-4.23828 -5.793,-8.28125 -11.1445,-8.24219 z m 66.332,-60.96875 -1.8555,-6.92187 c 20.2188,-5.66797 40.9102,3.85937 50.5742,34.23828 8.8321,27.66797 -6.8867,49.63281 -26.6796,54.9375 l -1.8477,-6.90625 c 7.0273,-2.90234 5.5469,-9.80078 4.3359,-14.32031 l -13.6093,-50.79297 c -1.2149,-4.53906 -3.3789,-11.23438 -10.918,-10.23438 z m -7.2227,-5.48437 23.8946,89.17578 -30.2696,8.10937 c -2.6211,0.70313 -5.6757,1.27344 -6.6015,-2.17968 -0.4453,-1.66797 0.3398,-3.04297 1.7617,-3.92188 3.8164,-2.4375 3.5039,-3.12109 2.3242,-7.52344 l -16.7383,-62.47265 c -0.4843,-1.80078 -1.0976,-5.06641 -3.5468,-5.17969 -2.6055,-0.19531 -4.9805,0.0469 -5.7813,-2.94141 -0.8281,-3.08593 2.0664,-4.2539 4.4453,-4.89062 z m 0,0"
       fill-opacity="1"
       fill-rule="evenodd"
       id="path41" />
  </g>
</svg>
