<?xml version="1.0" encoding="UTF-8" standalone="no"?>
<svg
   width="591.60419"
   zoomAndPan="magnify"
   viewBox="0 0 443.70314 443.70308"
   height="591.60413"
   preserveAspectRatio="xMidYMid"
   version="1.0"
   id="svg133"
   sodipodi:docname="Курс_Финансовая_грамотность_для_детей_10_13_лет_4.svg"
   xmlns:inkscape="http://www.inkscape.org/namespaces/inkscape"
   xmlns:sodipodi="http://sodipodi.sourceforge.net/DTD/sodipodi-0.dtd"
   xmlns="http://www.w3.org/2000/svg"
   xmlns:svg="http://www.w3.org/2000/svg">
  <sodipodi:namedview
     id="namedview133"
     pagecolor="#ffffff"
     bordercolor="#000000"
     borderopacity="0.25"
     inkscape:showpageshadow="2"
     inkscape:pageopacity="0.0"
     inkscape:pagecheckerboard="0"
     inkscape:deskcolor="#d1d1d1">
    <inkscape:page
       x="0"
       y="0"
       width="443.70312"
       height="443.70309"
       id="page2"
       margin="0"
       bleed="0" />
  </sodipodi:namedview>
  <defs
     id="defs130">
    <clipPath
       id="f457179d16">
      <path
         d="M 297.67969,0.101562 H 741.38281 V 443.80469 H 297.67969 Z m 0,0"
         clip-rule="nonzero"
         id="path130" />
    </clipPath>
  </defs>
  <g
     id="g134"
     transform="translate(-297.67968,-0.101562)">
    <g
       clip-path="url(#f457179d16)"
       id="g133">
      <path
         fill="#2b8388"
         d="m 513.67969,0.101562 c 41.125,0 74.46484,33.339844 74.46484,74.464844 0,41.125004 -33.33984,74.464844 -74.46484,74.464844 -41.125,0 -74.46485,-33.33984 -74.46485,-74.464844 0,-41.125 33.33594,-74.464844 74.46485,-74.464844 z m 7.39843,384.636718 v 59.3125 h 20.87891 v -43.9375 c 0,-4.08594 3.3125,-7.39844 7.39844,-7.39844 4.08594,0 7.39844,3.3125 7.39844,7.39844 v 43.9375 h 22.32031 v -56.89453 c 0,-14.16406 -12.28125,-22.37109 -26.53125,-26.17188 l -3.79688,5.32813 c -6.75,9.48047 -16.45703,16.30859 -27.66797,18.42578 z m -14.80078,0 C 495.03125,382.61719 485.30469,375.75 478.55078,366.23047 l -3.71875,-5.24219 c -14.23047,3.90625 -26.55078,11.98828 -26.55078,26.16797 v 56.89453 h 22.31641 v -43.9375 c 0,-4.08594 3.3164,-7.39844 7.40234,-7.39844 4.08594,0 7.39844,3.3125 7.39844,7.39844 v 43.9375 h 20.8789 z m 26.26953,-27.59375 c 1.38282,0.17578 2.76563,0.37109 4.14844,0.58203 -5.63672,7.91406 -13.85937,12.90235 -23.01562,12.90235 -9.1836,0 -17.42188,-5.01172 -23.0586,-12.96094 1.36328,-0.21094 2.72657,-0.40235 4.08985,-0.57422 5.83984,3.02734 12.26953,4.68359 18.96875,4.68359 6.66015,0 13.05078,-1.64062 18.86718,-4.63281 z m -33.67968,-54.86719 -11.15625,28.22657 c 5.60156,9.2539 14.73828,16.47656 25.96875,16.47656 11.11718,0 20.19531,-7.08594 25.80859,-16.21875 L 529.47266,304.4375 c -9.98047,1.12891 -20.82422,0.23047 -30.60547,-2.16016 z m -120.11328,18.76953 h -33.72266 c 1.03906,4.62891 5.19531,8.11329 10.125,8.11329 H 368.625 c 4.92969,0 9.08594,-3.48438 10.12891,-8.11329 z m -44.36719,-22.91015 c 1.03906,4.6289 5.19531,8.11328 10.1289,8.11328 h 34.75391 c 4.92969,0 9.08594,-3.48438 10.12891,-8.11328 -0.0352,0 -0.0664,0 -0.0977,0 z m -9.98047,-20.75781 c 1.66406,3.51562 5.25391,5.96093 9.38281,5.96093 h 55.51172 c 4.12891,0 7.71484,-2.44531 9.38281,-5.96093 0.32422,-0.67969 0.57422,-1.40235 0.74219,-2.15235 h -75.76562 c 0.17187,0.75 0.42187,1.47266 0.74609,2.15235 z m 121.51953,12.0664 c 4.00781,0.76563 6.63281,4.63281 5.86719,8.64063 -0.76563,4.00781 -4.63281,6.63281 -8.64063,5.86718 l -4.5,-0.86328 26.34375,26.34766 c 2.89063,2.89062 2.89063,7.57422 0,10.46484 -2.88672,2.88672 -7.57031,2.88672 -10.46093,0 l -26.34766,-26.34765 0.86328,4.5 c 0.76563,4.00781 -1.85937,7.8789 -5.86719,8.64453 -4.00781,0.76562 -7.875,-1.86328 -8.64062,-5.86719 l -5.35938,-27.97266 c -1.09765,-5.10937 3.375,-9.80468 8.60938,-8.80468 z m 75.15234,-59.17578 c 0,4.08594 -3.3125,7.39844 -7.39843,7.39844 -4.08985,0 -7.40235,-3.3125 -7.40235,-7.39844 v -37.29297 l -2.58203,3.8125 c -2.28515,3.36719 -6.86719,4.2461 -10.23437,1.96485 -3.36719,-2.28516 -4.2461,-6.86329 -1.96485,-10.23047 l 15.9961,-23.57422 c 2.82812,-4.37891 9.30078,-4.53125 12.28515,-0.12891 l 16.08203,23.70313 c 2.28125,3.36718 1.40235,7.94922 -1.96484,10.23047 -3.36719,2.28125 -7.94922,1.40234 -10.23437,-1.96485 l -2.58204,-3.80859 z m 51.74219,109.63281 c -2.88672,2.88672 -7.57422,2.88672 -10.46094,0 -2.89062,-2.89062 -2.89062,-7.57422 0,-10.46484 l 26.34766,-26.34766 -4.5,0.86328 c -4.00781,0.76563 -7.87891,-1.85937 -8.64453,-5.86718 -0.76563,-4.00782 1.86328,-7.87891 5.86719,-8.64453 l 28.13281,-5.38672 c 5.23828,-1 9.71094,3.69531 8.60937,8.80468 l -5.35546,27.96875 c -0.76563,4.00782 -4.63672,6.63282 -8.64454,5.86719 -4.0039,-0.76562 -6.63281,-4.63281 -5.86718,-8.64062 l 0.86328,-4.5 z m -27.65234,-99.32812 c 7.41406,5.26953 18.47656,46.38672 1.48437,67.40234 l -7.97656,-20.96484 c -12.88281,5.78125 -35.76172,2.91797 -48.33594,-3.41406 l -9.63672,24.3789 L 474.5,282.75 c -3.08594,-12.55859 5.63281,-21.375 18.30859,-21.375 h 2.30078 c 0,-2.46875 0.73047,-8.26172 6.94922,-8.26172 h 29.09766 c 5.34766,-0.004 14.60156,-3.13281 14.01172,-12.53906 z m -183.625,-125.21484 c 35.27344,0 63.86719,28.59374 63.86719,63.86718 0,34.4336 -21.35547,33.44141 -25.41407,81.20313 h -20.02343 v -58.4961 h 7.4414 c 12.2461,0 22.23828,-9.99218 22.23828,-22.23828 0,-12.24609 -9.99218,-22.24219 -22.23828,-22.24219 -12.24609,0 -22.24219,9.9961 -22.24219,22.24219 v 7.44141 h -7.25781 v -7.44141 c 0,-12.24609 -9.99219,-22.24219 -22.23828,-22.24219 -12.24609,0 -22.24219,9.9961 -22.24219,22.24219 0,12.2461 9.9961,22.23828 22.24219,22.23828 h 7.44141 v 58.4961 h -20.02735 c -4.05468,-47.76172 -25.41015,-46.76953 -25.41015,-81.20313 0,-35.27344 28.59375,-63.86718 63.86328,-63.86718 z m 3.6289,145.07031 v -58.4961 h -7.25781 v 58.4961 z m -22.05468,-73.29297 v -7.44141 c 0,-4.07812 -3.36328,-7.4414 -7.44141,-7.4414 -4.07812,0 -7.44141,3.36328 -7.44141,7.4414 0,4.07813 3.36329,7.44141 7.44141,7.44141 z m 36.85547,0 h 7.4414 c 4.07813,0 7.44141,-3.36328 7.44141,-7.44141 0,-4.07812 -3.36328,-7.4414 -7.44141,-7.4414 -4.07812,0 -7.4414,3.36328 -7.4414,7.4414 z m 295.54296,-58.52344 -5.10156,-13.2539 h -15.8125 L 649.5,128.61328 c -8.87109,1.74609 -17.11328,5.23438 -24.35938,10.09766 l -12.98828,-5.76563 -11.18359,11.17969 5.76953,12.98828 c -4.86328,7.24219 -8.35547,15.48828 -10.09766,24.35938 l -13.2539,5.10156 v 15.8125 l 13.2539,5.10156 c 1.74219,8.87109 5.23047,17.11719 10.09766,24.36328 l -5.76953,12.98438 11.18359,11.18359 12.98828,-5.76953 c 7.2461,4.86328 15.48829,8.35547 24.35547,10.09766 l 5.10547,13.2539 h 15.8125 l 5.10156,-13.2539 c 8.8711,-1.74219 17.11719,-5.23047 24.36329,-10.09766 l 12.98437,5.76953 11.18359,-11.18359 -5.76953,-12.98828 c 4.86328,-7.24219 8.35547,-15.48829 10.09766,-24.35547 l 13.25391,-5.10547 v -15.8125 L 728.375,181.47266 c -1.74219,-8.8711 -5.23438,-17.11719 -10.09766,-24.36329 l 5.76563,-12.98437 -11.17969,-11.18359 -12.98828,5.76953 c -7.24609,-4.86328 -15.48828,-8.35157 -24.35938,-10.09766 z m -13.00781,27.75391 c 21.05078,0 38.11328,17.0625 38.11328,38.11328 0,21.05078 -17.0625,38.11328 -38.11328,38.11328 -21.05078,0 -38.11328,-17.0625 -38.11328,-38.11328 0,-21.05078 17.0625,-38.11328 38.11328,-38.11328 z M 542.42187,49.085938 c -4.07812,-9.71875 -11.85156,-15.335938 -20.39062,-17.5 -0.31641,-0.07813 -0.63672,-0.15625 -0.95313,-0.226563 v -3.914063 c 0,-4.085937 -3.3125,-7.398437 -7.39843,-7.398437 -4.08594,0 -7.39844,3.3125 -7.39844,7.398437 v 4.023438 c -12.39063,2.863281 -22.02344,12.601562 -21.37891,25.929688 0.75782,15.546874 14.10157,21.960937 27.66016,24.183593 6.58984,1.082031 16.5625,3.277344 17.53125,11.285157 0.0625,0.5 0.0937,0.835937 0.0977,1.015624 0.15625,6.515628 -7.83594,9.054688 -13.07032,9.691408 -1.03906,0.125 -1.92187,0.19531 -2.64453,0.21484 -7.42969,0.17578 -15.5664,-3.125 -17.51953,-10.953122 -0.97266,-3.957032 -4.97266,-6.378907 -8.92969,-5.40625 -3.96093,0.976562 -6.3789,4.972656 -5.40625,8.933593 2.89844,11.613279 12.2461,19.097659 23.66016,21.417969 v 3.91016 c 0,4.08593 3.3125,7.39843 7.39844,7.39843 4.08593,0 7.39843,-3.3125 7.39843,-7.39843 v -3.76563 c 12.60938,-2.23437 24.1875,-10.33984 23.85547,-24.386718 -0.0234,-0.929687 -0.0742,-1.738281 -0.15625,-2.40625 -1.93359,-15.9375 -15.8164,-21.8125 -29.84375,-24.117187 -5.78515,-0.949219 -14.9375,-3.066406 -15.28906,-10.308594 -0.30078,-6.207031 4.94531,-9.878906 10.45313,-10.988281 7.66796,-1.542969 15.53515,1.585938 18.68359,9.089844 1.58203,3.765625 5.91797,5.539062 9.68359,3.960937 3.76563,-1.582031 5.53907,-5.917969 3.95703,-9.683593 z m 0,0"
         fill-opacity="1"
         fill-rule="evenodd"
         id="path132" />
    </g>
  </g>
</svg>
