<svg width="57" height="50" viewBox="0 0 57 50" fill="none" xmlns="http://www.w3.org/2000/svg">
<path d="M15.3336 2.46694C5.46691 6.73361 0.533577 14.2003 0.400243 25.0003C0.26691 34.3336 4.93358 42.4669 12.6669 46.8669C20.5336 51.2669 32.9336 50.4669 40.0002 45.1336C46.0002 40.4669 49.8669 32.3336 50.0002 24.3336C50.0002 19.2669 50.5336 17.9336 53.7336 15.9336C57.3336 13.5336 57.3336 13.5336 54.0002 14.3336C47.6002 16.0669 40.6669 21.8003 33.0669 31.5336C22.5336 45.0003 17.3336 47.0003 13.8669 38.7336C12.9336 36.4669 10.8002 32.8669 8.93358 30.8669C5.20024 26.3336 5.73358 23.4003 10.8002 22.2003C13.7336 21.4003 15.0669 21.9336 17.4669 24.7336C19.0669 26.6003 20.6669 29.0003 20.9336 29.9336C21.3336 31.1336 23.6002 29.8003 27.6002 26.0669C30.9336 23.0003 36.2669 18.8669 39.4669 17.0003C42.6669 15.0003 45.6002 13.1336 45.8669 12.8669C47.3336 11.6669 41.4669 5.66695 36.2669 3.13361C29.4669 -0.199722 21.8669 -0.333055 15.3336 2.46694Z" fill="black"/>
</svg>
