<svg width="94" height="92" viewBox="0 0 94 92" fill="none" xmlns="http://www.w3.org/2000/svg">
<mask id="mask0_151_302" style="mask-type:luminance" maskUnits="userSpaceOnUse" x="1" y="0" width="92" height="92">
<path d="M1 0H92.2708V91.2708H1V0Z" fill="white"/>
</mask>
<g mask="url(#mask0_151_302)">
<mask id="mask1_151_302" style="mask-type:luminance" maskUnits="userSpaceOnUse" x="1" y="0" width="92" height="92">
<path d="M46.6354 0C21.4323 0 1 20.4323 1 45.6354C1 70.8385 21.4323 91.2708 46.6354 91.2708C71.8385 91.2708 92.2708 70.8385 92.2708 45.6354C92.2708 20.4323 71.8385 0 46.6354 0Z" fill="white"/>
</mask>
<g mask="url(#mask1_151_302)">
<path d="M1 0H92.2708V91.2708H1V0Z" fill="#723BCF"/>
</g>
</g>
<mask id="mask2_151_302" style="mask-type:luminance" maskUnits="userSpaceOnUse" x="12" y="39" width="65" height="46">
<path d="M12.0371 39.875H76.2038V84.7083H12.0371V39.875Z" fill="white"/>
</mask>
<g mask="url(#mask2_151_302)">
<path fill-rule="evenodd" clip-rule="evenodd" d="M26.0065 61.6302C26.0065 61.6302 26.2201 65.4323 26.1888 65.8646C26.1107 66.901 26.1471 69.9844 26.0951 71.026C25.9596 73.9219 25.319 78.6458 24.9961 81.6406C24.9076 82.4688 24.8346 83.776 24.8034 84.5729C24.8034 84.6198 24.8034 84.6615 24.7982 84.7083H64.6263C64.7148 83.5833 64.7305 81.474 64.7669 80.9115C64.9544 78.0781 64.7773 74.3125 64.7773 73.0156C64.7773 71.3802 64.8138 69.6667 64.9284 68.6094C65.0482 67.5469 65.4232 65.1563 65.4232 65.1563C65.4232 65.1563 66.1888 68.3177 66.2044 68.349C66.5378 69.1302 66.543 69.9323 67.0169 70.6406C67.3503 71.1354 68.9648 71.224 68.9648 71.224L67.6888 68.1563C67.6888 68.1563 70.1628 64.9271 72.1628 64.2656C72.694 64.0885 73.3034 64.099 73.7982 63.8281C74.0638 63.6823 74.5794 63.5781 74.5794 63.5781C74.5794 63.5781 75.0221 62.2708 75.2826 61.6094C76.1523 59.3802 76.6732 56.8698 75.5534 54.651C73.2201 50.0052 68.6888 47.0156 64.319 44.5365C62.3607 43.4219 60.1159 42.3958 57.9128 41.849C56.5534 41.5104 55.6315 41.2031 54.2565 40.9583C53.7721 40.8698 52.5326 39.9531 52.5326 39.9531C52.5326 39.9531 50.8503 41.5938 50.444 41.974C49.4336 42.9219 48.4596 43.7031 47.1784 44.2865C44.8451 45.349 42.3346 44.849 40.1471 43.6615C38.9492 43.0104 36.7773 41.0417 36.7773 41.0417C36.7773 41.0417 33.6159 41.8073 32.0846 42.0625C30.5586 42.3177 28.1576 42.5885 26.3971 43.2396C23.6315 44.2604 20.9492 46.2083 18.8086 46.9063C16.8242 47.5469 15.2617 47.8229 15.2617 47.8229L14.8711 49.3125C14.8711 49.3125 15.6159 50.9063 15.8503 51.901C16.0638 52.8177 16.1159 53.724 16.2878 54.651C16.5378 55.9792 17.293 60.2135 17.293 60.2135L12.0586 62.7656C12.0586 62.7656 12.6471 63.8438 13.2201 64.474C13.7305 65.026 14.2096 65.1406 14.5326 65.1615C17.1003 65.3333 20.6836 63.9115 23.1159 63.1875C23.8659 62.9635 26.0065 61.6302 26.0065 61.6302Z" fill="#FEF3F1"/>
</g>
<mask id="mask3_151_302" style="mask-type:luminance" maskUnits="userSpaceOnUse" x="0" y="18" width="32" height="47">
<path d="M0 18.2136H31.9948V64.8802H0V18.2136Z" fill="white"/>
</mask>
<g mask="url(#mask3_151_302)">
<path fill-rule="evenodd" clip-rule="evenodd" d="M14.8171 49.2292C14.8171 49.2292 15.6296 46.276 16.0879 44.9739C16.7598 43.0365 17.2963 41.5417 18.2858 39.7396C18.6817 39.0208 19.4629 38.3594 20.1088 37.8229C21.1713 36.9427 22.3171 37.3125 23.6973 37.1302C24.9525 36.9635 26.3744 36.375 26.7858 36.3489C27.6504 36.3021 28.9681 36.3594 29.4369 35.9531C29.739 35.6823 29.8744 35.4479 29.8431 35.0625C29.8223 34.8021 29.6713 34.3125 29.6713 34.3125C29.6713 34.3125 30.3119 33.9271 30.5306 33.3073C30.7963 32.5312 30.0567 31.9479 30.0567 31.9479C30.0567 31.9479 30.7442 31.0937 30.7806 30.6042C30.8327 29.8854 29.7442 29.2656 29.7442 29.2656C29.7442 29.2656 30.2754 28.9219 30.5671 28.4375C30.7286 28.1667 30.8015 27.7135 30.7129 27.5833C30.2963 26.9479 29.3067 26.7708 28.489 26.5C27.5306 26.1823 26.5931 25.7917 25.6452 25.7396C25.0723 25.7083 23.0827 26.1823 23.0827 26.1823C23.0827 26.1823 23.0046 25.6458 23.0254 25.1562C23.0463 24.5208 23.1661 23.8802 23.1765 23.7604C23.239 23.0573 23.4786 21.5573 23.0671 20.2604C22.8952 19.7239 22.4004 18.8489 21.7286 18.9896C21.14 19.1146 21.4004 21.0677 21.2338 21.875C20.9161 23.4219 20.1192 24.9792 19.39 26.4844C18.7858 27.7344 18.2806 28.9427 17.6556 30.0781C16.4265 32.3021 14.6452 33.8646 13.0306 35.9844C11.1765 38.4167 9.3796 41.0312 8.68168 42.0521C7.36918 43.9531 5.61918 46.6406 4.48897 48.8542C3.31189 51.1667 1.6973 54.0885 1.15043 56.7969C0.921261 57.9219 0.624387 58.8437 0.869179 59.9896C1.02022 60.6771 1.04626 61.4948 1.4421 62.0729C1.83793 62.6458 2.1348 63.0989 2.7546 63.4739C5.34835 65.0469 9.42647 63.7135 11.9525 62.7708C13.6765 62.1302 17.2911 60.2187 17.2911 60.2187C17.2911 60.2187 17.5515 58.7344 17.6817 57.3333C17.7598 56.4948 17.8067 54.9739 17.5775 53.651C17.4213 52.7812 17.1088 52.0989 16.7338 51.3958C16.3067 50.6042 14.8171 49.2292 14.8171 49.2292Z" fill="#FFE2C9"/>
</g>
<path fill-rule="evenodd" clip-rule="evenodd" d="M36.5939 41.1875C36.5939 41.1875 37.4741 40.7031 38.021 39.4219C38.2397 38.901 38.4637 38.0625 38.5366 37.0781C38.6252 35.8229 38.5262 34.4531 38.5262 34.4531C38.5262 34.4531 37.5679 33.1823 37.2033 32.3646C36.8387 31.5625 36.3595 29.224 36.3595 29.224C36.3595 29.224 35.5575 29.224 35.1043 28.8437C34.3387 28.1979 33.8439 27.4375 33.6772 26.4896C33.5991 26.0521 33.6304 25.3854 33.8022 24.9479C34.0002 24.4375 34.1877 24.1302 34.7033 23.9375C35.146 23.7708 35.6772 23.8229 35.9481 23.4583C37.4429 21.4167 38.3335 19.1406 40.3283 17.5052C41.1772 16.8073 41.9533 16.2604 42.9325 15.7396C46.5731 13.8125 52.9168 13.2083 54.9585 17.6667C55.5262 18.9062 55.6772 20.4635 55.5106 21.8021C55.3752 22.8958 55.1147 25.8125 55.1147 25.8125C55.1147 25.8125 56.0783 26.0781 56.3491 26.5052C56.7866 27.1927 56.4481 28.0156 56.3439 28.8021C56.2345 29.6094 55.3647 30.4687 54.5991 30.8698C53.87 31.2552 53.2397 31.1979 53.2397 31.1979C53.2397 31.1979 52.7241 32.2552 52.4325 32.7708C52.0054 33.5104 51.3387 34.2031 51.3387 34.2031C51.3387 34.2031 51.1095 37.1042 51.3595 38.0937C51.5835 38.974 52.6356 39.9948 52.6356 39.9948C52.6356 39.9948 51.495 41.5573 51.0991 41.9896C49.2502 44.026 46.5939 45.1354 43.9116 45.4531C42.5262 45.6146 40.6825 45.1615 39.4533 44.401C37.9689 43.474 36.5939 41.1875 36.5939 41.1875Z" fill="#FFE2C9"/>
<path fill-rule="evenodd" clip-rule="evenodd" d="M67.5371 68.2813C67.5371 68.2813 68.459 70.3334 69.1257 71.5C69.6986 72.5104 70.6882 73.7604 71.5163 74.5834C71.9017 74.9688 73.1309 75.9375 73.6152 76.1875C74.5632 76.6719 75.0163 76.9948 76.1152 76.8854C76.7611 76.8229 77.5475 76.5052 78.0684 76.1511C80.1257 74.7604 81.334 72.9167 82.3392 70.7448C83.4173 68.4115 83.6361 65.7188 83.8392 62.9323C83.9694 61.0782 84.1621 59.1094 84.3652 57.4479C84.6257 55.3073 84.9329 53.0729 85.3861 50.9479C85.5632 50.1198 85.7611 49.0938 86.5892 48.2813C88.11 46.7969 90.5059 45.7084 91.2767 43.8021C91.5215 43.1875 90.5319 41.8854 90.5319 41.8854C90.5319 41.8854 90.7038 41.1979 90.6621 40.6198C90.6413 40.3125 90.5215 39.9792 90.5215 39.9792C90.5215 39.9792 90.9069 39.2552 91.0423 38.9479C91.3132 38.3438 91.1621 37.9271 91.1621 37.9271C91.1621 37.9271 92.6829 36.9636 92.6829 36.3646C92.6829 35.849 91.2611 35.3021 90.9954 35.3125C89.7246 35.3646 88.9486 35.6094 87.6777 35.6094C87.3444 35.6094 86.3288 35.7552 86.0527 35.9636C85.5215 36.3594 85.2663 37.849 85.0892 38.3802C84.4694 40.2292 83.735 42.0313 82.9642 43.8177C81.9746 46.1146 81.1413 48.4532 80.3288 50.8177C79.7246 52.5834 79.3079 54.6302 78.2507 56.2031C77.5736 57.2188 75.9798 58.9479 75.9798 58.9479C75.9798 58.9479 75.6152 60.5782 75.3652 61.4271C75.2142 61.9323 74.61 63.5209 74.61 63.5209C74.61 63.5209 73.36 63.4219 73.11 63.4636C72.4694 63.5573 71.7819 63.9011 71.1152 64.3907C70.4538 64.8802 69.3236 66.0938 68.5215 67.0104C68.1986 67.375 67.5371 68.2813 67.5371 68.2813Z" fill="#FFE2C9"/>
<mask id="mask4_151_302" style="mask-type:luminance" maskUnits="userSpaceOnUse" x="51" y="10" width="43" height="51">
<path d="M51.9961 10.2136H93.7044V60.8802H51.9961V10.2136Z" fill="white"/>
</mask>
<g mask="url(#mask4_151_302)">
<path fill-rule="evenodd" clip-rule="evenodd" d="M64.9857 11.2552L93.6471 19.599L88.8919 35.4115C88.8919 35.4115 88.3398 35.5573 87.8346 35.6302C86.9961 35.75 86.1367 35.6771 86.0117 36.1927C85.8815 36.7084 86.3086 36.9584 86.8451 37.2032C87.6419 37.5573 88.7721 37.5782 88.7721 37.5782C88.7721 37.5782 87.8138 37.9063 87.0221 38.1771C85.9388 38.5469 84.9128 38.9219 84.7201 39.3386C84.5742 39.6615 85.043 40.1094 85.6888 40.2917C86.4648 40.5105 87.4648 40.4323 87.4648 40.4323C87.4648 40.4323 86.7773 40.8438 86.0586 41.25C85.3763 41.6355 84.668 42.0052 84.5013 42.4219C84.069 43.4896 85.5326 43.6146 85.5326 43.6146C85.5326 43.6146 85.069 44.1615 85.2044 44.5365C85.3398 44.9115 86.0742 45.1042 86.0742 45.1042L81.5117 60.6667L52.9336 52.4844L64.9857 11.2552Z" fill="white"/>
</g>
<path fill-rule="evenodd" clip-rule="evenodd" d="M46.8021 31.8177C46.8021 31.8177 46.1354 31.7917 45.3385 31.7552C44.8802 31.7344 43.5156 31.5573 43.0677 31.4844C42.8542 31.4479 41.9688 31.2448 41.9688 31.2448C41.9688 31.2448 42.1198 32.5209 42.276 32.7917C42.4531 33.1042 42.8958 33.5469 43.1875 33.7761C44.0885 34.4688 45.5417 33.9427 46.0885 33.3906C46.6406 32.8334 46.8021 31.8177 46.8021 31.8177Z" fill="white"/>
<mask id="mask5_151_302" style="mask-type:luminance" maskUnits="userSpaceOnUse" x="34" y="8" width="24" height="19">
<path d="M34.6621 8H57.3288V26.2135H34.6621V8Z" fill="white"/>
</mask>
<g mask="url(#mask5_151_302)">
<path fill-rule="evenodd" clip-rule="evenodd" d="M35.3541 23.6146C35.0677 22.5677 34.9999 19.2969 35.1562 17.7187C35.2656 16.5573 35.5364 15.5104 35.9791 14.4271C36.4739 13.2135 37.3802 11.9479 38.3281 10.9687C40.0572 9.18748 42.927 8.33331 45.3593 8.38019C46.9374 8.41144 48.0572 8.94789 49.4687 9.41664C50.6302 9.80206 51.7864 10.0312 52.9322 10.4114C54.5625 10.9531 55.8749 12.3125 56.5104 13.8541C57.802 17.0156 57.1302 19.7135 56.3854 22.8333C56.1927 23.6198 55.3437 25.9739 55.3437 25.9739C55.3437 25.9739 54.4218 26.0104 53.9322 25.1198C53.2239 23.8125 52.8489 22.9219 52.6562 21.6094C52.1197 17.9166 51.1302 18.9271 48.3802 19.401C45.8333 19.8437 44.8645 19.0364 42.5729 18.8385C40.2812 18.6406 38.6093 20.8333 37.7447 22.2708C36.8854 23.7031 35.5677 24.3958 35.3541 23.6146Z" fill="#D59169"/>
</g>
<path d="M85.4741 50.7448C85.4584 50.7448 85.4428 50.7448 85.4324 50.7396C85.3439 50.7188 85.2866 50.625 85.3126 50.5365C85.8387 48.4687 86.6564 47.8906 87.8959 47.0156L88.2553 46.7604C89.7032 45.724 91.2189 44.25 91.1355 43.4583C91.073 42.8958 90.7553 42.3177 90.3387 42.026C90.1928 41.9219 89.9689 41.8125 89.7345 41.8698C89.3126 41.9687 88.9272 42.1927 88.3959 42.5104C88.0939 42.6875 87.7501 42.8906 87.3334 43.1094C86.9897 43.2917 86.6564 43.4271 86.3595 43.5469C85.6564 43.8385 85.2918 44.0052 85.323 44.3385C85.3439 44.5313 85.4376 44.6615 85.6095 44.75C86.4845 45.1979 88.9532 44.2917 89.4324 44.0208C89.5105 43.9792 89.6147 44.0052 89.6564 44.0885C89.7032 44.1667 89.6772 44.2656 89.5939 44.3125C89.1407 44.5625 86.5262 45.5937 85.4532 45.0417C85.1824 44.9062 85.0262 44.6719 84.9949 44.3698C84.9324 43.7812 85.5053 43.5417 86.2345 43.2396C86.5209 43.1198 86.8439 42.9896 87.1772 42.8177C87.5887 42.6042 87.9272 42.401 88.2293 42.224C88.7605 41.9063 89.1876 41.6562 89.6564 41.5417C89.9376 41.474 90.2397 41.5521 90.5366 41.7552C91.0209 42.099 91.3959 42.7708 91.4689 43.4271C91.5991 44.6979 88.9793 46.651 88.4532 47.0313L88.0887 47.2865C86.8699 48.151 86.1303 48.6719 85.6355 50.6198C85.6147 50.6927 85.547 50.7448 85.4741 50.7448Z" fill="#5B2714"/>
<path d="M85.4742 43.724C85.0211 43.724 84.6617 43.5885 84.4482 43.3229C84.2294 43.0573 84.1982 42.7031 84.3597 42.3542C84.5888 41.8594 85.1826 41.5417 86.0055 41.1094C86.4169 40.8906 86.8857 40.6406 87.3805 40.3281C87.8649 40.0208 89.5159 39.0677 90.3701 39.6615C90.8388 39.9948 90.9534 40.7083 90.7138 41.7865C90.693 41.875 90.6044 41.9323 90.5159 41.9115C90.4274 41.8958 90.3701 41.8073 90.3909 41.7135C90.594 40.7917 90.5211 40.1771 90.1774 39.9375C89.6357 39.5573 88.469 40.0365 87.5576 40.6094C87.0524 40.9271 86.5784 41.1823 86.1617 41.401C85.3961 41.8073 84.844 42.099 84.6617 42.4948C84.5576 42.724 84.5732 42.9531 84.7034 43.1146C84.9274 43.3854 85.4169 43.4635 86.0263 43.3229C86.1149 43.3021 86.2034 43.3594 86.2242 43.4479C86.2451 43.5365 86.1878 43.625 86.0992 43.6458C85.8753 43.6979 85.6669 43.724 85.4742 43.724Z" fill="#5B2714"/>
<path d="M86.4485 40.552C85.4902 40.552 84.8288 40.2031 84.6152 39.7395C84.459 39.3958 84.584 39.0312 84.9329 38.8177C85.5475 38.4531 86.8965 38.0312 87.9173 37.7448C88.9121 37.4635 90.6517 37.1093 91.1933 37.8541C91.511 38.2916 91.3496 38.9635 90.709 39.9062C90.6569 39.9791 90.5527 40 90.4746 39.9479C90.4017 39.8958 90.3808 39.7968 90.4329 39.7187C90.9694 38.927 91.1413 38.3489 90.9225 38.0468C90.6204 37.6302 89.5319 37.6354 88.011 38.0625C86.5683 38.4687 85.5683 38.8281 85.11 39.1041C84.8965 39.2291 84.8288 39.4062 84.9173 39.5989C85.136 40.0781 86.2142 40.5104 87.9173 39.9687C88.0006 39.9427 88.0996 39.9895 88.1256 40.0781C88.1569 40.1666 88.1048 40.2604 88.0163 40.2864C87.4381 40.4687 86.9121 40.552 86.4485 40.552Z" fill="#5B2714"/>
<path d="M91.1257 38.0834C91.0684 38.0834 91.0163 38.0574 90.9851 38.0053C90.933 37.9324 90.9538 37.8282 91.0319 37.7761C91.3392 37.5782 91.709 37.3178 92.1309 37.0105C92.4069 36.8074 92.5111 36.5834 92.433 36.3386C92.2976 35.8959 91.6205 35.5105 90.9226 35.4844C90.0736 35.4532 89.5215 35.5469 88.8236 35.6615C88.2611 35.7553 87.6257 35.8646 86.683 35.9324C86.4122 35.948 86.2194 36.0365 86.1622 36.1719C86.1153 36.2813 86.1569 36.4324 86.2819 36.5834C86.6309 37.0157 87.8392 37.6303 90.1465 37.1771C90.2351 37.1615 90.3236 37.2188 90.3444 37.3074C90.3601 37.4011 90.3028 37.4896 90.209 37.5053C87.9122 37.9584 86.5163 37.4011 86.0163 36.7917C85.8184 36.5365 85.7559 36.2657 85.8549 36.0365C85.9226 35.8907 86.1101 35.6355 86.6622 35.599C87.584 35.5365 88.2142 35.4324 88.7715 35.3334C89.459 35.2188 90.0528 35.1199 90.9382 35.1511C91.7767 35.1824 92.5736 35.6615 92.7559 36.2449C92.8236 36.4636 92.8601 36.8907 92.3288 37.2761C91.9017 37.5886 91.5267 37.8542 91.2142 38.0574C91.1882 38.073 91.1569 38.0834 91.1257 38.0834Z" fill="#5B2714"/>
<mask id="mask6_151_302" style="mask-type:luminance" maskUnits="userSpaceOnUse" x="51" y="10" width="43" height="51">
<path d="M51.9961 10.2136H93.7044V60.8802H51.9961V10.2136Z" fill="white"/>
</mask>
<g mask="url(#mask6_151_302)">
<path d="M81.5061 60.849C81.4904 60.849 81.4748 60.849 81.4592 60.8438L52.8811 52.6042C52.7925 52.5781 52.7404 52.4896 52.7665 52.401L64.7769 11.1823C64.7925 11.1406 64.8186 11.1042 64.8602 11.0833C64.8967 11.0625 64.9436 11.0573 64.9852 11.0677L93.5686 19.3073C93.6519 19.3333 93.704 19.4219 93.6779 19.5104L89.2665 34.651L89.0217 35.4531C88.9957 35.5417 88.9019 35.5885 88.8134 35.5625C88.73 35.5365 88.6779 35.4427 88.704 35.3542L88.9488 34.5573L93.3134 19.5781L65.0529 11.4323L53.1363 52.3333L81.3915 60.4792L85.8811 45.0833C85.9071 44.9948 85.9957 44.9427 86.0842 44.9688C86.1727 44.9948 86.2248 45.0885 86.1988 45.1771L81.6675 60.7292C81.6467 60.8021 81.579 60.849 81.5061 60.849Z" fill="#5B2714"/>
</g>
<path d="M10.5 59.4323C10.4584 59.4323 10.4167 59.4166 10.3854 59.3854C10.3177 59.3177 10.3177 59.2135 10.3802 59.151C12.3229 57.1771 13.8334 52.026 15.0469 47.8854C15.5938 46.0208 16.1146 44.2552 16.6042 42.9948C18.0886 39.1666 18.8073 38.6041 19.8073 37.8281C19.8906 37.7604 19.9792 37.6979 20.0625 37.625C20.9063 36.9531 21.8438 36.9531 22.6719 36.9479C23.0156 36.9479 23.3386 36.9427 23.6302 36.901C24.1823 36.8125 24.7396 36.6771 25.2761 36.5469C25.7656 36.4271 26.2709 36.3073 26.7709 36.2187C27.0365 36.1719 27.3438 36.151 27.6615 36.1302C28.3906 36.0781 29.2136 36.026 29.4636 35.651C29.6875 35.3125 29.7761 35.0364 29.7292 34.8489C29.6979 34.7396 29.6146 34.651 29.4792 34.5833C29.1771 34.4323 28.9271 34.4271 28.599 34.4323C28.474 34.4271 28.3334 34.4323 28.1875 34.4219L28.0573 34.4114C27.5677 34.3802 26.8281 34.3333 26.1615 34.1146C26.0781 34.0833 26.0313 33.9896 26.0573 33.901C26.0886 33.8125 26.1823 33.7708 26.2709 33.7969C26.8906 34.0052 27.6042 34.0521 28.0781 34.0833L28.2136 34.0885C28.349 34.0989 28.474 34.0989 28.599 34.0989C28.9323 34.0989 29.2552 34.0989 29.6302 34.2864C29.8542 34.3958 29.9948 34.5573 30.0521 34.7656C30.1302 35.0521 30.0261 35.4062 29.7396 35.8333C29.4011 36.3437 28.5313 36.4062 27.6875 36.4635C27.375 36.4844 27.0781 36.5052 26.8334 36.5469C26.3386 36.6302 25.8386 36.7552 25.3542 36.8698C24.8125 37 24.25 37.1354 23.6823 37.2291C23.3646 37.276 23.0313 37.276 22.6719 37.2812C21.8646 37.2812 21.0261 37.2864 20.2709 37.8854C20.1823 37.9531 20.099 38.0208 20.0156 38.0885C19.0573 38.8333 18.3646 39.3698 16.9115 43.1146C16.4271 44.3646 15.9115 46.1198 15.3698 47.9791C14.0781 52.375 12.6198 57.3489 10.6198 59.3802C10.5886 59.4166 10.5417 59.4323 10.5 59.4323Z" fill="#5B2714"/>
<path d="M29.4284 34.5156C29.3607 34.5156 29.2982 34.4739 29.2721 34.4114C29.2409 34.3281 29.2826 34.2291 29.3659 34.1927C30.0534 33.9218 30.3815 33.3385 30.4024 32.8854C30.418 32.5885 30.3034 32.3541 30.0794 32.2396C29.5586 31.9687 28.9753 31.8802 28.3555 31.7864C27.7149 31.6927 27.0482 31.5885 26.4701 31.2708C26.3867 31.2291 26.3607 31.125 26.4024 31.0468C26.4492 30.9635 26.5482 30.9375 26.6315 30.9791C27.1576 31.2708 27.7617 31.3646 28.4024 31.4583C29.0221 31.5521 29.6628 31.651 30.2357 31.9427C30.5742 32.1198 30.7565 32.4687 30.7357 32.901C30.7096 33.4635 30.3138 34.1771 29.4909 34.5052C29.4701 34.5104 29.4492 34.5156 29.4284 34.5156Z" fill="#5B2714"/>
<path d="M29.9225 32.1146C29.8548 32.1146 29.7923 32.073 29.7662 32.0105C29.735 31.9271 29.7767 31.8282 29.8652 31.7969C30.261 31.6407 30.5214 31.2917 30.5787 30.8386C30.6308 30.4219 30.4954 30.0157 30.235 29.8282C29.9277 29.6042 29.6152 29.5417 29.2246 29.4636C28.9433 29.4063 28.6204 29.3438 28.2506 29.2084C27.9537 29.099 27.7089 28.9584 27.4694 28.8282C26.9954 28.5625 26.6204 28.349 26.0423 28.4688C25.9537 28.4896 25.8652 28.4271 25.8444 28.3386C25.8287 28.25 25.886 28.1615 25.9746 28.1459C26.6777 28 27.1412 28.2605 27.636 28.5365C27.86 28.6667 28.0944 28.7969 28.3652 28.8959C28.7142 29.0209 29.0214 29.0834 29.2923 29.1355C29.7037 29.2188 30.0631 29.2917 30.4329 29.5573C30.7923 29.8178 30.9798 30.3386 30.9069 30.8855C30.8339 31.4532 30.4902 31.9063 29.985 32.1042C29.9642 32.1094 29.9433 32.1146 29.9225 32.1146Z" fill="#5B2714"/>
<path d="M29.604 29.4583C29.5415 29.4583 29.479 29.4219 29.453 29.3646C29.4113 29.2812 29.4477 29.1823 29.5311 29.1458C29.5363 29.1406 30.2394 28.8021 30.4894 28.3073C30.5988 28.0885 30.6144 27.8958 30.5363 27.7187C30.2915 27.1719 29.229 26.875 28.7707 26.7448C28.4582 26.6562 28.1405 26.5469 27.828 26.4375C27.0363 26.1615 26.2134 25.875 25.3852 25.9531C24.8019 26.0052 24.2238 26.1406 23.6613 26.2708C23.1717 26.3802 22.6613 26.5 22.1457 26.5677C22.0467 26.5781 21.9425 26.5989 21.8384 26.6146C21.5571 26.6667 21.2602 26.7187 20.9582 26.6719C20.8696 26.6615 20.8071 26.5729 20.8175 26.4844C20.8332 26.3958 20.9165 26.3281 21.0102 26.3437C21.255 26.3802 21.5102 26.3385 21.7759 26.2865C21.8852 26.2708 21.9946 26.25 22.104 26.2344C22.604 26.1719 23.104 26.0573 23.5884 25.9479C24.1613 25.8125 24.7498 25.6771 25.354 25.6198C26.255 25.5365 27.1092 25.8333 27.9425 26.125C28.2446 26.2292 28.5571 26.3385 28.8644 26.4271C29.6873 26.6562 30.5675 26.9739 30.8384 27.5833C30.9634 27.8542 30.9425 28.1458 30.7863 28.4583C30.4894 29.0521 29.7082 29.4271 29.6717 29.4427C29.6509 29.4531 29.6248 29.4583 29.604 29.4583Z" fill="#5B2714"/>
<mask id="mask7_151_302" style="mask-type:luminance" maskUnits="userSpaceOnUse" x="0" y="18" width="24" height="47">
<path d="M0 18.2136H23.9948V64.8802H0V18.2136Z" fill="white"/>
</mask>
<g mask="url(#mask7_151_302)">
<path d="M5.58384 64.3282C3.7401 64.3282 2.35468 63.7292 1.54218 62.5782C0.00571916 60.3907 0.557803 56.3386 3.09947 51.1667C5.89114 45.4844 8.14114 42.4323 10.1203 39.7396C10.6828 38.9844 11.2088 38.2657 11.7193 37.5313C13.1255 35.5 14.1255 34.3438 15.0057 33.323C15.5734 32.6615 16.1099 32.0417 16.688 31.2657C17.6411 29.9844 18.1516 28.8438 18.6463 27.7448C18.9172 27.1355 19.1984 26.5052 19.5474 25.8646C19.9849 25.0677 20.4693 24 20.7505 23.2084C21.0057 22.4948 21.1411 21.8438 21.1672 21.2188C21.1724 21.0886 21.1724 20.9219 21.1724 20.7448C21.1776 19.7136 21.2036 19.0313 21.5266 18.8959C21.8286 18.7709 22.1307 18.7917 22.3911 18.9636C23.1932 19.4844 23.4693 21.2136 23.4745 21.6563C23.4901 22.4844 23.1932 24.7605 23.1828 24.8594C23.1724 25.0886 23.1724 25.7969 23.2661 26.0834C23.2974 26.1719 23.2453 26.2657 23.1568 26.2917C23.0734 26.323 22.9745 26.2709 22.9484 26.1875C22.8182 25.7813 22.8495 24.8698 22.8495 24.8334C22.8547 24.7917 23.1516 22.4636 23.1411 21.6615C23.1359 21.1615 22.8338 19.6511 22.2088 19.2448C22.037 19.1302 21.8599 19.1198 21.6568 19.2032C21.5161 19.3177 21.5109 20.3177 21.5057 20.7448C21.5057 20.9271 21.5057 21.099 21.5005 21.2292C21.4745 21.8907 21.3286 22.5782 21.063 23.323C20.7766 24.125 20.287 25.2136 19.8443 26.0209C19.4953 26.6511 19.2193 27.2761 18.9484 27.8802C18.4484 28.9948 17.9328 30.1563 16.9588 31.4636C16.3703 32.25 15.8286 32.875 15.2557 33.5365C14.3807 34.5521 13.3911 35.7032 11.9901 37.724C11.4797 38.4584 10.9536 39.1771 10.3911 39.9375C8.41718 42.6198 6.17759 45.6563 3.40155 51.3125C0.911969 56.3698 0.354677 60.3021 1.81822 62.3855C2.70884 63.6563 4.30259 64.1771 6.55259 63.9427C10.2297 63.5573 13.8599 61.8438 17.2349 60.0521C17.3182 60.0105 17.4172 60.0365 17.4588 60.1198C17.5057 60.2032 17.4745 60.3021 17.3911 60.3438C13.9901 62.1563 10.3234 63.8855 6.58905 64.2709C6.2401 64.3073 5.90676 64.3282 5.58384 64.3282Z" fill="#5B2714"/>
</g>
<path d="M17.828 24.9792C17.8176 24.9792 17.802 24.974 17.7916 24.974C17.6978 24.9531 17.6457 24.8646 17.6666 24.7708C17.6666 24.7604 17.9791 23.375 17.0937 23.0052C15.9218 22.5156 13.5103 23.0208 12.7187 23.1875C12.3437 23.2656 12.3228 23.2708 12.2499 23.1927C12.2135 23.1563 12.1978 23.099 12.2082 23.0469C12.2291 22.9531 12.2551 22.9427 12.5624 22.8125C14.7082 21.8906 15.8697 21.0417 16.0051 20.2813C16.2187 19.0781 14.4322 17.4375 13.8437 16.8958C13.5885 16.6667 13.5624 16.6406 13.5624 16.5521C13.5624 16.5104 13.5832 16.4635 13.6197 16.4323C13.6978 16.3542 13.7343 16.3698 14.0312 16.474C16.4687 17.3281 18.1666 17.4427 19.0728 16.8229C19.9426 16.2188 20.3176 14.2135 20.0937 11.3073C20.0832 11.1771 20.0832 11.1406 20.1353 11.0833C20.1666 11.0521 20.2135 11.0312 20.2603 11.0312C20.3801 11.0365 20.3957 11.0729 20.5207 11.4219C21.4687 14.0677 22.427 15.5365 23.3697 15.7865C24.1093 15.9844 25.1145 15.5365 26.3489 14.4531C26.4635 14.3542 26.4947 14.3281 26.5312 14.3125C26.5989 14.2812 26.6822 14.2969 26.7343 14.3594C26.8176 14.4635 26.7603 14.5365 26.6562 14.6771C25.7187 15.9375 25.1874 17.0833 25.078 18.0781C24.9687 19.0885 26.328 19.599 26.3385 19.6042C26.427 19.6354 26.4739 19.7292 26.4426 19.8177C26.4062 19.901 26.3124 19.9479 26.2291 19.9167C26.1614 19.8906 24.6093 19.3125 24.7447 18.0417C24.8332 17.2135 25.1926 16.3021 25.8124 15.3177C25.1197 15.8177 24.1562 16.3385 23.2864 16.1094C21.9843 15.7656 20.9999 13.6146 20.4791 12.276C20.5312 14.0469 20.3697 16.3333 19.2603 17.0938C17.953 17.9948 15.5989 17.349 14.3853 16.9479C15.1926 17.7083 16.5468 19.1354 16.3332 20.3438C16.1614 21.2969 14.776 22.1302 13.703 22.6563C14.8072 22.474 16.3072 22.3177 17.2239 22.6979C18.3697 23.1771 18.0051 24.7813 17.9895 24.849C17.9739 24.9271 17.9062 24.9792 17.828 24.9792Z" fill="#5B2714"/>
<path d="M44.5168 37.7656C42.772 37.7656 41.0637 37.1042 39.6001 35.8438C37.4022 33.9479 36.1001 31.0313 36.2095 28.2344C36.2095 28.1459 36.2981 28.0677 36.3814 28.0781C36.4751 28.0781 36.5428 28.1563 36.5428 28.25C36.4387 30.9479 37.6939 33.7604 39.8189 35.5938C41.5533 37.0834 43.647 37.7031 45.7095 37.3229C48.022 36.8959 51.9387 34.7292 53.2303 30.5C53.2564 30.4115 53.3501 30.3594 53.4387 30.3906C53.5272 30.4167 53.5793 30.5052 53.5533 30.5938C52.2147 34.9688 48.1678 37.2084 45.7668 37.6511C45.3501 37.724 44.9335 37.7656 44.5168 37.7656Z" fill="#5B2714"/>
<path d="M36.2035 29.3646C36.1983 29.3646 36.193 29.3646 36.1878 29.3646C34.2868 29.1667 33.4066 27.0156 33.5055 25.5365C33.5472 24.849 33.8597 24.2865 34.3701 23.9531C34.8024 23.6771 35.3493 23.5938 35.766 23.7448C35.8545 23.7761 35.8962 23.8698 35.8649 23.9584C35.8337 24.0417 35.7399 24.0886 35.6514 24.0573C35.3285 23.9375 34.9014 24.0104 34.5524 24.2344C34.1305 24.5104 33.8753 24.9792 33.8389 25.5625C33.7503 26.9063 34.5316 28.8594 36.2191 29.0313C36.3128 29.0417 36.3805 29.125 36.3701 29.2136C36.3597 29.3021 36.2868 29.3646 36.2035 29.3646Z" fill="#5B2714"/>
<path d="M53.5786 31.349C53.5109 31.349 53.4484 31.3438 53.3859 31.3334C53.2974 31.323 53.2349 31.2396 53.2453 31.1459C53.2609 31.0573 53.3494 30.9948 53.438 31.0052C54.313 31.1407 55.8963 29.9167 56.2661 28.5313C56.5005 27.6615 56.464 26.9948 56.1567 26.5938C55.9171 26.2761 55.5005 26.1094 54.9171 26.1042C54.8234 26.1042 54.7505 26.0261 54.7557 25.9375C54.7557 25.8438 54.8286 25.7709 54.9171 25.7709C54.9224 25.7709 54.9224 25.7709 54.9224 25.7709C55.6151 25.7813 56.1203 25.9896 56.4224 26.3907C56.8026 26.8855 56.8546 27.6355 56.589 28.6198C56.214 30.0052 54.6984 31.349 53.5786 31.349Z" fill="#5B2714"/>
<path d="M35.7399 26.823C35.6878 26.823 35.6357 26.7969 35.6044 26.75C35.4638 26.5469 35.2294 26.2292 35.1461 26.1667C35.0732 26.1094 35.0576 26.0052 35.1149 25.9323C35.1721 25.8594 35.2763 25.849 35.3492 25.9011C35.5055 26.0209 35.818 26.474 35.8805 26.5625C35.9326 26.6407 35.9117 26.7396 35.8336 26.7917C35.8076 26.8125 35.7711 26.823 35.7399 26.823Z" fill="#5B2714"/>
<path d="M44.7869 28.7188C44.74 28.7188 44.6931 28.6979 44.6567 28.6563C44.1931 28.0781 44.1983 27.6302 44.2244 27.4636C44.2661 27.1615 44.4483 26.9792 44.6254 26.8021C44.8702 26.5521 45.1046 26.3229 45.0369 25.7136C45.0265 25.625 45.0942 25.5417 45.1827 25.5313C45.2765 25.5209 45.3598 25.5886 45.3702 25.6771C45.4536 26.4427 45.1254 26.7709 44.8598 27.0365C44.7036 27.1927 44.5786 27.3177 44.5525 27.5052C44.5421 27.6042 44.5265 27.9584 44.9171 28.4531C44.9744 28.5209 44.964 28.6302 44.8911 28.6875C44.8598 28.7084 44.8233 28.7188 44.7869 28.7188Z" fill="#5B2714"/>
<path d="M42.163 31.4271C42.1891 32.0052 42.4286 33.599 44.0901 33.8959C45.8505 34.2084 46.5016 32.5469 46.6734 31.9532C46.2516 31.948 45.2828 31.9271 44.3609 31.8177C43.4443 31.7136 42.5536 31.5157 42.163 31.4271ZM44.5172 34.2657C44.3661 34.2657 44.2047 34.2552 44.0328 34.224C41.7516 33.8177 41.8245 31.2344 41.8245 31.2084C41.8245 31.1563 41.8505 31.1094 41.887 31.0834C41.9286 31.0521 41.9807 31.0417 42.0328 31.0521C42.0432 31.0573 43.1995 31.349 44.3974 31.4896C45.6005 31.6302 46.8766 31.6198 46.887 31.625C46.9391 31.625 46.9859 31.6459 47.0172 31.6823C47.0484 31.724 47.0641 31.7761 47.0536 31.823C47.0484 31.849 46.5172 34.2657 44.5172 34.2657Z" fill="#5B2714"/>
<path d="M42.2615 21.8646C42.2302 21.8646 42.199 21.8594 42.1677 21.8386C41.5479 21.4167 40.4698 21.4584 39.9594 21.7813C39.8813 21.8282 39.7771 21.8021 39.7302 21.7292C39.6781 21.6511 39.7042 21.5469 39.7823 21.5C40.4594 21.0782 41.6833 21.1094 42.3604 21.5625C42.4333 21.6146 42.4542 21.7188 42.4021 21.7917C42.3708 21.8386 42.3188 21.8646 42.2615 21.8646Z" fill="#5B2714"/>
<path d="M51.1732 23.3385C51.1315 23.3385 51.0899 23.3229 51.0534 23.2917C50.4909 22.75 49.5065 22.5729 48.944 22.7552C48.8555 22.7812 48.7617 22.7292 48.7357 22.6458C48.7044 22.5573 48.7565 22.4635 48.8451 22.4375C49.4961 22.2292 50.6159 22.4062 51.2878 23.0521C51.3555 23.1198 51.3555 23.224 51.293 23.2865C51.2565 23.3229 51.2149 23.3385 51.1732 23.3385Z" fill="#5B2714"/>
<mask id="mask8_151_302" style="mask-type:luminance" maskUnits="userSpaceOnUse" x="34" y="8" width="16" height="16">
<path d="M34.6621 8H49.3288V23.5469H34.6621V8Z" fill="white"/>
</mask>
<g mask="url(#mask8_151_302)">
<path d="M35.2665 22.7552C35.1832 22.7552 35.1103 22.6927 35.0999 22.6093C33.9749 14.8958 37.2092 9.29684 43.3499 8.34371C43.9697 8.24996 46.7926 8.03642 48.2457 8.85413C48.3238 8.89579 48.3551 8.99996 48.3082 9.07809C48.2613 9.16142 48.1624 9.18746 48.079 9.14059C46.7093 8.36975 43.9957 8.5833 43.3968 8.67184C37.4593 9.59371 34.3342 15.0468 35.4332 22.5625C35.4436 22.6562 35.3811 22.7395 35.2874 22.75C35.2822 22.7552 35.2717 22.7552 35.2665 22.7552Z" fill="#5B2714"/>
</g>
<path d="M55.7138 24.974C55.6982 24.974 55.6773 24.974 55.6565 24.9635C55.5732 24.9323 55.5263 24.8385 55.5576 24.75C57.9951 18.3698 57.0367 14.7812 55.8076 12.8958C54.7607 11.2812 53.0523 10.2917 51.1253 10.1771C51.0367 10.1719 50.9638 10.0937 50.969 10.0052C50.9742 9.91145 51.0576 9.83854 51.1461 9.84895C53.1826 9.96875 54.9846 11.0104 56.0888 12.7135C57.3596 14.6667 58.3544 18.3594 55.8701 24.8698C55.8492 24.9375 55.7815 24.974 55.7138 24.974Z" fill="#5B2714"/>
<path d="M48.4951 19.4583C48.4013 19.4583 48.3284 19.3854 48.3284 19.2969C48.3232 19.2031 48.3961 19.125 48.4898 19.125C50.4638 19.0833 52.2971 17.3229 52.8648 15.7187C52.8961 15.6354 52.9898 15.5885 53.0784 15.6198C53.1617 15.6458 53.2086 15.7448 53.1773 15.8281C52.6617 17.3073 50.8648 19.4062 48.4951 19.4583Z" fill="#5B2714"/>
<path d="M42.8493 19.6458C42.7659 19.6458 42.6982 19.5886 42.6878 19.5C42.6722 19.4115 42.7399 19.3281 42.8284 19.3177C45.1045 19.0261 47.1982 17.6354 48.2868 15.6823C48.3284 15.6042 48.4326 15.5729 48.5107 15.6198C48.594 15.6615 48.6201 15.7656 48.5784 15.8438C47.4378 17.8854 45.2503 19.3438 42.8753 19.6458C42.8649 19.6458 42.8597 19.6458 42.8493 19.6458Z" fill="#5B2714"/>
<path d="M37.5684 21.5886C37.5059 21.5886 37.4486 21.5521 37.4174 21.4948C37.3809 21.4115 37.4122 21.3125 37.4955 21.2709C38.8497 20.625 40.1518 19.1094 40.9903 17.2084C41.032 17.125 41.1257 17.0834 41.2143 17.1198C41.2976 17.1563 41.3341 17.2553 41.2976 17.3386C40.4278 19.3125 39.0632 20.8907 37.6413 21.573C37.6205 21.5834 37.5945 21.5886 37.5684 21.5886Z" fill="#5B2714"/>
<path d="M53.939 24.2031C53.913 24.2031 53.8817 24.1979 53.8557 24.1771C52.6838 23.4844 52.3973 21.2656 52.4911 19.9427C52.5015 19.8542 52.5901 19.7865 52.6734 19.7917C52.7619 19.7969 52.8348 19.875 52.8244 19.9687C52.7359 21.25 53.0484 23.3125 54.0276 23.8958C54.1057 23.9427 54.1317 24.0417 54.0849 24.125C54.0536 24.1771 53.9963 24.2031 53.939 24.2031Z" fill="#5B2714"/>
<path fill-rule="evenodd" clip-rule="evenodd" d="M48.7082 26.224C48.802 25.8125 49.1509 25.5365 49.4947 25.6094C49.8384 25.6875 50.0468 26.0834 49.953 26.4948C49.8645 26.9115 49.5103 27.1823 49.1666 27.1094C48.8228 27.0365 48.6197 26.6407 48.7082 26.224Z" fill="#5B2714"/>
<path fill-rule="evenodd" clip-rule="evenodd" d="M40.2618 25.3125C40.267 24.8906 40.5587 24.5521 40.9076 24.5573C41.2618 24.5573 41.543 24.9063 41.5378 25.3334C41.5274 25.7552 41.241 26.0938 40.8868 26.0886C40.5378 26.0834 40.2566 25.7396 40.2618 25.3125Z" fill="#5B2714"/>
<path d="M54.3867 28.9323C54.3451 28.9323 54.3034 28.9167 54.2722 28.8854C54.2044 28.8229 54.2044 28.7187 54.2669 28.651C54.3399 28.5729 54.7201 28.1771 54.8919 28.0833C54.9753 28.0417 55.0742 28.0677 55.1211 28.151C55.1628 28.2292 55.1367 28.3333 55.0534 28.375C54.9597 28.4271 54.6784 28.6979 54.5065 28.8802C54.4753 28.9167 54.4284 28.9323 54.3867 28.9323Z" fill="#5B2714"/>
<mask id="mask9_151_302" style="mask-type:luminance" maskUnits="userSpaceOnUse" x="64" y="68" width="2" height="17">
<path d="M64.2969 68.5469H65.2292V84.7083H64.2969V68.5469Z" fill="white"/>
</mask>
<g mask="url(#mask9_151_302)">
<path d="M64.4688 84.7083H64.8021C65.0208 82.724 64.974 80.2969 64.9219 77.7396C64.8646 74.7969 64.8021 71.75 65.1094 68.8438C65.1198 68.75 65.0521 68.6719 64.9635 68.6615C64.8646 68.651 64.7865 68.7188 64.7813 68.8073C64.4688 71.7396 64.5313 74.7917 64.5885 77.75C64.6406 80.3073 64.6875 82.7396 64.4688 84.7083Z" fill="#5B2714"/>
</g>
<mask id="mask10_151_302" style="mask-type:luminance" maskUnits="userSpaceOnUse" x="24" y="54" width="3" height="31">
<path d="M24.4961 54.3021H26.543V84.7084H24.4961V54.3021Z" fill="white"/>
</mask>
<g mask="url(#mask10_151_302)">
<path d="M25.3145 77.0677C25.002 79.6407 24.7103 82.0886 24.6426 84.7084H24.9759C25.0436 82.1042 25.3353 79.6719 25.6478 77.1042C25.9603 74.4896 26.2884 71.7865 26.3874 68.7344C26.4447 67.1042 26.3561 65.0417 26.2624 62.6511C26.1634 60.2292 26.0488 57.4896 26.0488 54.4948C26.0488 54.4063 25.9759 54.3334 25.8822 54.3334C25.7884 54.3334 25.7155 54.4063 25.7155 54.4948C25.7155 57.4948 25.8249 60.2396 25.929 62.6615C26.0228 65.0469 26.1061 67.1042 26.054 68.724C25.9551 71.7605 25.627 74.4584 25.3145 77.0677Z" fill="#5B2714"/>
</g>
<path d="M72.9948 69.599H72.9896C72.8958 69.599 72.8281 69.5209 72.8281 69.4323C72.8698 67.4948 73.5365 65.7813 74.2396 63.974C74.8021 62.5313 75.3802 61.0365 75.724 59.2761C75.7396 59.1875 75.8281 59.125 75.9167 59.1459C76.0104 59.1615 76.0677 59.25 76.0521 59.3386C75.7031 61.1302 75.1198 62.6355 74.5521 64.0938C73.8594 65.875 73.2031 67.5573 73.1615 69.4375C73.1615 69.5261 73.0833 69.599 72.9948 69.599Z" fill="#5B2714"/>
<path d="M75.9124 77.0417C75.5634 77.0417 75.2092 76.9844 74.8394 76.8646C72.7978 76.1979 69.8446 74.1771 67.3707 68.3282C67.3342 68.2448 67.3759 68.1459 67.4592 68.1146C67.5426 68.0782 67.6415 68.1146 67.678 68.2032C70.1051 73.9323 72.9696 75.9063 74.9436 76.5521C76.9696 77.2084 78.6676 75.7032 80.0634 74.1407C82.1363 71.8125 83.2665 68.625 83.6051 64.1042C84.0686 58.0625 84.5113 53.8438 85.4071 50.1511C85.4332 50.0625 85.5217 50.0104 85.6103 50.0261C85.6988 50.0521 85.7561 50.1407 85.7353 50.2292C84.8394 53.8959 84.4019 58.1042 83.9436 64.1302C83.5894 68.7292 82.4384 71.9792 80.3134 74.3594C79.1624 75.6511 77.6676 77.0417 75.9124 77.0417Z" fill="#5B2714"/>
<path d="M56.1421 41.5938C56.1317 41.5938 56.1161 41.5938 56.1057 41.5886C53.9338 41.1302 53.189 40.6407 52.3713 40C51.1369 39.0261 50.6994 36.9115 51.1682 34.2032C51.1838 34.1094 51.2723 34.0521 51.3609 34.0677C51.4546 34.0834 51.5119 34.1667 51.4963 34.2605C51.0484 36.849 51.4442 38.8438 52.5796 39.7396C53.3609 40.3542 54.0744 40.823 56.1734 41.2657C56.2671 41.2865 56.3244 41.375 56.3036 41.4636C56.2879 41.5417 56.2202 41.5938 56.1421 41.5938Z" fill="#5B2714"/>
<path d="M16.4021 47.8438C16.3239 47.8438 16.2562 47.7865 16.2406 47.7084C16.2198 47.6198 16.2771 47.5313 16.3656 47.5157C18.626 47.0313 20.4906 45.9844 22.2927 44.9688C23.7979 44.125 25.2146 43.3334 26.7823 42.8907C28.3552 42.448 30.0062 42.2188 31.6052 41.9948C33.4958 41.7344 35.2771 41.4896 36.5896 40.9219C38.2094 40.2188 38.6312 37.1719 38.3344 34.4636C38.3292 34.3698 38.3917 34.2917 38.4854 34.2813C38.5739 34.2709 38.6573 34.3334 38.6677 34.4271C38.9802 37.2552 38.4958 40.4532 36.725 41.224C35.3656 41.8125 33.5635 42.0625 31.6521 42.3229C30.0635 42.5469 28.4229 42.7709 26.876 43.2084C25.3448 43.6407 23.9437 44.4271 22.4594 45.2605C20.6312 46.2865 18.7458 47.3438 16.4385 47.8386C16.4229 47.8386 16.4125 47.8438 16.4021 47.8438Z" fill="#5B2714"/>
<path d="M43.2812 45.6355C40.4687 45.6355 38.1301 44.1615 36.5155 41.3698C36.4687 41.2917 36.4947 41.1876 36.5728 41.1407C36.6562 41.099 36.7551 41.1251 36.802 41.2032C38.3749 43.9167 40.6509 45.3438 43.3697 45.3021C47.0416 45.2605 51.0103 42.5053 52.4114 39.9532C52.4582 39.8751 52.5572 39.8438 52.6405 39.8907C52.7187 39.9323 52.7499 40.0365 52.7082 40.1146C51.2655 42.7344 47.2864 45.5886 43.3697 45.6355C43.3384 45.6355 43.3072 45.6355 43.2812 45.6355Z" fill="#5B2714"/>
<path d="M14.5896 65.3594C14.5687 65.3594 14.5427 65.3594 14.5219 65.3594C13.6312 65.3178 12.7562 64.474 11.9125 62.8542C11.8656 62.7709 11.8969 62.6719 11.9802 62.6303C12.0635 62.5886 12.1625 62.6198 12.2041 62.7032C12.9802 64.1875 13.7875 64.9948 14.5375 65.0261C15.1156 65.0469 15.7041 64.625 16.2614 63.7553C16.7302 63.0261 17.1416 61.0053 17.3969 58.2188L17.4125 58.0782C17.6104 55.9323 17.8135 53.7084 16.7719 51.7969C16.3812 51.0834 15.4594 49.9896 14.7823 49.3177C14.7198 49.2552 14.7198 49.1459 14.7823 49.0834C14.85 49.0157 14.9541 49.0157 15.0166 49.0834C15.5687 49.6302 16.6156 50.8073 17.0635 51.6407C18.1521 53.6355 17.9385 56.0157 17.7458 58.1094L17.7302 58.2448C17.5791 59.9167 17.2198 62.875 16.5427 63.9323C15.9333 64.8803 15.2771 65.3594 14.5896 65.3594Z" fill="#5B2714"/>
<path d="M14.8865 65.3333C14.8032 65.3333 14.7303 65.2761 14.7199 65.1927C14.7095 65.099 14.772 65.0156 14.8657 65.0052C16.548 64.7917 23.048 63.5469 24.7615 61.9948C24.8293 61.9375 24.9386 61.9375 25.0011 62.0104C25.0584 62.0781 25.0532 62.1823 24.9855 62.2448C23.0845 63.9636 16.1105 65.1823 14.9074 65.3333C14.897 65.3333 14.8918 65.3333 14.8865 65.3333Z" fill="#5B2714"/>
<path d="M68.5622 71.3854C67.8486 71.3854 67.0778 71.1302 66.7601 70.5104C66.4997 70.0104 66.4632 69.1094 67.7601 67.6771C68.0205 67.3854 68.2809 67.0781 68.5518 66.7604C70.1455 64.8802 71.9528 62.7552 74.5622 63.3594C74.6559 63.3802 74.7132 63.4688 74.6872 63.5573C74.6716 63.6511 74.583 63.7031 74.4893 63.6823C72.0778 63.125 70.3382 65.1667 68.807 66.974C68.5361 67.2917 68.2705 67.6042 68.0049 67.8959C67.0986 68.9063 66.7601 69.7813 67.057 70.3594C67.3486 70.9271 68.1872 71.1094 68.8434 71.0365C68.932 71.0261 69.0205 71.0938 69.0309 71.1875C69.0413 71.2761 68.9736 71.3594 68.8799 71.3646C68.7809 71.3802 68.6716 71.3854 68.5622 71.3854Z" fill="#5B2714"/>
<path d="M66.9177 70.6094C66.8552 70.6094 66.7979 70.5729 66.7667 70.5156C66.2614 69.5104 66.0323 68.4167 65.8135 67.3594C65.6364 66.5261 65.4594 65.6667 65.1417 64.8542C65.0271 64.5469 64.8292 64.1094 64.6 63.6094C63.9594 62.1771 63.0739 60.2188 62.6625 58.4219C62.6417 58.3281 62.6989 58.2396 62.7875 58.2188C62.8812 58.1979 62.9698 58.2552 62.9906 58.3438C63.3917 60.1146 64.2667 62.0521 64.9073 63.474C65.1364 63.9792 65.3344 64.4167 65.4542 64.7344C65.7771 65.5729 65.9594 66.4479 66.1417 67.2917C66.3656 68.3802 66.5792 69.4011 67.0635 70.3646C67.1052 70.4479 67.0739 70.5469 66.9906 70.5886C66.9646 70.599 66.9385 70.6094 66.9177 70.6094Z" fill="#5B2714"/>
<path d="M83.0738 21.7605C82.4175 23.349 83.2613 25.2032 84.954 25.8907C85.7717 26.224 86.6675 26.2396 87.4696 25.9271C88.2717 25.6146 88.8863 25.0209 89.204 24.25C89.5217 23.4844 89.5009 22.6303 89.1467 21.849C88.7925 21.0678 88.1467 20.4532 87.329 20.1198C86.8707 19.9323 86.3967 19.8438 85.9071 19.8646C84.6415 19.9011 83.5321 20.6459 83.0738 21.7605ZM86.2665 26.4844C85.7769 26.4844 85.2925 26.3907 84.8238 26.198C82.9644 25.4428 82.0425 23.3959 82.7665 21.6355C83.2717 20.4011 84.5009 19.573 85.8967 19.5313C86.428 19.5105 86.954 19.6094 87.454 19.8125C88.355 20.1771 89.0634 20.8542 89.454 21.7136C89.8446 22.5782 89.8655 23.5209 89.5165 24.3803C89.1623 25.2344 88.48 25.8907 87.5946 26.2344C87.1675 26.4011 86.7144 26.4844 86.2665 26.4844Z" fill="#CC362C"/>
<path d="M86.1305 27.1042C86.1097 27.1042 86.0888 27.099 86.068 27.0938C85.9795 27.0573 85.943 26.9636 85.9743 26.875C86.6409 25.2448 87.7711 23.1615 88.5159 21.7813C88.8753 21.1146 89.1566 20.5886 89.2086 20.4427C88.9847 20.5729 88.5576 20.8802 87.8649 21.5052C86.6253 22.625 84.7191 24.7604 84.7034 24.7813C84.6409 24.8542 84.5368 24.8594 84.4691 24.7969C84.3961 24.7344 84.3909 24.6302 84.4534 24.5625C84.4691 24.5417 86.3857 22.3907 87.6409 21.2604C89.2399 19.8229 89.4378 20 89.5211 20.0729C89.5576 20.1042 89.6566 20.1875 89.5263 20.5521C89.4691 20.7188 89.2034 21.2032 88.8076 21.9375C88.068 23.3073 86.943 25.3854 86.2868 27C86.2607 27.0677 86.1982 27.1042 86.1305 27.1042Z" fill="#CC362C"/>
<path d="M87.8503 25.1719C87.7878 25.1719 87.7305 25.1406 87.6993 25.0833C87.1993 24.0781 85.616 22.9219 85.6003 22.9062C85.5274 22.8542 85.5118 22.75 85.5639 22.6771C85.6212 22.599 85.7253 22.5833 85.7982 22.6406C85.866 22.6875 87.4649 23.8594 88.0014 24.9323C88.043 25.0156 88.0066 25.1146 87.9232 25.1562C87.9024 25.1667 87.8764 25.1719 87.8503 25.1719Z" fill="#CC362C"/>
<path d="M84.4379 22.6563C84.4118 22.6563 84.3858 22.6511 84.365 22.6407C84.2816 22.599 84.2452 22.5 84.2868 22.4167L85.141 20.6875C85.1775 20.6042 85.2816 20.5729 85.365 20.6094C85.4483 20.6511 85.4796 20.75 85.4379 20.8334L84.5889 22.5625C84.5577 22.625 84.5004 22.6563 84.4379 22.6563Z" fill="#CC362C"/>
<path d="M85.5534 22.2448C85.5274 22.2448 85.4961 22.2396 85.4753 22.2292L84.0326 21.4584C83.9492 21.4167 83.9232 21.3178 83.9649 21.2344C84.0065 21.1563 84.1107 21.125 84.1888 21.1667L85.6315 21.9323C85.7097 21.9792 85.7409 22.0782 85.6992 22.1615C85.668 22.2136 85.6107 22.2448 85.5534 22.2448Z" fill="#CC362C"/>
<path d="M83.73 19.0157C83.7144 19.0157 83.6988 19.0157 83.6831 19.0105L73.6623 16.1042C73.5738 16.0782 73.5217 15.9896 73.5477 15.9011C73.5738 15.8125 73.6675 15.7605 73.7561 15.7865L83.7769 18.6928C83.8654 18.7188 83.9175 18.8073 83.8915 18.8959C83.8706 18.9688 83.8029 19.0157 83.73 19.0157Z" fill="#5B2714"/>
<path d="M72.1773 19.2292C72.1617 19.2292 72.146 19.2292 72.1304 19.224L66.4533 17.5782C66.3648 17.5521 66.3127 17.4584 66.3387 17.3698C66.3648 17.2813 66.4585 17.2344 66.5471 17.2605L72.2242 18.9063C72.3127 18.9323 72.3648 19.0209 72.3387 19.1094C72.3179 19.1823 72.2502 19.2292 72.1773 19.2292Z" fill="#5B2714"/>
<path d="M64.9494 19.5469L65.9546 19.8334L66.2203 18.9063L65.2203 18.6146L64.9494 19.5469ZM66.0692 20.2031C66.0536 20.2031 66.038 20.1979 66.0223 20.1979L64.6994 19.8177C64.6109 19.7917 64.5588 19.6979 64.5848 19.6146L64.9442 18.3646C64.9546 18.3229 64.9859 18.2865 65.0223 18.2656C65.064 18.2448 65.1057 18.2396 65.1526 18.25L66.4755 18.6302C66.564 18.6563 66.6109 18.75 66.5901 18.8386L66.2255 20.0834C66.2151 20.125 66.189 20.1615 66.1473 20.1823C66.1213 20.1979 66.0953 20.2031 66.0692 20.2031Z" fill="#5B2714"/>
<path d="M64.2925 21.6458L65.2925 21.9323L65.5581 21.0052L64.5581 20.7188L64.2925 21.6458ZM65.4071 22.3021C65.3915 22.3021 65.3759 22.3021 65.3602 22.2969L64.0373 21.9167C63.9488 21.8958 63.8967 21.8021 63.9227 21.7136L64.2821 20.4688C64.2977 20.4271 64.3238 20.3906 64.3654 20.3646C64.4019 20.3438 64.4488 20.3386 64.4904 20.3542L65.8134 20.7344C65.9019 20.7552 65.954 20.849 65.9279 20.9375L65.5686 22.1823C65.5529 22.224 65.5269 22.2604 65.4904 22.2813C65.4644 22.2969 65.4331 22.3021 65.4071 22.3021Z" fill="#5B2714"/>
<path d="M63.5901 23.8073L64.5953 24.0937L64.8609 23.1667L63.8609 22.8802L63.5901 23.8073ZM64.7098 24.4635C64.6942 24.4635 64.6786 24.4635 64.663 24.4583L63.3401 24.0781C63.2515 24.0521 63.1994 23.9635 63.2255 23.875L63.5848 22.625C63.6005 22.5833 63.6265 22.5469 63.6682 22.526C63.7046 22.5052 63.7515 22.5 63.7932 22.5156L65.1161 22.8906C65.2046 22.9167 65.2567 23.0104 65.2307 23.0989L64.8713 24.3437C64.8557 24.3854 64.8296 24.4219 64.788 24.4427C64.7619 24.4583 64.7359 24.4635 64.7098 24.4635Z" fill="#5B2714"/>
<path d="M69.5953 27.8958C69.5796 27.8958 69.564 27.8958 69.5484 27.8906L63.8713 26.2448C63.7828 26.2188 63.7307 26.125 63.7567 26.0365C63.7828 25.9479 63.8765 25.901 63.9651 25.9271L69.6421 27.5729C69.7307 27.599 69.7828 27.6875 69.7567 27.776C69.7359 27.849 69.6682 27.8958 69.5953 27.8958Z" fill="#5B2714"/>
<path d="M62.3655 28.2136L63.3655 28.5L63.6363 27.573L62.6363 27.2813L62.3655 28.2136ZM63.4801 28.8698C63.4644 28.8698 63.454 28.8698 63.4332 28.8646L62.1103 28.4844C62.0269 28.4584 61.9748 28.3646 62.0009 28.2813L62.3603 27.0313C62.3707 26.9896 62.4019 26.9532 62.4384 26.9323C62.4748 26.9115 62.5217 26.9063 62.5634 26.9167L63.8915 27.2969C63.9332 27.3073 63.9696 27.3386 63.9905 27.375C64.0113 27.4167 64.0165 27.4584 64.0061 27.5L63.6415 28.75C63.6311 28.7917 63.5998 28.8282 63.5634 28.849C63.5373 28.8646 63.5113 28.8698 63.4801 28.8698Z" fill="#5B2714"/>
<path d="M61.7033 30.3125L62.7085 30.599L62.9742 29.6719L61.9742 29.3855L61.7033 30.3125ZM62.8231 30.9688C62.8075 30.9688 62.7919 30.9688 62.7762 30.9636L61.4533 30.5834C61.3648 30.5625 61.3127 30.4688 61.3387 30.3802L61.6981 29.1355C61.7137 29.0938 61.7398 29.0573 61.7762 29.0365C61.8179 29.0105 61.8596 29.0052 61.9065 29.0209L63.2294 29.3959C63.3179 29.4219 63.37 29.5157 63.344 29.6042L62.9846 30.849C62.969 30.8907 62.9429 30.9271 62.9012 30.948C62.8752 30.9636 62.8492 30.9688 62.8231 30.9688Z" fill="#5B2714"/>
<path d="M61.0061 32.474L62.0113 32.7604L62.2769 31.8333L61.2769 31.5469L61.0061 32.474ZM62.1259 33.1302C62.1102 33.1302 62.0946 33.1302 62.079 33.125L60.7561 32.7448C60.6675 32.7188 60.6154 32.6302 60.6415 32.5417L61.0009 31.2917C61.0113 31.25 61.0425 31.2136 61.079 31.1927C61.1206 31.1719 61.1623 31.1667 61.2092 31.1823L62.5321 31.5573C62.6206 31.5833 62.6727 31.6771 62.6467 31.7656L62.2821 33.0104C62.2717 33.0521 62.2456 33.0886 62.204 33.1094C62.1779 33.125 62.1519 33.1302 62.1259 33.1302Z" fill="#5B2714"/>
<path d="M66.9492 36.5834C66.9336 36.5834 66.918 36.5834 66.9023 36.5782L61.2201 34.9324C61.1315 34.9063 61.0846 34.8126 61.1107 34.724C61.1367 34.6407 61.2253 34.5886 61.3138 34.6147L66.9961 36.2605C67.0846 36.2813 67.1315 36.3751 67.1055 36.4636C67.0846 36.5365 67.0169 36.5834 66.9492 36.5834Z" fill="#5B2714"/>
<path d="M59.7188 36.901L60.7188 37.1875L60.9844 36.2604L59.9844 35.9739L59.7188 36.901ZM60.8333 37.5573C60.8177 37.5573 60.8021 37.5573 60.7865 37.5521L59.4635 37.1719C59.4219 37.1614 59.3854 37.1302 59.3646 37.0937C59.3438 37.0573 59.3385 37.0104 59.349 36.9687L59.7083 35.7187C59.7344 35.6302 59.8281 35.5833 59.9167 35.6042L61.2396 35.9844C61.2813 35.9948 61.3177 36.026 61.3385 36.0625C61.3594 36.1042 61.3646 36.151 61.3542 36.1927L60.9948 37.4375C60.974 37.5104 60.9063 37.5573 60.8333 37.5573Z" fill="#5B2714"/>
<path d="M59.0586 39L60.0586 39.2865L60.3294 38.3594L59.3242 38.073L59.0586 39ZM60.1732 39.6563C60.1576 39.6563 60.1419 39.6563 60.1263 39.6511L58.8034 39.2761C58.7617 39.2605 58.7253 39.2344 58.7044 39.1928C58.6836 39.1563 58.6784 39.1094 58.6888 39.0678L59.0534 37.823C59.0794 37.7344 59.168 37.6823 59.2565 37.7084L60.5794 38.0886C60.6211 38.099 60.6576 38.125 60.6784 38.1667C60.7044 38.2032 60.7096 38.25 60.694 38.2917L60.3346 39.5365C60.3138 39.6094 60.2461 39.6563 60.1732 39.6563Z" fill="#5B2714"/>
<path d="M58.3594 41.1614L59.3594 41.4479L59.6302 40.5208L58.625 40.2343L58.3594 41.1614ZM59.474 41.8177C59.4583 41.8177 59.4427 41.8177 59.4271 41.8125L58.1042 41.4323C58.0625 41.4218 58.026 41.3958 58.0052 41.3541C57.9844 41.3177 57.9792 41.2708 57.9896 41.2291L58.349 39.9843C58.375 39.8958 58.4688 39.8437 58.5573 39.8698L59.8802 40.2448C59.9219 40.2604 59.9583 40.2864 59.9792 40.3229C60 40.3645 60.0104 40.4114 59.9948 40.4531L59.6354 41.6979C59.6146 41.7708 59.5469 41.8177 59.474 41.8177Z" fill="#5B2714"/>
<path d="M78.5781 49.5313C78.5625 49.5313 78.5469 49.5261 78.5313 49.5209L58.7083 43.6147C58.6198 43.5886 58.5729 43.4949 58.599 43.4063C58.625 43.3178 58.7188 43.2709 58.8073 43.297L78.625 49.2032C78.7135 49.2293 78.7656 49.323 78.7396 49.4115C78.7188 49.4845 78.651 49.5313 78.5781 49.5313Z" fill="#5B2714"/>
<path d="M78.1102 50.9271C78.0946 50.9271 78.079 50.9271 78.0634 50.9219L58.2404 45.0105C58.1519 44.9896 58.0998 44.8959 58.1259 44.8073C58.1519 44.7188 58.2456 44.6667 58.3342 44.6928L78.1571 50.6042C78.2457 50.6303 78.2977 50.7188 78.2665 50.8073C78.2457 50.8803 78.1831 50.9271 78.1102 50.9271Z" fill="#5B2714"/>
<path d="M77.62 52.4739C77.6044 52.4739 77.5887 52.4739 77.5679 52.4687L57.7502 46.5624C57.6617 46.5364 57.6096 46.4426 57.6356 46.3541C57.6617 46.2656 57.7554 46.2135 57.844 46.2447L77.6669 52.151C77.7554 52.177 77.8023 52.2708 77.7762 52.3593C77.7554 52.427 77.6877 52.4739 77.62 52.4739Z" fill="#5B2714"/>
<path d="M77.084 54.1094C77.0684 54.1094 77.0527 54.1042 77.0371 54.1042L57.2142 48.1927C57.1257 48.1667 57.0788 48.0781 57.1048 47.9896C57.1309 47.901 57.2246 47.849 57.3132 47.875L77.1309 53.7865C77.2194 53.8125 77.2715 53.901 77.2454 53.9896C77.2246 54.0625 77.1569 54.1094 77.084 54.1094Z" fill="#5B2714"/>
<path d="M79.0113 57.599C78.9956 57.599 78.98 57.5938 78.9644 57.5938L73.2873 55.9479C73.1988 55.9219 73.1467 55.8282 73.1727 55.7396C73.1988 55.6511 73.2925 55.6042 73.3811 55.625L79.0581 57.2709C79.1467 57.2969 79.1988 57.3906 79.1727 57.4792C79.1519 57.5521 79.0842 57.599 79.0113 57.599Z" fill="#5B2714"/>
<path d="M77.3808 22.849C77.3652 22.849 77.3496 22.849 77.334 22.8438L67.3131 19.9375C67.2194 19.9115 67.1725 19.8229 67.1985 19.7344C67.2246 19.6459 67.3131 19.5938 67.4017 19.6198L77.4277 22.5261C77.5162 22.5521 77.5631 22.6406 77.5371 22.7292C77.5162 22.8021 77.4537 22.849 77.3808 22.849Z" fill="#5B2714"/>
<path d="M76.7398 24.9792C76.7242 24.9792 76.7085 24.9792 76.6929 24.974L66.6721 22.0729C66.5835 22.0469 66.5315 21.9531 66.5575 21.8646C66.5835 21.776 66.6773 21.724 66.7658 21.75L76.7867 24.6563C76.8752 24.6823 76.9273 24.776 76.9012 24.8646C76.8804 24.9323 76.8127 24.9792 76.7398 24.9792Z" fill="#5B2714"/>
<path d="M76.1104 27.0885C76.0895 27.0885 76.0791 27.0885 76.0583 27.0833L66.0375 24.1771C65.9489 24.151 65.902 24.0625 65.9229 23.974C65.9541 23.8854 66.0427 23.8333 66.1312 23.8594L76.152 26.7656C76.2406 26.7917 76.2927 26.8802 76.2666 26.9688C76.2458 27.0417 76.1781 27.0885 76.1104 27.0885Z" fill="#5B2714"/>
<path d="M74.7867 31.6511C74.771 31.6511 74.7554 31.6459 74.7398 31.6406L64.719 28.7396C64.6304 28.7136 64.5783 28.6198 64.6044 28.5313C64.6304 28.4427 64.719 28.3959 64.8075 28.4219L74.8335 31.3229C74.9221 31.349 74.969 31.4427 74.9429 31.5313C74.9221 31.6042 74.8596 31.6511 74.7867 31.6511Z" fill="#5B2714"/>
<path d="M74.146 33.7813C74.1304 33.7813 74.1148 33.7813 74.0992 33.7761L64.0783 30.8698C63.9898 30.8438 63.9377 30.75 63.9637 30.6667C63.9898 30.5782 64.0835 30.5261 64.1721 30.5521L74.1929 33.4532C74.2815 33.4792 74.3335 33.573 74.3075 33.6615C74.2867 33.7344 74.219 33.7813 74.146 33.7813Z" fill="#5B2714"/>
<path d="M73.5156 35.8907C73.5 35.8907 73.4844 35.8855 73.4688 35.8803L63.4427 32.9792C63.3542 32.9532 63.3021 32.8594 63.3333 32.7709C63.3594 32.6876 63.4479 32.6355 63.5365 32.6615L73.5573 35.5626C73.6511 35.5886 73.6979 35.6824 73.6719 35.7709C73.6511 35.8438 73.5833 35.8907 73.5156 35.8907Z" fill="#5B2714"/>
<path d="M72.3765 40.3385C72.3609 40.3385 72.3453 40.3333 72.3296 40.3281L62.3088 37.427C62.2203 37.401 62.1682 37.3073 62.1942 37.2187C62.2203 37.1302 62.314 37.0781 62.4026 37.1041L72.4234 40.0104C72.5119 40.0364 72.564 40.1302 72.538 40.2187C72.5119 40.2916 72.4494 40.3385 72.3765 40.3385Z" fill="#5B2714"/>
<path d="M71.7359 42.4688C71.7203 42.4688 71.7046 42.4635 71.689 42.4635L61.6682 39.5573C61.5796 39.5313 61.5276 39.4375 61.5536 39.349C61.5796 39.2604 61.6734 39.2135 61.7619 39.2396L71.7828 42.1406C71.8713 42.1667 71.9234 42.2604 71.8973 42.349C71.8765 42.4219 71.8088 42.4688 71.7359 42.4688Z" fill="#5B2714"/>
<path d="M71.1055 44.5729C71.0898 44.5729 71.0742 44.5729 71.0586 44.5677L61.0326 41.6667C60.944 41.6406 60.8971 41.5469 60.9232 41.4583C60.9492 41.3698 61.0378 41.3177 61.1263 41.3438L71.1471 44.25C71.2409 44.276 71.2878 44.3698 71.2617 44.4583C71.2409 44.526 71.1732 44.5729 71.1055 44.5729Z" fill="#5B2714"/>
<path d="M64.9022 21.7344C64.8761 21.7344 64.8501 21.7292 64.8293 21.7187C64.7095 21.6615 64.6938 21.5781 64.6053 20.8073L64.5793 20.599C64.5688 20.5104 64.6313 20.4271 64.7251 20.4167C64.8136 20.4062 64.9022 20.4687 64.9126 20.5625L64.9386 20.7656C64.9543 20.9479 64.9803 21.151 65.0011 21.3021C65.0845 21.2448 65.1782 21.1771 65.2824 21.099C65.5428 20.9115 65.8449 20.6979 66.0428 20.5729C66.1157 20.5208 66.2199 20.5417 66.272 20.6198C66.324 20.6979 66.3032 20.7969 66.2251 20.849C66.0324 20.974 65.7355 21.1875 65.4803 21.3698C65.2615 21.526 65.074 21.6562 64.9959 21.7083C64.9699 21.7239 64.9334 21.7344 64.9022 21.7344Z" fill="#5B2714"/>
<path d="M63.1159 28.3698C63.1107 28.3698 63.1107 28.3698 63.1107 28.3698C63.0586 28.3646 63.0013 28.3386 62.9701 28.3021C62.7982 28.099 62.7721 27.7709 62.7461 27.448C62.7305 27.2813 62.7201 27.125 62.6888 27.0157C62.6628 26.9323 62.7096 26.8386 62.7982 26.8125C62.8867 26.7865 62.9805 26.8334 63.0065 26.9219C63.0482 27.0625 63.0638 27.2396 63.0794 27.4219C63.0951 27.6146 63.1107 27.823 63.1628 27.9688C63.2773 27.8594 63.4648 27.6511 63.6107 27.4948C63.8763 27.198 64.1315 26.9219 64.2982 26.8073C64.3711 26.7552 64.4753 26.7709 64.5273 26.849C64.5794 26.9219 64.5638 27.0261 64.4909 27.0782C64.3555 27.1719 64.0898 27.4636 63.8607 27.7136C63.3815 28.2396 63.2513 28.3698 63.1159 28.3698Z" fill="#5B2714"/>
<path d="M58.9017 41.349C58.8652 41.349 58.8236 41.3438 58.7923 41.3229C58.6621 41.2396 58.6569 41.0417 58.6569 40.4792C58.6569 40.2552 58.6569 39.9688 58.6361 39.8854C58.6048 39.7969 58.6569 39.7031 58.7455 39.6771C58.834 39.6511 58.9277 39.6979 58.9538 39.7865C58.9902 39.9115 58.9955 40.1354 58.9902 40.4792C58.9902 40.5781 58.9902 40.6979 58.9955 40.8073C59.2819 40.4531 59.8236 39.8334 60.4225 39.3594C60.4955 39.3021 60.5996 39.3125 60.6569 39.3854C60.7142 39.4584 60.7038 39.5625 60.6309 39.6198C59.7923 40.2761 59.0527 41.2709 59.0423 41.2813C59.0267 41.3073 59.0059 41.3229 58.9798 41.3386C58.9538 41.3438 58.9277 41.349 58.9017 41.349Z" fill="#5B2714"/>
<path d="M40.6782 29.2812C40.4699 29.2812 40.2616 29.2604 40.0585 29.2187C38.2616 28.849 37.1053 26.9531 37.4751 24.9896C37.5168 24.7917 37.5689 24.5937 37.6314 24.4062C37.6626 24.3229 37.7616 24.276 37.8449 24.3073C37.9335 24.3385 37.9803 24.4323 37.9491 24.5208C37.8866 24.6875 37.8397 24.8698 37.8032 25.0521C37.4699 26.8385 38.5064 28.5573 40.1262 28.8906C40.8501 29.0417 41.6053 28.8906 42.246 28.4635C42.9699 27.9792 43.4907 27.1823 43.6574 26.2708C43.7043 26.026 43.7251 25.776 43.7199 25.526C43.7199 25.4323 43.7928 25.3594 43.8866 25.3542C43.9855 25.3594 44.0532 25.4271 44.0585 25.5208C44.0637 25.7917 44.0376 26.0625 43.9855 26.3333C43.798 27.3281 43.2303 28.2083 42.4282 28.7396C41.897 29.099 41.2876 29.2812 40.6782 29.2812Z" fill="#5B2714"/>
<path d="M49.2668 30.5261C49.0585 30.5261 48.8553 30.5053 48.647 30.4636C46.8553 30.0938 45.6991 28.198 46.0689 26.2396C46.1001 26.0625 46.1418 25.8907 46.1991 25.7292C46.2303 25.6407 46.3189 25.5938 46.4074 25.6198C46.496 25.6511 46.5428 25.7448 46.5168 25.8334C46.4647 25.9844 46.423 26.1407 46.397 26.3021C46.0585 28.0834 47.1001 29.8073 48.7147 30.1407C49.4387 30.2917 50.1939 30.1355 50.8345 29.7136C51.5637 29.2292 52.0793 28.4271 52.2512 27.5157C52.2876 27.3178 52.3085 27.1094 52.3137 26.9063C52.3137 26.8178 52.3918 26.75 52.4803 26.7448C52.5741 26.7448 52.647 26.823 52.647 26.9115C52.6418 27.1355 52.621 27.3594 52.5793 27.5782C52.3918 28.573 51.8241 29.4532 51.022 29.9896C50.4855 30.3438 49.8814 30.5261 49.2668 30.5261Z" fill="#5B2714"/>
<path d="M46.1457 26.7708C46.1041 26.7708 46.0676 26.7552 46.0312 26.7239C45.5416 26.2864 44.6457 26.0469 43.9687 26.4687C43.8905 26.5156 43.7864 26.4948 43.7343 26.4167C43.6874 26.3385 43.7134 26.2344 43.7916 26.1875C44.6093 25.6771 45.6718 25.9531 46.2551 26.4792C46.328 26.5417 46.328 26.6458 46.2707 26.7135C46.2343 26.75 46.1926 26.7708 46.1457 26.7708Z" fill="#5B2714"/>
<path d="M37.5376 25.724C37.4804 25.724 37.4231 25.6927 37.3918 25.6406L36.5064 24.1354C36.4595 24.0573 36.4908 23.9583 36.5689 23.9115C36.647 23.8646 36.7512 23.8906 36.7981 23.9688L37.6835 25.474C37.7304 25.5521 37.6991 25.6563 37.621 25.7031C37.5949 25.7136 37.5689 25.724 37.5376 25.724Z" fill="#5B2714"/>
<path d="M52.4489 27.7135C52.3916 27.7135 52.3395 27.6875 52.3082 27.6406C52.2561 27.5625 52.277 27.4635 52.3499 27.4115L53.8082 26.4219C53.8864 26.3698 53.9905 26.3906 54.0426 26.4635C54.0947 26.5417 54.0739 26.6458 53.9957 26.6979L52.5426 27.6823C52.5114 27.7031 52.4801 27.7135 52.4489 27.7135Z" fill="#5B2714"/>
</svg>
