<svg width="102" height="102" viewBox="0 0 102 102" fill="none" xmlns="http://www.w3.org/2000/svg">
<mask id="mask0_151_299" style="mask-type:luminance" maskUnits="userSpaceOnUse" x="0" y="0" width="102" height="102">
<path d="M0 0H101.198V101.198H0V0Z" fill="white"/>
</mask>
<g mask="url(#mask0_151_299)">
<mask id="mask1_151_299" style="mask-type:luminance" maskUnits="userSpaceOnUse" x="0" y="0" width="102" height="102">
<path d="M50.599 0C22.6563 0 0 22.651 0 50.599C0 78.5417 22.6563 101.198 50.599 101.198C78.5417 101.198 101.198 78.5417 101.198 50.599C101.198 22.651 78.5417 0 50.599 0Z" fill="white"/>
</mask>
<g mask="url(#mask1_151_299)">
<path d="M0 0H101.198V101.198H0V0Z" fill="#F14E87"/>
</g>
</g>
<mask id="mask2_151_299" style="mask-type:luminance" maskUnits="userSpaceOnUse" x="7" y="9" width="88" height="62">
<path d="M7 9.17535H94.5781V70.5087H7V9.17535Z" fill="white"/>
</mask>
<g mask="url(#mask2_151_299)">
<path d="M93.8233 45.7743C93.6202 44.217 93.2972 42.6233 92.49 41.2743C91.6775 39.9254 90.2608 38.8524 88.6775 38.7899C88.9691 38.1337 89.1045 37.4462 89.0785 36.7274C89.0525 36.0087 88.865 35.3368 88.5212 34.7066C88.1566 34.0504 87.5525 33.4566 86.8181 33.3576C87.0941 32.2691 87.1827 31.1597 87.0837 30.0399C86.9275 28.5243 86.4691 27.1077 85.7035 25.7899C84.9379 24.467 83.9327 23.3681 82.6879 22.4774C82.1827 22.1233 81.6566 21.8108 81.0993 21.5399C79.3129 20.6493 77.4222 20.1962 75.4275 20.1701C75.5056 19.3733 75.4691 18.5868 75.3233 17.8004C75.1775 17.0139 74.9275 16.2691 74.5681 15.5504C74.2139 14.8368 73.7608 14.1858 73.2191 13.5972C72.6775 13.0087 72.0629 12.5035 71.3806 12.0868C70.7243 11.6962 70.0368 11.3733 69.3129 11.1129C68.1566 10.6441 66.9587 10.3629 65.7139 10.2795C63.8077 10.191 61.9275 10.7743 60.2295 11.6389C59.2295 12.1597 58.2452 12.8056 57.615 13.717L57.141 13.7379C56.3858 12.441 55.3493 11.4097 54.0472 10.6545C52.9795 10.0504 51.8285 9.7014 50.6045 9.61286C49.3806 9.51911 48.1931 9.69098 47.0472 10.1233C45.667 10.6701 44.5316 11.5399 43.6462 12.7222L43.0941 12.7118C42.4587 11.9722 41.3858 11.717 40.3962 11.6181C38.0993 11.3837 35.6931 11.6858 33.6931 12.8316C32.1254 13.717 30.8493 15.1597 30.2712 16.8316L29.6983 17.0556C28.8545 16.6285 27.8597 16.5504 26.9066 16.6077C23.2504 16.8108 19.6775 18.9202 17.9795 22.1649C17.391 23.3212 17.0525 24.5504 16.9639 25.8472C16.8806 27.1441 17.0525 28.4045 17.4847 29.6285C15.8858 29.6493 14.3233 30.3368 13.1306 31.3941C11.9222 32.5035 11.0577 33.8368 10.5472 35.3941C10.1983 36.3785 9.98995 37.4254 10.0993 38.4566C10.1983 39.3108 10.4587 40.1077 10.8754 40.8524C9.26599 41.9462 7.91183 44.3264 7.93787 46.2483C7.9587 48.2066 8.80766 50.092 10.0108 51.6441C10.6097 52.4566 11.3493 53.1077 12.2295 53.6024L12.2816 53.7535C11.5629 55.1858 11.5212 57.3212 11.792 58.8941C12.0785 60.5087 12.7816 62.1181 14.0785 63.1233C14.8754 63.7379 15.8389 64.092 16.8077 64.3577C17.8858 64.6545 19.0056 64.8629 20.1202 64.7535C21.2295 64.6441 22.3441 64.191 23.0785 63.3524C23.542 64.4983 24.5108 65.3889 25.6202 65.9514C26.7243 66.5139 27.9639 66.7535 29.1931 66.8837C30.3285 66.9983 31.5004 67.0139 32.5785 66.6441C33.5681 66.3004 34.4743 65.592 34.8493 64.6285L35.1254 64.6702C36.2608 65.8837 37.5941 66.8212 39.1202 67.4931C42.4847 68.9514 47.4275 68.3733 50.0004 66.7639L50.3702 66.7899C51.3181 67.9045 52.5577 68.6545 54.9639 69.0399C55.9014 69.2118 56.8493 69.2743 57.8077 69.2274C60.9535 69.0347 64.141 67.8889 66.266 65.5712L65.9847 65.5556L66.2504 65.4254C67.5889 65.967 68.9847 66.1962 70.4327 66.1181C71.2868 66.066 72.1254 65.9202 72.9483 65.6806C73.5681 65.5243 74.1462 65.2795 74.6931 64.9514C75.167 64.6493 75.7764 64.2587 76.1462 63.8316C76.4014 63.5347 76.6358 63.217 76.8545 62.8889L77.5264 62.8993C77.74 63.0243 77.9639 63.1337 78.1879 63.2327C78.8233 63.5243 79.4795 63.7483 80.1618 63.9045C81.4118 64.1754 82.667 64.217 83.9327 64.0295C86.1983 63.6702 88.1618 62.066 89.1827 60.0295C90.1775 58.0347 90.3077 55.6702 89.7556 53.5087C90.0316 53.3577 90.3077 53.2014 90.5785 53.0452C91.6045 52.4254 92.6254 51.7066 93.2452 50.6806C94.0993 49.2379 94.0316 47.4462 93.8233 45.7743ZM86.6306 34.0399C86.6306 34.0399 86.6306 34.0243 86.6306 34.0191V34.0399ZM75.5733 20.4774L75.4066 20.4045C75.417 20.3316 75.4275 20.2587 75.4327 20.1858L75.5733 20.4774ZM11.292 41.5399L11.2243 41.9514L11.0629 41.1806C11.1358 41.3004 11.2139 41.4201 11.292 41.5399Z" fill="#F9C0C4"/>
</g>
<mask id="mask3_151_299" style="mask-type:luminance" maskUnits="userSpaceOnUse" x="11" y="9" width="84" height="62">
<path d="M11 9.17535H94.5781V70.5087H11V9.17535Z" fill="white"/>
</mask>
<g mask="url(#mask3_151_299)">
<path d="M89.7454 53.5035C90.0267 53.3577 90.3027 53.2014 90.5684 53.04C91.5996 52.4202 92.6204 51.7014 93.235 50.6754C94.11 49.2327 94.0319 47.4358 93.8184 45.7743C93.6152 44.217 93.2923 42.6233 92.485 41.2743C91.6725 39.9202 90.2559 38.8472 88.6725 38.7847C88.9642 38.1337 89.0996 37.4462 89.0736 36.7275C89.0475 36.0087 88.86 35.3368 88.5163 34.7014C88.1517 34.0504 87.5475 33.4514 86.8132 33.3577C87.0892 32.2639 87.1777 31.1597 87.0788 30.0347C86.9225 28.5243 86.4642 27.1077 85.6986 25.79C84.9329 24.4722 83.9329 23.3681 82.6882 22.4775C82.1829 22.1233 81.6569 21.8108 81.0996 21.54C79.3132 20.6493 77.4225 20.1962 75.4277 20.1702C75.5059 19.3733 75.4694 18.5868 75.3236 17.8004C75.1777 17.0139 74.9277 16.2691 74.5684 15.5504C74.2142 14.8368 73.7611 14.1858 73.2194 13.5972C72.6777 13.0087 72.0632 12.5035 71.3809 12.0868C70.7246 11.6962 70.0371 11.3733 69.3132 11.1129C68.1569 10.6441 66.959 10.3629 65.7142 10.2795C64.1152 10.2118 62.5319 10.6077 61.0632 11.2535C60.1934 27.9306 52.6413 55.8681 11.3965 53.066C11.6569 53.2691 11.9329 53.4462 12.2246 53.6025L12.2819 53.7535C11.5632 55.1858 11.5163 57.3212 11.7923 58.8941C12.0788 60.5087 12.7767 62.1181 14.0788 63.1233C14.8704 63.7379 15.8392 64.0868 16.8079 64.3577C17.8809 64.6545 19.0059 64.8629 20.1152 64.7535C21.2298 64.6441 22.3392 64.191 23.0788 63.3525C23.5423 64.4931 24.5111 65.3837 25.6152 65.9462C26.7194 66.5139 27.9642 66.7535 29.1934 66.8785C30.3288 66.9983 31.5007 67.0139 32.5736 66.6441C33.5684 66.2952 34.4694 65.5868 34.8496 64.6233L35.1257 64.6702C36.2611 65.8837 37.5944 66.8212 39.1204 67.4879C42.485 68.9514 47.4277 68.3733 50.0007 66.7639L50.3652 66.79C51.3184 67.9045 52.5579 68.6545 54.959 69.04C55.9017 69.2066 56.8496 69.2691 57.8027 69.2275C60.9486 69.0295 64.1413 67.8837 66.2663 65.566L65.985 65.5556L66.2454 65.4254C67.5892 65.9618 68.985 66.1962 70.4277 66.1181C71.2871 66.0608 72.1257 65.915 72.9486 65.6806C73.5684 65.5243 74.1465 65.2795 74.6934 64.9514C75.1621 64.6441 75.7767 64.2587 76.1413 63.8316C76.4017 63.5295 76.6361 63.217 76.8496 62.8837L77.5267 62.8993C77.7402 63.0243 77.959 63.1337 78.1882 63.2327C78.8236 63.5243 79.4798 63.7483 80.1621 63.9045C81.4121 64.1754 82.6673 64.217 83.9329 64.0243C86.1986 63.665 88.1621 62.066 89.1829 60.0295C90.1725 58.0295 90.2975 55.6702 89.7454 53.5035ZM75.4069 20.4045C75.4173 20.3316 75.4277 20.2587 75.4329 20.1858L75.5736 20.4775L75.4069 20.4045ZM86.6257 34.04C86.6257 34.04 86.6257 34.0243 86.6257 34.0191V34.04Z" fill="#F9AFAF"/>
</g>
<path d="M19.115 32.3785C18.9796 32.2535 18.8286 32.0972 18.6932 31.967C18.6567 31.9358 18.589 31.8629 18.5577 31.8264C18.464 31.717 18.2609 31.467 18.1775 31.3681C18.0734 31.2222 17.8807 30.9462 17.7765 30.7952C16.2192 28.2795 16.0577 24.9879 17.2765 22.2952C19.1202 18.2014 23.9744 15.6493 28.4015 16.4931C28.9327 16.6077 29.4119 16.8264 29.8546 17.1389C29.3702 16.9462 28.8702 16.8368 28.3546 16.816C24.8702 16.7639 21.3442 18.4827 19.2661 21.2274C17.9119 22.9827 17.3234 25.2222 17.4223 27.4254C17.4484 27.7691 17.4848 28.191 17.5473 28.5347C17.563 28.6597 17.589 28.7795 17.6202 28.9045C17.6827 29.2483 17.8077 29.6545 17.9067 29.9931C17.9484 30.0972 18.0682 30.4202 18.1098 30.5243C18.1827 30.7274 18.3338 31.0243 18.4171 31.217C18.4848 31.3368 18.6359 31.6025 18.6984 31.7222C18.8234 31.9462 18.9796 32.1545 19.115 32.3785Z" fill="#D17C7C"/>
<path d="M30.0682 20.0868C29.5526 18.6806 29.5943 17.2952 30.1984 15.9306C31.2245 13.4045 33.7505 11.7014 36.4068 11.2535C38.2036 10.9254 41.5109 10.9931 42.8443 12.3577C42.9797 12.5035 43.0995 12.665 43.1932 12.842C42.912 12.5764 42.5839 12.3837 42.2193 12.2535C41.8651 12.1389 41.4953 12.0608 41.1255 12.0243C39.0786 11.8733 36.9589 12.0816 35.0474 12.8368C32.1151 13.9879 29.8495 16.7952 30.0682 20.0868Z" fill="#D17C7C"/>
<path d="M42.0469 15.4879C42.0625 15.5556 42.1042 15.5764 42.1719 15.5608C42.2813 15.5504 42.3021 15.4306 42.3177 15.3369C42.3594 15.0452 42.4167 14.7535 42.4948 14.4671C43.8333 9.90456 48.9271 7.83685 53.2396 9.65977C55.9323 10.7587 57.9583 13.5035 58.1563 16.3369C56.9792 12.9254 53.9427 10.3004 50.2969 10.1806C47.1615 9.9931 44.2083 11.8108 42.8073 14.5869L42.651 14.8889C42.5677 15.1129 42.4687 15.3264 42.3542 15.5348C42.2708 15.6441 42.0469 15.6389 42.0469 15.4879Z" fill="#D17C7C"/>
<path d="M57.4017 14.0868C58.1986 12.0972 60.8652 10.7743 62.834 10.1441C65.2142 9.40453 67.4694 9.74307 69.7454 10.6493C70.8704 11.0608 71.8861 11.6545 72.7975 12.4306C75.4954 14.717 76.5163 18.7795 75.0579 21.9514C75.7298 18.6858 74.6152 15.3316 72.0684 13.2743C71.2298 12.6129 70.3132 12.1024 69.3079 11.7379C67.8184 11.1545 66.2559 10.7222 64.6465 10.816C63.0371 10.9149 61.4642 11.4149 59.9746 12.1024C58.9798 12.5608 58.0267 13.1754 57.3965 14.0868H57.4017Z" fill="#D17C7C"/>
<path d="M75.4277 20.1702C78.6777 19.8473 82.2246 21.0139 84.5632 23.3733C87.1882 25.9671 88.3236 29.9514 87.2194 33.4983C86.9746 34.3004 86.6361 35.0556 86.1986 35.7744C85.6257 36.7171 84.9017 37.5244 84.0215 38.1962C86.3913 35.3525 87.2454 31.4931 86.0736 28.0244C84.5059 23.3629 80.209 20.7692 75.4277 20.165V20.1702Z" fill="#D17C7C"/>
<mask id="mask4_151_299" style="mask-type:luminance" maskUnits="userSpaceOnUse" x="85" y="33" width="10" height="22">
<path d="M85.668 33.1754H94.5794V54.5087H85.668V33.1754Z" fill="white"/>
</mask>
<g mask="url(#mask4_151_299)">
<path d="M86.6426 33.3472C87.5332 33.2899 88.304 33.9618 88.7363 34.6806C89.377 35.7483 89.5749 36.8837 89.3249 38.1024C89.2624 38.3993 89.1738 38.6858 89.0592 38.967L88.6842 38.3576C89.2259 38.3629 89.7467 38.4618 90.252 38.6649C92.7624 39.6597 93.9082 42.3004 94.2676 44.7951C94.4342 45.7691 94.5228 46.7431 94.5228 47.7326C94.4707 50.7847 92.9551 52.2639 90.3301 53.5556C89.0384 54.2014 87.5384 54.717 86.0957 54.4097C88.0124 54.4097 89.6686 53.2743 91.1582 52.1962C93.3145 50.6389 93.5905 48.842 93.304 46.3629C93.0905 44.5972 92.804 42.7274 91.7884 41.2274C91.0749 40.191 89.9499 39.3316 88.653 39.2222C88.5801 39.2222 88.5124 39.2014 88.4499 39.1649C88.3822 39.1337 88.3353 39.0816 88.2936 39.0191C88.2572 38.9618 88.2363 38.8941 88.2311 38.8212C88.2259 38.7483 88.2415 38.6806 88.2728 38.6129C88.5645 38.0295 88.7207 37.4097 88.7363 36.7535C88.752 36.1024 88.627 35.4774 88.3665 34.8785C88.0488 34.1597 87.4707 33.4618 86.6374 33.3472H86.6426Z" fill="#D17C7C"/>
</g>
<path d="M76.8594 62.4566C77.6146 62.8941 78.4635 63.1494 79.2969 63.3681C80.125 63.5712 80.9687 63.6702 81.8177 63.6702C82.6563 63.6806 83.474 63.5921 84.2865 63.3889C85.9063 62.9202 87.1979 61.9983 88.1719 60.6285C89.4115 58.9202 89.8646 56.7691 89.8073 54.6806C89.7917 54.2431 89.7552 53.8108 89.7083 53.3681C90.1563 54.4306 90.3802 55.5348 90.3906 56.6858C90.3958 57.8369 90.1823 58.9462 89.75 60.0087C88.7708 62.4046 86.4687 64.2952 83.849 64.5869C82.2135 64.7691 80.6302 64.5452 79.1094 63.915C78.2969 63.54 77.4844 63.1181 76.8594 62.4671V62.4566Z" fill="#D17C7C"/>
<path d="M64.6992 64.6389C67.1784 65.7066 69.819 65.941 72.3763 65.2326C73.0742 65.0764 73.7357 64.8264 74.3607 64.4722C74.8607 64.1545 75.3503 63.8733 75.7513 63.4618C77.1471 61.9722 77.8971 60.1389 78.4701 58.1441C78.543 60.0816 78.0169 62.1545 76.8451 63.7847C76.3867 64.4879 75.668 64.9983 74.9909 65.441C74.2721 65.9097 73.4701 66.1545 72.6628 66.3524C69.9544 67.0451 66.8034 66.4879 64.7044 64.6389H64.6992Z" fill="#D17C7C"/>
<path d="M66.2669 65.566C63.8138 68.9254 58.7878 70.3576 54.793 69.5972C53.5273 69.3837 52.194 68.9618 51.168 68.1337C50.1419 67.3004 49.5221 66.1076 49.1055 64.9254C49.6628 65.5504 50.1784 66.1962 50.7669 66.717C51.3398 67.2326 51.9909 67.6233 52.7148 67.8941C54.2201 68.3889 55.7617 68.6545 57.3451 68.6806C60.5586 68.6389 63.7826 67.7014 66.2669 65.566Z" fill="#D17C7C"/>
<path d="M33.084 61.7535C34.7767 64.066 36.9798 66.0035 39.6517 67.0764C41.5423 67.7847 43.5892 67.9254 45.6257 67.7691C47.2767 67.6129 48.9277 67.2899 50.4017 66.4879C49.7611 67.0712 49.0371 67.5295 48.2298 67.8576C45.4121 69.0087 42.1152 69.217 39.2298 68.1649C36.3913 67.0504 33.985 64.6754 33.084 61.7587V61.7535Z" fill="#D17C7C"/>
<path d="M34.9339 64.3681C34.6995 65.5816 33.6474 66.5087 32.4964 66.9202C31.3453 67.3316 30.0537 67.3473 28.8349 67.2483C26.9703 67.1077 25.0224 66.5608 23.6578 65.2014C23.1787 64.7327 22.8089 64.1858 22.5537 63.566L23.5172 63.7275C23.2047 64.0921 22.8349 64.3941 22.413 64.6337C20.413 65.8056 17.9651 65.3733 15.887 64.6441C13.0849 63.7379 11.7047 61.4358 11.4495 58.6181C11.3193 56.9619 11.4495 55.1754 12.3089 53.7119C11.7203 55.2379 11.7776 56.9514 12.0589 58.5348C12.5484 60.9983 13.7203 62.8889 16.2412 63.6181C17.6891 64.0556 19.3349 64.4306 20.8141 64.04C21.5328 63.8681 22.1422 63.5139 22.6474 62.9775C22.7099 62.9046 22.7932 62.8473 22.887 62.8108C22.9807 62.7796 23.0745 62.7691 23.1787 62.7848C23.2776 62.8004 23.3662 62.8421 23.4443 62.9046C23.5224 62.9671 23.5797 63.0452 23.6162 63.1389C23.8141 63.6233 24.0953 64.0556 24.4547 64.4358C25.6162 65.6546 27.3037 66.1754 28.9443 66.4306C30.637 66.6962 32.4703 66.8056 33.887 65.7275C34.3609 65.3733 34.7099 64.9202 34.9339 64.3681Z" fill="#D17C7C"/>
<path d="M13.7614 54.0556C11.4646 54.2379 9.62082 52.2275 8.5427 50.4306C7.39165 48.4514 6.9229 46.0035 7.9854 43.8994C8.5427 42.7014 9.38124 41.7483 10.501 41.04C10.6573 40.9462 10.8187 40.8629 10.9854 40.79C10.4698 41.2691 10.0271 41.8108 9.6677 42.4098C8.99061 43.5296 8.4802 44.8525 8.4854 46.1389C8.50624 46.7952 8.6104 47.4358 8.7927 48.0608C9.46978 50.3004 11.3135 53.4462 13.7614 54.066V54.0556Z" fill="#D17C7C"/>
<path d="M13.0941 43.8577C11.2243 42.2848 9.41184 40.1493 9.516 37.5764C9.69309 34.316 11.8493 30.8316 15.0785 29.8421C15.5733 29.6858 16.0837 29.5973 16.6045 29.5764C16.9066 29.566 17.2139 29.5816 17.516 29.6233C14.3493 30.1441 12.1358 32.6077 11.1306 35.4827C10.7556 36.5243 10.516 37.6129 10.6514 38.7014C10.891 40.6233 12.1045 42.2431 13.0889 43.8629L13.0941 43.8577Z" fill="#D17C7C"/>
<path d="M20.729 36.8056C19.4165 36.6233 18.0832 37.6389 17.2446 38.5608C16.8644 39.0035 16.5519 39.4879 16.3019 40.0139C14.7082 43.29 16.5988 47.0973 19.9842 48.2848C18.5102 48.0348 17.3123 47.3212 16.3957 46.1493C14.4529 43.7535 14.7446 40.3889 16.8904 38.2275C17.8123 37.3108 19.4009 36.3525 20.729 36.8056Z" fill="#D17C7C"/>
<path d="M27.094 46.7795C25.8961 46.5035 24.7138 46.5556 23.5471 46.9358C22.4117 47.3108 21.344 47.8316 20.3544 48.4931C18.7659 49.566 18.0054 50.9045 17.7867 52.7848C17.6304 53.9462 17.7711 55.0764 18.1929 56.165C18.6617 57.2535 19.4117 58.0973 20.4377 58.7014C22.3752 59.9566 24.8492 60.9514 27.12 60.0191C27.6877 59.8004 28.1825 59.467 28.5992 59.0295C27.8648 60.0191 26.6357 60.566 25.4169 60.691C24.1982 60.816 22.9169 60.5191 21.7815 60.0243C20.6461 59.5295 19.5367 58.9202 18.6565 58.0087C17.3388 56.5973 16.9117 54.566 17.1617 52.7014C17.4013 50.6962 18.3336 49.1389 20.0784 48.0764C21.1304 47.4254 22.2607 46.9462 23.4638 46.6389C24.6877 46.3212 25.9013 46.3681 27.094 46.7795Z" fill="#D17C7C"/>
<path d="M77.3971 27.9879C78.6211 27.9879 79.9388 28.0295 81.0586 28.6076C82.4336 29.3004 83.2721 30.7691 83.5534 32.2431C83.8451 33.9201 83.7826 36.1701 82.8555 37.6389C81.8711 39.2274 80.0013 40.1754 78.1471 40.2379C77.2357 40.2691 76.3451 40.1389 75.4805 39.8368C76.3607 40.0035 77.2409 40.0295 78.1211 39.9254C79.8086 39.7222 81.4701 38.8004 82.3242 37.3264C83.1263 35.9774 83.1784 33.8785 82.944 32.3524C82.7409 31.1076 82.1523 29.8889 81.1211 29.1337C80.0482 28.3472 78.6784 28.1962 77.3867 27.9931L77.3971 27.9879Z" fill="#D17C7C"/>
<path d="M78.7617 39.8056C78.8242 39.8369 78.8867 39.8421 78.9544 39.816C79.2617 39.7535 79.5273 39.5712 79.8503 39.5712C81.2721 39.7848 81.6419 41.9983 81.2878 43.1337C81.1315 43.6858 80.8138 44.2639 80.2878 44.5191C80.8711 43.6025 80.8659 42.5191 80.7096 41.4983C80.5794 40.8837 80.3919 40.1494 79.793 39.8421C79.5326 39.8108 79.2305 39.8994 78.9596 39.8733C78.8919 39.8733 78.7982 39.8629 78.7617 39.8004V39.8056Z" fill="#D17C7C"/>
<path d="M75.6876 35.0087C74.8543 35.6129 73.9741 36.2379 73.4064 37.1024C71.9793 39.3524 72.9012 42.2066 74.8022 43.8785C75.1772 44.2222 75.5782 44.5347 76.0053 44.8108C76.1407 44.8993 76.1824 45.0243 76.1303 45.1754C75.5939 46.6962 74.9949 48.2951 75.297 49.9097C75.5782 51.4045 76.3595 52.5608 77.6407 53.3837C79.4689 54.5347 81.9272 54.3837 83.6824 53.1024C83.4949 53.2743 83.2918 53.4306 83.0834 53.5764C82.3543 54.0556 81.5522 54.342 80.6824 54.441C78.2241 54.7431 75.9272 53.2951 75.0001 51.0347C74.1303 49.0608 74.8126 46.8576 75.5366 44.9618L75.6616 45.3264C74.7293 44.7274 73.9532 43.9774 73.3282 43.0764C72.073 41.3004 71.8334 38.7222 73.1824 36.9358C73.8387 36.0712 74.7709 35.5243 75.6876 35.0035V35.0087Z" fill="#D17C7C"/>
<path d="M79.2454 29.6077C79.6934 29.816 80.0944 30.0816 80.4538 30.4097C80.8184 30.7431 81.1204 31.1181 81.3652 31.54C81.61 31.9618 81.7819 32.4097 81.8913 32.8837C81.9954 33.3577 82.0267 33.842 81.985 34.3264C81.8704 35.6025 81.4329 36.9514 80.3809 37.7743C79.4798 38.5087 78.4538 38.7847 77.3027 38.6129V38.5504C78.3132 38.3941 79.2038 37.9775 79.959 37.29C80.5475 36.7483 80.9746 36.1025 81.2507 35.3577C81.3027 35.1806 81.3652 34.9983 81.4069 34.8212C81.485 34.4618 81.5371 34.092 81.5527 33.717C81.6152 32.0608 80.6465 30.5191 79.2194 29.665L79.2454 29.6077Z" fill="white"/>
<path d="M59.4062 64.6077C60.1146 64.8629 60.8281 64.8889 61.5521 64.691C62.9844 64.3316 64.349 64.0087 65.1667 62.6962C65.5521 62.066 65.875 61.4046 66.1406 60.7119C66.1146 61.4931 65.9375 62.2379 65.6042 62.9462C65.0677 64.0921 63.9844 64.7379 62.776 64.9879C61.6198 65.2431 60.3802 65.4254 59.4062 64.6077Z" fill="#D17C7C"/>
<path d="M46.0638 62.4566C45.9857 62.4358 45.9128 62.415 45.8398 62.3941L45.8815 62.3108C46.9701 62.7119 48.0794 63.2119 49.2044 63.3525C49.7669 63.4098 50.319 63.3681 50.8659 63.2327C51.4388 63.0869 51.9753 62.8629 52.4805 62.5608C51.7565 63.5869 50.3919 64.1077 49.1419 63.9827C48.5117 63.9098 47.9128 63.7171 47.3503 63.415C46.7982 63.1441 46.293 62.8056 45.8346 62.3941C45.7982 62.3785 45.793 62.3525 45.819 62.3212C45.8398 62.2952 45.8607 62.2952 45.8815 62.3212C45.9388 62.3681 46.0013 62.415 46.0638 62.4619V62.4566Z" fill="#D17C7C"/>
<path d="M19.6829 38.1962C18.2923 39.5295 17.3965 41.6389 18.136 43.5087C18.334 44.0399 18.5475 44.5764 18.7715 45.0972C19.0215 45.6649 19.3027 46.2014 19.5319 46.7847L19.4537 46.8576C19.0683 46.6441 18.7194 46.3837 18.4069 46.0764C17.7402 45.441 17.3131 44.6754 17.1204 43.7743C16.8496 42.3993 17.084 41.1129 17.834 39.9149C18.3027 39.1858 18.9017 38.5868 19.6308 38.1129L19.6933 38.1962H19.6829Z" fill="white"/>
<path d="M19.4642 51.1701C19.2819 53.0451 19.5215 55.1545 20.7872 56.6181C21.4851 57.3889 22.4694 57.7587 23.4174 58.1076C24.2403 58.3837 25.0788 58.5347 25.9174 58.7587V58.8629C25.2872 59.0712 24.6413 59.1701 23.9747 59.1545C22.9903 59.1649 22.0892 58.8837 21.2819 58.3212C19.9382 57.3576 19.1882 55.7899 19.0684 54.1754C18.9851 53.1493 19.0788 52.1389 19.3549 51.1441L19.459 51.1701H19.4642Z" fill="white"/>
<path d="M10.7135 44.1545C10.5885 45.1597 10.6771 46.1493 10.9896 47.1181C11.2969 48.0868 11.7969 48.9462 12.4844 49.6962C13.0312 50.2795 13.5312 50.8733 14.0729 51.4722C14.3542 51.7847 14.6354 52.092 14.901 52.4358L14.8437 52.5243C14.625 52.4774 14.4167 52.4149 14.2083 52.3368C13.1458 51.9358 12.2864 51.2691 11.6458 50.3368C10.9479 49.2222 10.4114 47.9774 10.3177 46.6597C10.2344 45.7951 10.3333 44.9514 10.6094 44.1285L10.7135 44.1597V44.1545Z" fill="white"/>
<path d="M13.459 56.0087C13.5684 58.0087 14.3392 60.2066 16.2142 61.165C16.36 61.2431 16.5215 61.2952 16.6725 61.3577L17.0736 61.4827C18.1777 61.7483 19.2923 61.9254 20.4277 61.9983C20.6725 62.0139 20.9225 62.0347 21.1777 62.0764L21.1934 62.1806C19.9434 62.8056 18.3757 63.0191 17.0111 62.5816C15.8288 62.1754 14.8965 61.441 14.2246 60.3889C13.4277 59.0816 13.1777 57.4827 13.3548 55.9983L13.459 56.0035V56.0087Z" fill="white"/>
<path d="M16.5848 31.4306C15.2307 32.5816 14.2463 33.9879 13.6369 35.6545C13.3661 36.4462 13.3244 37.2795 13.2255 38.1025C13.1265 38.9618 13.1421 39.8368 13.1109 40.7014L13.0119 40.7327C12.8765 40.54 12.7567 40.3368 12.6525 40.1233C12.1161 39.0087 12.0067 37.8577 12.3296 36.6597C12.7411 35.2952 13.4286 34.092 14.4077 33.0504C15.0275 32.3785 15.7359 31.8056 16.5275 31.342L16.5848 31.4306Z" fill="white"/>
<path d="M27.3959 18.8368C25.1303 19.6233 22.9792 20.9566 21.6042 22.9358C20.8334 24.0764 20.5 25.4254 20.2553 26.7639C20.2396 26.9045 20.1928 27.2691 20.1719 27.415C20.1563 27.5556 20.1511 27.7066 20.1407 27.8525C20.0834 28.467 20.1042 29.066 20.0678 29.6806L19.9636 29.7066C19.724 29.2014 19.5469 28.6754 19.4271 28.1337C19.1563 26.7743 19.25 25.3316 19.8594 24.0712C20.448 22.8993 21.2553 21.8941 22.2761 21.066C23.7865 19.8785 25.4844 19.1025 27.375 18.7327L27.3959 18.8368Z" fill="white"/>
<path d="M74.756 37.3056C74.3862 38.4827 74.3706 39.6597 74.6987 40.8472C74.8914 41.3993 75.1623 41.9045 75.5112 42.3733C75.8706 42.8525 76.2664 43.2952 76.7039 43.7118L76.6727 43.7535C76.3706 43.6545 76.0841 43.5139 75.8185 43.3368C74.1414 42.2535 73.8914 39.9358 74.3914 38.1597C74.4695 37.8629 74.5737 37.5712 74.7039 37.2952L74.756 37.3108V37.3056Z" fill="white"/>
<path d="M77.2087 46.441C77.0368 47.8472 77.0368 49.4983 77.9431 50.6597C78.2035 50.9566 78.516 51.1754 78.8806 51.3212C79.1306 51.4201 79.3702 51.5243 79.6358 51.6024C80.3337 51.842 81.0993 51.941 81.8233 52.1337L81.8389 52.2431C81.4639 52.4306 81.0733 52.5608 80.6618 52.6285C79.2347 52.8629 78.0212 52.3889 77.2452 51.1493C76.5629 50.0712 76.5472 48.7483 76.7868 47.5451C76.8597 47.1597 76.9691 46.7795 77.1097 46.4097L77.2087 46.441Z" fill="white"/>
<path d="M44.4127 28.9358C42.2304 27.8264 39.3345 27.5869 37.0845 28.5556C36.5637 28.7691 36.1158 29.0869 35.746 29.5139C35.3762 29.9462 35.1262 30.4306 34.996 30.9827C34.9595 31.1806 34.9439 31.3785 34.9543 31.5816L35.1002 31.6389C35.8137 31.1754 36.4075 30.6546 37.1054 30.1962L38.0168 29.5712C38.9491 28.8785 40.2981 28.6546 41.595 28.665C42.5273 28.6754 43.4491 28.7952 44.3502 29.0296L44.4231 28.9254L44.4127 28.9358Z" fill="#232020"/>
<path d="M56.5521 28.5295C58.6615 27.2952 61.5365 26.8733 63.8385 27.7014C64.3802 27.8837 64.849 28.1754 65.2448 28.5816C65.6406 28.9827 65.9219 29.4566 66.0885 29.9983C66.1354 30.1962 66.1615 30.3941 66.1667 30.5972L66.026 30.6597C65.2865 30.2483 64.6615 29.7639 63.9375 29.3472L62.9792 28.7795C62.0052 28.1545 60.6458 28.0035 59.3542 28.0972C58.4219 28.1649 57.5104 28.3472 56.625 28.6337L56.5469 28.5295H56.5521Z" fill="#232020"/>
<path d="M42.8859 32.3524C43.2869 32.3577 43.688 32.4149 44.0838 32.5243C44.4849 32.6337 44.8651 32.7951 45.2401 33.0087C45.6099 33.2222 45.964 33.4826 46.2974 33.7899C46.6307 34.092 46.938 34.441 47.2244 34.8264C47.5057 35.217 47.7557 35.6389 47.9744 36.092C48.1932 36.5451 48.3807 37.0295 48.5317 37.5295C48.6776 38.0347 48.7922 38.5556 48.8651 39.092C48.938 39.6233 48.9692 40.1649 48.964 40.7066C48.9588 41.2535 48.9119 41.7899 48.8234 42.3212C48.7401 42.8576 48.6151 43.3733 48.4536 43.8733C48.2974 44.3733 48.0994 44.8472 47.8703 45.3004C47.6359 45.7483 47.3755 46.1649 47.0838 46.5451C46.7974 46.9254 46.4797 47.2691 46.1359 47.566C45.7974 47.8629 45.438 48.1129 45.063 48.3212C44.6828 48.5243 44.2974 48.6754 43.8963 48.7795C43.5005 48.8785 43.0994 48.9254 42.6932 48.9201C42.2869 48.9201 41.8859 48.8576 41.4901 48.7483C41.0942 48.6389 40.7088 48.4774 40.3338 48.2639C39.964 48.0504 39.6099 47.7952 39.2765 47.4879C38.9432 47.1806 38.6359 46.8316 38.3547 46.4462C38.0682 46.0556 37.8182 45.6337 37.5994 45.1806C37.3807 44.7274 37.1932 44.2483 37.0474 43.7431C36.8963 43.2379 36.7869 42.717 36.714 42.1858C36.6411 41.6493 36.6047 41.1129 36.6099 40.566C36.6203 40.0243 36.6619 39.4826 36.7505 38.9514C36.8338 38.4201 36.9588 37.8993 37.1203 37.3993C37.2817 36.8993 37.4744 36.4254 37.7088 35.9774C37.938 35.5243 38.1984 35.1077 38.4901 34.7274C38.7817 34.3472 39.0942 34.0087 39.438 33.7066C39.7765 33.4097 40.1359 33.1597 40.5109 32.9566C40.8911 32.7535 41.2765 32.5972 41.6776 32.4983C42.0734 32.3941 42.4797 32.3472 42.8859 32.3524Z" fill="white"/>
<path d="M58.1151 32.5296C58.5214 32.5348 58.9224 32.5921 59.3183 32.7014C59.7141 32.8108 60.0995 32.9723 60.4745 33.1858C60.8443 33.3994 61.1985 33.6598 61.5318 33.9619C61.8651 34.2691 62.1724 34.6181 62.4537 35.0035C62.7349 35.3941 62.9901 35.816 63.2089 36.2691C63.4276 36.7223 63.6151 37.2014 63.761 37.7066C63.912 38.2119 64.0214 38.7327 64.0943 39.2639C64.1672 39.8004 64.2037 40.3421 64.1985 40.8837C64.1881 41.4254 64.1412 41.9671 64.0578 42.4983C63.9745 43.0296 63.8495 43.5504 63.6881 44.0504C63.5266 44.5504 63.3339 45.0244 63.0995 45.4775C62.8703 45.9254 62.6099 46.3421 62.3183 46.7223C62.0266 47.1025 61.7141 47.441 61.3703 47.7431C61.0318 48.04 60.6724 48.29 60.2974 48.4931C59.9172 48.6962 59.5318 48.8525 59.1308 48.9514C58.7297 49.0556 58.3287 49.1025 57.9224 49.0973C57.5214 49.0921 57.1203 49.0348 56.7193 48.9254C56.3235 48.816 55.9433 48.6546 55.5683 48.441C55.1985 48.2275 54.8443 47.9671 54.511 47.665C54.1776 47.3577 53.8703 47.0087 53.5839 46.6233C53.3026 46.2327 53.0526 45.8108 52.8339 45.3577C52.6151 44.9046 52.4276 44.4254 52.2766 43.9202C52.1308 43.415 52.0162 42.8941 51.9433 42.3577C51.8703 41.8264 51.8391 41.2848 51.8443 40.7431C51.8495 40.1962 51.8964 39.6598 51.9849 39.1285C52.0683 38.5973 52.1933 38.0764 52.3547 37.5764C52.511 37.0764 52.7089 36.6025 52.9381 36.1494C53.1724 35.7014 53.4328 35.2848 53.7245 34.9046C54.011 34.5244 54.3287 34.1858 54.6672 33.8837C55.011 33.5869 55.3703 33.3369 55.7453 33.1337C56.1256 32.9254 56.511 32.7744 56.912 32.6754C57.3078 32.5712 57.7089 32.5244 58.1151 32.5296Z" fill="white"/>
<path d="M43.8075 37.5921C44.3544 37.5973 44.8752 37.7431 45.3804 38.0244C45.8804 38.3004 46.3179 38.7014 46.6981 39.2119C47.0783 39.7275 47.37 40.316 47.5731 40.9827C47.771 41.6494 47.87 42.3421 47.8596 43.0608C47.8544 43.7796 47.7398 44.4671 47.5262 45.1285C47.3075 45.79 47.0054 46.3733 46.6096 46.8785C46.219 47.3837 45.771 47.7692 45.2606 48.04C44.7554 48.3108 44.2294 48.441 43.6825 48.4358C43.1356 48.4254 42.6096 48.2848 42.1096 48.0035C41.6096 47.7223 41.1669 47.3264 40.7867 46.8108C40.4065 46.3004 40.1148 45.7119 39.9169 45.0452C39.7137 44.3785 39.62 43.6858 39.6252 42.9671C39.6356 42.2483 39.745 41.5556 39.9637 40.8942C40.1825 40.2327 40.4846 39.6494 40.8752 39.1442C41.271 38.6442 41.719 38.2535 42.2242 37.9879C42.7346 37.7171 43.2606 37.5869 43.8075 37.5921Z" fill="#232020"/>
<path d="M56.8602 37.6181C57.4071 37.6233 57.9279 37.7691 58.4331 38.0504C58.9331 38.3316 59.3706 38.7274 59.7509 39.2379C60.1311 39.7535 60.4227 40.342 60.6259 41.0087C60.829 41.6754 60.9227 42.3681 60.9123 43.0868C60.9071 43.8056 60.7925 44.4983 60.579 45.1597C60.3602 45.8212 60.0581 46.4045 59.6623 46.9045C59.2717 47.4097 58.8238 47.7952 58.3134 48.066C57.8081 48.3368 57.2821 48.467 56.7352 48.4618C56.1884 48.4566 55.6623 48.3108 55.1623 48.0295C54.6623 47.7483 54.2196 47.3524 53.8394 46.842C53.4592 46.3264 53.1727 45.7379 52.9696 45.0712C52.7665 44.4045 52.6727 43.7118 52.6779 42.9931C52.6884 42.2743 52.8029 41.5816 53.0165 40.9202C53.2352 40.2587 53.5373 39.6754 53.9279 39.1754C54.3238 38.6702 54.7717 38.2847 55.2821 38.0139C55.7873 37.7431 56.3134 37.6129 56.8602 37.6181Z" fill="#232020"/>
<path d="M50.8288 51.2848C49.7038 51.2691 48.6673 50.9566 47.7194 50.3577C47.5736 50.2535 47.5527 50.1285 47.6569 49.9879C47.7611 49.8421 47.8809 49.8212 48.0267 49.9202C48.1517 50.0087 51.0579 51.9983 53.8444 49.566C53.9798 49.4618 54.0996 49.4775 54.209 49.6025C54.3184 49.7275 54.3132 49.8473 54.1934 49.9671C53.2454 50.8368 52.1257 51.2796 50.8288 51.2848Z" fill="#232020"/>
<path d="M60.2028 38.1858C60.4737 38.8785 61.1091 39.2952 61.6143 39.1025C62.1247 38.9097 62.3122 38.1806 62.0414 37.4775C61.7705 36.7795 61.1351 36.3681 60.6299 36.5608C60.1247 36.7535 59.932 37.4827 60.2028 38.1858Z" fill="#232020"/>
<path d="M40.5674 38.2795C40.3382 38.9983 39.7341 39.4462 39.2184 39.2847C38.7028 39.1181 38.4632 38.4097 38.6976 37.691C38.9268 36.9774 39.5309 36.5243 40.0466 36.691C40.5622 36.8524 40.7966 37.566 40.5674 38.2795Z" fill="#232020"/>
<path d="M61.1569 51.0139C60.485 51.0139 59.8236 50.9514 59.1673 50.8212C58.5111 50.691 57.8757 50.4983 57.2559 50.2431C56.6361 49.9879 56.0475 49.6806 55.4902 49.3108C54.9382 48.941 54.4225 48.5191 53.9486 48.0504C53.4746 47.5816 53.0527 47.066 52.6777 46.5139C52.3079 45.9619 51.9902 45.3785 51.735 44.7639C51.4798 44.1494 51.2871 43.5139 51.1569 42.8629C51.0267 42.2119 50.959 41.5556 50.959 40.8889C50.959 40.2223 51.0215 39.566 51.1517 38.9098C51.2871 38.2587 51.4798 37.6233 51.735 37.0087C51.9902 36.3941 52.3027 35.8108 52.6777 35.2587C53.0475 34.7066 53.4694 34.1962 53.9434 33.7223C54.4173 33.2535 54.9329 32.8316 55.485 32.4671C56.0423 32.0973 56.6309 31.7848 57.2507 31.5296C57.8704 31.2744 58.5059 31.0816 59.1621 30.9514C59.8184 30.8212 60.4798 30.7587 61.1517 30.7587C61.8184 30.7587 62.485 30.8212 63.1413 30.9514C63.7975 31.0816 64.4329 31.2744 65.0527 31.5296C65.6725 31.7848 66.2559 32.0921 66.8132 32.4619C67.3704 32.8316 67.8861 33.2535 68.36 33.7223C68.834 34.1962 69.2559 34.7066 69.6257 35.2587C70.0007 35.8108 70.3132 36.3941 70.5684 37.0087C70.8236 37.6233 71.0163 38.2587 71.1465 38.9098C71.2767 39.5608 71.3444 40.2223 71.3444 40.8889C71.3444 41.5504 71.2767 42.2119 71.1465 42.8629C71.0163 43.5139 70.8236 44.1441 70.5632 44.7587C70.3079 45.3733 69.9954 45.9566 69.6257 46.5087C69.2507 47.0608 68.8288 47.5712 68.3548 48.0452C67.8861 48.5139 67.3704 48.9306 66.8132 49.3004C66.2559 49.6702 65.6725 49.9827 65.0527 50.2379C64.4382 50.4931 63.7975 50.6858 63.1413 50.816C62.485 50.9462 61.8236 51.0139 61.1569 51.0139ZM61.1569 31.1858C60.5163 31.1858 59.8809 31.2483 59.2507 31.3733C58.6257 31.4931 58.0163 31.6806 57.4225 31.9202C56.8288 32.165 56.2663 32.4671 55.735 32.8212C55.2038 33.1702 54.709 33.5764 54.2559 34.0244C53.8027 34.4775 53.3965 34.9671 53.0423 35.4931C52.6882 36.0244 52.3861 36.5816 52.1413 37.1702C51.8965 37.7587 51.709 38.3629 51.584 38.9879C51.459 39.6129 51.3965 40.2431 51.3965 40.8837C51.3965 41.5191 51.459 42.1494 51.584 42.7744C51.709 43.3994 51.8965 44.0035 52.1413 44.5921C52.3861 45.1806 52.6882 45.7379 53.0423 46.2691C53.3965 46.8004 53.8027 47.29 54.2559 47.7379C54.709 48.191 55.2038 48.5921 55.735 48.9462C56.2663 49.3004 56.8288 49.5973 57.4225 49.8421C58.0163 50.0816 58.6257 50.2691 59.2507 50.3941C59.8809 50.5191 60.5163 50.5764 61.1569 50.5764C61.7975 50.5764 62.4329 50.5191 63.0579 50.3941C63.6882 50.2691 64.2975 50.0816 64.8913 49.8421C65.485 49.5973 66.0475 49.3004 66.5788 48.9462C67.11 48.5921 67.6048 48.191 68.0579 47.7379C68.5111 47.29 68.9121 46.8004 69.2715 46.2691C69.6257 45.7379 69.9277 45.1806 70.1725 44.5921C70.4173 44.0035 70.6048 43.3994 70.7298 42.7744C70.8548 42.1494 70.9173 41.5191 70.9173 40.8837C70.9121 40.2431 70.8496 39.6129 70.7246 38.9931C70.5996 38.3681 70.4121 37.7587 70.1673 37.1754C69.9225 36.5869 69.6204 36.0244 69.2663 35.4983C68.9069 34.9671 68.5059 34.4775 68.0527 34.0296C67.5996 33.5816 67.1048 33.1754 66.5736 32.8212C66.0423 32.4723 65.4798 32.1702 64.8861 31.9254C64.2975 31.6806 63.6882 31.4983 63.0579 31.3733C62.4329 31.2483 61.7975 31.1858 61.1569 31.1858Z" fill="#232020"/>
<path d="M39.6829 51.3629C39.0163 51.3629 38.3548 51.2952 37.6934 51.165C37.0371 51.0348 36.4017 50.8473 35.7819 50.5921C35.1673 50.3369 34.5788 50.0244 34.0215 49.6546C33.4642 49.2848 32.9486 48.8629 32.4746 48.3941C32.0059 47.9254 31.584 47.415 31.209 46.8577C30.8392 46.3056 30.5215 45.7223 30.2663 45.1077C30.0111 44.4931 29.8184 43.8629 29.6882 43.2066C29.5579 42.5556 29.4902 41.8994 29.4902 41.2327C29.4902 40.566 29.5579 39.9098 29.6882 39.2587C29.8184 38.6025 30.0111 37.9723 30.2663 37.3577C30.5267 36.7431 30.8392 36.1598 31.209 35.6077C31.584 35.0504 32.0059 34.54 32.4798 34.0712C32.9538 33.6025 33.4642 33.1806 34.0215 32.8108C34.5788 32.441 35.1673 32.1285 35.7871 31.8733C36.4017 31.6233 37.0423 31.4306 37.6986 31.3004C38.3548 31.1702 39.0163 31.1025 39.6882 31.1025C40.3548 31.1025 41.0163 31.1702 41.6725 31.3004C42.3288 31.4306 42.9694 31.6233 43.584 31.8785C44.2038 32.1285 44.7923 32.441 45.3496 32.8108C45.9069 33.1806 46.4173 33.6025 46.8913 34.0712C47.3652 34.5452 47.7871 35.0556 48.1621 35.6077C48.5319 36.1598 48.8444 36.7431 49.0996 37.3577C49.36 37.9723 49.5527 38.6077 49.6829 39.2587C49.8132 39.9098 49.8757 40.5712 49.8757 41.2327C49.8757 41.8994 49.8079 42.5556 49.6777 43.2119C49.5475 43.8629 49.3548 44.4931 49.0996 45.1077C48.8392 45.7223 48.5267 46.3056 48.1569 46.8577C47.7819 47.4098 47.36 47.9202 46.8861 48.3941C46.4173 48.8629 45.9017 49.2848 45.3444 49.6494C44.7871 50.0191 44.1986 50.3316 43.584 50.5869C42.9642 50.8421 42.3288 51.0348 41.6725 51.165C41.0163 51.2952 40.3548 51.3629 39.6829 51.3629ZM39.6829 31.5296C39.0423 31.5296 38.4069 31.5921 37.7819 31.7171C37.1517 31.8421 36.5423 32.0244 35.9486 32.2691C35.36 32.5139 34.7975 32.8108 34.2611 33.165C33.7298 33.5191 33.235 33.9202 32.7819 34.3733C32.3288 34.8212 31.9277 35.3108 31.5684 35.8421C31.2142 36.3681 30.9121 36.9306 30.6673 37.5191C30.4225 38.1077 30.2402 38.7119 30.1152 39.3369C29.9902 39.9619 29.9277 40.5921 29.9277 41.2275C29.9277 41.8629 29.9902 42.4931 30.1152 43.1181C30.2402 43.7431 30.4225 44.3525 30.6673 44.941C30.9121 45.5296 31.2142 46.0869 31.5684 46.6129C31.9277 47.1441 32.3288 47.6337 32.7819 48.0869C33.235 48.5348 33.7298 48.9358 34.2611 49.29C34.7975 49.6441 35.36 49.941 35.9486 50.1858C36.5423 50.4306 37.1517 50.6129 37.7819 50.7379C38.4069 50.8629 39.0423 50.9254 39.6829 50.9254C40.3236 50.9254 40.959 50.8629 41.5892 50.7379C42.2142 50.6129 42.8288 50.4306 43.4173 50.1858C44.0111 49.941 44.5736 49.6441 45.1048 49.29C45.6361 48.9358 46.1309 48.5348 46.584 48.0869C47.0371 47.6337 47.4434 47.1441 47.7975 46.6129C48.1517 46.0869 48.4538 45.5296 48.6986 44.941C48.9434 44.3525 49.1309 43.7431 49.2559 43.1181C49.3809 42.4931 49.4434 41.8629 49.4434 41.2275C49.4434 40.5921 49.3757 39.9619 49.2507 39.3369C49.1257 38.7119 48.9434 38.1077 48.6934 37.5191C48.4486 36.9306 48.1465 36.3733 47.7923 35.8421C47.4382 35.316 47.0319 34.8264 46.5788 34.3785C46.1257 33.9254 45.6361 33.5244 45.0996 33.1702C44.5684 32.816 44.0059 32.5191 43.4173 32.2744C42.8236 32.0296 42.2142 31.8473 41.5892 31.7223C40.959 31.5973 40.3236 31.5296 39.6829 31.5296Z" fill="#232020"/>
<path d="M26.8281 50.3889L28.125 48.3369C28.2396 48.1598 28.3906 48.0348 28.5833 47.9619C28.776 47.8889 28.974 47.8785 29.1719 47.9358C30.2708 48.2483 32.7604 48.7796 36.8073 48.7327C41.8802 48.6754 47.6667 52.7691 49.6146 55.316C49.7656 55.5087 49.9635 55.6129 50.2083 55.6285C50.4531 55.6389 50.6615 55.5556 50.8333 55.3785C52.3542 53.79 56.1823 50.2014 60.6615 49.1754C66.0052 47.9514 69.0833 49.04 72.125 48.3264C72.3542 48.2691 72.5729 48.3004 72.776 48.4098C72.9844 48.5191 73.1302 48.6806 73.2083 48.8994L73.9896 50.9514L64.7448 60.7796C64.7448 60.7796 51.349 63.566 50.3281 63.6285C49.3073 63.6962 40.1875 63.3108 39.099 62.2327C38.0156 61.1546 26.8281 50.3889 26.8281 50.3889Z" fill="white"/>
<mask id="mask5_151_299" style="mask-type:luminance" maskUnits="userSpaceOnUse" x="23" y="49" width="55" height="42">
<path d="M23 49.1754H77.6667V90.5816H23V49.1754Z" fill="white"/>
</mask>
<g mask="url(#mask5_151_299)">
<path d="M24.86 49.6962L47.3809 57.6806C47.7298 57.8003 47.9069 58.0451 47.9069 58.4149V58.4774C47.9069 58.691 47.985 58.8733 48.1361 59.0295C48.2923 59.1806 48.4746 59.2587 48.6934 59.2587H51.6569C51.8757 59.2587 52.0579 59.1806 52.2142 59.0295C52.3652 58.8733 52.4434 58.691 52.4434 58.4774V58.3681C52.4434 57.9878 52.6257 57.7431 52.9902 57.6233L75.8392 50.3264C76.0059 50.2743 76.1725 50.2639 76.3444 50.2899C76.5163 50.316 76.6725 50.3785 76.8184 50.4826C76.959 50.5816 77.0684 50.7118 77.1465 50.8628C77.2298 51.0191 77.2663 51.1806 77.2715 51.3524L77.5059 79.8576C77.5059 80.1128 77.4277 80.342 77.2663 80.5451C77.1048 80.7483 76.8965 80.8733 76.6413 80.9306C73.3757 81.6233 61.6465 84.342 54.1777 88.6181C53.8288 88.8212 53.6517 89.1181 53.6569 89.5243V89.6181C53.6569 89.8837 53.5632 90.1076 53.3757 90.2951C53.1882 90.4774 52.9642 90.5712 52.6986 90.5712H48.1882C47.9277 90.5712 47.709 90.4826 47.5215 90.3056C47.3392 90.1285 47.2402 89.9149 47.2298 89.6597C47.2142 89.2483 47.0215 88.9514 46.6517 88.7691C44.0371 87.4514 32.6777 81.9201 24.1882 80.9045C23.9121 80.8733 23.6829 80.7535 23.5007 80.5503C23.3132 80.342 23.2246 80.1024 23.2246 79.8264L23.3965 50.717C23.3965 50.5399 23.4382 50.3733 23.5215 50.217C23.6048 50.0608 23.7194 49.9306 23.8652 49.8264C24.0111 49.7274 24.1673 49.6649 24.3444 49.6389C24.5215 49.6181 24.6934 49.6337 24.86 49.6962Z" fill="#232020"/>
</g>
<path d="M75.557 58.04C75.3799 58.04 75.2914 57.9566 75.2914 57.7796L75.2289 53.0244L70.2185 54.6598C70.0518 54.7171 69.9372 54.6598 69.8799 54.4931C69.8278 54.3264 69.8851 54.2119 70.0518 54.1598L75.2028 52.4671C75.3383 52.4202 75.4633 52.441 75.5831 52.5244C75.6976 52.6077 75.7601 52.7171 75.7601 52.8577L75.8226 57.7691C75.8278 57.941 75.7393 58.0348 75.5622 58.0348L75.557 58.04Z" fill="white"/>
<path d="M75.7708 70.9462C75.5937 70.9462 75.5052 70.8629 75.5052 70.6858L75.2917 59.4306C75.2813 59.3525 75.3021 59.2847 75.3542 59.2275C75.4063 59.1702 75.474 59.1389 75.5521 59.1389C75.6302 59.1389 75.6979 59.165 75.75 59.2222C75.8021 59.2743 75.8281 59.342 75.8229 59.4202L76.0365 70.6754C76.0417 70.8525 75.9531 70.941 75.776 70.9462H75.7708Z" fill="white"/>
<path d="M75.4478 71.8629C75.453 71.7639 75.4947 71.6858 75.5624 71.6233C75.6353 71.5556 75.7187 71.5296 75.8176 71.5348C75.9114 71.54 75.9947 71.5764 76.0572 71.6441C76.1197 71.7171 76.1509 71.8004 76.1457 71.8941C76.1405 71.9931 76.1041 72.0712 76.0312 72.1337C75.9582 72.2014 75.8749 72.2275 75.7812 72.2223C75.6822 72.2171 75.6041 72.1806 75.5416 72.1077C75.4739 72.04 75.4426 71.9566 75.4478 71.8629Z" fill="white"/>
<path d="M75.4492 73.0296C75.4544 72.9306 75.4961 72.8525 75.5638 72.79C75.6367 72.7223 75.7201 72.691 75.819 72.6962C75.9128 72.7014 75.9909 72.7379 76.0586 72.8108C76.1211 72.8837 76.1523 72.9671 76.1471 73.0608C76.1419 73.1546 76.1055 73.2379 76.0326 73.3004C75.9596 73.3629 75.8763 73.3942 75.7826 73.3889C75.6836 73.3837 75.6055 73.3473 75.543 73.2744C75.4753 73.2067 75.4492 73.1233 75.4492 73.0296Z" fill="white"/>
</svg>
