<svg width="93" height="93" viewBox="0 0 93 93" fill="none" xmlns="http://www.w3.org/2000/svg">
<mask id="mask0_151_300" style="mask-type:luminance" maskUnits="userSpaceOnUse" x="0" y="0" width="94" height="94">
<path d="M0 0H93.0052V93.0052H0V0Z" fill="white"/>
</mask>
<g mask="url(#mask0_151_300)">
<mask id="mask1_151_300" style="mask-type:luminance" maskUnits="userSpaceOnUse" x="0" y="0" width="94" height="94">
<path d="M46.5052 0C20.8229 0 0 20.8177 0 46.5C0 72.1823 20.8229 93.0052 46.5052 93.0052C72.1875 93.0052 93.0052 72.1823 93.0052 46.5C93.0052 20.8177 72.1875 0 46.5052 0Z" fill="white"/>
</mask>
<g mask="url(#mask1_151_300)">
<path d="M0 0H93.0052V93.0052H0V0Z" fill="#F14E87"/>
</g>
</g>
<path d="M52 56.3646L52.8906 52.875C54.1615 52.5 55.375 51.9896 56.5208 51.375L59.6198 53.2135C60.7135 53.8594 61.9844 54.1094 62.8854 53.2135L66.1458 49.9531C67.0417 49.0573 66.7917 47.7865 66.1458 46.6979L64.3021 43.599C64.9219 42.4583 65.4323 41.2448 65.8073 39.9792L69.3021 39.0885C70.5313 38.776 71.6094 38.0521 71.6094 36.7865V32.1771C71.6094 30.9115 70.5313 30.1875 69.3021 29.875L65.8073 28.9844C65.4323 27.7188 64.9219 26.5052 64.3021 25.3646L66.1458 22.2656C66.7917 21.1771 67.0417 19.9062 66.1458 19.0104L62.8802 15.75C61.9844 14.8542 60.7083 15.1042 59.6198 15.75L56.5156 17.5885C55.3698 16.974 54.1563 16.4635 52.8906 16.0885L51.9948 12.599C51.6823 11.375 50.9583 10.2969 49.6875 10.2969H45.0729C43.8073 10.2969 43.0833 11.375 42.7656 12.599L41.875 16.0885C40.6042 16.4635 39.3906 16.974 38.2448 17.5885L35.1458 15.75C34.0521 15.1042 32.7813 14.8542 31.8802 15.75L28.6198 19.0104C27.724 19.9062 27.974 21.1771 28.6198 22.2656L30.4583 25.3646C29.8385 26.5052 29.3333 27.7188 28.9531 28.9844L25.4635 29.875C24.2292 30.1875 23.1562 30.9115 23.1562 32.1771V36.7865C23.1562 38.0521 24.2344 38.776 25.4635 39.0885L28.9531 39.9792C29.3333 41.2448 29.8438 42.4583 30.4583 43.599L28.6198 46.6979C27.974 47.7865 27.724 49.0573 28.6198 49.9531L31.8802 53.2135C32.7813 54.1094 34.0521 53.8594 35.1458 53.2135L38.2448 51.375C39.3906 51.9896 40.6042 52.4948 41.875 52.875L42.7656 56.3594C43.0781 57.5885 43.8021 58.6667 45.0729 58.6667H49.6875C50.9635 58.6667 51.6875 57.5938 52 56.3646ZM61.7448 34.4792C61.7448 42.3958 55.3125 48.8125 47.3854 48.8125C39.4583 48.8125 33.0313 42.3958 33.0313 34.4792C33.0313 26.5625 39.4583 20.1458 47.3854 20.1458C55.3125 20.1458 61.7448 26.5625 61.7448 34.4792Z" fill="#A7B4D1"/>
<path d="M61.7448 34.4791C61.7448 35.4219 61.651 36.3541 61.4688 37.276C61.2813 38.1979 61.0104 39.0937 60.651 39.9635C60.2917 40.8333 59.849 41.6614 59.3229 42.4427C58.8021 43.2239 58.2031 43.9479 57.5365 44.6146C56.8698 45.2812 56.1458 45.875 55.3646 46.3958C54.5781 46.9219 53.75 47.3594 52.8802 47.7239C52.0104 48.0833 51.1094 48.3541 50.1875 48.5364C49.2604 48.7187 48.3281 48.8125 47.3854 48.8125C46.4427 48.8125 45.5104 48.7187 44.5833 48.5364C43.6615 48.3541 42.7604 48.0833 41.8906 47.7239C41.0208 47.3594 40.1927 46.9219 39.4115 46.3958C38.625 45.875 37.901 45.2812 37.2344 44.6146C36.5677 43.9479 35.974 43.2239 35.4479 42.4427C34.9271 41.6614 34.4844 40.8333 34.1198 39.9635C33.7604 39.0937 33.4896 38.1979 33.3073 37.276C33.1198 36.3541 33.0312 35.4219 33.0312 34.4791C33.0312 33.5364 33.1198 32.6041 33.3073 31.6823C33.4896 30.7604 33.7604 29.8646 34.1198 28.9948C34.4844 28.125 34.9271 27.2969 35.4479 26.5156C35.974 25.7344 36.5677 25.0104 37.2344 24.3437C37.901 23.6771 38.625 23.0833 39.4115 22.5625C40.1927 22.0364 41.0208 21.5989 41.8906 21.2344C42.7604 20.875 43.6615 20.6041 44.5833 20.4219C45.5104 20.2396 46.4427 20.1458 47.3854 20.1458C48.3281 20.1458 49.2604 20.2396 50.1875 20.4219C51.1094 20.6041 52.0104 20.875 52.8802 21.2344C53.75 21.5989 54.5781 22.0364 55.3646 22.5625C56.1458 23.0833 56.8698 23.6771 57.5365 24.3437C58.2031 25.0104 58.8021 25.7344 59.3229 26.5156C59.849 27.2969 60.2917 28.125 60.651 28.9948C61.0104 29.8646 61.2813 30.7604 61.4688 31.6823C61.651 32.6041 61.7448 33.5364 61.7448 34.4791Z" fill="white"/>
<path d="M14.6562 68.5573V72.6875H40.2604C40.7917 72.6875 41.2135 72.802 41.6771 73.0677L46.4531 75.8229C47.0469 76.1666 47.724 76.1666 48.3177 75.8229L53.099 73.0677C53.5625 72.802 53.9844 72.6875 54.5156 72.6875H80.1146V64.4218C80.1146 64.4218 51.9635 55.3802 47.3906 76.0781C42.8125 55.3802 14.6615 64.4218 14.6615 64.4218V68.5573H14.6562Z" fill="#E8E8E8"/>
<path d="M53.0996 73.0677L48.3184 75.8229C47.7246 76.1615 47.0475 76.1615 46.4538 75.8229L41.6725 73.0677C41.2142 72.8021 40.7871 72.6875 40.2559 72.6875H12.0736C10.5111 72.6875 9.24023 73.9583 9.24023 75.5156C9.24023 77.0729 10.5111 78.3438 12.0736 78.3438H39.0007C39.3444 78.3438 39.6361 78.4219 39.9329 78.5938L45.9746 82.0729C46.8913 82.6042 47.8913 82.6042 48.8027 82.0729L54.8444 78.5938C55.1413 78.4219 55.4329 78.3438 55.7767 78.3438H82.709C84.2663 78.3438 85.5371 77.0729 85.5371 75.5156C85.5371 73.9583 84.2663 72.6875 82.709 72.6875H54.5163C53.9798 72.6875 53.5579 72.8021 53.0996 73.0677Z" fill="#80AAFF"/>
<mask id="mask2_151_300" style="mask-type:luminance" maskUnits="userSpaceOnUse" x="20" y="9" width="53" height="52">
<path d="M20.9531 9H72.9531V60.8021H20.9531V9Z" fill="white"/>
</mask>
<g mask="url(#mask2_151_300)">
<path d="M49.6921 59.8958H45.0775C43.4056 59.8958 42.0931 58.6875 41.5775 56.6667L40.8587 53.8385C39.9785 53.5469 39.1243 53.1875 38.291 52.776L35.7754 54.2656C33.9837 55.3333 32.2025 55.2604 31.0202 54.0781L27.7546 50.8229C26.5723 49.6406 26.4993 47.8646 27.5671 46.0677L29.0566 43.5573C28.6452 42.7292 28.291 41.8698 27.9941 41L25.166 40.276C23.14 39.7604 21.9316 38.4531 21.9316 36.7813V32.1771C21.9316 30.5052 23.14 29.1979 25.166 28.6823L27.9941 27.9583C28.291 27.0885 28.6452 26.2292 29.0566 25.401L27.5671 22.8906C26.4993 21.099 26.5723 19.3177 27.7546 18.1354L31.0202 14.8802C32.2025 13.6979 33.9837 13.625 35.7806 14.6927L38.2962 16.1823C39.1243 15.7708 39.9837 15.4167 40.8587 15.1198L41.5827 12.2917C42.0983 10.2656 43.4056 9.0625 45.0827 9.0625H49.6973C51.3691 9.0625 52.6764 10.2656 53.1921 12.2917L53.916 15.1198C54.791 15.4115 55.6504 15.7708 56.4785 16.1823L58.9941 14.6927C60.791 13.625 62.5723 13.6979 63.7546 14.8802L67.0202 18.1354C68.2025 19.3177 68.2754 21.0938 67.2077 22.8906L65.7181 25.401C66.1296 26.2292 66.4837 27.0885 66.7806 27.9583L69.6087 28.6823C71.6348 29.1979 72.8431 30.5052 72.8431 32.1771V36.7813C72.8431 38.4531 71.6348 39.7604 69.6087 40.276L66.7806 41C66.4837 41.8698 66.1244 42.7292 65.7129 43.5573L67.2077 46.0677C68.2702 47.8594 68.2025 49.6406 67.015 50.8229L63.7546 54.0781C62.5723 55.2604 60.791 55.3333 58.9941 54.2656L56.4785 52.776C55.6504 53.1875 54.791 53.5417 53.916 53.8385L53.1921 56.6667C52.6764 58.6875 51.3691 59.8958 49.6921 59.8958ZM38.2546 50.1458C38.4525 50.1458 38.6556 50.1927 38.8379 50.2917C39.916 50.875 41.0618 51.349 42.2285 51.6979C42.6452 51.8229 42.9629 52.151 43.0723 52.5729L43.9629 56.0573C44.0931 56.5729 44.4108 57.4375 45.0775 57.4375H49.6921C50.3535 57.4375 50.6712 56.5729 50.8066 56.0573L51.6973 52.5729C51.8014 52.151 52.1243 51.8229 52.5358 51.6979C53.7077 51.349 54.8535 50.875 55.9316 50.2917C56.3118 50.0885 56.7754 50.099 57.1452 50.3177L60.2494 52.151C60.7025 52.4219 61.5462 52.8125 62.0098 52.3385L65.2754 49.0833C65.7441 48.6146 65.3587 47.776 65.0879 47.3229L63.2441 44.224C63.0254 43.849 63.015 43.3906 63.2233 43.0104C63.8066 41.9323 64.2806 40.7917 64.6296 39.625C64.7546 39.2083 65.0827 38.8906 65.5046 38.7865L68.9941 37.8958C69.5098 37.7656 70.3744 37.4479 70.3744 36.7813V32.1771C70.3744 31.5156 69.5098 31.1927 68.9941 31.0625L65.5046 30.1719C65.0827 30.0677 64.7494 29.75 64.6296 29.3333C64.2806 28.1615 63.8066 27.0208 63.2233 25.9427C63.015 25.5677 63.0254 25.1042 63.2441 24.7344L65.0827 21.6354C65.3535 21.1823 65.7441 20.3438 65.2702 19.875L62.0098 16.6198C61.541 16.1458 60.7025 16.5365 60.2441 16.8073L57.14 18.6458C56.7702 18.8646 56.3066 18.875 55.9264 18.6667C54.8483 18.0833 53.7025 17.6094 52.5358 17.2604C52.1191 17.1354 51.8014 16.8073 51.6921 16.3906L50.8014 12.901C50.6712 12.3854 50.3535 11.5208 49.6868 11.5208H45.0723C44.4108 11.5208 44.0931 12.3854 43.9577 12.901L43.0671 16.3854C42.9577 16.8073 42.64 17.1354 42.2233 17.2604C41.0514 17.6094 39.9108 18.0781 38.8327 18.6667C38.4525 18.8698 37.9889 18.8594 37.6191 18.6406L34.515 16.8073C34.0618 16.5365 33.2233 16.1458 32.7546 16.6198L29.4889 19.875C29.0202 20.3438 29.4056 21.1823 29.6764 21.6354L31.5202 24.7344C31.7389 25.1042 31.7493 25.5677 31.541 25.9427C30.9577 27.026 30.4837 28.1615 30.1348 29.3333C30.0098 29.75 29.6764 30.0677 29.2598 30.1719L25.765 31.0625C25.2493 31.1927 24.3848 31.5104 24.3848 32.1771V36.7813C24.3848 37.4479 25.2493 37.7656 25.765 37.8958L29.2598 38.7865C29.6764 38.8906 30.0098 39.2083 30.1348 39.625C30.4837 40.7969 30.9577 41.9375 31.541 43.0156C31.7441 43.3906 31.7389 43.8542 31.5202 44.224L29.6764 47.3229C29.4056 47.776 29.0202 48.6146 29.4889 49.0833L32.7546 52.3385C33.2233 52.8125 34.0618 52.4219 34.515 52.151L37.6243 50.3125C37.8171 50.2031 38.0358 50.1458 38.2546 50.1458Z" fill="#373435"/>
</g>
<path d="M47.3854 50.0416C38.7917 50.0416 31.7969 43.0625 31.7969 34.4791C31.7969 25.8958 38.7917 18.9166 47.3854 18.9166C55.9792 18.9166 62.974 25.8958 62.974 34.4791C62.974 43.0625 55.9792 50.0416 47.3854 50.0416ZM47.3854 21.375C40.1458 21.375 34.2604 27.25 34.2604 34.4791C34.2604 41.7031 40.1458 47.5833 47.3854 47.5833C54.625 47.5833 60.5104 41.7031 60.5104 34.4791C60.5104 27.25 54.625 21.375 47.3854 21.375Z" fill="#373435"/>
<path d="M42.6824 38.8437C42.2606 38.8437 41.8439 38.625 41.6199 38.2291L40.146 35.6823C39.8022 35.0937 40.0053 34.3385 40.5939 34C41.1824 33.6614 41.9376 33.8646 42.2762 34.4531L43.1355 35.9375L52.9481 30.2812C53.5366 29.9427 54.2866 30.1406 54.6303 30.7291C54.9689 31.3177 54.7658 32.0677 54.1772 32.4062L43.297 38.6771C43.1043 38.7916 42.8908 38.8437 42.6824 38.8437Z" fill="#373435"/>
<mask id="mask3_151_300" style="mask-type:luminance" maskUnits="userSpaceOnUse" x="8" y="70" width="79" height="14">
<path d="M8 70.1354H86.75V83.7656H8V70.1354Z" fill="white"/>
</mask>
<g mask="url(#mask3_151_300)">
<path d="M47.3861 83.6979C46.6934 83.6979 46.0007 83.5104 45.3548 83.1406L39.3184 79.6614C39.2038 79.5937 39.1257 79.5729 39.0007 79.5729H12.0736C9.82878 79.5729 8.00586 77.7552 8.00586 75.5156C8.00586 73.2812 9.82878 71.4635 12.0736 71.4635H40.2611C41.0111 71.4635 41.6413 71.6302 42.2923 72.0052L47.0684 74.7604C47.2819 74.8802 47.4902 74.8802 47.7038 74.7604L52.485 72.0052C53.1361 71.6302 53.7663 71.4635 54.5163 71.4635H82.7038C84.9434 71.4635 86.7663 73.2812 86.7663 75.5156C86.7663 77.7552 84.9434 79.5729 82.7038 79.5729H55.7715C55.6465 79.5729 55.5632 79.5937 55.4538 79.6614L49.4173 83.1406C48.7715 83.5104 48.0788 83.6979 47.3861 83.6979ZM12.0736 73.9166C11.1882 73.9166 10.4694 74.6354 10.4694 75.5156C10.4694 76.401 11.1882 77.1198 12.0736 77.1198H39.0007C39.5579 77.1198 40.0632 77.25 40.5475 77.5312L46.5892 81.0104C47.1257 81.3229 47.6517 81.3229 48.1882 81.0104L54.2298 77.5312C54.709 77.25 55.2194 77.1198 55.7767 77.1198H82.709C83.5892 77.1198 84.3079 76.401 84.3079 75.5156C84.3079 74.6354 83.5892 73.9166 82.709 73.9166H54.5163C54.1986 73.9166 53.9902 73.9739 53.7142 74.1354L48.9329 76.8854C47.9642 77.4479 46.8079 77.4479 45.8392 76.8854L41.0579 74.1354C40.7819 73.9739 40.5736 73.9218 40.2559 73.9218H12.0736V73.9166Z" fill="#373435"/>
</g>
<path d="M47.3861 77.3073C46.8184 77.3073 46.3079 76.9167 46.1829 76.3437C45.1673 71.7344 42.8079 68.3385 39.1725 66.2552C31.1829 61.6719 19.1725 64.4531 15.8913 65.3437V72.6979C15.8913 73.375 15.3392 73.9271 14.6569 73.9271C13.9798 73.9271 13.4277 73.375 13.4277 72.6979V64.4219C13.4277 63.8906 13.7715 63.4167 14.2819 63.2552C14.9277 63.0469 30.1621 58.2552 40.3913 64.1198C44.6569 66.5677 47.4121 70.5 48.5892 75.8125C48.735 76.4792 48.3132 77.1302 47.6517 77.2812C47.5632 77.2969 47.4746 77.3073 47.3861 77.3073Z" fill="#373435"/>
<path d="M47.3901 77.3073C47.3015 77.3073 47.2078 77.2969 47.1192 77.276C46.4578 77.1302 46.0359 76.4739 46.1869 75.8125C47.3588 70.4948 50.1192 66.5625 54.3796 64.1146C64.6088 58.2552 79.8484 63.0417 80.489 63.25C80.9994 63.4114 81.3432 63.8854 81.3432 64.4167V72.6927C81.3432 73.3698 80.7911 73.9219 80.114 73.9219C79.4369 73.9219 78.8848 73.3698 78.8848 72.6927V65.3437C75.6036 64.4479 63.588 61.6667 55.5984 66.25C51.9682 68.3385 49.6088 71.7292 48.588 76.3385C48.4578 76.9167 47.9526 77.3073 47.3901 77.3073Z" fill="#373435"/>
<path d="M14.6569 69.7864C14.1412 69.7864 13.6517 69.4531 13.485 68.9322C13.2819 68.2864 13.636 67.5937 14.2819 67.3854C14.7662 67.2291 26.2871 63.5989 36.0423 66.4322C36.6933 66.625 37.0683 67.302 36.8756 67.9583C36.6881 68.6093 36.0058 68.9843 35.3496 68.7916C26.3131 66.1666 15.1464 69.6927 15.0371 69.7291C14.9121 69.7656 14.7819 69.7864 14.6569 69.7864Z" fill="#373435"/>
<path d="M80.1147 69.7864C79.9897 69.7864 79.8647 69.7656 79.7397 69.7291C79.5991 69.6822 68.4272 66.177 59.422 68.7916C58.771 68.9843 58.0887 68.6093 57.8959 67.9583C57.7084 67.3072 58.0834 66.625 58.7345 66.4322C68.4897 63.5989 80.0053 67.2291 80.4949 67.3854C81.1407 67.5937 81.4949 68.2864 81.2866 68.9322C81.1147 69.4583 80.6355 69.7864 80.1147 69.7864Z" fill="#373435"/>
</svg>
