<svg width="715" height="367" viewBox="0 0 715 367" fill="none" xmlns="http://www.w3.org/2000/svg">
<path d="M436.062 243H448.217L457.814 244.943L468.05 248.83L473.807 252.716L478.286 256.602L483.404 265.023L484.683 270.852L484.043 280.568L479.565 289.636L475.727 294.818L471.888 299.352L464.851 305.182L454.615 312.955L429.665 329.795L425.186 332.386L424.547 333.682L472.528 333.034L478.286 331.091L482.124 328.5H483.404L484.683 325.909L488.522 321.375L492.36 320.727L493 321.375L492.36 326.557L487.882 342.102L484.683 352.466L482.764 356.352L482.124 357H391.919L390 355.705L390.64 352.466L393.199 349.875L404.075 341.455L412.391 334.33L421.348 327.205L430.304 318.784L435.422 314.25L442.46 306.477L448.217 298.057L452.056 290.284L452.696 287.693V279.273L448.857 271.5L443.739 267.614L438.621 265.023L433.503 263.727H421.348L414.311 265.67L407.913 268.909L404.714 271.5L400.876 276.682L399.596 277.33H393.839L394.478 274.091L397.037 270.852L400.236 265.67L405.994 258.545L413.671 252.068L418.789 248.83L427.745 244.943L436.062 243Z" fill="#02CED8"/>
<path fill-rule="evenodd" clip-rule="evenodd" d="M669.781 243H659.59L649.399 245.547L641.119 249.369L630.292 257.011L627.744 260.196L623.286 265.927L618.828 274.844L615.643 283.123L614.369 292.039V309.872L616.917 321.335L622.012 332.162L627.744 340.441L635.387 347.447L642.393 351.905L650.036 355.089L661.501 357H667.87L672.328 356.363L679.334 355.089L689.525 349.994L695.894 345.536L700.352 341.078L705.448 334.073L710.543 323.883L713.091 316.24L715.001 306.687V295.223L714.364 288.855L711.817 279.939L707.358 269.749L701.626 260.832L696.531 255.737L689.525 250.642L679.334 245.547L669.781 243ZM669.78 250.006L663.41 248.732L659.589 249.369L657.041 250.643L653.22 255.101L651.309 260.832L650.035 267.201L649.398 279.939V314.967L650.035 328.978L650.672 335.346L651.946 341.078L654.494 346.81L658.952 350.631L663.41 351.905L667.869 351.268L672.327 348.721L675.512 344.9L677.423 338.531L678.696 327.704V269.112L678.059 263.38L676.786 257.648L673.601 252.553L669.78 250.006Z" fill="#02CED8"/>
<path fill-rule="evenodd" clip-rule="evenodd" d="M558.436 243H548.835L539.874 244.911L530.914 248.732L522.593 254.464L517.473 259.559L511.713 266.564L508.512 272.933L504.672 283.123L502.752 295.86V306.05L504.032 314.966L507.232 324.52L512.353 334.709L518.113 341.715L524.513 347.447L531.554 351.905L539.234 355.089L550.115 357H557.796L566.116 355.726L571.876 353.816L579.557 349.358L588.517 342.352L596.198 332.162L601.318 320.698L603.878 309.872V290.765L601.958 281.212L596.838 269.749L591.718 261.469L585.317 255.101L578.917 250.642L568.676 245.547L558.436 243ZM557.795 249.369H548.834L546.914 250.006L544.354 252.553L541.794 256.374L539.874 263.38L538.594 277.391V316.877L539.234 327.704L540.514 339.168L542.434 344.899L546.274 349.357L551.394 351.905L557.795 351.268L560.995 348.721L564.195 345.536L566.115 339.804L568.036 328.341V269.749L566.115 258.922L562.915 252.553L557.795 249.369Z" fill="#02CED8"/>
<path fill-rule="evenodd" clip-rule="evenodd" d="M386.585 0H167.691L151.05 1.92147L130.568 6.40489L113.287 12.1693L99.8465 17.9337L90.8859 23.0576L79.3651 30.103L66.5643 39.7103L59.5238 45.4747L48.0031 57.0035L40.3226 65.9703L32.0021 76.8586L26.8817 84.5445L22.4014 92.2304L16.001 104.4L8.32054 124.255L3.84025 142.188L1.28008 156.279L0 172.932V195.349L0.640041 205.597L3.20021 222.25L7.6805 240.183L14.0809 258.117L19.2012 269.005L26.8817 282.456L33.2822 292.063L39.6826 300.389L45.4429 307.435L58.2438 320.244L60.8039 321.525V322.806L69.7645 329.852L76.805 334.976L84.4855 340.099L92.806 345.223L107.527 352.269L113.287 354.831L127.368 359.955L144.009 363.798L163.851 367H220.174L229.135 366.36L239.375 364.438L252.176 361.876L263.697 358.674L275.858 354.19L288.659 348.426L297.619 343.302L309.14 336.257L318.101 329.852L327.061 322.166L332.181 317.682L336.022 313.199L340.502 308.716L348.823 299.108L357.783 286.939L364.824 275.41L373.144 258.757L378.904 243.386L382.745 228.654L385.305 217.126L386.585 205.597L387.225 141.548V0.640489L386.585 0ZM191.372 107.602H164.49L157.45 108.883L141.449 113.366L129.928 118.49L119.687 124.255L113.287 128.738L104.326 135.784L96.6458 144.11L90.8855 151.155L84.485 160.763L77.4446 173.572L74.2444 182.539L70.4041 195.349L67.844 211.361V236.34L69.7641 248.51L71.6842 256.195L75.5245 267.724L81.2848 279.893L87.0452 290.141L96.0058 302.311L108.167 314.48L115.847 320.244L123.528 325.368L132.488 329.852L145.289 334.976L158.09 338.178L174.731 340.74H184.972L190.732 340.099L208.013 336.897L220.174 333.695L232.335 328.571L245.775 320.885L256.016 313.199L266.257 302.951L273.297 293.984L278.418 286.298L283.538 276.691L288.658 263.881L291.858 252.352L294.419 229.935V212.642L293.779 203.675L292.498 194.709L289.938 185.742L286.738 180.618L284.178 179.977L266.897 187.023L261.136 189.585L261.776 195.349L266.257 215.845V238.262L263.057 252.352L258.576 263.881L252.816 273.489L244.495 285.017L238.735 290.782L232.335 296.546L223.374 302.951L216.974 306.154L209.293 309.356L199.052 311.918L184.331 312.558L185.612 310.637L192.012 305.513L199.052 299.749L203.533 295.265L208.013 290.141L215.053 282.455L222.094 273.489L227.214 265.803L234.895 252.993L240.655 240.824L247.696 220.328L250.896 201.113L252.816 183.82V176.775L251.536 163.325L249.616 149.874L247.056 136.424L241.935 122.333L239.375 119.771L238.735 142.829L236.815 183.82L234.895 199.832L229.774 225.452L224.014 243.386L218.894 256.195L212.493 268.365L206.733 277.332L200.973 285.658L194.572 293.344L188.172 299.108L182.411 303.592L175.371 307.435L168.33 310.637H158.09L153.609 309.356L146.569 306.154L136.328 300.389L126.728 293.984L120.327 288.22L114.567 281.815L108.167 272.848L102.406 260.679L99.206 250.431L96.0058 233.778V216.485L97.2859 208.799L101.126 192.787L106.246 181.258L111.367 172.291L117.767 163.965L124.168 157.56L132.488 150.515L140.169 145.391L151.049 140.267L159.37 137.065L172.811 134.503H185.612L192.652 135.784L208.653 138.986L211.853 138.346L218.894 117.85L219.534 113.366L218.254 112.726L206.093 110.164L191.372 107.602ZM328.34 26.26L330.901 27.541L336.021 35.8673L341.141 48.6771L343.701 62.1274L344.982 73.0157V87.7469L342.421 105.04L339.861 114.647L334.741 126.817L330.261 133.862L323.22 142.188L315.54 148.593L305.939 153.077L296.338 155.639H288.658L279.697 153.717L267.537 147.312L259.216 142.188V138.986L267.537 132.581L278.417 125.536L289.938 117.85L298.899 110.805L305.299 105.04L309.139 101.838L314.9 94.7923L318.74 89.6684L322.58 82.623C323.255 81.2179 323.385 80.5206 323.22 79.4206C321.868 79.7487 321.164 80.1576 320.02 81.342L313.62 90.3089L307.859 97.3543L299.539 105.681L288.658 114.007L282.898 117.85L272.657 122.974L259.856 128.098L254.736 130.019H250.895L248.975 127.457L244.495 117.209L243.215 109.524V97.3543L245.775 89.0279L251.535 78.1396L256.656 73.0157L266.896 66.6108L276.497 62.7679L294.418 56.363L303.379 51.8796L310.419 47.3961L317.46 40.9912L323.22 33.3054L327.7 26.9005L328.34 26.26ZM200.973 21.7766L197.773 20.4956V22.4171L202.253 30.1029L215.054 54.4415L222.094 69.8132L234.895 100.557L237.455 103.119V96.0733L234.895 83.2635L229.135 65.9703L224.014 55.082L216.334 41.6317L207.373 28.822L200.973 21.7766Z" fill="#02CED8"/>
<path d="M400.284 0H484.358L485 2.5583L483.075 4.47703L474.731 5.75618L468.313 8.31449L463.179 12.7915L459.328 20.4664L458.045 26.8622V152.219L459.97 162.452L464.463 169.488L470.239 173.325L477.299 175.883L483.716 177.163L485 178.442L484.358 181H400.925L399.642 180.36L400.284 177.163L411.836 174.604L418.254 171.406L422.746 166.929L425.313 159.894L426.597 152.859L427.239 145.184V46.0495L426.597 26.2226L424.03 15.9894L420.821 11.5124L414.403 7.67491L409.269 5.75618L399.642 3.19788L399 0.639576L400.284 0Z" fill="#02CED8"/>
<path fill-rule="evenodd" clip-rule="evenodd" d="M590.799 0H611.28L624.081 2.56L635.602 6.4L645.842 11.52L652.883 15.36L663.124 23.04L670.804 30.08L676.564 36.48L682.965 45.44L688.725 55.68L691.925 62.72L694.486 71.68L696.406 78.72L697.686 88.96V101.76L695.766 112.64L692.566 124.16L689.365 131.84L684.245 142.08L679.765 148.48L674.004 155.52L668.244 161.92L660.563 168.96L651.603 175.36L638.162 182.4L629.841 184.32L630.481 186.88L636.242 188.8L646.483 192.64L658.003 195.2H672.724L684.245 192.64L690.645 190.08L695.766 186.24L700.246 179.2L703.446 171.52L706.006 170.24L706.646 173.44L704.726 183.04L702.166 190.08L697.686 197.12L690.645 204.8L681.045 211.2L671.444 215.04L662.484 217.6L658.003 218.24H639.442L629.201 215.68L620.241 212.48L613.84 208L608.72 203.52L595.279 190.08H588.879L578.638 188.16L568.397 184.96L558.157 181.12L547.276 175.36L538.316 168.96L531.915 163.2L524.235 155.52L517.194 145.92L512.074 136.96L506.954 124.16L504.393 113.28L503.113 103.68V87.68L505.033 76.16L507.594 65.92L512.714 53.76L519.754 42.88L526.155 34.56L535.115 25.6L541.516 20.48L549.836 14.72L557.517 10.24L569.678 5.12L577.358 2.56L590.799 0ZM607.441 5.11987L607.445 5.12086L611.28 5.76L615.115 6.82523L618.961 7.67987L620.961 8.44905L622.801 8.96L624.504 9.81157L627.282 10.8799L628.692 11.9054L629.201 12.16L634.293 15.9782L634.322 15.9999L634.327 16.0039L636.882 17.92L638.697 19.9369L640.723 21.7599L642.416 24.0689L642.642 24.32L644.212 26.5173L647.763 31.3599L648.086 31.941L649.043 33.28L653.347 41.4094L654.164 42.8799L654.248 43.1118L654.803 44.16L656.715 49.8944L659.284 56.9599L659.743 58.9786L659.923 59.52L660.555 62.5523L662.484 71.0399L662.988 74.2268L663.124 74.88L663.249 75.8816L664.404 83.1999L665.044 90.2399V103.68L665.041 103.706L664.404 110.72L663.889 113.497L663.764 114.56L662.795 119.407L661.203 128L660.85 129.132L660.564 130.56L659.162 134.533L658.003 138.24L657.228 140.013L656.724 141.44L655.759 143.371L653.523 148.48L651.607 151.673L651.604 151.68L651.578 151.722L647.763 158.08L647.218 158.807L646.483 160L644.395 162.57L640.082 168.32L638.788 169.47L638.163 170.24L630.482 176.64L627.919 178.242L626.641 179.2L626.31 179.247L625.362 179.84L623.762 179.611L622.161 179.84L621.408 179.275L620.882 179.2L616.644 175.904L605.52 168.32L605.421 168.267L596.989 163.77L589.508 161.277L584.721 159.84L581.069 159.232L575.155 158.862L569.092 159.165L563.498 159.823L558.159 161.279L558.158 161.28L558.157 161.28L558.157 161.28L554.317 160.64L550.476 154.88L543.436 141.44L538.316 126.08L535.755 108.16V86.4L537.676 71.68L537.806 71.0294L538.316 67.1999L539.102 64.5487L539.596 62.08L541.735 55.6614L543.437 49.9199L544.713 46.7301L544.716 46.72L544.72 46.7108L545.997 43.5199L548.231 39.3007L550.476 34.56L554.317 28.8L555.308 27.5117L557.518 24.3199L559.044 22.6546L560.717 20.48L562.549 18.8312L564.558 16.6399L566.475 15.2977L567.117 14.72L568.635 13.7863L570.958 12.1599L572.662 11.3079L575.438 9.6L577.359 8.95953L578.639 8.31987L583.117 7.04055L583.118 7.04L583.12 7.03976L587.599 5.75987L592.079 5.12L592.08 5.11987H607.441ZM569.038 165.12L561.357 164.48L559.437 165.12V167.04L567.118 174.72L574.798 179.84L585.039 183.68L590.799 184.96V182.4L585.039 176.64L576.718 168.96L569.038 165.12Z" fill="#02CED8"/>
</svg>
