<?xml version="1.0" encoding="UTF-8" standalone="no"?>
<svg
   xmlns:dc="http://purl.org/dc/elements/1.1/"
   xmlns:cc="http://creativecommons.org/ns#"
   xmlns:rdf="http://www.w3.org/1999/02/22-rdf-syntax-ns#"
   xmlns:svg="http://www.w3.org/2000/svg"
   xmlns="http://www.w3.org/2000/svg"
   viewBox="0 0 226.77161 226.77161"
   height="226.77161"
   width="226.77161"
   xml:space="preserve"
   id="svg2"
   version="1.1"><metadata
     id="metadata8"><rdf:RDF><cc:Work
         rdf:about=""><dc:format>image/svg+xml</dc:format><dc:type
           rdf:resource="http://purl.org/dc/dcmitype/StillImage" /></cc:Work></rdf:RDF></metadata><defs
     id="defs6" /><g
     transform="matrix(1.3333333,0,0,-1.3333333,0,226.7716)"
     id="g10"><path
       id="path12"
       style="fill:#2b8388;fill-opacity:1;fill-rule:evenodd;stroke:none"
       d="M 43.253,127.152 H 89.3798 V 85.5969 C 89.3798,64.1373 71.822,46.5792 50.3617,46.5792 H 43.253 c -21.4597,0 -39.018,17.5581 -39.018,39.0177 v 2.5373 c 0,21.4597 17.5583,39.0178 39.018,39.0178" /><g
       id="g14"><g
         id="g16"><path
           id="path18"
           style="fill:#ffffff;fill-opacity:1;fill-rule:evenodd;stroke:none"
           d="m 45.9901,58.4671 -1.6134,-0.3963 0.511,0.7583 c 4.6265,2.8783 10.4018,10.0307 12.9524,17.1068 2.2776,6.3193 2.5444,13.229 1.0216,19.9415 -0.235,1.0355 -0.4887,2.0213 -0.7603,2.9503 l -1.002,2.5029 c -0.0232,0.1353 -0.1001,0.1599 -0.1576,0.2345 C 56.6243,90.4487 56.6546,80.3497 52.342,70.9404 50.0754,65.9957 44.2406,57.2355 38.3664,59.1318 c -2.5827,0.834 -3.8424,1.696 -5.7739,3.0164 -10.3629,7.0841 -10.495,27.3172 4.0734,33.9534 5.1933,2.3655 9.0283,1.7078 14.0975,0.3699 l 1.9281,6.0327 c -6.9998,1.5321 -12.0812,2.2292 -18.7407,-0.6576 C 18.3163,95.0695 13.1922,73.1857 26.4489,59.3929 38.3774,46.9823 61.9662,50.9196 67.9331,69.5662 c 1.4738,4.6046 2.0951,14.5644 -0.7483,18.3155 L 61.5512,85.5584 C 63.364,78.7927 63.7328,72.8442 59.9026,67.106 57.2417,63.1196 53.0175,58.659 45.9901,58.4671" /><path
           id="path20"
           style="fill:#ffffff;fill-opacity:1;fill-rule:evenodd;stroke:none"
           d="m 75.3364,110.2595 c 0.0113,0.9556 -0.0162,-1.3493 0,0 z M 59.3816,98.5816 c 5.4788,0.9431 11.4786,5.108 14.396,9.4708 l 1.0313,1.3315 c 0.3974,0.4274 0.2585,0.2755 0.5218,0.515 C 74.357,104.781 65.6841,99.8223 62.1232,97.3891 l -1.1508,-1.15 c 2.4505,-1.5089 5.2489,-4.2259 9.9014,-2.9061 10.7756,3.0569 11.6691,21.5501 5.7648,28.4672 -0.7534,-0.7917 -1.4082,-2.1399 -2.2776,-3.1689 -5.103,-6.0383 -13.1363,-3.52 -16.1082,-10.9658 -0.8685,-2.1761 -0.8079,-4.7324 -0.0045,-6.9882 z" /><path
           id="path22"
           style="fill:#ffffff;fill-opacity:1;fill-rule:evenodd;stroke:none"
           d="m 56.5863,103.5332 c 0.1741,7.5744 -5.4669,17.3775 -9.3174,19.8351 l 4.9005,-9.4904 c 1.55,-3.3854 2.874,-7.0336 4.4169,-10.3447" /></g><path
         id="path24"
         style="fill:#ffffff;fill-opacity:1;fill-rule:evenodd;stroke:none"
         d="m 45.9901,58.4671 c -1.5281,0.0672 -0.7639,0.023 -1.1024,0.362 l -0.511,-0.7583 z" /></g><path
       id="path26"
       style="fill:#2b8388;fill-opacity:1;fill-rule:nonzero;stroke:none"
       d="m 110.4715,127.9259 v -0.6554 c -1.1018,-0.0595 -1.9956,-0.2183 -2.6903,-0.4666 -0.6852,-0.248 -1.3009,-0.6551 -1.8468,-1.2212 -0.7546,-0.7744 -1.2212,-1.8567 -1.3901,-3.2366 -0.1191,-1.0326 -0.1786,-2.2141 -0.1786,-3.5543 V 97.3267 c 0,-1.6183 0.0794,-2.8891 0.2285,-3.8225 0.1587,-0.9233 0.407,-1.6778 0.7642,-2.2337 0.4966,-0.7844 1.1517,-1.3604 1.946,-1.7376 0.7942,-0.3773 1.8467,-0.6055 3.1671,-0.6849 V 88.1926 H 91.9454 v 0.6554 c 1.122,0.0595 2.0254,0.2183 2.7204,0.4765 0.6849,0.2682 1.2906,0.6653 1.8168,1.2112 0.6156,0.6254 1.0326,1.4097 1.2509,2.363 0.2086,0.953 0.3177,2.4225 0.3177,4.428 v 21.4651 c 0,2.0055 -0.1091,3.475 -0.3177,4.428 -0.2183,0.9533 -0.6353,1.7376 -1.2509,2.3629 -0.5262,0.5661 -1.1319,0.9732 -1.8369,1.2212 -0.6948,0.2483 -1.5985,0.4071 -2.7003,0.4666 v 0.6554 z m 31.9099,-39.7333 c 1.1418,-0.7843 2.4225,-1.4 3.852,-1.8368 1.4199,-0.4468 2.8497,-0.665 4.2891,-0.665 1.2212,0 2.3729,0.1488 3.475,0.4368 1.0922,0.288 1.9658,0.6851 2.6311,1.1815 0.5757,0.4467 1.0423,0.9629 1.3799,1.5488 0.3376,0.5956 0.6455,1.4097 0.9134,2.4523 l 0.4767,-0.0596 c -0.0796,-1.4397 -0.3177,-2.6608 -0.7149,-3.6538 -0.3971,-0.9927 -1.0326,-1.9556 -1.9063,-2.8891 -2.3034,-2.4423 -5.6392,-3.6635 -9.9977,-3.6635 -2.5419,0 -4.6764,0.4666 -6.4038,1.3898 -1.5488,0.8541 -3.2068,2.3829 -4.9742,4.597 l -0.1786,0.2086 c -1.698,0 -3.475,0.2679 -5.3019,0.8042 -1.8366,0.5261 -3.5544,1.2807 -5.1628,2.2536 -3.187,1.8963 -5.6491,4.3883 -7.4063,7.476 -1.7575,3.0878 -2.6312,6.4435 -2.6312,10.0673 0,3.2369 0.6951,6.2549 2.0948,9.0349 1.4001,2.7898 3.4354,5.2123 6.1062,7.2875 1.9658,1.5387 4.1102,2.7103 6.4335,3.5343 2.3232,0.8243 4.6664,1.2413 7.0095,1.2413 2.7601,0 5.4306,-0.5562 8.032,-1.6583 1.9757,-0.8736 3.8222,-2.0353 5.54,-3.5045 1.7175,-1.4595 3.1671,-3.1175 4.3585,-4.9544 2.0948,-3.2564 3.1374,-6.8108 3.1374,-10.6531 0,-2.4622 -0.4368,-4.8351 -1.3206,-7.1385 -0.8836,-2.2932 -2.1643,-4.3982 -3.8322,-6.3244 -1.3802,-1.5885 -2.8397,-2.8891 -4.3685,-3.8917 -1.529,-1.0128 -3.3758,-1.8864 -5.5301,-2.6212 z m -16.2329,5.1132 c 1.4196,0.407 2.8197,0.6054 4.2194,0.6054 1.7277,0 3.3857,-0.3373 4.9842,-1.0224 0.6752,-0.2979 1.3799,-0.6752 2.0948,-1.1418 0.7149,-0.4666 1.8864,-1.2906 3.4948,-2.4523 l 0.2582,-0.2086 c 1.2609,0.6752 2.3531,1.4695 3.2763,2.3828 0.9233,0.9136 1.817,2.105 2.6907,3.5841 2.1543,3.5445 3.2366,7.6947 3.2366,12.4504 0,3.1073 -0.4269,6.0661 -1.2708,8.8758 -0.8439,2.8097 -2.0254,5.1826 -3.5643,7.0988 -1.241,1.5687 -2.6212,2.7204 -4.1502,3.4651 -1.5191,0.7344 -3.306,1.1018 -5.3413,1.1018 -2.0551,0 -3.8523,-0.3674 -5.3714,-1.0919 -1.529,-0.7248 -2.9089,-1.8864 -4.1499,-3.475 -1.5191,-1.9162 -2.6907,-4.2792 -3.5345,-7.0789 -0.8439,-2.7998 -1.2708,-5.7484 -1.2708,-8.8461 0,-2.8693 0.3475,-5.4408 1.0522,-7.6947 0.6951,-2.2535 1.8071,-4.4478 3.346,-6.5525 z m 8.3994,-5.2322 -0.1987,0.2381 c -1.3601,1.648 -2.5118,2.7998 -3.4648,3.4651 -0.9533,0.6652 -1.9162,1.0029 -2.9092,1.0029 -0.3671,0 -0.7744,-0.0797 -1.2212,-0.2384 1.2212,-1.4298 2.4225,-2.4821 3.5941,-3.1473 1.1715,-0.6653 2.5716,-1.1022 4.1998,-1.3204" /><path
       id="path28"
       style="fill:#2b8388;fill-opacity:1;fill-rule:nonzero;stroke:none"
       d="M 112.9929,56.6376 110.7913,49.136 H 90.451 v 0.8184 c 2.5841,2.0163 4.5981,3.6173 6.0488,4.8033 1.4514,1.192 2.772,2.3839 3.9626,3.5759 1.1982,1.192 2.1359,2.3542 2.8125,3.475 0.6764,1.1268 1.0109,2.1883 1.0109,3.1963 0,0.504 -0.1548,1.109 -0.4729,1.8088 -0.3098,0.6996 -0.9048,1.3343 -1.7691,1.8975 -0.8722,0.5633 -2.0627,0.8479 -3.5872,0.8479 -2.6819,0 -4.6633,-1.0673 -5.9593,-3.208 h -1.3697 c 0.489,1.0259 1.1413,2.0696 1.9565,3.1368 0.8235,1.0616 1.9732,2.0163 3.4568,2.8585 1.4758,0.8478 3.261,1.2691 5.3482,1.2691 1.2308,0 2.5435,-0.1959 3.9376,-0.593 1.3938,-0.3975 2.5923,-1.0971 3.6034,-2.0934 1.0029,-0.9964 1.5083,-2.3188 1.5083,-3.9671 0,-2.4908 -1.859,-5.029 -5.5766,-7.6144 l -7.9325,-5.4794 h 7.3945 c 1.7609,0 3.041,0.0652 3.8562,0.1899 0.8071,0.1304 1.4103,0.3736 1.8017,0.7294 0.3994,0.3617 0.8479,0.9785 1.3369,1.8501 z m 16.6309,0.3972 v 8.1482 c 0,1.8085 -0.1142,3.2496 -0.3504,4.3287 -0.2366,1.0795 -0.5952,1.8681 -1.0845,2.3661 -0.4892,0.4924 -1.133,0.7413 -1.9403,0.7413 -0.9947,0 -1.7362,-0.3796 -2.2258,-1.1444 -0.4889,-0.765 -0.7823,-1.6486 -0.8883,-2.6569 -0.1061,-1.002 -0.163,-2.2178 -0.163,-3.6348 v -8.1482 c 0,-2.5855 0.2525,-4.4652 0.7579,-5.6217 0.5055,-1.1622 1.378,-1.7433 2.6173,-1.7433 1.2798,0 2.1438,0.6642 2.584,1.9984 0.1551,0.4269 0.3099,1.1622 0.4649,2.194 0.1548,1.0378 0.2282,2.0994 0.2282,3.1726 z m -14.3813,3.9141 c 0,2.1407 0.3263,4.0203 0.9868,5.6395 0.6519,1.6129 1.5327,2.9412 2.6331,3.9849 1.1089,1.0378 2.3071,1.8026 3.5954,2.3009 1.2963,0.4921 2.5923,0.7413 3.8889,0.7413 1.7935,0 3.53,-0.4805 5.2256,-1.4352 1.696,-0.9607 3.0816,-2.4015 4.1658,-4.3172 1.0764,-1.9154 1.6147,-4.2222 1.6147,-6.9142 0,-2.1527 -0.457,-4.1749 -1.3618,-6.0549 -0.9048,-1.8796 -2.2014,-3.3919 -3.8889,-4.5246 -1.6874,-1.1325 -3.6195,-1.696 -5.8045,-1.696 -2.0627,0 -3.9376,0.5278 -5.6253,1.5775 -1.6875,1.0497 -3.0081,2.5084 -3.9784,4.3764 -0.9701,1.868 -1.4514,3.979 -1.4514,6.3216 z m 38.8389,-3.9141 v 8.1482 c 0,1.8085 -0.1142,3.2496 -0.3503,4.3287 -0.2367,1.0795 -0.5953,1.8681 -1.0846,2.3661 -0.4892,0.4924 -1.133,0.7413 -1.9403,0.7413 -0.9947,0 -1.7362,-0.3796 -2.2258,-1.1444 -0.4889,-0.765 -0.7823,-1.6486 -0.8883,-2.6569 -0.1061,-1.002 -0.163,-2.2178 -0.163,-3.6348 v -8.1482 c 0,-2.5855 0.2525,-4.4652 0.758,-5.6217 0.5054,-1.1622 1.3779,-1.7433 2.6172,-1.7433 1.2798,0 2.1438,0.6642 2.584,1.9984 0.1554,0.4269 0.3099,1.1622 0.4649,2.194 0.1548,1.0378 0.2282,2.0994 0.2282,3.1726 z m -14.3813,3.9141 c 0,2.1407 0.3263,4.0203 0.9868,5.6395 0.6519,1.6129 1.5327,2.9412 2.6334,3.9849 1.1086,1.0378 2.3068,1.8026 3.5951,2.3009 1.2963,0.4921 2.5923,0.7413 3.8889,0.7413 1.7935,0 3.53,-0.4805 5.2257,-1.4352 1.6959,-0.9607 3.0815,-2.4015 4.1657,-4.3172 1.0764,-1.9154 1.6147,-4.2222 1.6147,-6.9142 0,-2.1527 -0.457,-4.1749 -1.3618,-6.0549 -0.9048,-1.8796 -2.2014,-3.3919 -3.8889,-4.5246 -1.6874,-1.1325 -3.6195,-1.696 -5.8045,-1.696 -2.0627,0 -3.9376,0.5278 -5.6253,1.5775 -1.6875,1.0497 -3.0081,2.5084 -3.9784,4.3764 -0.9701,1.868 -1.4514,3.979 -1.4514,6.3216" /></g></svg>