<svg width="380" height="355" viewBox="0 0 380 355" fill="none" xmlns="http://www.w3.org/2000/svg">
<path d="M330.188 246.953C318.423 254.026 305.24 257.75 291.673 259.427C287.365 236.667 278.303 212.958 270.668 195.349C276.548 187.625 282.199 179.724 287.558 171.625C290.923 166.542 294.423 161.156 297.876 155.542C310.683 162.078 322.657 169.682 333.365 178.474C359.86 200.229 361.407 228.193 330.188 246.953ZM273.73 314.385C250.037 333.865 212.235 319.01 190.694 303.896C186.746 301.125 182.97 298.151 179.329 295.026C189.855 285.068 199.652 274.729 208.464 265.495C229.225 268.557 249.454 270.125 268.022 270.125C273.923 270.125 280.1 269.854 286.371 269.25C288.975 286.854 286.824 303.625 273.73 314.385ZM81.1936 315.531C71.454 294.984 82.1936 262.766 95.8394 233.891C105.829 238.297 116.235 242.318 126.907 245.943C137.334 263.74 149.433 280.662 163.381 294.755C128.793 323.521 93.8863 342.318 81.1936 315.531ZM59.0061 201.943C36.7821 187.094 14.1415 164.359 43.1884 143.51C53.1519 136.354 64.98 131.542 77.5321 128.313C82.7925 145.974 88.6675 161.531 92.1936 170.979C95.6571 180.26 99.579 190.162 103.99 200.328C101.694 204.63 99.4696 208.927 97.3238 213.208C96.2404 215.354 94.8759 218.078 93.3342 221.24C81.3498 215.578 69.8342 209.182 59.0061 201.943ZM98.0165 31.2865C134.574 31.2865 166.037 52.8282 192.209 82.5521C181.74 91.9584 171.855 102.214 162.548 113.052C150.043 112.667 137.626 112.875 125.438 113.677C113.214 114.479 99.3759 115.245 85.6102 117.245C74.6831 81.0938 65.1311 31.2865 98.0165 31.2865ZM265.584 184.005C257.782 167.073 249.423 150.24 239.975 134.083C255.839 138.182 271.376 143.401 286.027 149.901C279.272 162.281 272.084 174.037 265.584 184.005ZM198.589 90.0782C206.095 99.2657 213.126 109.078 219.683 119.167C205.032 116.427 190.22 114.625 175.459 113.667C175.808 113.307 176.147 112.943 176.496 112.583C183.266 105.552 190.657 97.7709 198.589 90.0782ZM110.944 187.662C105.865 175.021 101.24 162.406 96.8394 150.24C95.1363 145.531 91.8446 136.714 88.3394 125.938C106.381 122.589 125.22 121.932 141.746 121.932C146.084 121.932 150.496 122.016 154.964 122.162C138.308 142.802 123.636 165.193 110.944 187.662ZM119.204 232.115C112.85 229.755 106.584 227.208 100.428 224.49C103.016 219.354 105.626 214.391 108.168 209.688C111.579 217.135 115.256 224.656 119.204 232.115ZM134.115 237.292C126.954 224.417 120.647 210.948 114.933 197.38C117.662 192.484 120.141 188.068 122.199 184.297C134.418 161.839 149.871 141.594 167.006 122.729C186.605 123.953 206.996 126.625 227.11 131.021C239.912 152.219 250.678 174.005 259.365 193.313C253.272 202.214 248.303 208.813 245.694 211.818C240.569 217.714 225.662 234.875 206.678 254.287C182.355 250.443 157.772 244.958 134.115 237.292ZM142.11 250.802C160.261 256.229 178.912 260.547 197.308 263.708C189.1 271.818 180.365 280.063 171.49 287.833C160.319 276.875 150.641 264.313 142.11 250.802ZM267.376 211.734C272.621 224.188 280.532 242.125 284.641 260.125C272.527 261.026 260.24 260.495 248.485 259.438C238.36 258.521 228.058 257.365 217.668 255.917C233.871 239.318 249.563 222.078 264.027 203.885C265.188 206.568 266.308 209.193 267.376 211.734ZM281.131 45.5417C328.418 45.5417 314.147 95.4948 290.782 140.938C272.183 132.662 252.548 126.328 232.464 121.797C224.418 109.177 215.579 97.0886 205.652 85.849C205.261 85.4115 204.865 84.9636 204.459 84.5053C226.584 63.9844 252.584 45.5417 281.131 45.5417ZM330.725 162.964C321.897 156.995 312.652 151.615 303.084 146.776C315.22 125.594 325.282 101.802 323.72 78.5678C320.845 35.849 279.74 28.9271 246.532 45.198C229.209 53.6823 213.043 64.6875 198.016 77.474C172.371 50.1667 124.688 7.52088 89.5529 20.5938C58.5113 32.1459 64.0165 79.0209 74.9019 119.073C58.0946 122.427 42.0686 128.146 29.9852 138.604C2.23523 162.625 26.2925 191.87 49.5061 208.203C61.2977 216.505 74.5842 224.01 88.8446 230.703C71.3654 268.516 44.5061 339.693 96.4592 339.693C122.761 339.693 148.532 322.662 171.376 302.328C192.037 320.63 216.449 332.557 245.131 332.557C289.022 332.557 297.615 302.734 293.126 268.458C316.944 265.182 341.11 256.5 355.548 237.594C377.824 208.427 356.293 180.245 330.725 162.964Z" fill="#86AADF"/>
<path d="M225.552 185.068C223.63 201.906 208.656 214.594 192.776 218.443C175.208 222.703 158.76 208.927 154.958 192.177C152.031 179.271 156.443 166.661 165.562 158.057C173.088 144.844 193.62 142.88 206.401 148.807C219.885 155.062 227.203 170.573 225.552 185.068Z" fill="#F46A61"/>
<mask id="mask0_152_342" style="mask-type:luminance" maskUnits="userSpaceOnUse" x="0" y="0" width="380" height="355">
<path d="M0.0566406 0.239624H379.609V354.75H0.0566406V0.239624Z" fill="white"/>
</mask>
<g mask="url(#mask0_152_342)">
<path d="M330.922 195.828C325.156 195.266 320.588 196.24 315.234 193.063C310.234 190.094 307.625 185.724 305.26 180.578C304.812 179.599 303.26 180.109 303.286 181.115C303.432 187.521 308.114 193.052 313.364 196.261C318.151 199.188 326.515 201.714 331.531 198.068C332.515 197.354 332.14 195.948 330.922 195.828ZM223.198 215.781C216.031 218.412 209.88 222.948 202.39 225.042C194.437 227.266 186.593 227.208 178.432 227.208C176.974 227.208 176.672 229.365 178.088 229.755C186.276 232.005 195.343 231.109 203.463 228.948C210.807 226.99 219.739 223.688 224.448 217.412C225.021 216.651 224.062 215.464 223.198 215.781ZM141.682 1.62508C136.656 -0.234292 128.281 -0.817625 124.479 3.75529C124.036 4.28654 124.281 5.2605 125.083 5.22404C127.771 5.10946 130.297 4.06779 133.01 4.01571C136.333 3.95842 139.755 4.80737 142.661 6.41675C147.333 9.0105 149.276 16.3178 154.562 17.3386C155.604 17.5365 156.245 16.5834 155.849 15.6615C153.302 9.70842 147.812 3.88029 141.682 1.62508ZM98.0049 41.1511C89.9945 42.3126 84.4841 52.5417 82.6716 59.5834C81.0206 65.9897 80.3904 78.4688 87.0883 82.3751C87.9893 82.9011 89.156 82.2293 89.156 81.1876C89.1508 78.1043 87.5101 75.2813 86.9424 72.2553C86.2341 68.4845 86.4216 64.5886 87.3174 60.8699C88.1664 57.323 89.6351 53.948 91.7654 50.9897C93.906 48.0157 96.9268 45.9949 99.1872 43.1876C99.9841 42.2032 99.2289 40.974 98.0049 41.1511ZM375.531 200.109C374.864 198.776 372.859 199.724 373.192 201.099C375.588 210.901 376.625 220.49 374.151 230.412C373.01 234.984 371.25 239.359 368.922 243.453C366.536 247.667 363.14 251.188 360.739 255.365C360.151 256.38 361.307 257.438 362.297 256.922C371.146 252.297 376.146 239.995 378.224 230.781C380.495 220.724 380.224 209.458 375.531 200.109ZM331.864 43.948C323.849 33.0834 311.182 25.9688 297.755 24.8542C296.609 24.7605 296.39 26.5782 297.489 26.849C310.229 29.9845 322.703 36.1928 330.073 47.5001C334.156 53.7657 336.073 60.9584 336.755 68.3543C337.401 75.4324 335.703 83.1563 337.166 90.0365C337.422 91.2345 339.041 91.0313 339.396 90.0365C341.984 82.724 341.073 72.4376 340.026 64.8542C338.984 57.3022 336.411 50.099 331.864 43.948ZM280.427 333.573C272.364 337.469 264.802 341.719 255.906 343.464C246.859 345.245 237.385 344.948 228.416 342.896C226.786 342.521 226.146 344.87 227.729 345.396C244.76 351.083 268.786 349.109 281.771 335.318C282.656 334.375 281.541 333.031 280.427 333.573ZM205.224 341.552C199.922 338.328 194.062 336.281 188.885 332.776C183.333 329.021 179.052 324.162 173.968 319.891C173.224 319.266 172.182 320.031 172.625 320.932C177.843 331.583 192.807 342.49 204.687 343.526C205.781 343.625 206.067 342.063 205.224 341.552ZM85.8331 350.63C71.1039 351.234 60.3747 343.375 56.2289 329.068C51.8904 314.052 55.9216 298.667 54.6924 283.438C54.5935 282.151 52.6143 281.677 52.307 283.109C50.2966 292.469 49.7601 302.651 49.6612 312.208C49.5779 320.349 50.4685 328.5 53.7289 336.026C58.7237 347.573 73.2549 360.203 86.3695 352.609C87.2549 352.094 86.9008 350.589 85.8331 350.63ZM22.0049 200.974C22.7654 201.656 22.1404 202.948 21.1872 202.948C11.9685 202.969 5.34868 192.552 2.56743 184.886C-1.81798 172.771 0.374726 159.865 2.85389 147.615C3.1716 146.047 5.80181 146.406 5.64556 147.99C4.58306 158.708 3.01014 170.328 6.06743 180.844C7.39035 185.396 9.65077 189.766 12.7914 193.328C15.4737 196.375 18.9997 198.307 22.0049 200.974Z" fill="#2E2E30"/>
</g>
<path d="M135.38 154.26C131.068 151.807 126.042 150.047 121.136 151.698C119.084 152.38 116.714 153.901 115.459 155.87C112.058 160.287 111.677 167.385 113.844 172.943C117.985 183.568 127.729 184.375 136.214 177.979C140.328 174.88 143.761 170.49 143.61 165.083C143.464 159.865 139.584 156.651 135.38 154.26ZM343.552 162.578C329.058 143.552 301.177 165.896 313.532 182.25C324.938 197.359 356.964 180.182 343.552 162.578ZM144.099 43.5521C135.568 50.5001 121.573 52.5938 116.313 40.5209C113.532 34.1407 115.224 27.8126 119.266 23.2709C124.037 13.4532 134.808 8.84381 144.844 16.3646C154.526 23.6251 153.016 36.2865 144.099 43.5521Z" fill="#F6B737"/>
<path d="M131.016 155.943C130.01 155.896 129.313 157.37 130.146 158.052C132.083 159.63 134.073 160.646 135.26 163.005C136.286 165.057 136.042 167.443 136.984 169.453C137.208 169.932 137.891 169.937 138.234 169.615C140.391 167.547 139.286 163.635 138.068 161.359C136.693 158.792 134.083 156.083 131.016 155.943ZM327.615 162.365C328.151 161.917 327.87 160.906 327.198 160.776C315.906 158.505 309.516 181.448 323.734 181.469C324.583 181.469 324.885 180.484 324.385 179.896C323.401 178.729 322.156 177.979 321.094 176.906C319.042 174.833 319.229 171.812 320.479 169.328C322.141 166.01 324.927 164.625 327.615 162.365ZM128.224 19.0937C123.646 22.1198 119.604 25.9531 119.823 31.9114C119.953 35.4896 122.354 41.3646 126.792 40.4114C127.479 40.2656 127.667 39.4739 127.401 38.9219C125.979 35.9896 123.375 34.6562 123.505 30.901C123.641 26.9791 126.479 23 129.24 20.4166C129.932 19.7708 129.026 18.5625 128.224 19.0937ZM205.521 203.969C202.042 204.349 198.833 205.995 195.385 206.698C191.156 207.568 186.859 207.797 182.557 207.505C181.302 207.422 181.021 209.448 182.255 209.714C189.521 211.266 200.589 211.604 206.359 205.995C207.042 205.333 206.573 203.854 205.521 203.969ZM176.214 157.359C171.052 163.922 167.911 171.812 166.724 180.052C166.104 184.359 165.604 189.089 166.938 193.307C168.229 197.401 171.453 200.297 173.719 203.823C174.25 204.641 173.375 205.479 172.557 205.339C162.26 203.557 160.76 190.177 161.854 181.859C163.177 171.802 166.557 161.932 174.964 155.74C175.995 154.979 176.859 156.531 176.214 157.359Z" fill="white"/>
</svg>
