<svg width="93" height="93" viewBox="0 0 93 93" fill="none" xmlns="http://www.w3.org/2000/svg">
<mask id="mask0_146_322" style="mask-type:luminance" maskUnits="userSpaceOnUse" x="0" y="0" width="94" height="94">
<path d="M0 0H93.0052V93.0052H0V0Z" fill="white"/>
</mask>
<g mask="url(#mask0_146_322)">
<mask id="mask1_146_322" style="mask-type:luminance" maskUnits="userSpaceOnUse" x="0" y="0" width="94" height="94">
<path d="M46.5052 0C20.8229 0 0 20.8177 0 46.5C0 72.1823 20.8229 93.0052 46.5052 93.0052C72.1875 93.0052 93.0052 72.1823 93.0052 46.5C93.0052 20.8177 72.1875 0 46.5052 0Z" fill="white"/>
</mask>
<g mask="url(#mask1_146_322)">
<path d="M0 0H93.0052V93.0052H0V0Z" fill="#F14E87"/>
</g>
</g>
<path d="M53.2705 83.1823C49.8486 84.1875 46.4111 84.5209 42.8122 83.8854C42.4788 83.8334 42.2132 83.5156 42.2288 83.1823C42.2497 82.6563 42.3174 82.2656 42.2653 81.599C42.1611 80.3125 41.8955 80.5417 41.6663 80.0313C41.2601 79.1511 42.4945 78.2709 42.3903 77.3177C42.3174 76.6667 41.6507 76.125 41.7913 75.4896C41.9632 74.6771 43.0413 74.7344 42.7236 72.1459C42.6872 71.8959 42.8851 71.7031 43.1299 71.6875C46.9736 71.0886 50.1663 71.1771 53.5674 71.5469C53.7965 71.5469 53.9945 71.7396 53.9736 71.9844C53.7965 73.8334 53.6559 74.3959 54.0101 74.8542C54.0986 74.9792 54.2236 75.0834 54.2913 75.224C54.5934 75.8386 53.5153 76.5625 53.8486 77.1615C54.0101 77.4271 54.3799 77.599 54.3278 77.9011C54.307 78.0261 54.1872 78.1094 54.0986 78.1979C53.4997 78.7969 53.5517 79.75 53.6195 80.5781C53.6924 81.2604 53.6924 81.8281 53.7445 82.4584C53.7653 82.7761 53.5674 83.0781 53.2705 83.1823Z" fill="#FFC502"/>
<mask id="mask2_146_322" style="mask-type:luminance" maskUnits="userSpaceOnUse" x="40" y="69" width="15" height="16">
<path d="M40.332 69.5781H54.9987V84.9271H40.332V69.5781Z" fill="white"/>
</mask>
<g mask="url(#mask2_146_322)">
<path d="M42.7375 84.2917C42.1906 84.1875 41.7896 83.7084 41.8209 83.1667C41.8417 82.6198 41.9094 82.2657 41.8573 81.6302C41.8209 81.2813 41.8052 80.9636 41.6646 80.7344C41.5917 80.6302 41.399 80.4375 41.2948 80.2084C40.9771 79.5365 41.3104 78.9219 41.6125 78.375C42.1073 77.4792 42.0709 77.3386 41.7167 76.6875C41.5031 76.3177 41.274 75.875 41.399 75.3646C41.4719 75.0313 41.6802 74.7865 41.8573 74.5729C41.9094 74.5052 41.9615 74.4479 42.0188 74.3802C42.4563 73.7813 42.4406 72.9167 42.3365 72.1771C42.2792 71.7032 42.6542 71.2969 43.1281 71.2657C48.7011 70.4011 53.3365 71.1042 53.6386 71.125C54.149 71.1771 54.4511 71.5782 54.3938 72.0209C54.2219 74.0104 54.0761 74.2761 54.4511 74.6979C54.9615 75.2604 54.8365 75.7188 54.4511 76.3854C54.1334 76.9479 54.2011 76.9323 54.3781 77.125C54.5552 77.2865 54.8209 77.5677 54.7479 77.9688C54.7115 78.1823 54.5552 78.3386 54.4667 78.4271C53.7948 79.099 54.0604 80.1198 54.1334 81.6146C54.149 81.8802 54.149 82.1407 54.1854 82.4271C54.2011 82.9532 53.8834 83.4271 53.4094 83.5677C49.8469 84.6094 46.3365 84.9271 42.7375 84.2917ZM43.1959 72.0938C43.2531 73.3073 43.2323 74.2032 42.4771 75.1198C42.3365 75.2761 42.2271 75.4167 42.1906 75.5782C42.1386 75.7865 42.2792 76.0365 42.4406 76.3177C42.9511 77.2292 42.9667 77.6563 42.3365 78.7813C42.0709 79.2761 41.9094 79.5886 42.0344 79.8542C42.0709 79.9271 42.1229 79.9948 42.1906 80.0834C42.5656 80.5417 42.6177 80.9115 42.6698 81.5261C42.7375 82.2657 42.6542 82.6563 42.6334 83.1979C42.6334 83.3386 42.7375 83.4636 42.8834 83.5C46.2115 84.0782 49.5656 83.849 53.1438 82.7969C53.2688 82.7604 53.3573 82.6198 53.3573 82.4792C53.3 81.8282 53.3 81.2813 53.2323 80.6302C53.1438 79.6979 53.1073 78.6407 53.8313 77.9167C53.8677 77.8854 53.9042 77.849 53.9198 77.8282C53.8313 77.724 53.6386 77.5834 53.5344 77.375C53.2479 76.8594 53.5344 76.349 53.7427 76C54.0604 75.4532 54.0084 75.4375 53.8469 75.2761C53.1438 74.4844 53.4615 73.8698 53.5865 71.9688C53.0917 71.9323 48.7688 71.2292 43.1959 72.0938Z" fill="#FFC502"/>
</g>
<path d="M35.0723 61.4426C32.8848 59.3645 30.4161 57.7968 28.989 55.1718C23.2911 44.7499 29.4994 31.2499 41.4005 27.1666C46.7442 25.3332 52.8275 25.3541 58.0307 27.6041C62.6348 29.6145 67.0046 33.6614 68.89 37.9582C71.6244 44.1718 70.0046 51.4062 65.7338 56.7395C63.9525 58.9582 61.7494 60.8593 59.9369 63.0416C57.9421 65.4374 57.2025 68.0051 56.1088 70.7707C55.4369 72.4426 55.0307 71.7551 53.1088 71.651C47.6452 71.3332 46.4786 71.8072 42.3536 71.8437C41.5046 71.8437 40.7286 71.2447 40.6452 70.401C40.588 69.927 40.4682 69.453 40.3275 68.9947C39.3744 66.052 37.3119 63.5728 35.0723 61.4426Z" fill="white"/>
<path d="M53.0928 72.0729C47.5564 71.7552 46.5668 72.2344 42.3689 72.2656H42.3533C41.2751 72.2656 40.3585 71.4739 40.2543 70.4531C40.2178 70.0677 40.1137 69.625 39.9522 69.1354C39.3376 67.2344 38.1918 65.3646 36.4626 63.4479C33.3793 60.0156 30.3793 58.5729 28.6345 55.3646C22.7074 44.5208 29.3376 30.8646 41.2751 26.776C46.921 24.8437 53.072 25.0156 58.2074 27.2343C63.0356 29.3281 67.3741 33.4844 69.2803 37.7968C71.9418 43.8541 70.7074 51.2135 66.072 56.9844C64.2699 59.2396 62.0512 61.125 60.2491 63.3073C58.3116 65.6458 57.5876 68.1666 56.4939 70.9271C55.7022 72.9166 54.9418 72.1771 53.0928 72.0729ZM53.1293 71.2448C55.1918 71.3698 55.1918 71.9479 55.7178 70.6302C56.8324 67.8333 57.572 65.2448 59.5981 62.7969C61.4158 60.6146 63.6553 58.6771 65.4001 56.4948C69.8428 50.9479 71.0251 43.9062 68.5043 38.1302C66.6866 33.9948 62.5095 30.0156 57.8533 27.9948C52.9158 25.8437 46.9731 25.6875 41.5251 27.5521C30.1137 31.4583 23.6606 44.5781 29.3376 54.9791C30.9626 57.9375 34.0303 59.5208 37.0616 62.901C38.8637 64.9062 40.0616 66.8646 40.7126 68.8854C40.8897 69.4323 40.9939 69.9271 41.046 70.3854C41.1189 70.9844 41.6814 71.4583 42.3376 71.4583H42.3533C44.5043 71.4375 46.6553 71.2291 48.8428 71.1562C50.3064 71.1041 51.6814 71.1562 53.1293 71.2448Z" fill="black"/>
<path d="M54.0468 75.1198C49.9166 74.5052 46.5156 74.4167 42.3541 74.8177C42.2291 74.8385 42.1406 74.75 42.1249 74.6458C42.1093 74.5365 42.1926 74.4323 42.302 74.4167C46.5156 73.9948 49.9374 74.0781 54.0989 74.7135C54.2031 74.7344 54.2916 74.8385 54.276 74.9427C54.276 75.0677 54.1666 75.1354 54.0468 75.1198Z" fill="black"/>
<path d="M46.1823 78.2864C44.875 78.2344 43.5729 78.1458 42.3177 78.0781C42.2135 78.0781 42.125 77.9687 42.125 77.8646C42.125 77.7604 42.2292 77.6562 42.3385 77.6719C43.6042 77.7604 44.9115 77.8281 46.1979 77.8854C53.9063 78.3385 54.4531 77.3541 54.5208 77.901C54.5365 78.0052 54.4531 78.1094 54.3438 78.1302C51.6094 78.5156 48.9687 78.4479 46.1823 78.2864Z" fill="black"/>
<path d="M45.7539 81.6666L42.2279 81.4583C41.9831 81.4374 41.9622 81.0676 42.2487 81.052C45.931 81.2291 49.6862 81.6666 53.6758 81.1041C53.957 81.0676 53.9935 81.4739 53.7279 81.5103C52.3008 81.7187 48.4362 81.828 45.7539 81.6666Z" fill="black"/>
<path d="M55.0832 66.4739C54.8748 66.4218 54.7342 66.2135 54.7863 65.9843C55.3696 63.5156 56.8852 61.2812 58.9634 59.8385C59.1404 59.7135 59.4061 59.75 59.5311 59.9427C59.6509 60.1354 59.6196 60.3854 59.4217 60.5052C57.5207 61.8437 56.1092 63.9062 55.5779 66.1562C55.5259 66.3854 55.2967 66.5104 55.0832 66.4739Z" fill="black"/>
<path d="M49.6347 58.203C49.4055 57.552 49.4941 58.5208 49.1763 39.5416C49.1399 37.7291 49.1243 35.8593 49.7753 34.1718C50.1295 33.2395 50.9784 32.6926 51.8951 32.3072C52.8118 31.9374 53.8691 31.901 54.8222 32.2343C56.3013 32.7655 56.7597 33.7864 56.8326 35.3176C56.8482 35.526 57.0774 35.6666 57.2701 35.5468C58.2961 34.8749 59.6868 34.6978 60.8534 35.0885C63.4107 35.9166 64.5357 39.1197 62.7024 41.3906C62.5618 41.5676 62.6659 41.8281 62.8951 41.8489C63.3743 41.901 63.8847 42.0781 64.2024 42.3385C65.4003 43.2708 65.9993 44.8749 65.7336 46.3697C65.4888 47.7083 64.5201 48.8697 63.2649 49.4166C63.093 49.4895 63.0566 49.7343 63.1972 49.8749C63.7597 50.4531 64.2024 51.4062 64.3274 52.1458C64.4836 53.026 64.343 53.9426 64.1138 54.802C63.9732 55.2968 63.7961 55.8072 63.3899 56.1405C62.8066 56.6353 61.9263 56.5989 61.2024 56.3176C60.6399 56.1041 60.1086 55.7708 59.5826 55.5103C59.3899 55.4218 59.1607 55.5416 59.1607 55.7551C59.1763 56.177 59.1399 56.6145 59.0357 57.0208C58.6816 58.2916 57.6399 58.8541 56.5461 58.4999C56.2336 58.3958 55.9472 58.2343 55.7024 58.026C55.5409 57.8853 55.2805 57.9374 55.2284 58.151C54.7857 59.7135 52.6347 60.7708 50.8013 59.6093C50.2336 59.2395 49.8326 58.7812 49.6347 58.203Z" fill="#FF5F6F"/>
<path d="M48.03 57.1823C47.9623 53.9062 47.7488 43.3594 47.6602 39.4167C47.6238 37.6042 47.5717 35.7396 46.8477 34.0677C46.4623 33.151 45.5977 32.625 44.6602 32.2865C42.9154 31.6354 41.0456 32.3073 40.3425 33.3802C39.9363 33.9792 39.8686 34.7344 39.8477 35.4583C39.8477 35.6667 39.6029 35.8073 39.4258 35.7031C38.3686 35.0677 36.9727 34.9479 35.8269 35.3698C33.3061 36.3021 32.3008 39.5208 34.2071 41.7396C34.3633 41.9167 34.2592 42.1823 34.03 42.2187C33.5508 42.2865 33.0613 42.4792 32.7436 42.7448C31.5769 43.7135 31.03 45.349 31.3686 46.8281C31.6654 48.151 32.6706 49.2917 33.9415 49.7708C34.1186 49.8385 34.1706 50.0677 34.03 50.2083C33.4831 50.8229 33.0769 51.776 32.9883 52.5312C32.8633 53.4323 33.0248 54.3281 33.3061 55.1927C33.4675 55.6823 33.6758 56.1771 34.0665 56.4948C34.6654 56.9687 35.5456 56.901 36.2488 56.599C36.8165 56.3698 37.3113 56.0208 37.8581 55.7344C38.0508 55.6302 38.28 55.7552 38.28 55.9844C38.28 56.4062 38.3165 56.8437 38.4363 57.2344C38.9467 58.8906 40.6238 59.1875 41.8061 58.0937C41.9623 57.9531 42.2279 57.9896 42.28 58.2031C42.7748 59.75 44.9623 60.7187 46.7592 59.5052C47.1133 59.2552 47.4675 58.9583 47.7123 58.5885C48.03 58.1146 48.03 57.724 48.03 57.1823Z" fill="#68BBFF"/>
<path d="M52.8634 36.7396C52.7592 36.4948 53.1446 36.3385 53.2488 36.5989C54.1134 38.8177 56.6707 39.875 58.8582 38.9271C58.9624 38.8698 59.0874 38.9271 59.1238 39.0312C59.1759 39.1354 59.1238 39.2604 59.0144 39.2969C56.6342 40.3333 53.8165 39.1875 52.8634 36.7396Z" fill="black"/>
<path d="M61.8227 45.6823C59.3175 45.6666 57.13 43.9427 56.5466 41.4791C56.4789 41.2135 56.8852 41.125 56.9529 41.3906C57.4998 43.6771 59.531 45.2448 61.8383 45.2812C61.9477 45.2812 62.0519 45.3698 62.0519 45.4896C62.031 45.5781 61.9269 45.6823 61.8227 45.6823Z" fill="black"/>
<path d="M56.6042 49.6823H56.5833C56.4792 49.6615 56.3906 49.5729 56.4063 49.4531C56.5469 48.0625 56.4271 46.9531 56.0052 46.0365C55.5104 44.9271 54.5052 44.1354 53.4792 44.0312C53.1979 43.9948 53.25 43.5885 53.5365 43.625C54.6979 43.75 55.8281 44.6302 56.3906 45.8802C56.8333 46.849 56.974 48.0417 56.8333 49.5052C56.7761 49.5937 56.6927 49.6823 56.6042 49.6823Z" fill="black"/>
<path d="M56.6921 55.1562H56.6712C56.5671 55.1405 56.4785 55.052 56.4785 54.927C56.7077 52.2343 59.265 50.3124 61.9629 50.8593C62.2285 50.9114 62.1556 51.3176 61.8743 51.2655C59.4577 50.7551 57.1139 52.4791 56.8848 54.9635C56.9004 55.0676 56.7962 55.1562 56.6921 55.1562Z" fill="black"/>
<path d="M54.0252 55.4895C53.9054 55.4895 53.8168 55.3853 53.8168 55.2812C53.8845 53.802 53.197 52.3385 52.0147 51.4426C51.8064 51.2812 52.0512 50.9478 52.2647 51.1249C53.5356 52.0937 54.2908 53.6926 54.2231 55.2968C54.2387 55.401 54.1345 55.4895 54.0252 55.4895Z" fill="black"/>
<path d="M39.1606 39.1563C38.895 39.099 38.9679 38.7136 39.2335 38.75C40.4471 38.9792 41.77 38.4167 42.4575 37.3959C42.8637 36.7969 43.0564 36.0573 43.2335 35.3698C43.3064 35.1042 43.6919 35.2084 43.6398 35.474C43.4471 36.1771 43.2544 36.9688 42.796 37.6407C42.0512 38.75 40.5721 39.4167 39.1606 39.1563Z" fill="black"/>
<path d="M41.0678 44.1354C38.7397 44.1354 37.172 42.1458 37.1876 40.2083C37.1876 40.1042 37.2762 40 37.4012 40C37.5053 40 37.6095 40.0885 37.6095 40.2083C37.5939 41.5469 38.4584 42.8854 39.6928 43.4323C40.9272 43.9792 42.4793 43.7292 43.4845 42.8333C43.573 42.7604 43.6928 42.7604 43.7657 42.849C43.8334 42.9375 43.8334 43.0625 43.7449 43.1302C43.0262 43.7813 42.0366 44.1354 41.0678 44.1354Z" fill="black"/>
<path d="M37.2394 52.0573C37.1353 52.0208 37.0832 51.901 37.1144 51.7916C37.4322 50.9635 37.7707 50.1198 37.8228 49.2239C37.8749 48.2708 37.5572 47.4114 36.9738 46.9166C36.4478 46.4791 35.7082 46.3385 35.0519 46.1979C34.7863 46.1406 34.8592 45.7396 35.1405 45.7916C35.8124 45.9114 36.6405 46.0885 37.2394 46.5833C37.9269 47.1458 38.2967 48.1302 38.2447 49.2239C38.1926 50.1718 37.8592 51.0729 37.5207 51.9166C37.4686 52.0416 37.3436 52.0937 37.2394 52.0573Z" fill="black"/>
<path d="M40.0612 47.9739C39.9206 47.7448 40.254 47.5156 40.3946 47.7448C40.8737 48.4687 41.7331 48.9219 42.6185 48.9219C43.4831 48.9062 44.3477 48.4114 44.7852 47.6719C44.8373 47.5677 44.9623 47.5521 45.0665 47.6042C45.1758 47.6562 45.1915 47.7812 45.1394 47.8854C44.629 48.75 43.6237 49.3281 42.6185 49.3489C41.5248 49.3489 40.5717 48.7812 40.0612 47.9739Z" fill="black"/>
<path d="M41.1033 55.3646C40.994 55.3333 40.9419 55.2083 40.9783 55.1041C41.3638 54.0469 42.4211 53.2708 43.5356 53.2187C44.645 53.1666 45.7908 53.8177 46.2856 54.8229C46.3377 54.9271 46.2856 55.0521 46.1971 55.1041C46.0929 55.1562 45.9679 55.1198 45.9158 55.0156C45.494 54.151 44.52 53.5885 43.5513 53.6406C42.5825 53.6927 41.6815 54.3646 41.3481 55.2604C41.3325 55.3489 41.2075 55.401 41.1033 55.3646Z" fill="black"/>
<path d="M47.6756 15.3176C47.8006 14.8958 48.0298 14.401 48.4725 14.3489C48.8058 14.3124 49.1235 14.5624 49.2641 14.8593C49.4048 15.1614 49.4048 15.5103 49.4048 15.8437C49.3683 17.8697 49.285 20.302 48.5246 22.203C47.7329 21.9166 47.4829 19.7343 47.3944 18.9947C47.2537 17.7655 47.3423 16.4947 47.6756 15.3176Z" fill="#FFC502"/>
<path d="M28.6133 22.427C28.2279 22.2187 27.7175 22.0416 27.3633 22.3228C27.0977 22.5364 27.0613 22.9426 27.1863 23.2551C27.3113 23.5728 27.556 23.8228 27.806 24.0468C29.2852 25.4374 31.0821 27.078 32.9519 27.8697C33.306 27.1145 31.931 25.4062 31.4571 24.8228C30.6602 23.8385 29.6915 23.026 28.6133 22.427Z" fill="#FFC502"/>
<path d="M17.1353 52.9531C16.7656 53.2031 16.3593 53.5729 16.4478 53.9948C16.4999 54.3281 16.8541 54.5573 17.1874 54.5937C17.526 54.6302 17.8593 54.5416 18.177 54.4166C20.0989 53.7656 22.3905 52.9531 23.9791 51.6875C23.4687 51.0208 21.3176 51.4219 20.578 51.5625C19.3437 51.8125 18.177 52.2708 17.1353 52.9531Z" fill="#FFC502"/>
<path d="M17.5055 37.6406C17.068 37.6562 16.5368 37.7812 16.3805 38.2031C16.2711 38.5208 16.4482 38.8906 16.7138 39.0833C16.9795 39.2968 17.3336 39.3645 17.6513 39.4374C19.6409 39.8385 22.0211 40.2968 24.0524 39.9999C23.943 39.1718 21.8805 38.4322 21.1774 38.1874C20.0107 37.7812 18.7607 37.5885 17.5055 37.6406Z" fill="#FFC502"/>
<path d="M69.6508 40.4375C68.6821 40.1927 67.7133 39.9479 66.7237 39.6979C64.3435 38.6093 65.5935 36.9895 65.7185 35.2448C65.8071 33.8177 64.8175 32.8177 63.3904 32.9218C62.7758 32.9739 62.1769 33.151 61.5727 33.2916C60.1977 33.6458 59.0883 33.026 58.6456 31.6875C58.4165 31.0052 58.2237 30.3177 58.031 29.6145C57.6769 28.2239 58.2237 27.1458 59.5623 26.6354C60.0206 26.4635 60.479 26.302 60.9425 26.2135C62.5987 25.8958 63.1977 23.6458 61.8383 22.552C61.5206 22.3073 61.255 21.9895 60.9946 21.7083C60.0571 20.7239 59.9529 19.3854 60.781 18.3281C61.3435 17.5885 62.0154 16.9531 62.7029 16.3541C63.479 15.6875 64.729 15.7239 65.5415 16.3541C66.0362 16.7448 66.479 17.1666 66.9685 17.552C68.2029 18.5416 69.7394 18.151 70.3904 16.7083C71.0467 15.2656 70.7446 13.276 73.3383 13.4323C74.3071 13.6823 75.2758 13.927 76.2654 14.1718C78.6456 15.2656 77.3904 16.8854 77.2706 18.625C77.1612 20.177 78.38 21.2135 79.8956 20.8802C80.4269 20.7552 80.9373 20.5833 81.4685 20.4427C82.7862 20.1041 83.9373 20.7031 84.3592 22.0052C84.5883 22.6927 84.7967 23.3802 84.9737 24.0833C85.505 26.1093 84.2185 27.0781 82.1717 27.4843C80.354 27.8541 79.8071 30.2083 81.1821 31.3177C81.4685 31.5468 81.6977 31.8281 81.9581 32.0781C82.9842 33.1145 83.0727 34.5416 82.1717 35.6666C81.6248 36.3541 80.9894 36.9895 80.3383 37.5677C79.5415 38.2552 78.2915 38.2552 77.4477 37.6041C77.005 37.25 76.6144 36.8489 76.229 36.4427C75.0102 35.2656 73.354 35.5625 72.63 37.1093C72.4217 37.5677 72.3123 38.0625 72.1925 38.5364C71.7654 40 71.0779 40.526 69.6508 40.4375Z" fill="white"/>
<path d="M69.6139 40.8437C69.5253 40.8437 69.5983 40.8437 66.6191 40.1042C65.067 39.401 64.6087 38.4167 64.9941 36.8125C65.2597 35.7396 65.5931 34.5781 64.8014 33.8021C64.0097 33.026 62.791 33.3958 61.6451 33.7135C60.0566 34.1198 58.7545 33.3958 58.2233 31.8489C57.9941 31.1614 57.7806 30.4583 57.6087 29.7552C57.1816 28.1667 57.8535 26.8646 59.3899 26.3021C59.8118 26.1458 60.3222 25.9687 60.8326 25.8646C62.1399 25.6146 62.6503 23.8021 61.541 22.9219C61.2389 22.6927 60.9941 22.4114 60.6399 22.0417C59.5618 20.9167 59.4576 19.3489 60.3951 18.1146C60.9056 17.4479 61.541 16.7969 62.3847 16.0729C63.2858 15.3021 64.7649 15.3021 65.7545 16.0729C66.9003 16.9739 67.5878 17.9739 68.7337 17.6927C69.8274 17.4323 70.1087 16.3021 70.3899 15.2292C70.7962 13.625 71.6972 12.9948 73.3014 13.0833L76.3014 13.8229C77.8483 14.526 78.3066 15.5104 77.9212 17.1146C77.6399 18.2396 77.3014 19.4375 78.1868 20.1927C79.067 20.9531 80.0878 20.4062 81.291 20.0885C82.8222 19.7031 84.1816 20.4219 84.6764 21.9167C84.9056 22.5885 85.1139 23.2917 85.291 24.0156C85.7701 25.8281 85.0253 27.3594 82.1712 27.9219C80.6712 28.2239 80.2649 30.1562 81.3587 31.0364C81.6243 31.25 81.8535 31.5156 82.1712 31.8281C83.3326 33.026 83.4212 34.6823 82.4003 35.9687C81.8691 36.6354 81.2545 37.2708 80.5149 37.9219C79.5774 38.7292 78.1139 38.7656 77.0931 37.9739C76.7024 37.6771 76.3535 37.3073 75.8378 36.7969C74.8326 35.8281 73.5149 36.0364 72.8951 37.3385C72.7181 37.7292 72.6295 38.151 72.4889 38.6979C72.1556 40.2083 71.2545 40.9479 69.6139 40.8437ZM69.7024 40.0364C70.9003 40.0885 71.416 39.6979 71.7337 38.5C71.8743 37.9062 71.9785 37.4479 72.192 36.9896C73.0358 35.1771 75.0462 34.8385 76.4576 36.2135C76.9524 36.7083 77.3014 37.0573 77.6399 37.3385C78.3431 37.8854 79.3847 37.8698 80.0201 37.3229C80.7233 36.7083 81.3066 36.1094 81.8014 35.4739C82.5566 34.526 82.5045 33.3281 81.6243 32.4271C81.3222 32.1094 81.0931 31.8646 80.8847 31.7083C79.2285 30.3698 79.8951 27.5677 82.0462 27.1458C83.8639 26.776 84.9941 26.0208 84.5358 24.2448C84.3587 23.5364 84.1451 22.8542 83.9368 22.2031C83.5618 21.1094 82.6451 20.6146 81.5358 20.8958C81.0097 21.0364 80.5149 21.2135 79.9472 21.3385C78.166 21.7239 76.7024 20.4739 76.8274 18.6614C76.9524 16.7604 78.1139 15.5625 76.0514 14.6146L73.1972 13.9114C71.0774 13.7864 71.4316 15.4219 70.7285 16.9531C69.9524 18.6614 68.1191 19.1042 66.6712 17.9583C66.192 17.5729 65.7181 17.1302 65.2441 16.7604C64.5722 16.2344 63.5306 16.2135 62.916 16.7448C62.1191 17.4323 61.5201 18.0469 61.0462 18.6614C60.3587 19.5625 60.4264 20.6875 61.2389 21.5156C61.541 21.8489 61.7858 22.1146 62.0514 22.3229C63.6712 23.625 63.0045 26.3177 60.9733 26.7083C60.5149 26.7969 60.0566 26.9531 59.6503 27.1146C58.5253 27.5364 58.067 28.4166 58.3639 29.5937C58.541 30.2812 58.7545 30.9844 58.9628 31.6354C59.3326 32.7812 60.2337 33.276 61.4003 32.9739C62.8795 32.6042 64.2181 32.1979 65.3326 33.276C66.4056 34.3489 66.0514 35.6667 65.7337 37.0573C65.4368 38.2917 65.7181 38.8698 66.8274 39.3802L69.7024 40.0364Z" fill="black"/>
<path d="M70.285 31.9374C67.285 31.177 65.4881 28.1353 66.2485 25.1405C67.0037 22.1145 70.0558 20.3176 73.1235 21.0937C76.1027 21.8489 77.884 24.8957 77.1287 27.9218C76.3527 30.8957 73.3006 32.6926 70.285 31.9374Z" fill="#33E3AD"/>
<path d="M68.75 29.1562C68.5781 29.0156 68.5416 28.7499 68.6823 28.5729C68.8229 28.3958 69.0885 28.3645 69.2656 28.5052C70.5521 29.526 72.0156 29.3854 71.9271 29.3645C72.1354 29.3645 72.3333 29.5416 72.3333 29.7552C72.3489 29.9843 72.1719 30.177 71.9427 30.177C70.8333 30.2447 69.6666 29.8749 68.75 29.1562Z" fill="white"/>
<path d="M80.7231 42.1458L75.3273 40.7552C75.119 40.7031 74.9783 40.4739 75.0304 40.2604C75.0825 40.0521 75.3117 39.9114 75.5252 39.9635L80.9367 41.3541C81.1502 41.4062 81.2908 41.6354 81.2388 41.8489C81.1815 42.0573 80.9523 42.1979 80.7231 42.1458Z" fill="black"/>
<path d="M76.9886 45.4375L74.9417 42.7604C74.8011 42.5885 74.8323 42.3229 75.0094 42.1823C75.1865 42.0416 75.4521 42.0781 75.5927 42.25L77.6396 44.9271C77.7802 45.1041 77.7438 45.3698 77.5667 45.5104C77.374 45.651 77.1292 45.6146 76.9886 45.4375Z" fill="black"/>
<path d="M74.3217 51C74.0925 50.9636 73.9363 50.7708 73.9727 50.5417C74.254 48.2396 73.7436 45.8594 72.5248 43.8698C72.3998 43.6771 72.4727 43.4323 72.6655 43.3073C72.8582 43.1875 73.1082 43.2552 73.228 43.4479C74.5352 45.599 75.0821 48.1511 74.78 50.6511C74.7488 50.8802 74.5352 51.0365 74.3217 51Z" fill="black"/>
<path d="M69.8638 71.474C69.3846 70.9115 68.4524 70.8073 67.869 71.2448C67.2857 71.6875 67.1294 72.6198 67.5513 73.2187C67.9732 73.8333 68.8899 74.026 69.5096 73.6406C70.1451 73.2552 70.3742 72.3542 70.0201 71.7031" fill="#FEBCE2"/>
<path d="M62.3164 74.3072C61.4674 75.2239 61.4518 76.776 62.2278 77.7604C63.0039 78.7447 64.431 79.1145 65.6133 78.6927C66.6862 78.3072 67.5351 77.25 67.483 76.125C67.3737 73.8333 63.8112 72.6718 62.3164 74.3072Z" fill="#FEBCE2"/>
<mask id="mask3_146_322" style="mask-type:luminance" maskUnits="userSpaceOnUse" x="7" y="9" width="15" height="22">
<path d="M7 9H21.6667V30.9115H7V9Z" fill="white"/>
</mask>
<g mask="url(#mask3_146_322)">
<path d="M19.8018 30.2084C16.2914 30.1928 13.1716 27.6042 13.0101 24.1198C8.97369 20.4219 6.96327 14.7709 7.80702 9.36985C7.84348 9.14068 8.05702 9.00005 8.28619 9.0313C8.51536 9.06776 8.65598 9.2813 8.61952 9.51047C7.87994 14.349 9.62473 19.5938 13.0831 23.0626C13.5726 19.8594 16.8904 18.3438 19.2341 19.4011C21.3331 20.3334 22.1612 23.3438 20.6456 25.0678C19.7445 26.1094 18.1404 26.5469 16.5883 26.2136C15.7081 26.0209 14.8435 25.599 13.9476 24.9271C14.5101 27.6928 17.156 29.4167 19.8018 29.4376C20.031 29.4376 20.2029 29.6303 20.2029 29.8386C20.2029 30.0365 20.031 30.2084 19.8018 30.2084ZM13.8383 23.7501C14.8799 24.6459 15.8122 25.1563 16.7654 25.3698C18.0206 25.6511 19.307 25.2969 20.0102 24.4896C21.156 23.1876 20.4529 20.8126 18.8851 20.1042C16.9424 19.2605 13.9112 20.6146 13.8383 23.7501Z" fill="#FF5F6F"/>
</g>
</svg>
