<?xml version="1.0" encoding="UTF-8" standalone="no"?>
<svg
   viewBox="0 0 113.5264 107.4304"
   height="107.4304"
   width="113.5264"
   xml:space="preserve"
   id="svg2"
   version="1.1"
   sodipodi:docname="Logo_IQ200.svg"
   xmlns:inkscape="http://www.inkscape.org/namespaces/inkscape"
   xmlns:sodipodi="http://sodipodi.sourceforge.net/DTD/sodipodi-0.dtd"
   xmlns="http://www.w3.org/2000/svg"
   xmlns:svg="http://www.w3.org/2000/svg"
   xmlns:rdf="http://www.w3.org/1999/02/22-rdf-syntax-ns#"
   xmlns:cc="http://creativecommons.org/ns#"
   xmlns:dc="http://purl.org/dc/elements/1.1/"><sodipodi:namedview
     id="namedview1"
     pagecolor="#ffffff"
     bordercolor="#000000"
     borderopacity="0.25"
     inkscape:showpageshadow="2"
     inkscape:pageopacity="0.0"
     inkscape:pagecheckerboard="0"
     inkscape:deskcolor="#d1d1d1"><inkscape:page
       x="0"
       y="0"
       width="113.5264"
       height="107.4304"
       id="page2"
       margin="0"
       bleed="0" /></sodipodi:namedview><metadata
     id="metadata8"><rdf:RDF><cc:Work
         rdf:about=""><dc:format>image/svg+xml</dc:format><dc:type
           rdf:resource="http://purl.org/dc/dcmitype/StillImage" /></cc:Work></rdf:RDF></metadata><defs
     id="defs6" /><g
     transform="matrix(1.3333333,0,0,-1.3333333,-5.6466664,169.536)"
     id="g10"><path
       id="path12"
       style="fill:#2b8388;fill-opacity:1;fill-rule:evenodd;stroke:none"
       d="M 43.253,127.152 H 89.3798 V 85.5969 C 89.3798,64.1373 71.822,46.5792 50.3617,46.5792 H 43.253 c -21.4597,0 -39.018,17.5581 -39.018,39.0177 v 2.5373 c 0,21.4597 17.5583,39.0178 39.018,39.0178" /><g
       id="g14"><g
         id="g16"><path
           id="path18"
           style="fill:#ffffff;fill-opacity:1;fill-rule:evenodd;stroke:none"
           d="m 45.9901,58.4671 -1.6134,-0.3963 0.511,0.7583 c 4.6265,2.8783 10.4018,10.0307 12.9524,17.1068 2.2776,6.3193 2.5444,13.229 1.0216,19.9415 -0.235,1.0355 -0.4887,2.0213 -0.7603,2.9503 l -1.002,2.5029 c -0.0232,0.1353 -0.1001,0.1599 -0.1576,0.2345 C 56.6243,90.4487 56.6546,80.3497 52.342,70.9404 50.0754,65.9957 44.2406,57.2355 38.3664,59.1318 c -2.5827,0.834 -3.8424,1.696 -5.7739,3.0164 -10.3629,7.0841 -10.495,27.3172 4.0734,33.9534 5.1933,2.3655 9.0283,1.7078 14.0975,0.3699 l 1.9281,6.0327 c -6.9998,1.5321 -12.0812,2.2292 -18.7407,-0.6576 C 18.3163,95.0695 13.1922,73.1857 26.4489,59.3929 38.3774,46.9823 61.9662,50.9196 67.9331,69.5662 c 1.4738,4.6046 2.0951,14.5644 -0.7483,18.3155 L 61.5512,85.5584 C 63.364,78.7927 63.7328,72.8442 59.9026,67.106 57.2417,63.1196 53.0175,58.659 45.9901,58.4671" /><path
           id="path20"
           style="fill:#ffffff;fill-opacity:1;fill-rule:evenodd;stroke:none"
           d="m 75.3364,110.2595 c 0.0113,0.9556 -0.0162,-1.3493 0,0 z M 59.3816,98.5816 c 5.4788,0.9431 11.4786,5.108 14.396,9.4708 l 1.0313,1.3315 c 0.3974,0.4274 0.2585,0.2755 0.5218,0.515 C 74.357,104.781 65.6841,99.8223 62.1232,97.3891 l -1.1508,-1.15 c 2.4505,-1.5089 5.2489,-4.2259 9.9014,-2.9061 10.7756,3.0569 11.6691,21.5501 5.7648,28.4672 -0.7534,-0.7917 -1.4082,-2.1399 -2.2776,-3.1689 -5.103,-6.0383 -13.1363,-3.52 -16.1082,-10.9658 -0.8685,-2.1761 -0.8079,-4.7324 -0.0045,-6.9882 z" /><path
           id="path22"
           style="fill:#ffffff;fill-opacity:1;fill-rule:evenodd;stroke:none"
           d="m 56.5863,103.5332 c 0.1741,7.5744 -5.4669,17.3775 -9.3174,19.8351 l 4.9005,-9.4904 c 1.55,-3.3854 2.874,-7.0336 4.4169,-10.3447" /></g><path
         id="path24"
         style="fill:#ffffff;fill-opacity:1;fill-rule:evenodd;stroke:none"
         d="m 45.9901,58.4671 c -1.5281,0.0672 -0.7639,0.023 -1.1024,0.362 l -0.511,-0.7583 z" /></g></g></svg>
