<svg width="388" height="367" viewBox="0 0 388 367" fill="none" xmlns="http://www.w3.org/2000/svg">
<path fill-rule="evenodd" clip-rule="evenodd" d="M386.585 0H167.691L151.05 1.92147L130.568 6.40489L113.287 12.1693L99.8465 17.9337L90.8859 23.0576L79.3651 30.103L66.5643 39.7103L59.5238 45.4747L48.0031 57.0035L40.3226 65.9703L32.0021 76.8586L26.8817 84.5445L22.4014 92.2304L16.001 104.4L8.32054 124.255L3.84025 142.188L1.28008 156.279L0 172.932V195.349L0.640041 205.597L3.20021 222.25L7.6805 240.183L14.0809 258.117L19.2012 269.005L26.8817 282.456L33.2822 292.063L39.6826 300.389L45.4429 307.435L58.2438 320.244L60.8039 321.525V322.806L69.7645 329.852L76.805 334.976L84.4855 340.099L92.806 345.223L107.527 352.269L113.287 354.831L127.368 359.955L144.009 363.798L163.851 367H220.174L229.135 366.36L239.375 364.438L252.176 361.876L263.697 358.674L275.858 354.19L288.659 348.426L297.619 343.302L309.14 336.257L318.101 329.852L327.061 322.166L332.181 317.682L336.022 313.199L340.502 308.716L348.823 299.108L357.783 286.939L364.824 275.41L373.144 258.757L378.904 243.386L382.745 228.654L385.305 217.126L386.585 205.597L387.225 141.548V0.640489L386.585 0ZM191.372 107.602H164.49L157.45 108.883L141.449 113.366L129.928 118.49L119.687 124.255L113.287 128.738L104.326 135.784L96.6458 144.11L90.8855 151.155L84.485 160.763L77.4446 173.572L74.2444 182.539L70.4041 195.349L67.844 211.361V236.34L69.7641 248.51L71.6842 256.195L75.5245 267.724L81.2848 279.893L87.0452 290.141L96.0058 302.311L108.167 314.48L115.847 320.244L123.528 325.368L132.488 329.852L145.289 334.976L158.09 338.178L174.731 340.74H184.972L190.732 340.099L208.013 336.897L220.174 333.695L232.335 328.571L245.775 320.885L256.016 313.199L266.257 302.951L273.297 293.984L278.418 286.298L283.538 276.691L288.658 263.881L291.858 252.352L294.419 229.935V212.642L293.779 203.675L292.498 194.709L289.938 185.742L286.738 180.618L284.178 179.977L266.897 187.023L261.136 189.585L261.776 195.349L266.257 215.845V238.262L263.057 252.352L258.576 263.881L252.816 273.489L244.495 285.017L238.735 290.782L232.335 296.546L223.374 302.951L216.974 306.154L209.293 309.356L199.052 311.918L184.331 312.558L185.612 310.637L192.012 305.513L199.052 299.749L203.533 295.265L208.013 290.141L215.053 282.455L222.094 273.489L227.214 265.803L234.895 252.993L240.655 240.824L247.696 220.328L250.896 201.113L252.816 183.82V176.775L251.536 163.325L249.616 149.874L247.056 136.424L241.935 122.333L239.375 119.771L238.735 142.829L236.815 183.82L234.895 199.832L229.774 225.452L224.014 243.386L218.894 256.195L212.493 268.365L206.733 277.332L200.973 285.658L194.572 293.344L188.172 299.108L182.411 303.592L175.371 307.435L168.33 310.637H158.09L153.609 309.356L146.569 306.154L136.328 300.389L126.728 293.984L120.327 288.22L114.567 281.815L108.167 272.848L102.406 260.679L99.206 250.431L96.0058 233.778V216.485L97.2859 208.799L101.126 192.787L106.246 181.258L111.367 172.291L117.767 163.965L124.168 157.56L132.488 150.515L140.169 145.391L151.049 140.267L159.37 137.065L172.811 134.503H185.612L192.652 135.784L208.653 138.986L211.853 138.346L218.894 117.85L219.534 113.366L218.254 112.726L206.093 110.164L191.372 107.602ZM328.34 26.26L330.901 27.541L336.021 35.8673L341.141 48.6771L343.701 62.1274L344.982 73.0157V87.7469L342.421 105.04L339.861 114.647L334.741 126.817L330.261 133.862L323.22 142.188L315.54 148.593L305.939 153.077L296.338 155.639H288.658L279.697 153.717L267.537 147.312L259.216 142.188V138.986L267.537 132.581L278.417 125.536L289.938 117.85L298.899 110.805L305.299 105.04L309.139 101.838L314.9 94.7923L318.74 89.6684L322.58 82.623C323.255 81.2179 323.385 80.5206 323.22 79.4206C321.868 79.7487 321.164 80.1576 320.02 81.342L313.62 90.3089L307.859 97.3543L299.539 105.681L288.658 114.007L282.898 117.85L272.657 122.974L259.856 128.098L254.736 130.019H250.895L248.975 127.457L244.495 117.209L243.215 109.524V97.3543L245.775 89.0279L251.535 78.1396L256.656 73.0157L266.896 66.6108L276.497 62.7679L294.418 56.363L303.379 51.8796L310.419 47.3961L317.46 40.9912L323.22 33.3054L327.7 26.9005L328.34 26.26ZM200.973 21.7766L197.773 20.4956V22.4171L202.253 30.1029L215.054 54.4415L222.094 69.8132L234.895 100.557L237.455 103.119V96.0733L234.895 83.2635L229.135 65.9703L224.014 55.082L216.334 41.6317L207.373 28.822L200.973 21.7766Z" fill="#02CED8"/>
</svg>
