<svg width="92" height="92" viewBox="0 0 92 92" fill="none" xmlns="http://www.w3.org/2000/svg">
<mask id="mask0_151_301" style="mask-type:luminance" maskUnits="userSpaceOnUse" x="0" y="0" width="92" height="92">
<path d="M0 0H91.276V91.2708H0V0Z" fill="white"/>
</mask>
<g mask="url(#mask0_151_301)">
<mask id="mask1_151_301" style="mask-type:luminance" maskUnits="userSpaceOnUse" x="0" y="0" width="92" height="92">
<path d="M45.6406 0C20.4323 0 0 20.4323 0 45.6354C0 70.8385 20.4323 91.2708 45.6406 91.2708C70.8438 91.2708 91.276 70.8385 91.276 45.6354C91.276 20.4323 70.8438 0 45.6406 0Z" fill="white"/>
</mask>
<g mask="url(#mask1_151_301)">
<path d="M0 0H91.276V91.2708H0V0Z" fill="#723BCF"/>
</g>
</g>
<mask id="mask2_151_301" style="mask-type:luminance" maskUnits="userSpaceOnUse" x="64" y="76" width="12" height="10">
<path d="M64.7031 76.6219H75.8073V85.4344H64.7031V76.6219Z" fill="white"/>
</mask>
<g mask="url(#mask2_151_301)">
<path d="M74.4583 82.2991L70.5938 84.8303C69.6719 85.4293 68.4427 85.3147 67.5573 84.5439L65.4062 82.6637L74.5469 76.6584L75.4167 79.4032C75.7656 80.5074 75.375 81.6897 74.4583 82.2991Z" fill="#C7C4C4"/>
</g>
<path d="M70.9848 65.9031L57.3442 74.8563C55.7869 71.6219 52.4275 69.6427 49.0317 68.5125C45.6359 67.3719 42.0577 66.8771 38.6984 65.6323C31.7609 63.0177 26.2244 56.9917 24.1254 49.8979C23.9327 49.2365 23.7609 48.5854 23.6359 47.9084C22.6463 43.0542 23.2973 37.9084 25.2921 33.3875C26.1619 31.3979 27.3702 29.5906 28.7921 27.9709C30.2192 26.3563 31.865 24.9448 33.6827 23.7625C34.8754 22.9813 36.1202 22.2938 37.4275 21.7313C40.0734 20.5906 42.9275 19.9396 45.8286 19.9136C50.7713 19.8771 55.7348 21.3459 59.7921 24.1896C61.1671 25.1479 62.4275 26.2677 63.5525 27.5021C67.8702 32.2156 70.2973 38.6844 69.9692 45.0907C69.7921 48.6792 68.8025 52.174 68.4952 55.7313C68.3234 57.5229 68.3754 59.3927 68.7504 61.1636C69.115 62.9136 69.8181 64.5646 70.9848 65.9031Z" fill="#FFCE3B"/>
<path d="M63.5521 27.5021C63.5417 27.6063 63.5156 27.7209 63.4896 27.8406C63.2917 28.6167 62.8021 29.3459 62.0885 29.6844C60.8802 30.2417 59.5104 29.6063 58.3281 29.0334C57.1354 28.4761 55.6198 28.0229 54.5938 28.8406C53.8438 29.4396 53.6615 30.4761 53.4167 31.3979C53.1667 32.3198 52.6615 33.3459 51.7292 33.5281C51.1302 33.6479 50.4948 33.3615 50.0938 32.9084C49.6927 32.45 49.4583 31.8511 49.3438 31.2573C49.151 30.3459 49.151 29.3875 48.8646 28.4865C48.5781 27.5906 47.9323 26.7209 46.9948 26.5906C45.7656 26.424 44.7813 27.5386 43.625 27.9813C42.5 28.4084 41.2031 28.1636 40.2031 27.5021C39.2031 26.8406 38.5052 25.799 38.0521 24.6948C37.6771 23.7625 37.4792 22.7313 37.4531 21.7313C40.099 20.5906 42.9531 19.9396 45.8542 19.9136C50.7969 19.8771 55.7604 21.3459 59.8177 24.1896C61.1563 25.1479 62.4271 26.2677 63.5521 27.5021Z" fill="#FAB815"/>
<path d="M52.2512 40.95C50.772 40.95 49.5012 39.8042 48.5012 37.5542C47.8293 36.0386 47.0897 34.398 45.647 33.9605C44.8345 33.7105 43.9647 33.8928 43.0584 34.1011C42.5376 34.2157 42.0064 34.3355 41.4595 34.3719C38.5428 34.5438 36.1574 32.3094 35.0949 29.9969C34.1366 27.9292 33.9178 25.6584 33.8137 23.5125C33.798 23.3459 33.9439 23.1896 34.1105 23.1896C34.2928 23.174 34.4334 23.3198 34.4334 23.4865C34.5272 25.5646 34.7459 27.7625 35.6678 29.7365C36.6105 31.7782 38.8189 33.9084 41.4334 33.7521C41.9282 33.7105 42.4334 33.6063 42.9282 33.4917C43.8866 33.2834 44.8709 33.0594 45.8449 33.3615C47.5532 33.8823 48.3449 35.6584 49.048 37.2313C49.9647 39.299 51.0428 40.325 52.2616 40.325C53.4803 40.325 54.4907 39.1948 54.9334 38.0646C55.1939 37.4032 55.3449 36.6844 55.5012 35.9865C55.6314 35.3719 55.7772 34.7365 55.9803 34.1271C56.5637 32.4657 57.6834 31.3459 58.9803 31.1532C60.0949 30.9813 61.0897 31.5021 62.0637 31.9969C62.6209 32.2834 63.1939 32.5803 63.7616 32.7261C64.8136 32.9969 65.9803 32.7886 66.8762 32.1636C67.0168 32.0594 67.2095 32.1011 67.3032 32.2417C67.4074 32.3875 67.3657 32.5803 67.2251 32.674C66.173 33.398 64.8136 33.648 63.5949 33.3198C62.9595 33.1532 62.3501 32.8407 61.7668 32.5438C60.8449 32.075 59.9751 31.6219 59.0532 31.7625C57.4855 31.9969 56.7459 33.7782 56.5637 34.3198C56.3709 34.8928 56.2303 35.5178 56.1001 36.1167C55.9439 36.8407 55.7772 37.5803 55.4907 38.2834C55.0116 39.5178 53.8553 40.95 52.2512 40.95Z" fill="#FAB815"/>
<path d="M70.9844 65.9032L57.3438 74.8563C55.7865 71.6219 52.4271 69.6427 49.0313 68.5125C45.6354 67.3719 42.0573 66.8927 38.6979 65.6323C31.75 63.0334 26.224 56.9917 24.125 49.8979C25.3333 52.0021 26.6563 54.0698 28.4583 55.6688C30.6615 57.6167 33.7344 58.825 36.5573 58.0177C38.5052 57.4709 40.2292 56.0282 42.25 56.0282C44.5469 56.0438 46.349 57.8771 48.0208 59.4448C49.6927 61.0177 51.9479 62.5386 54.1146 61.7729C55.8021 61.1896 56.8125 59.3823 58.4844 58.7729C60.4688 58.0334 62.6094 59.2 64.4844 60.1479C65.7813 60.799 67.3542 61.3302 68.724 61.1636C69.1146 62.9136 69.8177 64.5542 70.9844 65.9032Z" fill="#FAB815"/>
<path d="M57.3436 75.1688C57.3176 75.1688 57.2916 75.1688 57.2655 75.1532C57.1718 75.1272 57.1093 75.0751 57.0728 74.9865C55.4218 71.5699 51.7395 69.7365 48.9426 68.799C48.7707 68.747 48.6926 68.5647 48.7447 68.4136C48.7968 68.2417 48.9791 68.1636 49.1353 68.2157C51.9634 69.1636 55.6561 70.997 57.4582 74.398L70.5155 65.8407C69.5155 64.5907 68.828 63.0438 68.4426 61.2261C68.078 59.549 67.9999 57.6949 68.1666 55.7053C68.3124 54.0542 68.5989 52.4084 68.8801 50.8199C69.2082 48.9501 69.5572 47.0126 69.6457 45.0907C70.0624 37.1272 66.1197 29.023 59.5989 24.4501C55.6718 21.6949 50.7447 20.1897 45.8176 20.2417C41.7082 20.2678 37.5572 21.5751 33.8384 24.0334C32.0207 25.2157 30.4009 26.6167 29.0155 28.1897C27.5468 29.8667 26.3957 31.6584 25.5676 33.5282C24.2811 36.4397 23.5676 39.6376 23.4791 42.7678C23.4791 42.9344 23.3489 43.0647 23.1509 43.0647C22.9843 43.0647 22.8436 42.924 22.8541 42.7417C22.9322 39.5178 23.6718 36.2469 24.9947 33.2574C25.8384 31.3355 27.0311 29.4761 28.5468 27.7626C29.9739 26.148 31.6353 24.7105 33.4843 23.4865C37.3124 20.9657 41.578 19.6167 45.802 19.5907H45.9999C51.0155 19.5907 55.9686 21.1219 59.9478 23.9136C66.6405 28.6063 70.6822 36.9188 70.2551 45.1063C70.1509 47.0647 69.8176 49.0126 69.4791 50.9136C69.2082 52.4969 68.9061 54.1324 68.7655 55.7469C68.5989 57.6688 68.677 59.4605 69.0259 61.0855C69.4114 62.9292 70.1509 64.4761 71.1874 65.6844C71.2551 65.7469 71.2811 65.8407 71.2655 65.9292C71.2551 66.023 71.203 66.1011 71.1249 66.1532L57.5103 75.1167C57.4582 75.1532 57.4061 75.1688 57.3436 75.1688Z" fill="#010101"/>
<path d="M61.8966 74.0907C61.7768 74.0907 61.6622 74.0126 61.6101 73.8928C59.4174 68.5907 56.4903 63.6324 52.9487 59.174C52.4018 59.4865 51.8445 59.7313 51.2872 59.8876C48.8914 60.5907 46.0633 60.0334 43.7299 58.3824C41.8237 57.0438 40.1883 54.9917 38.8966 52.2886C38.6101 51.6896 38.2872 50.9761 38.2195 50.1949C38.157 49.3251 38.4383 48.5074 38.9956 48.0282C39.6049 47.4969 40.5528 47.3511 41.4747 47.6532C42.2403 47.898 42.8862 48.3771 43.5216 48.8876C47.0476 51.6896 50.2508 54.8719 53.0789 58.3563C53.131 58.3146 53.1935 58.2782 53.2456 58.2365C54.5945 57.3042 55.9956 56.3824 57.3966 55.5126C57.4591 55.4709 57.5112 55.4344 57.5789 55.3928C55.5164 51.4032 53.881 47.1949 52.7299 42.8459C52.5216 42.0542 52.3393 41.273 52.4174 40.4657C52.5216 39.5074 53.0268 38.7001 53.7508 38.3511C54.4122 38.023 55.282 38.0751 56.0476 38.4917C56.7351 38.8563 57.2664 39.4396 57.6935 39.9449C59.6362 42.2209 60.8706 44.5334 61.3393 46.8199C61.907 49.6271 61.2976 52.4449 59.7039 54.3667C59.3289 54.8094 58.8862 55.2261 58.381 55.6011C61.0528 60.6428 64.4226 65.3199 68.3914 69.4396C68.506 69.5699 68.506 69.7626 68.3758 69.8771C68.2456 69.9969 68.0528 69.9969 67.9383 69.8667C63.9435 65.7209 60.5476 61.0178 57.8497 55.9501C57.7976 55.9761 57.7612 56.0178 57.7091 56.0438C56.3081 56.9136 54.9174 57.8251 53.5841 58.7469C53.5424 58.773 53.4956 58.8094 53.4539 58.8355C57.0216 63.3303 59.9643 68.3199 62.1674 73.648C62.2299 73.8042 62.1518 73.9865 62.0008 74.049C61.9747 74.0907 61.9331 74.0907 61.8966 74.0907ZM40.5424 48.1324C40.1414 48.1324 39.7351 48.2365 39.4122 48.5074C38.9956 48.8615 38.7924 49.4813 38.8445 50.1428C38.8966 50.7574 39.1258 51.3251 39.4539 52.0178C40.7091 54.6167 42.2664 56.5751 44.0789 57.8615C46.256 59.3928 48.8914 59.9292 51.1049 59.2782C51.5893 59.1376 52.0685 58.9292 52.5476 58.6688C49.7612 55.2365 46.6101 52.1219 43.1466 49.3667C42.5528 48.8876 41.9539 48.4449 41.2924 48.2365C41.0581 48.1688 40.7976 48.1324 40.5424 48.1324ZM54.6987 38.7626C54.4539 38.7626 54.2195 38.8146 54.0268 38.9084C53.3914 39.2209 53.0893 39.9449 53.0372 40.5334C52.9591 41.2313 53.131 41.9501 53.3393 42.6896C54.4799 46.9761 56.0737 51.1219 58.0945 55.0438C58.5216 54.7157 58.9122 54.3563 59.2247 53.9657C60.7039 52.1844 61.2716 49.5594 60.7299 46.9501C60.2716 44.7678 59.1049 42.5438 57.2247 40.3615C56.8237 39.8928 56.3445 39.3771 55.7612 39.049C55.4122 38.8563 55.0476 38.7626 54.6987 38.7626Z" fill="#010101"/>
<path d="M74.4596 69.0334C74.4596 69.3199 74.418 69.6064 74.3398 69.8772C74.1471 70.6064 73.7044 71.2574 73.0326 71.7001L61.4648 79.2834C60.0169 80.2314 58.069 79.8303 57.1263 78.3772C56.7721 77.8303 56.6055 77.2314 56.6055 76.648C56.6055 76.4293 56.6315 76.1793 56.6836 75.9605C56.8503 75.1793 57.3034 74.4761 58.0169 74.0126L65.7826 68.9189L69.5951 66.4241C70.8815 65.5647 72.5638 65.7991 73.5742 66.8772C73.7305 67.0074 73.8503 67.1636 73.9544 67.3303C74.2878 67.8511 74.4596 68.4501 74.4596 69.0334Z" fill="#F3EDED"/>
<path d="M73.5625 66.8771C73.2396 67.6844 72.4219 68.2573 71.5521 68.2573C70.6563 68.2417 69.7656 67.6688 68.9219 67.9813C68.2865 68.2313 67.9115 68.9031 67.2865 69.1792C66.8229 69.3719 66.2656 69.3094 65.8594 68.9969C65.8333 68.9813 65.8073 68.9552 65.7812 68.9448L69.5938 66.45C70.8646 65.5646 72.5521 65.799 73.5625 66.8771Z" fill="#D8D6D6"/>
<path d="M66.7972 71.0073C66.2399 71.0073 65.693 70.7365 65.3285 70.3719C65.1097 70.1636 64.917 69.9031 64.7347 69.5802C64.641 69.424 64.7087 69.2417 64.8493 69.1531C65.0055 69.0594 65.1878 69.1271 65.2764 69.2677C65.4326 69.5438 65.5889 69.7469 65.7555 69.9188C66.1097 70.2573 66.7035 70.5177 67.1826 70.2938C67.443 70.1792 67.6514 69.9448 67.8701 69.6948C68.167 69.3615 68.4951 68.9969 69.0003 68.8771C69.542 68.7469 70.0368 68.9813 70.4795 69.1792C70.6566 69.2573 70.8285 69.3459 71.0108 69.3979C71.5003 69.5542 72.0837 69.4917 72.5524 69.2313C73.0576 68.9448 73.667 68.3094 73.7712 67.825C73.8076 67.6584 73.9795 67.5542 74.1462 67.5906C74.3128 67.6323 74.417 67.799 74.3805 67.9709C74.2087 68.7104 73.3962 69.4761 72.8649 69.7729C72.2555 70.1271 71.4899 70.2052 70.8285 70.0073C70.6201 69.9448 70.4274 69.8511 70.2191 69.7625C69.8441 69.5802 69.4639 69.424 69.141 69.5021C68.8285 69.5698 68.6097 69.825 68.3389 70.1271C68.0889 70.4136 67.818 70.7104 67.4587 70.8771C67.2347 70.9709 67.016 71.0073 66.7972 71.0073Z" fill="#D8D6D6"/>
<path d="M74.3398 69.8772C74.1471 70.6064 73.7044 71.2574 73.0326 71.7001L61.4648 79.2991C60.0169 80.247 58.069 79.8303 57.1263 78.3876C56.7721 77.8564 56.6055 77.247 56.6055 76.6584C56.6055 76.4397 56.6315 76.1949 56.694 75.9709C56.9284 76.4918 57.3555 76.9189 57.8867 77.1689C58.6419 77.5074 59.5638 77.4293 60.2461 76.9866C61.3763 76.2314 61.8711 74.5803 63.194 74.3095C63.7253 74.1897 64.293 74.3616 64.8242 74.4657C65.3711 74.5699 65.9909 74.5959 66.418 74.2574C67.0951 73.7366 67.0951 72.5543 67.8711 72.2053C68.5065 71.9293 69.3086 72.372 69.8971 72.023C70.0898 71.9032 70.2305 71.7262 70.4023 71.5543C71.0117 70.9814 71.918 70.8668 72.7357 70.7001C73.3034 70.5178 73.9284 70.2939 74.3398 69.8772Z" fill="#D8D6D6"/>
<path d="M59.7553 80.1167C59.5209 80.1167 59.2761 80.0907 59.0417 80.0386C58.1355 79.8459 57.3699 79.3251 56.8647 78.5438C56.6824 78.273 56.5417 77.9709 56.448 77.6584C56.3959 77.4917 56.4897 77.3251 56.6563 77.273C56.823 77.2209 56.9949 77.3094 57.0469 77.4813C57.1251 77.7365 57.2397 77.9709 57.3959 78.2053C57.8074 78.8407 58.4428 79.273 59.1824 79.4292C59.9219 79.5855 60.6772 79.4396 61.3126 79.023L72.8751 71.424C73.4584 71.049 73.8594 70.4761 74.0574 69.7886C74.1199 69.5438 74.1615 69.2938 74.1615 69.0334C74.1615 68.4761 74.0053 67.9449 73.7032 67.4865C73.2917 66.8511 72.6407 66.424 71.9011 66.2678C71.1615 66.1115 70.4115 66.2521 69.7761 66.6844L64.0209 70.4501C63.8751 70.5438 63.6824 70.5021 63.5938 70.3615C63.5001 70.2157 63.5417 70.023 63.6824 69.9292L69.4272 66.1636C70.1928 65.6584 71.1251 65.4761 72.0209 65.6688C72.9272 65.8511 73.7032 66.3823 74.2084 67.1636C74.573 67.7209 74.7709 68.3719 74.7709 69.049C74.7709 69.3615 74.7292 69.6584 74.6407 69.9709C74.4063 70.8146 73.9115 71.5021 73.198 71.9709L61.6355 79.5699C61.0626 79.9188 60.4167 80.1167 59.7553 80.1167Z" fill="#010101"/>
<mask id="mask3_151_301" style="mask-type:luminance" maskUnits="userSpaceOnUse" x="60" y="71" width="16" height="13">
<path d="M60.7031 71.2886H75.8073V83.2886H60.7031V71.2886Z" fill="white"/>
</mask>
<g mask="url(#mask3_151_301)">
<path d="M75.6608 74.5542C75.6608 74.9865 75.5462 75.398 75.3535 75.7626C75.1712 76.1011 74.8848 76.4136 74.5358 76.6324L65.4056 82.6376C64.2546 83.3876 62.7077 83.0647 61.9577 81.9084C61.7129 81.5438 61.5671 81.1167 61.5566 80.7001C61.541 80.648 61.541 80.5959 61.541 80.5438C61.541 79.7417 61.9473 78.9449 62.6712 78.4657L71.8118 72.4657C72.9629 71.7105 74.4941 72.0334 75.2598 73.1897C75.5306 73.6324 75.6608 74.1011 75.6608 74.5542Z" fill="#F3EDED"/>
</g>
<path d="M75.3555 75.7782C75.1732 76.1167 74.8867 76.4292 74.5378 76.648L65.4076 82.648C64.2565 83.4032 62.7096 83.0803 61.9596 81.924C61.7148 81.5594 61.569 81.1272 61.5586 80.7157C61.7148 81.0751 62.0013 81.3876 62.3503 81.5699C62.8659 81.8563 63.543 81.8563 64.0742 81.5699C64.6315 81.2574 64.9805 80.7001 65.3555 80.1792C65.7461 79.674 66.2409 79.1792 66.8763 79.1272C67.5221 79.0751 68.1419 79.5178 68.7669 79.3511C69.7773 79.1011 70.0117 77.5178 71.0378 77.3511C71.543 77.2574 72.0586 77.5594 72.5638 77.4136C73.069 77.2469 73.319 76.648 73.7461 76.299C74.1732 75.9449 74.7826 75.8667 75.3555 75.7782Z" fill="#D8D6D6"/>
<mask id="mask4_151_301" style="mask-type:luminance" maskUnits="userSpaceOnUse" x="60" y="71" width="16" height="14">
<path d="M60.7031 71.2886H75.8073V84.6219H60.7031V71.2886Z" fill="white"/>
</mask>
<g mask="url(#mask4_151_301)">
<path d="M64.0469 83.3771C63.125 83.3771 62.2292 82.9344 61.6979 82.1062C61.4271 81.7 61.2604 81.2208 61.2448 80.726C61.2344 80.7 61.2344 80.6219 61.2344 80.5698C61.2344 79.6219 61.6979 78.7521 62.5052 78.2312L71.6458 72.2312C72.9271 71.3875 74.6667 71.7521 75.5208 73.049C75.6094 73.1896 75.5729 73.3875 75.4271 73.476C75.2865 73.5698 75.0938 73.5281 75 73.3875C74.3385 72.3875 72.9792 72.101 71.9792 72.7521L62.8385 78.7521C62.2292 79.1531 61.8542 79.8458 61.8542 80.5698C61.8542 80.5958 61.8698 80.6896 61.8698 80.7156C61.8802 81.075 62 81.4552 62.2188 81.7521C62.8802 82.7677 64.2292 83.0542 65.2396 82.3875L68.9219 79.9708C69.0625 79.8823 69.2604 79.9187 69.349 80.0646C69.4375 80.2052 69.401 80.4031 69.2604 80.4917L65.5781 82.9083C65.1094 83.2208 64.5781 83.3771 64.0469 83.3771Z" fill="#010101"/>
</g>
<path d="M70.2203 29.3459C69.9442 29.3459 69.689 29.2157 69.5171 28.9709C69.2724 28.5803 69.3765 28.0751 69.7515 27.8146L72.8401 25.7886C73.2255 25.5386 73.7307 25.6428 73.9911 26.023C74.2359 26.4084 74.1369 26.9188 73.7567 27.1792L70.6734 29.2053C70.5276 29.3094 70.3765 29.3459 70.2203 29.3459Z" fill="#EEA820"/>
<path d="M20.355 62.0959C20.0842 62.0959 19.8238 61.9657 19.6519 61.7209C19.4071 61.3303 19.5113 60.8251 19.8863 60.5646L22.9748 58.5386C23.3602 58.2886 23.8654 58.3928 24.1259 58.773C24.3707 59.1636 24.2717 59.6688 23.8915 59.9292L20.8082 61.9553C20.6779 62.0438 20.5113 62.0959 20.355 62.0959Z" fill="#EEA820"/>
<path d="M31.5061 21.2781C31.2301 21.2781 30.9749 21.1479 30.803 20.9031L28.7821 17.8094C28.5374 17.4188 28.6363 16.9135 29.0165 16.6531C29.4019 16.4083 29.9071 16.5125 30.1676 16.8875L32.1936 19.9813C32.4384 20.3667 32.3342 20.8771 31.9592 21.1375C31.8134 21.226 31.6571 21.2781 31.5061 21.2781Z" fill="#EEA820"/>
<mask id="mask5_151_301" style="mask-type:luminance" maskUnits="userSpaceOnUse" x="15" y="35" width="6" height="5">
<path d="M15 35.2886H20.7031V39.2886H15V35.2886Z" fill="white"/>
</mask>
<g mask="url(#mask5_151_301)">
<path d="M19.4474 38.9969C19.3954 38.9969 19.3277 38.9969 19.2756 38.9865L15.6714 38.2313C15.2183 38.1427 14.9318 37.7 15.0256 37.2469C15.1141 36.7886 15.5568 36.5021 16.0099 36.5959L19.6141 37.3511C20.0672 37.4396 20.3537 37.8823 20.2599 38.3355C20.1818 38.7261 19.8329 38.9969 19.4474 38.9969Z" fill="#EEA820"/>
</g>
<path d="M56.9283 18.9032C56.8398 18.9032 56.7616 18.8615 56.6939 18.799C53.5689 15.3042 50.0585 14.7157 45.9595 16.9917C45.8033 17.0803 45.621 17.0178 45.5325 16.8771C45.4543 16.7209 45.5064 16.5386 45.647 16.4448C49.9804 14.0282 53.845 14.6792 57.1523 18.3667C57.2668 18.4969 57.2512 18.6948 57.1262 18.8094C57.0845 18.8771 57.0064 18.9032 56.9283 18.9032Z" fill="#010101"/>
<path d="M60.6881 15.8459C60.5995 15.8459 60.5214 15.8094 60.4537 15.7469C55.4901 10.1948 49.912 9.24689 43.4068 12.8875C43.2506 12.9761 43.0683 12.9136 42.9797 12.7677C42.9016 12.6115 42.9537 12.4292 43.0943 12.3406C49.7974 8.60106 55.787 9.60106 60.9068 15.3302C61.0266 15.4604 61.011 15.6531 60.8808 15.7729C60.8287 15.8198 60.7662 15.8459 60.6881 15.8459Z" fill="#010101"/>
<path d="M65.2252 13.0282C65.1366 13.0282 65.0585 12.9917 64.996 12.924C57.8241 4.89799 49.4231 3.49174 40.022 8.74174C39.8658 8.81987 39.6835 8.76778 39.595 8.62716C39.5168 8.47091 39.5689 8.28861 39.7095 8.19486C49.397 2.79382 58.0585 4.24695 65.4491 12.5074C65.5637 12.6376 65.5533 12.8355 65.4231 12.9501C65.3814 13.0022 65.3033 13.0282 65.2252 13.0282Z" fill="#010101"/>
<path d="M46.4902 55.3303C45.9225 55.3303 45.4017 55.6011 45.0371 56.0438C44.6621 56.4865 44.4277 57.0959 44.4277 57.773C44.4277 56.4188 43.5111 55.3303 42.3809 55.3303C42.9538 55.3303 43.459 55.0542 43.834 54.6167C44.1986 54.174 44.4277 53.5647 44.4277 52.8876C44.4277 53.5647 44.6621 54.1584 45.0371 54.6167C45.4173 55.0542 45.9329 55.3303 46.4902 55.3303Z" fill="white"/>
<path d="M70.4648 69.2938C69.8971 69.2938 69.3763 69.5698 69.0117 70.0073C68.6367 70.45 68.4023 71.0594 68.4023 71.7365C68.4023 70.3875 67.4857 69.2938 66.3555 69.2938C66.9232 69.2938 67.4336 69.0229 67.8086 68.5802C68.168 68.1375 68.4023 67.5282 68.4023 66.8511C68.4023 67.5282 68.6367 68.1271 69.0117 68.5802C69.3763 69.0229 69.8971 69.2938 70.4648 69.2938Z" fill="white"/>
<path d="M37.7044 31.1115C37.1315 31.1115 36.6107 31.3876 36.2513 31.8251C35.8763 32.2678 35.6419 32.8824 35.6419 33.5542C35.6419 32.2053 34.7201 31.1115 33.5898 31.1115C34.1628 31.1115 34.668 30.8407 35.043 30.398C35.4076 29.9553 35.6419 29.3459 35.6419 28.6688C35.6419 29.3459 35.8763 29.9449 36.2513 30.398C36.6107 30.8407 37.1315 31.1115 37.7044 31.1115Z" fill="white"/>
<path d="M47.9063 57.7729C47.5938 57.7729 47.3229 57.9136 47.1146 58.1584C46.9063 58.4084 46.7917 58.7313 46.7917 59.0959C46.7917 58.3667 46.2969 57.7729 45.6719 57.7729C45.9844 57.7729 46.2552 57.6271 46.4635 57.3823C46.6615 57.1323 46.7917 56.8094 46.7917 56.4448C46.7917 56.8094 46.9167 57.1323 47.1146 57.3823C47.3073 57.6167 47.5938 57.7729 47.9063 57.7729Z" fill="white"/>
<path d="M67.0262 45.8459C66.4168 45.8198 66.0314 43.898 65.5522 41.6219C65.0939 39.3511 64.6928 37.4396 65.2501 37.1688C65.771 36.8928 67.1564 38.6115 67.6772 41.1948C68.2085 43.7678 67.6095 45.8823 67.0262 45.8459Z" fill="white"/>
<path d="M66.5733 49.7834C66.3129 49.7157 66.2504 49.0907 66.3546 48.3511C66.4587 47.6115 66.7191 47.0282 66.9743 47.0386C67.2348 47.0542 67.4066 47.7053 67.2868 48.4813C67.1723 49.2625 66.8233 49.8355 66.5733 49.7834Z" fill="white"/>
<path d="M26.5265 39.1167C27.1203 39.273 26.938 41.7938 27.2401 44.7782C27.4849 47.7678 28.1307 50.1948 27.5734 50.4709C27.3182 50.5855 26.7713 50.1063 26.2505 49.1167C25.7192 48.1428 25.2296 46.6636 25.0838 44.9761C24.9328 43.2834 25.1515 41.7417 25.4901 40.6896C25.813 39.6376 26.2401 39.049 26.5265 39.1167Z" fill="white"/>
<path d="M28.3288 34.3198C28.5631 34.4657 28.3392 35.2313 27.9798 36.1271C27.5996 37.0126 27.1725 37.7001 26.9277 37.6219C26.6673 37.5438 26.709 36.7001 27.11 35.7521C27.5111 34.8042 28.1204 34.1896 28.3288 34.3198Z" fill="white"/>
<path d="M70.3242 75.5438C70.6315 76.0646 69.767 77.0646 68.5847 77.7104C68.0013 78.049 67.4597 78.2729 66.9909 78.3875C66.8763 78.4136 66.7722 78.4396 66.668 78.4552L66.5899 78.4656C66.5638 78.4656 66.5482 78.4917 66.4701 78.3875C66.3399 78.2573 66.267 78.2052 66.2149 78.1948C66.1888 78.1948 66.1888 78.1948 66.1888 78.1948C66.1211 78.2209 66.1628 78.2052 66.1472 78.2052C66.1628 78.1688 66.1367 78.1531 66.1628 78.1948C66.1888 78.2209 66.1992 78.2209 66.1888 78.2209C66.1732 78.2313 66.1628 78.2469 66.1992 78.1948C66.2253 78.1688 66.2513 78.1271 66.3034 78.1531C66.3815 78.1688 66.3815 78.3511 66.3295 78.4136C66.2774 78.4813 66.2409 78.5698 66.043 78.5698C65.9388 78.5854 65.7826 78.4396 65.7461 78.3511C65.7045 78.2729 65.6784 78.1688 65.694 78.0906C65.7045 77.9188 65.7722 77.8146 65.8086 77.7261C65.8503 77.6479 65.8503 77.6219 65.8763 77.5594C65.9128 77.4552 65.9649 77.3354 66.0326 77.2209C66.3034 76.7521 66.8347 76.2469 67.4961 75.8667C68.819 75.1011 70.0222 75.0386 70.3242 75.5438Z" fill="white"/>
<path d="M72.2296 74.2677C72.3963 74.4657 72.24 74.8823 71.865 75.1427C71.49 75.4136 71.0629 75.4136 70.9171 75.1948C70.7869 74.9709 70.9692 74.6063 71.3182 74.3615C71.6567 74.1271 72.0473 74.0646 72.2296 74.2677Z" fill="white"/>
</svg>
