<?xml version="1.0" standalone="no"?>
<!DOCTYPE svg PUBLIC "-//W3C//DTD SVG 20010904//EN"
 "http://www.w3.org/TR/2001/REC-SVG-20010904/DTD/svg10.dtd">
<svg version="1.0" xmlns="http://www.w3.org/2000/svg"
 width="512.000000pt" height="512.000000pt" viewBox="0 0 512.000000 512.000000"
 preserveAspectRatio="xMidYMid meet">

<g transform="translate(0.000000,512.000000) scale(0.100000,-0.100000)"
fill="#02CED8" stroke="none">
<path d="M2083 4574 c-18 -9 -42 -31 -53 -49 -19 -30 -20 -49 -20 -311 0 -259
1 -281 20 -311 31 -51 65 -63 184 -63 l106 0 2 -169 3 -168 195 168 195 169
372 0 371 0 33 27 c56 47 59 66 59 350 0 288 -4 307 -69 350 l-34 23 -666 0
c-590 0 -670 -2 -698 -16z m402 -299 c32 -31 33 -80 3 -112 -19 -20 -31 -23
-95 -23 -65 0 -77 3 -98 25 -16 15 -25 36 -25 55 0 19 9 40 25 55 21 22 33 25
95 25 62 0 74 -3 95 -25z m404 -1 c48 -40 41 -102 -16 -132 -30 -17 -118 -15
-152 3 -32 16 -41 33 -41 73 1 54 41 81 122 82 46 0 62 -5 87 -26z m419 6 c30
-28 36 -62 18 -98 -19 -37 -32 -42 -111 -42 -79 0 -92 5 -111 42 -18 36 -12
70 18 98 18 16 35 20 93 20 58 0 75 -4 93 -20z"/>
<path d="M290 4019 c-55 -25 -95 -62 -123 -114 l-22 -40 -3 -1342 -2 -1343
-70 0 -70 0 0 -37 c0 -70 29 -177 69 -258 72 -145 201 -260 361 -321 l75 -29
2050 0 2050 0 70 24 c166 57 301 175 375 325 41 82 70 189 70 259 l0 37 -70 0
-70 0 -2 1343 -3 1342 -22 41 c-28 53 -91 107 -142 122 -27 9 -195 12 -570 12
l-531 0 0 -57 c0 -32 -3 -68 -6 -80 l-6 -22 537 -3 537 -3 19 -24 c18 -23 19
-59 19 -1347 l0 -1324 -2250 0 -2250 0 0 1324 c0 1246 1 1325 18 1345 l17 21
755 3 c665 2 755 4 751 17 -2 8 -6 45 -9 83 l-5 67 -751 0 c-734 0 -752 -1
-796 -21z m2449 -3115 c35 -45 24 -96 -26 -122 -33 -18 -277 -16 -312 3 -46
24 -55 74 -20 119 l20 26 159 0 159 0 20 -26z"/>
<path d="M1311 3624 c-218 -58 -371 -279 -346 -498 22 -201 161 -360 360 -411
211 -54 434 55 531 260 31 64 37 90 42 163 8 155 -38 273 -150 377 -118 110
-282 151 -437 109z"/>
<path d="M3040 2800 l0 -710 743 2 742 3 0 705 0 705 -742 3 -743 2 0 -710z
m844 536 c164 -69 197 -311 59 -425 l-36 -29 44 -12 c122 -33 227 -121 282
-238 31 -65 32 -72 35 -220 l4 -152 -514 2 -513 3 -3 90 c-6 179 28 290 119
390 59 63 144 110 235 127 l61 11 -39 35 c-61 55 -82 104 -82 187 0 52 5 80
21 110 64 120 205 172 327 121z"/>
<path d="M1277 2570 c-349 -44 -635 -300 -717 -642 -17 -69 -20 -118 -20 -290
l0 -208 895 0 895 0 0 189 c0 203 -11 289 -52 402 -96 263 -319 464 -588 529
-97 23 -306 34 -413 20z"/>
<path d="M3020 1643 c-71 -26 -82 -116 -19 -148 24 -13 141 -15 789 -15 l762
0 29 29 c36 36 37 70 5 108 l-24 28 -764 2 c-419 1 -770 -1 -778 -4z"/>
</g>
</svg>
