<?xml version="1.0" standalone="no"?>
<!DOCTYPE svg PUBLIC "-//W3C//DTD SVG 20010904//EN"
 "http://www.w3.org/TR/2001/REC-SVG-20010904/DTD/svg10.dtd">
<svg version="1.0" xmlns="http://www.w3.org/2000/svg"
 width="512.000000pt" height="512.000000pt" viewBox="0 0 512.000000 512.000000"
 preserveAspectRatio="xMidYMid meet">

<g transform="translate(0.000000,512.000000) scale(0.100000,-0.100000)"
fill="#02CED8" stroke="none">
<path d="M3745 4925 c-326 -60 -595 -263 -740 -560 -87 -177 -119 -346 -104
-541 9 -120 29 -201 76 -314 100 -237 276 -421 508 -530 165 -78 240 -94 440
-95 190 0 267 15 418 80 163 71 344 221 438 365 209 317 234 701 69 1035 -148
301 -417 502 -749 560 -101 18 -260 18 -356 0z m383 -295 c261 -73 465 -285
529 -548 21 -89 21 -256 -1 -347 -27 -113 -97 -244 -178 -330 -159 -171 -365
-255 -588 -242 -119 7 -193 26 -295 76 -375 184 -524 648 -329 1021 104 200
309 348 539 390 76 14 240 4 323 -20z"/>
<path d="M3800 4505 c-86 -19 -213 -83 -277 -140 -70 -62 -148 -180 -175 -268
-31 -96 -32 -283 -4 -367 34 -101 79 -173 156 -250 233 -234 597 -240 839 -15
132 123 194 264 194 445 1 91 -3 116 -29 190 -66 188 -206 327 -392 389 -84
28 -226 36 -312 16z m175 -314 c54 -135 46 -129 185 -132 36 -1 78 -4 93 -8
28 -6 26 -8 -67 -84 -53 -43 -96 -86 -96 -95 0 -9 13 -66 29 -127 17 -60 29
-111 27 -112 -1 -1 -51 29 -111 67 -102 66 -110 69 -131 55 -143 -94 -194
-123 -194 -113 0 7 14 64 31 127 16 63 26 117 22 121 -4 4 -49 41 -99 82 l-92
76 45 6 c25 3 73 6 107 7 105 2 103 0 155 132 25 64 47 117 48 117 0 0 22 -54
48 -119z"/>
<path d="M1236 4414 c-147 -36 -291 -149 -359 -285 -115 -228 -77 -470 103
-649 141 -142 314 -195 505 -155 260 55 444 282 445 550 0 251 -177 477 -425
540 -73 18 -190 18 -269 -1z"/>
<path d="M3126 3008 c-65 -102 -194 -342 -189 -354 7 -20 29 -18 203 18 86 17
163 29 171 26 10 -4 37 -68 68 -160 29 -84 57 -161 62 -170 23 -43 44 -19 157
176 62 107 112 199 112 203 0 5 -33 17 -72 27 -151 38 -301 111 -425 208 -35
26 -65 48 -68 48 -2 0 -11 -10 -19 -22z"/>
<path d="M4680 3009 c-54 -43 -168 -118 -225 -146 -74 -38 -215 -88 -272 -98
-24 -4 -43 -10 -43 -13 0 -4 51 -95 113 -202 148 -256 140 -255 217 -25 51
154 59 170 81 173 13 1 91 -11 173 -28 171 -35 185 -36 193 -15 5 15 -193 375
-206 375 -4 0 -17 -10 -31 -21z"/>
<path d="M1189 2975 c-14 -8 -32 -28 -39 -44 -10 -26 -8 -41 15 -113 15 -46
34 -94 42 -107 13 -21 13 -39 -3 -160 l-17 -136 89 -137 c49 -75 92 -136 96
-135 4 1 47 64 97 139 l89 136 -19 138 c-16 119 -17 140 -5 153 17 19 66 166
66 199 0 13 -13 37 -29 53 l-29 29 -164 0 c-121 -1 -170 -4 -189 -15z"/>
<path d="M655 2752 c-261 -192 -433 -480 -481 -804 -30 -207 -8 -295 97 -393
77 -70 164 -117 306 -165 258 -86 489 -114 863 -107 286 5 393 18 591 67 282
70 461 177 524 312 21 44 25 68 25 144 0 299 -130 603 -355 829 -70 71 -207
175 -230 175 -7 0 -139 -195 -295 -432 -156 -238 -292 -443 -303 -455 -14 -15
-25 -20 -35 -14 -8 5 -146 208 -306 452 -161 244 -299 445 -307 447 -8 1 -50
-24 -94 -56z"/>
<path d="M565 868 c-26 -68 -53 -128 -59 -135 -7 -8 -59 -15 -136 -19 -130 -7
-160 -14 -160 -39 0 -8 47 -54 105 -102 66 -54 105 -93 105 -105 0 -11 -14
-74 -31 -140 -16 -67 -28 -127 -25 -134 10 -25 36 -15 147 56 61 39 117 70
125 70 7 0 63 -31 123 -70 61 -38 117 -70 126 -70 28 0 27 27 -5 150 -17 67
-30 130 -28 140 2 11 48 57 103 102 100 84 125 121 88 131 -10 3 -75 9 -145
12 -76 4 -131 12 -136 18 -5 7 -31 67 -57 135 -41 105 -50 122 -69 122 -19 0
-29 -17 -71 -122z"/>
<path d="M1926 982 c-3 -4 -26 -62 -51 -128 -25 -65 -49 -122 -53 -126 -4 -4
-65 -10 -137 -14 -133 -7 -165 -14 -165 -38 0 -8 42 -47 93 -89 142 -116 133
-93 97 -237 -33 -129 -35 -163 -10 -168 8 -1 65 29 125 67 61 39 116 71 124
71 8 0 65 -31 126 -70 61 -38 116 -70 121 -70 31 0 31 25 -2 153 -18 73 -34
135 -34 139 0 4 50 49 110 99 61 51 110 98 110 106 0 22 -39 31 -174 40 l-129
8 -51 130 c-42 105 -56 131 -73 133 -12 2 -24 -1 -27 -6z"/>
<path d="M3195 868 c-26 -68 -53 -128 -59 -135 -7 -8 -59 -15 -136 -19 -130
-7 -160 -14 -160 -39 0 -8 47 -54 105 -102 66 -54 105 -93 105 -105 0 -11 -14
-74 -31 -140 -16 -67 -28 -127 -25 -134 10 -25 36 -15 147 56 61 39 117 70
125 70 7 0 63 -31 123 -70 61 -38 117 -70 126 -70 28 0 27 27 -5 150 -17 67
-30 130 -28 140 2 11 48 57 103 102 100 84 125 121 88 131 -10 3 -75 9 -145
12 -76 4 -131 12 -136 18 -5 7 -31 67 -57 135 -41 105 -50 122 -69 122 -19 0
-29 -17 -71 -122z"/>
</g>
</svg>
