<?xml version="1.0" standalone="no"?>
<!DOCTYPE svg PUBLIC "-//W3C//DTD SVG 20010904//EN"
 "http://www.w3.org/TR/2001/REC-SVG-20010904/DTD/svg10.dtd">
<svg version="1.0" xmlns="http://www.w3.org/2000/svg"
 width="512.000000pt" height="512.000000pt" viewBox="0 0 512.000000 512.000000"
 preserveAspectRatio="xMidYMid meet">

<g transform="translate(0.000000,512.000000) scale(0.100000,-0.100000)"
fill="#02CED8" stroke="none">
<path d="M1955 4795 c-24 -23 -25 -29 -25 -165 0 -136 1 -142 25 -165 22 -23
32 -25 115 -25 l90 0 0 -113 0 -114 145 0 145 0 0 114 0 113 90 0 c83 0 93 2
115 25 24 23 25 29 25 165 0 136 -1 142 -25 165 l-24 25 -326 0 -326 0 -24
-25z"/>
<path d="M2433 2367 c-1393 -1392 -1973 -1978 -1973 -1993 0 -36 33 -67 69
-67 30 0 193 160 2002 1969 2111 2111 1999 1994 1949 2044 -50 50 68 163
-2047 -1953z"/>
<path d="M2075 4076 c-300 -49 -553 -165 -782 -357 -251 -211 -435 -514 -511
-844 -116 -499 31 -1040 381 -1410 l85 -90 211 209 c115 115 215 222 222 238
10 25 9 33 -8 56 -11 16 -32 28 -48 30 -24 3 -43 -11 -130 -98 l-102 -101 -33
38 c-126 144 -229 368 -265 577 -25 148 -39 134 131 138 131 3 147 5 160 22
20 28 17 70 -7 92 -18 16 -40 19 -161 22 l-140 4 7 66 c16 148 79 342 154 471
49 84 129 191 148 198 10 4 50 -30 112 -91 95 -94 124 -111 157 -88 14 9 34
47 34 63 0 6 -46 59 -102 116 l-103 105 40 35 c168 146 480 273 671 273 l44 0
0 -140 c0 -127 2 -142 20 -160 11 -11 31 -20 45 -20 14 0 34 9 45 20 18 18 20
33 20 160 l0 140 44 0 c114 0 316 -58 461 -133 77 -40 225 -143 240 -167 4 -7
-32 -51 -94 -114 -56 -57 -101 -109 -101 -115 0 -16 20 -54 34 -63 6 -4 24 -8
40 -8 25 0 62 33 243 212 117 117 213 217 213 224 0 6 -32 42 -71 78 -211 200
-469 334 -761 398 -120 25 -424 34 -543 14z"/>
<path d="M1906 3424 c-9 -8 -16 -28 -16 -43 0 -15 70 -195 155 -399 85 -204
155 -375 155 -378 0 -3 -98 -5 -217 -3 -120 2 -228 -1 -240 -5 -46 -15 -42
-96 4 -114 16 -6 145 -12 301 -15 259 -4 274 -3 297 15 14 11 25 29 25 42 0
22 -353 881 -372 904 -15 17 -74 15 -92 -4z"/>
<path d="M3173 2399 c-90 -35 -128 -84 -228 -293 l-89 -186 -196 0 c-161 0
-199 -3 -218 -16 -53 -37 -42 -47 304 -263 180 -112 348 -212 375 -222 40 -15
77 -19 189 -19 l140 0 0 60 c0 51 4 65 25 85 35 36 88 34 126 -4 25 -26 29
-37 29 -85 l0 -56 138 0 c100 0 151 4 183 16 64 22 703 426 707 446 2 9 -6 26
-17 37 -20 20 -32 21 -221 21 l-200 0 -90 187 c-97 200 -125 239 -205 281
l-50 27 -325 2 c-306 2 -328 1 -377 -18z m689 -186 c25 -24 155 -280 146 -288
-3 -3 -217 -4 -476 -3 l-472 3 70 143 c60 123 74 145 102 157 27 12 87 14 320
12 282 -2 287 -2 310 -24z"/>
<path d="M2420 1107 c0 -524 1 -555 18 -570 17 -16 108 -17 1100 -17 1069 0
1082 0 1102 20 20 20 20 33 20 564 0 300 -4 547 -8 550 -5 3 -24 -5 -43 -18
-142 -96 -554 -343 -599 -359 -43 -17 -88 -22 -215 -26 l-160 -6 -6 -63 c-7
-73 -27 -100 -80 -108 -28 -5 -41 -1 -67 21 -28 23 -31 32 -34 88 l-3 62 -165
6 c-137 5 -175 9 -221 28 -31 12 -178 98 -327 191 -149 92 -280 174 -291 180
l-21 11 0 -554z"/>
</g>
</svg>
