<?xml version="1.0" standalone="no"?>
<!DOCTYPE svg PUBLIC "-//W3C//DTD SVG 20010904//EN"
 "http://www.w3.org/TR/2001/REC-SVG-20010904/DTD/svg10.dtd">
<svg version="1.0" xmlns="http://www.w3.org/2000/svg"
 width="512.000000pt" height="512.000000pt" viewBox="0 0 512.000000 512.000000"
 preserveAspectRatio="xMidYMid meet">

<g transform="translate(0.000000,512.000000) scale(0.100000,-0.100000)"
fill="#02CED8" stroke="none">
<path d="M849 5005 c-50 -16 -109 -68 -136 -118 -12 -22 -18 -64 -21 -134 l-4
-102 -207 -3 -208 -3 -48 -30 c-36 -22 -57 -45 -77 -84 l-28 -54 2 -2027 3
-2026 28 -42 c15 -23 46 -54 69 -69 l42 -28 1710 -5 1711 -5 81 -51 c234 -146
512 -160 769 -40 204 97 354 267 427 486 31 90 32 103 32 250 1 149 -1 158
-32 250 -37 107 -90 203 -151 272 l-41 46 0 1479 c0 959 -4 1491 -10 1514 -15
52 -49 99 -98 134 l-44 30 -207 3 -208 3 -6 93 c-3 51 -13 110 -22 132 -61
147 -255 188 -368 78 -60 -59 -70 -87 -75 -202 l-4 -103 -147 3 -146 3 -5 105
c-5 109 -13 132 -64 188 -79 88 -232 90 -319 6 -60 -59 -70 -87 -75 -202 l-4
-103 -147 3 -146 3 -5 105 c-5 109 -13 132 -64 188 -80 90 -235 90 -324 2 -52
-53 -72 -112 -72 -217 l0 -84 -147 3 -148 3 -5 107 c-5 98 -7 110 -35 150 -59
83 -142 118 -234 99 -64 -13 -112 -43 -146 -92 -35 -50 -45 -91 -45 -186 l0
-83 -144 0 -143 0 -6 93 c-3 51 -13 111 -22 133 -45 109 -171 166 -286 129z
m-157 -608 c3 -89 7 -108 30 -148 78 -133 263 -155 370 -42 41 43 59 98 65
200 l6 93 142 0 143 0 4 -103 c3 -89 7 -108 30 -148 88 -149 291 -155 393 -11
28 40 30 52 35 150 l5 107 146 3 147 3 4 -103 c5 -115 16 -145 75 -203 86 -83
224 -82 316 4 50 45 61 78 67 191 l5 105 148 3 147 3 0 -82 c0 -113 14 -154
75 -215 77 -77 170 -93 265 -44 85 44 120 113 128 248 l5 92 142 0 143 0 4
-102 c5 -115 16 -145 75 -203 88 -86 238 -80 325 12 41 43 59 98 65 200 l6 93
177 0 c164 0 179 -2 204 -21 l26 -20 0 -225 0 -224 -2170 0 -2170 0 0 216 c0
224 4 248 43 264 12 5 101 9 198 9 l177 1 4 -103z m608 -917 c19 -19 20 -33
20 -324 0 -284 -1 -305 -19 -327 l-19 -24 -307 0 -307 0 -24 28 -24 28 0 293
c0 282 1 294 21 320 l20 26 310 0 c296 0 310 -1 329 -20z m980 0 c19 -19 20
-33 20 -324 0 -284 -1 -305 -19 -327 l-19 -24 -307 0 -307 0 -24 28 -24 28 0
293 c0 282 1 294 21 320 l20 26 310 0 c296 0 310 -1 329 -20z m980 0 c19 -19
20 -33 20 -324 0 -284 -1 -305 -19 -327 l-19 -24 -307 0 -307 0 -24 28 -24 28
0 293 c0 282 1 294 21 320 l20 26 310 0 c296 0 310 -1 329 -20z m980 0 c19
-19 20 -33 20 -324 0 -284 -1 -305 -19 -327 l-19 -24 -307 0 -307 0 -24 28
-24 28 0 293 c0 282 1 294 21 320 l20 26 310 0 c296 0 310 -1 329 -20z m-2940
-1010 c19 -19 20 -33 20 -325 0 -290 -1 -306 -20 -325 -11 -11 -30 -22 -42
-25 -13 -3 -151 -5 -306 -3 l-284 3 -24 28 -24 28 0 293 c0 282 1 294 21 320
l20 26 310 0 c296 0 310 -1 329 -20z m980 0 c19 -19 20 -33 20 -325 0 -290 -1
-306 -20 -325 -11 -11 -30 -22 -42 -25 -13 -3 -151 -5 -306 -3 l-284 3 -24 28
-24 28 0 293 c0 282 1 294 21 320 l20 26 310 0 c296 0 310 -1 329 -20z m980 0
c19 -19 20 -33 20 -325 0 -290 -1 -306 -20 -325 -11 -11 -30 -22 -42 -25 -13
-3 -151 -5 -306 -3 l-284 3 -24 28 -24 28 0 293 c0 282 1 294 21 320 l20 26
310 0 c296 0 310 -1 329 -20z m980 0 c19 -19 20 -33 20 -325 0 -290 -1 -306
-20 -325 -11 -11 -30 -22 -42 -25 -13 -3 -151 -5 -306 -3 l-284 3 -24 28 -24
28 0 293 c0 282 1 294 21 320 l20 26 310 0 c296 0 310 -1 329 -20z m85 -905
c144 -31 296 -126 382 -239 205 -271 183 -637 -52 -871 -130 -129 -256 -184
-440 -192 -131 -6 -214 10 -320 62 -228 111 -368 337 -368 595 0 185 59 326
193 461 68 69 101 94 170 128 140 68 287 87 435 56z m-3025 -105 c19 -19 20
-33 20 -325 0 -292 -1 -306 -20 -325 -19 -19 -33 -20 -329 -20 l-310 0 -20 26
c-20 26 -21 38 -21 319 0 281 1 293 21 319 l20 26 310 0 c296 0 310 -1 329
-20z m980 0 c19 -19 20 -33 20 -325 0 -292 -1 -306 -20 -325 -19 -19 -33 -20
-329 -20 l-310 0 -20 26 c-20 26 -21 38 -21 319 0 281 1 293 21 319 l20 26
310 0 c296 0 310 -1 329 -20z m980 0 c19 -19 20 -33 20 -325 0 -292 -1 -306
-20 -325 -19 -19 -33 -20 -329 -20 l-310 0 -20 26 c-20 26 -21 38 -21 319 0
281 1 293 21 319 l20 26 310 0 c296 0 310 -1 329 -20z"/>
<path d="M780 3155 l0 -195 195 0 195 0 0 195 0 195 -195 0 -195 0 0 -195z"/>
<path d="M1760 3155 l0 -195 195 0 195 0 0 195 0 195 -195 0 -195 0 0 -195z"/>
<path d="M2740 3155 l0 -195 195 0 195 0 0 195 0 195 -195 0 -195 0 0 -195z"/>
<path d="M3720 3155 l0 -195 195 0 195 0 0 195 0 195 -195 0 -195 0 0 -195z"/>
<path d="M780 2145 l0 -195 195 0 195 0 0 195 0 195 -195 0 -195 0 0 -195z"/>
<path d="M1760 2145 l0 -195 195 0 195 0 0 195 0 195 -195 0 -195 0 0 -195z"/>
<path d="M2740 2145 l0 -195 195 0 195 0 0 195 0 195 -195 0 -195 0 0 -195z"/>
<path d="M3720 2145 l0 -195 195 0 195 0 0 195 0 195 -195 0 -195 0 0 -195z"/>
<path d="M4155 1249 c-42 -24 -45 -37 -45 -208 l0 -165 96 -155 c53 -86 107
-166 121 -178 30 -29 63 -29 97 -2 45 35 36 65 -69 233 l-95 152 0 141 c0 120
-3 144 -17 161 -22 26 -62 35 -88 21z"/>
<path d="M780 1135 l0 -195 195 0 195 0 0 195 0 195 -195 0 -195 0 0 -195z"/>
<path d="M1760 1135 l0 -195 195 0 195 0 0 195 0 195 -195 0 -195 0 0 -195z"/>
<path d="M2740 1135 l0 -195 195 0 195 0 0 195 0 195 -195 0 -195 0 0 -195z"/>
</g>
</svg>
