<?xml version="1.0" standalone="no"?>
<!DOCTYPE svg PUBLIC "-//W3C//DTD SVG 20010904//EN"
 "http://www.w3.org/TR/2001/REC-SVG-20010904/DTD/svg10.dtd">
<svg version="1.0" xmlns="http://www.w3.org/2000/svg"
 width="512.000000pt" height="512.000000pt" viewBox="0 0 512.000000 512.000000"
 preserveAspectRatio="xMidYMid meet">

<g transform="translate(0.000000,512.000000) scale(0.100000,-0.100000)"
fill="#02CED8" stroke="none">
<path d="M905 4993 c-68 -23 -155 -110 -178 -177 -70 -205 90 -413 303 -393
102 9 191 71 237 165 51 105 33 234 -46 325 -71 80 -211 116 -316 80z"/>
<path d="M4055 5001 c-169 -44 -264 -222 -208 -387 25 -74 113 -157 188 -180
195 -56 380 81 379 281 -1 118 -57 211 -159 260 -57 29 -147 40 -200 26z"/>
<path d="M901 4294 c-98 -21 -168 -60 -242 -133 -73 -74 -125 -167 -135 -243
l-7 -48 487 0 c409 0 486 2 486 14 0 8 -9 43 -20 79 -51 166 -195 296 -369
333 -81 17 -117 17 -200 -2z"/>
<path d="M4024 4295 c-170 -37 -309 -159 -364 -320 -11 -32 -20 -69 -20 -82
l0 -23 486 0 486 0 -7 37 c-36 192 -189 347 -384 389 -80 17 -117 17 -197 -1z"/>
<path d="M2456 4124 c-58 -21 -118 -75 -151 -135 -27 -48 -30 -63 -30 -139 0
-68 5 -93 22 -126 36 -67 70 -101 135 -133 116 -59 253 -36 340 55 140 146 96
384 -87 470 -59 28 -165 32 -229 8z"/>
<path d="M240 3665 l0 -95 760 0 760 0 0 95 0 95 -760 0 -760 0 0 -95z"/>
<path d="M3367 3753 c-4 -3 -7 -46 -7 -95 l0 -88 760 0 760 0 0 95 0 95 -753
0 c-415 0 -757 -3 -760 -7z"/>
<path d="M510 3280 l0 -180 490 0 490 0 0 180 0 180 -490 0 -490 0 0 -180z"/>
<path d="M3637 3453 c-4 -3 -7 -84 -7 -180 l0 -173 493 2 492 3 0 175 0 175
-486 3 c-267 1 -489 -1 -492 -5z"/>
<path d="M2446 3429 c-72 -17 -167 -72 -226 -130 -63 -62 -125 -174 -136 -246
l-7 -43 488 0 487 0 -6 38 c-4 20 -22 70 -41 110 -61 129 -183 232 -319 268
-57 15 -181 17 -240 3z"/>
<path d="M1802 2798 l3 -93 758 -3 757 -2 0 95 0 95 -760 0 -761 0 3 -92z"/>
<path d="M2070 2415 l0 -175 490 0 490 0 0 175 0 175 -490 0 -490 0 0 -175z"/>
<path d="M1815 1586 c-396 -116 -725 -214 -732 -216 -6 -3 324 -103 735 -222
l747 -218 743 217 c408 119 739 219 735 223 -13 11 -1467 430 -1488 429 -11
-1 -344 -97 -740 -213z"/>
<path d="M1050 990 l0 -260 75 0 75 0 0 240 0 239 -66 21 c-36 11 -70 20 -75
20 -5 0 -9 -114 -9 -260z"/>
<path d="M1560 772 c0 -349 1 -356 49 -382 24 -12 875 -290 890 -290 8 0 11
104 11 364 0 339 -1 365 -17 370 -152 46 -915 266 -923 266 -7 0 -10 -108 -10
-328z"/>
<path d="M3115 975 c-231 -68 -437 -129 -457 -135 l-38 -11 0 -364 c0 -265 3
-365 11 -365 7 0 205 64 442 141 383 125 435 145 464 174 l33 33 0 326 c0 304
-1 326 -17 325 -10 0 -207 -56 -438 -124z"/>
<path d="M1009 604 c-10 -13 -9 -53 10 -232 12 -119 27 -222 33 -229 14 -17
132 -18 146 0 6 6 20 110 33 229 18 177 20 220 9 233 -18 22 -212 22 -231 -1z"/>
</g>
</svg>
