<?xml version="1.0" standalone="no"?>
<!DOCTYPE svg PUBLIC "-//W3C//DTD SVG 20010904//EN"
 "http://www.w3.org/TR/2001/REC-SVG-20010904/DTD/svg10.dtd">
<svg version="1.0" xmlns="http://www.w3.org/2000/svg"
 width="512.000000pt" height="512.000000pt" viewBox="0 0 512.000000 512.000000"
 preserveAspectRatio="xMidYMid meet">

<g transform="translate(0.000000,512.000000) scale(0.100000,-0.100000)"
fill="#02CED8" stroke="none">
<path d="M2454 5102 c-92 -33 -165 -107 -199 -202 -20 -57 -21 -167 -1 -215
19 -44 299 -534 306 -534 6 0 254 430 293 508 25 50 28 65 25 141 -2 66 -9 96
-28 135 -31 64 -99 131 -158 157 -66 30 -172 34 -238 10z"/>
<path d="M1617 4621 c-76 -31 -132 -83 -169 -158 -28 -58 -33 -77 -33 -143 1
-127 68 -235 181 -291 48 -24 53 -24 372 -27 177 -1 322 1 322 5 -1 19 -281
492 -315 531 -57 66 -123 95 -225 99 -67 3 -95 -1 -133 -16z"/>
<path d="M3290 4631 c-54 -17 -110 -52 -145 -93 -34 -39 -314 -512 -315 -531
0 -4 147 -7 328 -5 370 3 364 2 450 88 64 64 95 139 96 230 1 66 -3 84 -32
143 -57 115 -160 178 -290 176 -37 0 -78 -4 -92 -8z"/>
<path d="M107 3685 c-51 -18 -85 -51 -98 -94 -6 -23 -9 -141 -7 -318 3 -266 4
-283 24 -309 11 -15 33 -37 48 -48 27 -21 35 -21 1022 -24 l994 -2 -2 402 -3
403 -970 2 c-801 2 -977 0 -1008 -12z"/>
<path d="M2390 3295 l0 -405 170 0 170 0 0 405 0 405 -170 0 -170 0 0 -405z"/>
<path d="M3037 3694 c-4 -4 -7 -187 -7 -406 l0 -398 994 2 c987 3 995 3 1022
24 15 11 37 33 48 48 20 26 21 40 21 331 0 293 -1 305 -21 332 -12 15 -36 37
-55 48 -33 20 -54 20 -1015 23 -539 1 -983 -1 -987 -4z"/>
<path d="M240 1358 c0 -1211 0 -1232 20 -1273 13 -26 34 -49 59 -63 l39 -22
2202 0 2202 0 39 22 c25 14 46 37 59 63 20 41 20 62 20 1273 l0 1232 -2320 0
-2320 0 0 -1232z m1260 714 c19 -9 45 -33 58 -52 32 -48 28 -137 -9 -176 -45
-49 -67 -54 -224 -54 l-145 0 0 -186 0 -186 33 6 c85 18 143 25 166 19 80 -19
121 -68 121 -147 0 -89 -48 -136 -155 -151 -63 -9 -108 -36 -137 -83 -22 -35
-23 -50 -28 -252 -4 -184 -8 -220 -23 -243 -55 -84 -199 -77 -252 13 -20 34
-20 49 -20 721 l0 686 29 37 c47 62 63 65 321 66 200 0 235 -2 265 -18z m800
2 c151 -34 275 -155 314 -309 20 -76 22 -338 2 -410 -31 -117 -94 -199 -215
-282 -2 -1 46 -82 107 -180 61 -98 114 -191 117 -206 27 -104 -79 -206 -184
-177 -53 14 -76 43 -215 268 -65 105 -122 192 -126 192 -20 0 -25 -34 -30
-197 -4 -154 -7 -174 -26 -200 -49 -66 -141 -85 -208 -44 -68 43 -66 14 -66
768 0 770 -4 728 80 771 41 20 58 22 213 22 117 0 189 -5 237 -16z m1069 -13
c62 -44 80 -139 38 -202 -36 -55 -76 -69 -194 -69 l-103 0 0 -169 0 -168 69
-5 c82 -6 131 -32 155 -82 31 -66 17 -134 -38 -186 -22 -20 -40 -25 -104 -30
l-77 -5 -3 -172 -2 -171 119 -4 c111 -3 121 -5 146 -28 79 -74 71 -194 -16
-245 -31 -18 -52 -20 -240 -20 l-206 0 -37 29 c-68 52 -66 24 -66 760 0 447 4
674 11 693 6 15 20 39 32 52 44 47 68 51 282 48 193 -2 201 -3 234 -26z m768
18 c36 -13 73 -47 85 -79 15 -39 11 -106 -8 -138 -30 -52 -67 -66 -189 -72
l-110 -5 -3 -166 -2 -166 67 -5 c119 -9 173 -56 173 -153 0 -56 -24 -106 -62
-127 -13 -7 -57 -15 -98 -18 l-75 -5 0 -170 0 -170 115 -5 c126 -6 148 -14
181 -68 43 -68 18 -166 -51 -207 -31 -18 -55 -20 -222 -23 -169 -3 -191 -2
-232 17 -28 12 -53 32 -66 53 -19 32 -20 48 -20 724 l0 691 23 34 c41 62 69
69 279 69 108 0 199 -4 215 -11z"/>
<path d="M2070 1549 l0 -241 28 6 c15 3 55 8 89 11 68 8 104 28 128 75 23 45
21 274 -3 319 -28 52 -72 71 -164 71 l-78 0 0 -241z"/>
</g>
</svg>
