<?xml version="1.0" encoding="UTF-8" standalone="no"?>
<svg
   version="1.1"
   width="512px"
   height="512px"
   style="shape-rendering:geometricPrecision; text-rendering:geometricPrecision; image-rendering:optimizeQuality; fill-rule:evenodd; clip-rule:evenodd"
   id="svg6"
   sodipodi:docname="free-icon-road-map-5229205.svg"
   inkscape:version="1.4 (86a8ad7, 2024-10-11)"
   xmlns:inkscape="http://www.inkscape.org/namespaces/inkscape"
   xmlns:sodipodi="http://sodipodi.sourceforge.net/DTD/sodipodi-0.dtd"
   xmlns="http://www.w3.org/2000/svg"
   xmlns:svg="http://www.w3.org/2000/svg">
  <defs
     id="defs6" />
  <sodipodi:namedview
     id="namedview6"
     pagecolor="#ffffff"
     bordercolor="#000000"
     borderopacity="0.25"
     inkscape:showpageshadow="2"
     inkscape:pageopacity="0.0"
     inkscape:pagecheckerboard="0"
     inkscape:deskcolor="#d1d1d1"
     inkscape:zoom="0.95507812"
     inkscape:cx="256"
     inkscape:cy="256"
     inkscape:window-width="1366"
     inkscape:window-height="705"
     inkscape:window-x="-8"
     inkscape:window-y="-8"
     inkscape:window-maximized="1"
     inkscape:current-layer="svg6" />
  <g
     id="g1">
    <path
       style="opacity:0.962;fill:#02ced8;fill-opacity:1"
       fill="#000000"
       d="M 109.5,40.5 C 146.443,39.6168 167.11,57.4501 171.5,94C 171.208,100.002 170.042,105.835 168,111.5C 156.335,136.177 141.669,158.843 124,179.5C 121.237,183.217 117.737,184.217 113.5,182.5C 94.7613,161.367 79.2613,138.034 67,112.5C 58.0158,81.1141 68.1824,58.2807 97.5,44C 101.623,42.8077 105.623,41.641 109.5,40.5 Z M 110.5,70.5 C 131.947,69.7798 142.113,80.1131 141,101.5C 136.413,114.414 127.246,120.58 113.5,120C 95.1075,114.716 88.6075,102.883 94,84.5C 97.685,77.5906 103.185,72.9239 110.5,70.5 Z"
       id="path1" />
  </g>
  <g
     id="g2">
    <path
       style="opacity:0.975;fill:#02ced8;fill-opacity:1"
       fill="#000000"
       d="M 331.5,72.5 C 376.265,80.2199 420.932,88.3866 465.5,97C 464.501,217.43 464.168,337.93 464.5,458.5C 420.422,451.265 376.422,443.598 332.5,435.5C 331.5,353.169 331.167,270.836 331.5,188.5C 339.957,188.691 348.124,190.358 356,193.5C 361.503,191.718 362.337,188.885 358.5,185C 349.854,181.448 340.854,179.614 331.5,179.5C 331.5,143.833 331.5,108.167 331.5,72.5 Z M 339.5,88.5 C 346.522,89.4707 353.522,90.6374 360.5,92C 364.361,93.3427 364.361,94.8427 360.5,96.5C 354.551,95.1436 348.551,93.9769 342.5,93C 339.064,92.7734 338.064,91.2734 339.5,88.5 Z M 379.5,95.5 C 387.167,96.8333 394.833,98.1667 402.5,99.5C 402.5,100.833 402.5,102.167 402.5,103.5C 395.478,102.529 388.478,101.363 381.5,100C 378.589,99.3023 377.923,97.8023 379.5,95.5 Z M 420.5,102.5 C 427.875,103.341 435.209,104.508 442.5,106C 443.337,107.011 443.67,108.178 443.5,109.5C 435.735,109.047 428.068,107.881 420.5,106C 419.316,104.855 419.316,103.688 420.5,102.5 Z M 448.5,119.5 C 449.496,119.414 450.329,119.748 451,120.5C 451.667,128.167 451.667,135.833 451,143.5C 450,144.833 449,144.833 448,143.5C 447.2,135.421 447.367,127.421 448.5,119.5 Z M 448.5,160.5 C 449.496,160.414 450.329,160.748 451,161.5C 451.667,169.167 451.667,176.833 451,184.5C 450,185.833 449,185.833 448,184.5C 447.2,176.421 447.367,168.421 448.5,160.5 Z M 448.5,201.5 C 449.496,201.414 450.329,201.748 451,202.5C 451.667,210.167 451.667,217.833 451,225.5C 450,226.833 449,226.833 448,225.5C 447.2,217.421 447.367,209.421 448.5,201.5 Z M 383.5,205.5 C 385.716,206.203 387.549,207.536 389,209.5C 396.039,219.612 400.539,230.778 402.5,243C 401.841,247.082 399.508,248.416 395.5,247C 395,246.5 394.5,246 394,245.5C 392.241,233.21 387.574,222.21 380,212.5C 379.176,209.16 380.343,206.827 383.5,205.5 Z M 448.5,242.5 C 449.496,242.414 450.329,242.748 451,243.5C 451.667,251.167 451.667,258.833 451,266.5C 450,267.833 449,267.833 448,266.5C 447.2,258.421 447.367,250.421 448.5,242.5 Z M 392.5,271.5 C 418.938,270.449 433.938,282.949 437.5,309C 437.543,313.662 436.709,318.162 435,322.5C 426.637,339.845 416.303,355.845 404,370.5C 399.939,374.737 396.272,374.403 393,369.5C 381.842,355.861 372.176,341.195 364,325.5C 356.158,305.726 360.991,289.56 378.5,277C 383.017,274.445 387.684,272.612 392.5,271.5 Z M 448.5,283.5 C 449.496,283.414 450.329,283.748 451,284.5C 451.667,292.167 451.667,299.833 451,307.5C 450,308.833 449,308.833 448,307.5C 447.2,299.421 447.367,291.421 448.5,283.5 Z M 448.5,324.5 C 449.496,324.414 450.329,324.748 451,325.5C 451.667,333.167 451.667,340.833 451,348.5C 450,349.833 449,349.833 448,348.5C 447.2,340.421 447.367,332.421 448.5,324.5 Z M 448.5,365.5 C 449.496,365.414 450.329,365.748 451,366.5C 451.667,374.167 451.667,381.833 451,389.5C 450,390.833 449,390.833 448,389.5C 447.2,381.421 447.367,373.421 448.5,365.5 Z M 448.5,406.5 C 449.496,406.414 450.329,406.748 451,407.5C 451.5,415.159 451.666,422.826 451.5,430.5C 450.167,430.5 448.833,430.5 447.5,430.5C 447.199,422.414 447.533,414.414 448.5,406.5 Z M 339.5,418.5 C 346.786,420.048 354.119,421.381 361.5,422.5C 361.5,423.833 361.5,425.167 361.5,426.5C 354.474,425.551 347.474,424.385 340.5,423C 336.995,422.036 336.662,420.536 339.5,418.5 Z M 379.5,425.5 C 386.724,427.26 394.057,428.593 401.5,429.5C 401.5,430.833 401.5,432.167 401.5,433.5C 394.125,432.66 386.791,431.493 379.5,430C 377.069,428.568 377.069,427.068 379.5,425.5 Z M 418.5,433.5 C 426.223,434.211 433.89,435.377 441.5,437C 442.708,439.645 441.708,440.812 438.5,440.5C 432.167,439.333 425.833,438.167 419.5,437C 418.663,435.989 418.33,434.822 418.5,433.5 Z"
       id="path2" />
  </g>
  <g
     id="g3">
    <path
       style="opacity:0.966;fill:#02ced8;fill-opacity:1"
       fill="#000000"
       d="M 46.5,73.5 C 50.3058,73.4121 53.9725,74.0787 57.5,75.5C 52.9365,89.8168 53.7698,103.817 60,117.5C 60.3333,123.833 60.6667,130.167 61,136.5C 62,137.833 63,137.833 64,136.5C 64.1858,134.1 64.6858,131.766 65.5,129.5C 77.3651,150.568 91.1984,170.235 107,188.5C 109,189.833 111,191.167 113,192.5C 113.333,202.167 113.667,211.833 114,221.5C 117.044,225.336 119.711,225.003 122,220.5C 122.168,210.816 122.668,201.149 123.5,191.5C 126.433,190.07 128.933,188.07 131,185.5C 145.894,167.267 159.228,147.934 171,127.5C 173.137,122.916 174.971,118.25 176.5,113.5C 177.5,113.5 178.5,113.5 179.5,113.5C 179.5,199.833 179.5,286.167 179.5,372.5C 175.947,372.156 172.447,371.489 169,370.5C 164.142,372.113 163.309,374.946 166.5,379C 170.803,380.05 175.137,380.884 179.5,381.5C 179.833,401.178 179.5,420.845 178.5,440.5C 176.889,441.32 176.222,442.654 176.5,444.5C 177.5,444.5 178.5,444.5 179.5,444.5C 179.5,449.5 179.5,454.5 179.5,459.5C 287.834,459.333 396.167,459.5 504.5,460C 507.167,463.333 507.167,466.667 504.5,470C 356.5,470.667 208.5,470.667 60.5,470C 57,466.996 56.6667,463.663 59.5,460C 98.5,459.667 137.5,459.333 176.5,459C 133.211,451.174 89.8776,443.674 46.5,436.5C 46.5,315.5 46.5,194.5 46.5,73.5 Z M 59.5,154.5 C 60.8221,154.33 61.9887,154.663 63,155.5C 63.6667,162.833 63.6667,170.167 63,177.5C 62,178.833 61,178.833 60,177.5C 59.5003,169.841 59.3336,162.174 59.5,154.5 Z M 59.5,195.5 C 60.8333,195.5 62.1667,195.5 63.5,195.5C 63.6664,203.174 63.4997,210.841 63,218.5C 62,219.833 61,219.833 60,218.5C 59.5003,210.841 59.3336,203.174 59.5,195.5 Z M 59.5,236.5 C 60.8333,236.5 62.1667,236.5 63.5,236.5C 63.6664,244.174 63.4997,251.841 63,259.5C 62,260.833 61,260.833 60,259.5C 59.5003,251.841 59.3336,244.174 59.5,236.5 Z M 116.5,250.5 C 118.229,251.117 119.729,252.117 121,253.5C 121.667,266.833 121.667,280.167 121,293.5C 117.844,296.399 115.178,296.065 113,292.5C 112.333,279.833 112.333,267.167 113,254.5C 113.69,252.65 114.856,251.316 116.5,250.5 Z M 59.5,277.5 C 60.8333,277.5 62.1667,277.5 63.5,277.5C 63.6664,285.174 63.4997,292.841 63,300.5C 62,301.833 61,301.833 60,300.5C 59.5003,292.841 59.3336,285.174 59.5,277.5 Z M 59.5,318.5 C 60.8333,318.5 62.1667,318.5 63.5,318.5C 63.6664,326.174 63.4997,333.841 63,341.5C 62,342.833 61,342.833 60,341.5C 59.5003,333.841 59.3336,326.174 59.5,318.5 Z M 117.5,322.5 C 119.722,322.178 121.556,322.845 123,324.5C 126.548,336.606 132.881,346.939 142,355.5C 142.621,360.542 140.455,362.376 135.5,361C 124.606,351.039 118.106,338.873 116,324.5C 116.717,323.956 117.217,323.289 117.5,322.5 Z M 59.5,359.5 C 60.8333,359.5 62.1667,359.5 63.5,359.5C 63.6664,367.174 63.4997,374.841 63,382.5C 62,383.833 61,383.833 60,382.5C 59.5003,374.841 59.3336,367.174 59.5,359.5 Z M 60.5,399.5 C 61.1499,399.804 61.8165,400.137 62.5,400.5C 63.3309,407.142 63.8309,413.809 64,420.5C 68.7904,421.717 73.6238,422.884 78.5,424C 79.8333,425 79.8333,426 78.5,427C 72.1839,426.737 66.0172,425.57 60,423.5C 59.2004,415.421 59.3671,407.421 60.5,399.5 Z M 96.5,426.5 C 103.522,427.471 110.522,428.637 117.5,430C 120.064,431.481 120.064,432.981 117.5,434.5C 110.24,433.098 103.074,431.431 96,429.5C 95.5304,428.423 95.6971,427.423 96.5,426.5 Z M 137.5,433.5 C 144.134,434.772 150.801,435.939 157.5,437C 161.321,438.144 161.488,439.644 158,441.5C 150.835,440.112 143.669,438.778 136.5,437.5C 136.433,436.041 136.766,434.708 137.5,433.5 Z"
       id="path3" />
  </g>
  <g
     id="g4">
    <path
       style="opacity:0.978;fill:#02ced8;fill-opacity:1"
       fill="#000000"
       d="M 317.5,73.5 C 319.5,73.5 321.5,73.5 323.5,73.5C 323.666,78.5111 323.499,83.5111 323,88.5C 322.275,87.9415 321.442,87.6082 320.5,87.5C 314.18,88.7307 307.846,89.8974 301.5,91C 298.936,92.4813 298.936,93.9813 301.5,95.5C 308.76,93.7813 316.094,92.448 323.5,91.5C 323.5,120.833 323.5,150.167 323.5,179.5C 317.624,179.945 315.958,182.612 318.5,187.5C 320.045,188.452 321.712,188.785 323.5,188.5C 323.787,271.173 323.454,353.84 322.5,436.5C 277.833,443.833 233.167,451.167 188.5,458.5C 188.5,453.833 188.5,449.167 188.5,444.5C 193.072,444.895 197.072,443.728 200.5,441C 199.4,439.977 198.067,439.477 196.5,439.5C 193.86,440.095 191.193,440.428 188.5,440.5C 188.5,420.833 188.5,401.167 188.5,381.5C 194.565,381.739 200.565,381.239 206.5,380C 209.167,377.333 209.167,374.667 206.5,372C 200.496,371.7 194.496,371.866 188.5,372.5C 188.167,286.497 188.5,200.497 189.5,114.5C 192.109,113.77 194.776,113.27 197.5,113C 202.154,111.926 202.487,110.426 198.5,108.5C 195.265,109.031 192.098,109.698 189,110.5C 188.172,105.798 188.338,101.131 189.5,96.5C 232.326,89.0305 274.993,81.3638 317.5,73.5 Z M 275.5,94.5 C 278.073,94.1485 280.406,94.6485 282.5,96C 281.833,96.6667 281.167,97.3333 280.5,98C 273.249,99.7506 265.916,100.917 258.5,101.5C 258.33,100.178 258.663,99.0113 259.5,98C 265.006,97.0012 270.34,95.8345 275.5,94.5 Z M 235.5,101.5 C 237.199,101.34 238.866,101.506 240.5,102C 241.833,103 241.833,104 240.5,105C 232.958,107.035 225.291,108.202 217.5,108.5C 217.36,106.876 218.027,105.71 219.5,105C 225.034,104.14 230.368,102.973 235.5,101.5 Z M 285.5,193.5 C 291.209,192.867 293.209,195.2 291.5,200.5C 281.805,208.405 274.138,217.905 268.5,229C 264.872,230.316 262.539,229.149 261.5,225.5C 266.866,212.808 274.866,202.142 285.5,193.5 Z M 258.5,256.5 C 261.547,255.855 263.713,256.855 265,259.5C 265.667,272.167 265.667,284.833 265,297.5C 261.426,302.888 258.426,302.555 256,296.5C 255.333,284.5 255.333,272.5 256,260.5C 256.662,259.016 257.496,257.683 258.5,256.5 Z M 256.5,326.5 C 259.175,327.175 260.842,328.842 261.5,331.5C 256.995,345.669 248.661,357.002 236.5,365.5C 231.73,364.267 230.564,361.6 233,357.5C 241.93,349.885 248.596,340.552 253,329.5C 254.145,328.364 255.312,327.364 256.5,326.5 Z M 315.5,418.5 C 317.5,418.5 319.5,418.5 321.5,418.5C 321.67,419.822 321.337,420.989 320.5,422C 312.932,423.881 305.265,425.047 297.5,425.5C 297.36,423.876 298.027,422.71 299.5,422C 305.034,421.14 310.368,419.973 315.5,418.5 Z M 275.5,425.5 C 277.167,425.5 278.833,425.5 280.5,425.5C 280.5,426.833 280.5,428.167 280.5,429.5C 273.11,430.788 265.777,431.954 258.5,433C 255.904,431.203 256.237,429.869 259.5,429C 265.034,428.14 270.368,426.973 275.5,425.5 Z M 233.5,432.5 C 235.833,432.5 238.167,432.5 240.5,432.5C 240.67,433.822 240.337,434.989 239.5,436C 233.202,437.36 226.869,438.526 220.5,439.5C 217.292,439.812 216.292,438.645 217.5,436C 223.006,435.001 228.34,433.835 233.5,432.5 Z"
       id="path4" />
  </g>
  <g
     id="g5">
    <path
       style="opacity:0.942;fill:#02ced8;fill-opacity:1"
       fill="#000000"
       d="M 395.5,290.5 C 410.793,291.291 418.293,299.291 418,314.5C 414.203,327.157 405.703,332.324 392.5,330C 379.445,323.843 375.611,314.009 381,300.5C 384.6,295.29 389.434,291.957 395.5,290.5 Z"
       id="path5" />
  </g>
  <g
     id="g6">
    <path
       style="opacity:0.908;fill:#02ced8;fill-opacity:1"
       fill="#000000"
       d="M 6.5,459.5 C 20.1707,459.333 33.8374,459.5 47.5,460C 51.5,463.333 51.5,466.667 47.5,470C 33.8333,470.667 20.1667,470.667 6.5,470C 3.88047,466.502 3.88047,463.002 6.5,459.5 Z"
       id="path6" />
  </g>
</svg>
