<?xml version="1.0" encoding="UTF-8" standalone="no"?>
<svg
   version="1.0"
   width="130.95174pt"
   height="157.64716pt"
   viewBox="0 0 130.95174 157.64716"
   preserveAspectRatio="xMidYMid"
   id="svg83"
   sodipodi:docname="g84.svg"
   inkscape:version="1.4 (86a8ad7, 2024-10-11)"
   xmlns:inkscape="http://www.inkscape.org/namespaces/inkscape"
   xmlns:sodipodi="http://sodipodi.sourceforge.net/DTD/sodipodi-0.dtd"
   xmlns="http://www.w3.org/2000/svg"
   xmlns:svg="http://www.w3.org/2000/svg">
  <defs
     id="defs83" />
  <sodipodi:namedview
     id="namedview83"
     pagecolor="#ffffff"
     bordercolor="#000000"
     borderopacity="0.25"
     inkscape:showpageshadow="2"
     inkscape:pageopacity="0.0"
     inkscape:pagecheckerboard="0"
     inkscape:deskcolor="#d1d1d1"
     inkscape:document-units="pt"
     inkscape:zoom="2.6308753"
     inkscape:cx="87.233326"
     inkscape:cy="105.0981"
     inkscape:window-width="1366"
     inkscape:window-height="705"
     inkscape:window-x="-8"
     inkscape:window-y="-8"
     inkscape:window-maximized="1"
     inkscape:current-layer="svg83">
    <inkscape:page
       x="0"
       y="0"
       width="130.95174"
       height="157.64716"
       id="page2"
       margin="0"
       bleed="0" />
  </sodipodi:namedview>
  <g
     transform="matrix(0.1,0,0,-0.1,-60.999821,451.74247)"
     fill="#000000"
     stroke="none"
     id="g83"
     style="fill:#02ced8;fill-opacity:1">
    <g
       id="g84"
       style="fill:#02ced8;fill-opacity:1">
      <path
         d="m 1276,4513 c -3,-3 -6,-26 -6,-50 0,-32 4,-43 15,-43 11,0 15,12 15,44 0,43 -10,63 -24,49 z"
         id="path4"
         style="fill:#02ced8;fill-opacity:1" />
      <path
         d="m 940,4372 c 0,-4 15,-23 34,-41 43,-41 61,-23 20,20 -26,28 -54,38 -54,21 z"
         id="path5"
         style="fill:#02ced8;fill-opacity:1" />
      <path
         d="m 1580,4345 c -18,-19 -30,-38 -27,-42 8,-7 77,55 77,69 0,16 -17,7 -50,-27 z"
         id="path6"
         style="fill:#02ced8;fill-opacity:1" />
      <path
         d="m 1255,4265 c -5,-2 -26,-6 -46,-9 -79,-14 -169,-100 -199,-190 -17,-52 -15,-145 4,-190 8,-20 31,-56 49,-79 44,-54 59,-83 67,-127 l 5,-35 145,-3 145,-3 12,51 c 8,33 30,75 62,118 31,41 55,85 62,115 30,125 -38,266 -154,321 -48,23 -129,39 -152,31 z m 104,-41 c 133,-39 217,-208 166,-331 -9,-21 -35,-62 -58,-92 -23,-31 -46,-76 -53,-101 l -11,-45 h -54 -54 l -3,114 -3,113 36,43 c 43,53 28,74 -16,24 l -29,-34 -29,34 c -45,51 -60,29 -16,-24 l 35,-43 v -116 -116 h -53 -53 l -12,48 c -8,27 -33,72 -59,105 -25,32 -52,79 -60,105 -39,127 42,278 169,317 58,18 94,18 157,-1 z"
         id="path12"
         style="fill:#02ced8;fill-opacity:1" />
      <path
         d="m 800,4030 c 0,-5 23,-10 50,-10 28,0 50,5 50,10 0,6 -22,10 -50,10 -27,0 -50,-4 -50,-10 z"
         id="path15"
         style="fill:#02ced8;fill-opacity:1" />
      <path
         d="m 1660,4030 c 0,-5 23,-10 50,-10 28,0 50,5 50,10 0,6 -22,10 -50,10 -27,0 -50,-4 -50,-10 z"
         id="path16"
         style="fill:#02ced8;fill-opacity:1" />
      <path
         d="m 688,3838 c -49,-17 -78,-140 -78,-338 0,-136 -2,-131 129,-274 76,-84 88,-101 75,-110 -12,-9 -14,-29 -12,-91 l 3,-80 202,-3 c 237,-3 228,-7 217,104 -6,57 -10,67 -30,75 -21,7 -24,15 -24,59 0,67 -19,109 -76,170 -35,38 -60,54 -98,65 -38,11 -68,31 -114,75 -35,33 -67,60 -72,60 -15,0 -22,77 -9,118 15,51 5,103 -26,141 -29,34 -50,41 -87,29 z m 63,-44 c 20,-21 24,-35 22,-77 -1,-29 -3,-80 -3,-113 -1,-48 -5,-66 -20,-79 -35,-32 -24,-55 67,-147 48,-49 91,-88 95,-88 23,0 0,33 -74,107 -70,70 -81,86 -72,101 21,33 45,25 108,-35 43,-43 74,-63 106,-72 79,-22 153,-109 163,-193 11,-79 12,-78 -138,-78 H 873 l -82,89 c -141,155 -148,165 -155,223 -8,65 9,258 29,323 21,71 46,82 86,39 z m 447,-761 3,-63 h -73 c -40,0 -123,-3 -185,-7 l -111,-6 -7,56 c -12,92 -21,88 187,85 l 183,-3 z"
         id="path20"
         style="fill:#02ced8;fill-opacity:1" />
      <path
         d="m 1790,3837 c -42,-22 -65,-64 -63,-115 1,-26 3,-72 5,-102 l 2,-55 -68,-65 c -52,-50 -81,-69 -124,-83 -104,-34 -182,-134 -182,-235 0,-47 -3,-54 -25,-62 -25,-10 -26,-12 -23,-92 l 3,-83 h 205 205 l 3,80 c 2,62 0,82 -12,91 -12,9 2,29 85,120 55,60 104,119 110,132 12,31 11,230 -1,312 -16,100 -36,147 -69,158 -20,7 -35,7 -51,-1 z m 46,-25 c 29,-19 48,-107 59,-267 10,-148 6,-157 -123,-300 l -113,-125 h -135 -134 v 54 c 0,72 11,97 65,155 34,36 58,52 93,61 35,10 63,28 108,72 46,45 67,59 85,56 47,-6 34,-39 -51,-123 -72,-71 -95,-105 -72,-105 4,0 47,39 95,88 92,92 102,115 66,148 -17,15 -20,26 -14,58 3,22 0,61 -6,86 -14,54 -8,86 22,123 21,28 35,32 55,19 z m -128,-776 c 2,-32 -1,-63 -6,-68 -5,-5 -85,-6 -190,-2 l -182,7 v 57 c 0,31 3,60 7,64 4,3 88,5 187,4 l 181,-3 z"
         id="path21"
         style="fill:#02ced8;fill-opacity:1" />
      <path
         d="m 972,3737 c -18,-18 -29,-36 -25,-40 7,-8 73,51 73,65 0,16 -17,7 -48,-25 z"
         id="path22"
         style="fill:#02ced8;fill-opacity:1" />
      <path
         d="m 1550,3762 c 0,-4 15,-23 34,-41 43,-41 61,-23 20,20 -26,28 -54,38 -54,21 z"
         id="path23"
         style="fill:#02ced8;fill-opacity:1" />
      <path
         d="m 1133,3578 c 3,-10 40,-13 142,-13 102,0 139,3 143,13 3,9 -30,12 -143,12 -113,0 -146,-3 -142,-12 z"
         id="path25"
         style="fill:#02ced8;fill-opacity:1" />
      <path
         d="m 1170,3505 c 0,-13 16,-15 107,-13 74,2 108,7 111,16 3,9 -23,12 -107,12 -93,0 -111,-2 -111,-15 z"
         id="path26"
         style="fill:#02ced8;fill-opacity:1" />
      <path
         d="m 1194,3449 c -3,-6 2,-23 13,-37 27,-37 111,-44 142,-13 12,12 21,30 21,41 0,18 -7,20 -84,20 -51,0 -88,-4 -92,-11 z m 132,-34 c -11,-8 -29,-15 -41,-15 -12,0 -30,7 -41,15 -17,13 -14,14 41,14 55,0 58,-1 41,-14 z"
         id="path29"
         style="fill:#02ced8;fill-opacity:1" />
    </g>
  </g>
</svg>
