<?xml version="1.0" encoding="UTF-8" standalone="no"?>
<svg
   version="1.0"
   width="200.000000pt"
   height="200.000000pt"
   viewBox="0 0 200.000000 200.000000"
   preserveAspectRatio="xMidYMid meet"
   id="svg11"
   sodipodi:docname="5955936-200.svg"
   inkscape:version="1.4 (86a8ad7, 2024-10-11)"
   xmlns:inkscape="http://www.inkscape.org/namespaces/inkscape"
   xmlns:sodipodi="http://sodipodi.sourceforge.net/DTD/sodipodi-0.dtd"
   xmlns="http://www.w3.org/2000/svg"
   xmlns:svg="http://www.w3.org/2000/svg">
  <defs
     id="defs11" />
  <sodipodi:namedview
     id="namedview11"
     pagecolor="#ffffff"
     bordercolor="#000000"
     borderopacity="0.25"
     inkscape:showpageshadow="2"
     inkscape:pageopacity="0.0"
     inkscape:pagecheckerboard="0"
     inkscape:deskcolor="#d1d1d1"
     inkscape:document-units="pt"
     inkscape:zoom="1.83375"
     inkscape:cx="133.33333"
     inkscape:cy="133.33333"
     inkscape:window-width="1366"
     inkscape:window-height="705"
     inkscape:window-x="-8"
     inkscape:window-y="-8"
     inkscape:window-maximized="1"
     inkscape:current-layer="svg11" />
  <g
     transform="translate(0.000000,200.000000) scale(0.100000,-0.100000)"
     fill="#000000"
     stroke="none"
     id="g11"
     style="fill:#02ced8;fill-opacity:1">
    <path
       d="M196 1800 c-15 -5 -37 -17 -48 -27 -48 -42 -48 -39 -48 -775 0 -766 -3 -734 63 -782 28 -21 34 -21 880 -21 l852 0 0 690 0 690 -250 3 -250 2 -23 50 c-30 65 -86 100 -161 100 -29 0 -62 -5 -74 -11 -39 -20 -86 -72 -98 -106 l-11 -33 -308 0 -309 0 -3 113 -3 112 -90 2 c-49 1 -103 -2 -119 -7z m174 -685 l0 -655 -82 0 c-54 0 -93 -5 -112 -15 -15 -8 -30 -15 -32 -15 -2 0 -4 285 -4 633 1 677 0 665 51 693 14 8 57 13 102 14 l77 0 0 -655z m913 558 c61 -30 83 -112 51 -188 -22 -54 -115 -215 -124 -215 -9 0 -109 182 -128 234 -29 79 5 154 83 181 42 14 72 11 118 -12z m-239 -180 c9 -26 50 -106 90 -178 40 -71 79 -148 86 -170 15 -49 21 -56 39 -46 11 7 11 18 -5 66 l-18 58 24 41 c53 93 130 248 130 261 0 13 35 15 235 15 l235 0 0 -655 0 -655 -820 0 c-899 0 -864 -2 -890 59 -15 37 -6 83 22 107 16 15 42 20 126 24 l107 5 3 558 2 557 309 0 309 0 16 -47z"
       id="path1"
       style="fill:#02ced8;fill-opacity:1" />
    <path
       d="M1173 1635 c-61 -26 -72 -97 -24 -146 37 -37 79 -38 120 -3 53 44 40 123 -24 150 -40 16 -32 17 -72 -1z m65 -41 c43 -30 21 -94 -32 -94 -22 0 -46 28 -46 55 0 20 32 55 50 55 3 0 16 -7 28 -16z"
       id="path2"
       style="fill:#02ced8;fill-opacity:1" />
    <path
       d="M733 1431 c-83 -38 -120 -136 -85 -228 37 -97 197 -363 219 -363 18 0 16 14 -8 61 l-20 40 60 107 c33 59 67 124 75 144 68 161 -83 310 -241 239z m142 -35 c70 -29 95 -125 56 -207 -11 -22 -41 -78 -67 -125 l-48 -85 -18 23 c-9 13 -42 72 -74 133 -47 92 -55 115 -51 148 13 100 107 152 202 113z"
       id="path3"
       style="fill:#02ced8;fill-opacity:1" />
    <path
       d="M749 1331 c-37 -37 -38 -79 -3 -120 44 -53 123 -40 150 25 12 29 12 39 0 68 -26 64 -97 76 -147 27z m107 -36 c15 -23 15 -27 0 -50 -38 -57 -116 -12 -88 50 9 19 19 25 42 25 21 0 34 -8 46 -25z"
       id="path4"
       style="fill:#02ced8;fill-opacity:1" />
    <path
       d="M1248 1053 c-2 -5 -2 -36 0 -71 3 -52 7 -63 20 -60 20 4 26 36 17 95 -4 27 -11 43 -20 43 -8 0 -15 -3 -17 -7z"
       id="path5"
       style="fill:#02ced8;fill-opacity:1" />
    <path
       d="M1475 1046 c-70 -31 -124 -115 -125 -193 0 -56 28 -125 106 -259 35 -61 64 -114 64 -118 0 -3 -103 -6 -229 -6 l-230 0 29 32 c28 30 31 48 8 48 -6 0 -30 -18 -54 -40 l-44 -40 -94 0 -95 0 24 25 c47 46 20 73 -28 27 -44 -40 -69 -52 -115 -52 -31 0 -41 4 -45 20 -3 10 -21 27 -41 37 -34 16 -38 16 -71 0 -60 -29 -72 -92 -26 -138 42 -41 84 -40 127 6 l33 35 453 0 453 0 87 153 c48 83 94 175 103 202 33 100 -12 207 -107 256 -44 22 -138 25 -183 5z m178 -49 c52 -29 81 -79 82 -141 0 -58 -27 -122 -117 -275 l-56 -93 -37 63 c-21 35 -60 107 -88 159 -46 88 -49 98 -45 152 10 136 138 202 261 135z m-1048 -517 c22 -24 13 -66 -15 -75 -54 -17 -93 42 -50 77 28 23 43 23 65 -2z"
       id="path6"
       style="fill:#02ced8;fill-opacity:1" />
    <path
       d="M1525 951 c-86 -37 -92 -157 -10 -196 45 -20 66 -19 106 8 82 55 53 176 -46 192 -16 2 -39 1 -50 -4z m79 -52 c32 -25 34 -64 4 -96 -42 -45 -111 -15 -111 47 0 22 7 39 22 52 30 23 52 23 85 -3z"
       id="path7"
       style="fill:#02ced8;fill-opacity:1" />
    <path
       d="M1245 870 c-8 -13 -35 -102 -35 -117 0 -16 26 -17 36 -2 11 19 31 104 27 117 -5 14 -19 16 -28 2z"
       id="path8"
       style="fill:#02ced8;fill-opacity:1" />
    <path
       d="M866 812 c-9 -15 20 -117 35 -117 15 0 18 49 5 98 -6 25 -29 36 -40 19z"
       id="path9"
       style="fill:#02ced8;fill-opacity:1" />
    <path
       d="M1151 644 c-23 -38 -30 -59 -23 -66 6 -6 15 -7 21 -3 17 10 71 108 65 117 -12 19 -31 4 -63 -48z"
       id="path10"
       style="fill:#02ced8;fill-opacity:1" />
    <path
       d="M874 643 c-3 -10 -10 -28 -15 -41 -10 -26 -5 -42 16 -42 14 0 35 49 35 81 0 24 -29 25 -36 2z"
       id="path11"
       style="fill:#02ced8;fill-opacity:1" />
  </g>
</svg>
