<svg width="332" height="325" viewBox="0 0 332 325" fill="none" xmlns="http://www.w3.org/2000/svg">
<path d="M160.229 242.87L150.171 244.865C141.567 246.589 132.817 243.146 127.656 236.052L125.729 233.37L128.755 232.063C136.812 228.62 146.109 230.136 152.65 235.917L160.229 242.87Z" fill="#678B3D"/>
<path d="M114.433 256.359L107.412 248.859C101.49 242.458 99.7663 233.161 103.141 225.042L104.381 222.01L107.068 223.87C114.23 228.896 117.808 237.635 116.225 246.239L114.433 256.359Z" fill="#678B3D"/>
<path d="M128.62 270.677L119.458 275.359C111.677 279.354 102.245 278.391 95.3594 273.021L92.8125 271.021L95.3594 268.958C102.177 263.453 111.542 262.349 119.391 266.203L128.62 270.677Z" fill="#678B3D"/>
<path d="M79.7975 302.547L72.4277 295.323C66.162 289.193 64.0943 279.969 67.0579 271.781L68.1568 268.682L70.912 270.474C78.2818 275.151 82.2766 283.755 81.1047 292.359L79.7975 302.547Z" fill="#678B3D"/>
<path d="M192.454 32.0259L191.558 34.3019C188.667 41.8696 189.771 50.3384 194.454 56.9478L194.657 57.2238C197.688 61.4894 202.027 64.6561 206.985 66.2394L219.584 70.3019L219.933 57.0832C220.068 51.854 218.485 46.7603 215.454 42.4894L215.318 42.2863C210.636 35.6769 202.922 31.8228 194.865 32.0988L192.454 32.0259Z" fill="#678B3D"/>
<path d="M245.338 32.646L243.62 32.7866C237.833 33.2658 232.672 36.6408 229.843 41.7345L229.708 41.9429C227.916 45.245 227.229 49.0314 227.713 52.745L229.088 62.1772L237.765 58.2554C241.208 56.672 244.031 54.0575 245.823 50.7502L245.89 50.6147C248.713 45.4533 248.781 39.3231 246.099 34.1616L245.338 32.646Z" fill="#678B3D"/>
<path d="M238.385 47.0364C237.146 46.1405 235.422 46.3437 234.531 47.5832C229.089 54.8124 225.234 63.1405 223.099 71.8853C222.411 70.026 221.583 68.1666 220.687 66.3749L212.422 49.7864C211.734 48.4114 210.083 47.8593 208.703 48.5468C207.328 49.2343 206.776 50.8905 207.464 52.2655L215.729 68.8541C219.312 75.9426 221.172 83.927 221.172 91.8437V104.651C221.172 106.161 222.411 107.401 223.922 107.401C225.437 107.401 226.677 106.161 226.677 104.651V87.578C226.677 74.4322 231.016 61.4218 238.937 50.8905C239.833 49.7187 239.625 47.9999 238.385 47.0364Z" fill="#435B2C"/>
<path d="M284.796 115.662H309.036C307.176 134.662 298.984 153.177 284.452 167.771C278.671 173.552 272.265 178.37 265.447 182.089C233.015 200.052 191.281 195.302 163.739 167.771C152.447 156.479 144.937 142.781 141.291 128.328C140.255 124.13 139.499 119.932 139.088 115.662H284.796Z" fill="#4492B9"/>
<path d="M263.245 121.443C263.865 122.615 263.589 124.063 262.625 125.026C262.005 125.646 261.245 125.917 260.422 125.917C259.594 125.917 258.839 125.646 258.219 125.026C257.599 124.406 256.839 124.13 256.016 124.13C255.531 124.13 255.052 124.266 254.635 124.474C253.396 125.094 252.089 125.37 250.781 125.37C248.51 125.37 246.302 124.474 244.651 122.823C243.755 121.927 243.344 120.823 243.344 119.656C243.344 118.485 243.755 117.386 244.651 116.49L244.719 116.422C244.995 116.146 245.271 115.938 245.615 115.729C245.682 115.729 245.682 115.662 245.755 115.662H259.458V115.729C259.661 115.938 259.87 116.073 260.078 116.281C260.833 117.037 261.453 117.932 262.005 118.896L263.245 121.443Z" fill="#B9C759"/>
<path d="M284.797 115.662H309.037C307.177 134.662 298.984 153.177 284.453 167.771C278.672 173.552 272.266 178.37 265.448 182.089C265.448 181.745 265.516 181.333 265.583 180.985C265.859 178.922 264.141 177.13 262.073 177.406C260.833 177.547 259.458 177.682 258.495 177.818C258.354 177.818 258.219 177.818 258.078 177.818C257.255 177.818 256.427 177.547 255.807 176.995C253.88 175.479 254.016 172.453 256.083 171.146L258.906 169.354C260.005 168.667 260.901 167.839 261.729 166.807C262.417 165.979 262.76 164.948 262.76 163.917C262.76 162.537 262.141 161.229 261.042 160.339C260.078 159.578 259.458 158.479 259.391 157.24L258.354 148.016C258.354 147.807 258.287 147.531 258.287 147.328C258.287 145.88 258.771 144.505 259.662 143.333C261.177 141.474 263.589 140.578 265.932 141.13L272.266 142.511C273.162 142.714 274.057 142.781 274.88 142.781C276.672 142.781 278.464 142.37 280.115 141.615C282.594 140.511 283.833 138.172 283.833 135.761C283.833 133.901 283.078 132.047 281.422 130.807C280.734 130.255 280.255 129.636 279.839 128.88C279.427 128.12 279.151 127.365 279.083 126.469C279.016 126.057 279.016 125.714 279.016 125.297C279.016 121.719 280.802 118.349 283.901 116.422C284.245 116.281 284.594 115.938 284.797 115.662Z" fill="#B9C759"/>
<path d="M227.229 120C227.505 120.896 227.64 121.786 227.64 122.614C227.64 126.401 225.234 129.844 221.442 131.083C216.557 132.594 213.39 137.417 213.937 142.51L214.973 152.349C215.109 153.521 215.52 154.693 216.14 155.588C216.833 156.552 217.656 157.375 218.76 157.927C220.202 158.682 221.442 159.646 222.614 160.818C225.301 163.64 226.817 167.359 226.817 171.146C226.817 171.901 226.749 172.724 226.609 173.552C226.333 175.068 225.51 176.443 224.27 177.338L219.656 180.64C218.895 181.193 217.999 181.469 217.176 181.469C215.385 181.469 213.734 180.364 213.114 178.51C212.906 177.818 212.77 177.13 212.77 176.375C212.77 175.203 213.041 174.104 213.593 173.073C213.869 172.588 213.937 172.036 213.937 171.557C213.937 170.385 213.317 169.213 212.218 168.667C209.671 167.359 207.604 165.432 206.088 163.088C204.572 160.75 203.676 158.062 203.541 155.245C203.265 150.01 199.338 145.672 194.109 144.781L189.906 144.094C185.911 143.474 181.916 144.984 179.369 148.083L174.963 153.588C173.999 154.828 172.692 155.656 171.176 156.135C166.15 157.719 160.984 153.932 160.984 148.635C160.984 148.568 160.984 148.568 160.984 148.495C160.984 148.427 160.984 148.359 160.984 148.292C160.984 146.364 160.364 144.437 159.26 142.854C155.062 137.068 149.619 132.323 143.286 128.948L141.838 128.193C141.635 128.26 141.494 128.328 141.291 128.396C140.255 124.198 139.499 120 139.088 115.729H225.234C225.301 115.87 225.369 116.005 225.437 116.073C226.197 117.245 226.817 118.62 227.229 120Z" fill="#B9C759"/>
<path d="M191.765 97.6248C201.13 90.953 212.354 87.3696 223.854 87.3696C235.354 87.3696 246.577 90.953 255.942 97.6248C262.833 102.515 268.682 108.64 273.364 115.594H174.275C178.958 108.64 184.88 102.583 191.765 97.6248Z" fill="#7D5020"/>
<path d="M144.661 171.213L10.3848 305.443C8.79622 307.021 8.79622 309.64 10.3848 311.292L20.1608 321.068C20.9889 321.89 22.0202 322.307 23.0514 322.307C24.7077 322.307 25.8066 321.271 25.9473 321.068C27.39 319.62 150.38 196.682 160.229 186.838L144.661 171.213Z" fill="#D68233"/>
<path d="M142.735 190.281L144.115 200.469C145.282 209.141 141.36 217.677 133.99 222.427L131.235 224.214L130.136 221.12C127.172 212.927 129.24 203.703 135.438 197.505L142.735 190.281Z" fill="#678B3D"/>
<path d="M65.6084 194.891L73.598 201.359C80.4157 206.87 83.374 215.818 81.1709 224.281L80.348 227.448L77.4521 225.938C69.6709 221.943 64.8532 213.823 65.1969 205.078L65.6084 194.891Z" fill="#678B3D"/>
<path d="M51.4277 240.802L61.1361 237.432C69.3965 234.609 78.5579 236.813 84.6152 243.146L86.8913 245.485L84.0684 247.208C76.5579 251.75 67.1257 251.474 59.8965 246.589L51.4277 240.802Z" fill="#678B3D"/>
<path d="M34.1403 230.271L38.3382 239.636C41.9215 247.62 40.5465 256.979 34.7601 263.521L32.6247 266L30.6976 263.38C25.5309 256.292 24.9111 246.932 29.182 239.292L34.1403 230.271Z" fill="#678B3D"/>
<path d="M45.9165 269.99L46.3957 280.245C46.8124 288.99 42.0571 297.182 34.2759 301.172L31.3853 302.688L30.5571 299.521C28.354 291.052 31.2499 282.104 37.9946 276.531L45.9165 269.99Z" fill="#678B3D"/>
<path d="M0.0527344 269.37L10.1777 271.297C18.7871 272.948 25.6048 279.422 27.735 287.885L28.5632 291.052L25.2559 291.125C16.5111 291.328 8.45378 286.443 4.59961 278.594L0.0527344 269.37Z" fill="#678B3D"/>
<mask id="mask0_155_581" style="mask-type:luminance" maskUnits="userSpaceOnUse" x="25" y="260" width="30" height="65">
<path d="M25.334 260H54.6673V324.99H25.334V260Z" fill="white"/>
</mask>
<g mask="url(#mask0_155_581)">
<path d="M53.975 261.87L49.3604 266.479C43.7823 265.38 38.824 265.448 35.5167 268.13C33.2459 269.99 30.6313 274.328 31.0427 284.859C31.2511 291.193 32.6261 299.729 35.725 311.292C36.5532 314.458 37.5844 317.828 38.6886 321.412C39.1677 322.854 38.3396 324.37 36.8969 324.854C36.6209 324.922 36.3448 324.99 36.0688 324.99C34.8969 324.99 33.7979 324.234 33.4542 323.063C32.6261 320.516 31.9386 318.104 31.2511 315.766C28.4282 305.787 26.5688 297.25 25.8084 290.021C24.4334 276.875 26.4959 268.271 32.074 263.797C37.7927 259.182 45.6417 259.734 53.975 261.87Z" fill="#435B2C"/>
</g>
<path d="M93.709 253.266C96.9434 260.354 98.735 267.099 94.0527 271.985C89.2975 276.943 81.7246 276.115 73.2559 273.709L77.7975 269.167C83.1725 270.401 87.7142 270.61 90.1257 268.13C92.2611 265.86 91.5007 262.005 89.5736 257.396C88.4746 254.776 87.0267 251.886 85.5111 248.995C83.4486 244.933 81.1725 240.531 79.6569 236.125C77.1777 228.688 77.0423 221.391 83.9277 215.953C89.5059 211.547 95.2194 212.375 100.662 215.198L96.5319 219.328C93.1569 217.953 90.1934 218.089 87.3704 220.292C83.7194 223.183 83.0319 226.969 84.1361 231.719C85.0996 235.849 87.5111 240.735 90.4694 246.448C91.5007 248.787 92.6725 251.063 93.709 253.266Z" fill="#435B2C"/>
<path d="M85.375 195.375L95.3594 192.896C103.828 190.76 112.781 193.719 118.292 200.536L120.354 203.083L117.396 204.526C109.547 208.385 100.177 207.349 93.3594 201.844L85.375 195.375Z" fill="#678B3D"/>
<path d="M132.13 231.995C127.036 236.672 121.182 234.198 115.536 230.135C116.843 228.828 118.151 227.521 119.458 226.213C123.385 228.963 126.208 229.927 128.343 227.932C130.135 226.281 129.374 222.63 127.447 218.224C126.208 215.333 124.489 212.031 122.765 208.729C120.838 205.078 118.911 201.292 117.119 197.437C114.02 190.417 111.609 183.052 111.953 175.755C112.02 174.239 113.333 173.073 114.848 173.14C116.359 173.208 117.531 174.515 117.463 176.031C117.255 181.677 118.911 187.526 121.317 193.307C123.177 197.781 125.453 202.12 127.656 206.25C129.098 209 130.479 211.62 131.651 214.167C135.093 221.463 136.677 227.724 132.13 231.995Z" fill="#435B2C"/>
<path d="M300.36 31.5469C258.355 -10.4427 190.183 -10.4427 148.178 31.5469C106.173 73.5365 106.173 141.682 148.178 183.672C190.183 225.661 258.355 225.661 300.36 183.672C342.365 141.682 342.365 73.5365 300.36 31.5469ZM292.235 175.547C254.568 213.203 193.558 213.203 155.891 175.547C118.219 137.896 118.219 76.9063 155.891 39.2552C193.558 1.60417 254.568 1.60417 292.235 39.2552C329.902 76.9063 329.902 137.896 292.235 175.547Z" fill="#F0A050"/>
<path d="M111.475 155.312L116.36 162.469C120.563 168.526 120.772 176.443 117.053 182.776L115.673 185.115L113.678 183.188C108.308 178.167 106.449 170.453 108.787 163.432L111.475 155.312Z" fill="#678B3D"/>
</svg>
