<svg width="228" height="499" viewBox="0 0 228 499" fill="none" xmlns="http://www.w3.org/2000/svg">
<mask id="mask0_154_530" style="mask-type:luminance" maskUnits="userSpaceOnUse" x="0" y="0" width="228" height="499">
<path d="M0 0.666748H228V498.276H0V0.666748Z" fill="white"/>
</mask>
<g mask="url(#mask0_154_530)">
<path d="M207.485 204.537C212.198 204.537 217.615 203.042 222.505 198.391C232.563 188.828 222.162 170.844 221.453 169.651C218.62 163.057 210.693 145.281 202.453 132.62C212.834 122.584 206.282 104.865 202.714 93.6043C202.037 91.4689 201.995 88.8648 202.334 85.9012C206.11 83.8023 208.005 80.9168 208.839 79.2293C210.813 75.2293 210.662 70.6825 208.469 68.1773C207.88 67.5054 207.245 66.9898 206.584 66.5835C211.344 46.3543 214.344 21.6929 182.13 6.93767C143.396 -10.8019 113.198 21.0002 110.256 50.1095C108.506 67.4585 98.7295 68.3335 91.5628 74.2189L77.6774 50.9533C76.7347 49.3804 75.0628 48.4845 73.2503 48.5887C71.417 48.6877 69.8649 49.7398 69.094 51.4012L53.0472 86.0783C49.6774 86.2554 28.8024 87.3596 20.5732 87.8752C14.4222 88.2554 8.86488 91.0523 5.32842 95.5366C1.39613 100.526 0.052378 107.391 1.443 115.396C2.89092 123.74 8.52634 129.787 17.7347 132.87C23.7034 134.865 29.2711 135.016 30.792 135.016C30.969 135.016 31.068 135.016 31.1305 135.011C43.6826 136.193 69.7034 139.995 74.9118 140.766C72.6253 151.443 51.2086 253.88 42.9065 374.302C42.8909 374.531 42.969 374.755 43.1201 374.932C43.2711 375.104 43.4899 375.214 43.719 375.229L76.5576 377.349L81.8701 450.703C81.8701 450.709 81.8701 450.714 81.8701 450.719C81.8961 454.13 81.917 456.834 81.9274 458.031C77.3076 459.287 51.1722 466.844 46.3284 478.542C45.4118 480.766 45.5576 482.698 46.7659 484.297C49.5524 487.979 58.0472 489.12 67.4847 489.12C75.4065 489.12 83.9951 488.318 90.4274 487.542C105.344 485.75 116.886 481.839 117 481.797C117.354 481.677 117.589 481.349 117.589 480.979L117.761 445.245C118.219 420.886 118.891 392.5 119.693 366.547L136.308 366.25C140.12 393.875 144.078 424.271 147.24 449.589L149.047 480.281C149.063 480.49 149.146 480.682 149.292 480.834C149.464 481.016 153.75 485.36 169.157 492.235C177.042 495.755 186.755 498.172 194.292 498.172C198.662 498.172 202.302 497.36 204.427 495.469C205.729 494.313 207.047 492.177 205.938 488.584C204.521 484.026 200.703 478.443 196.521 473.266C196.453 473.099 196.344 472.959 196.193 472.86C190.276 465.594 183.74 459.229 182.287 457.834L182.042 415.037C182.042 414.953 182.016 414.875 181.995 414.797L181.87 374.948L215.209 371.792C215.443 371.771 215.657 371.656 215.802 371.469C215.953 371.287 216.016 371.052 215.985 370.818C215.818 369.516 199.386 241.839 192.11 197.964C193.974 199.584 195.375 200.771 196.021 201.271C197.844 202.677 202.229 204.537 207.485 204.537Z" fill="#010043"/>
</g>
<path d="M180.511 450.292L180.548 457.302C178.735 457.078 174.771 456.927 169.501 458.734C164.162 460.568 160.704 464.953 159.574 466.562L149.766 462.927L149.048 450.703L175.891 450.365L180.511 450.292ZM84.3496 451.516L83.6152 451.51C83.6361 454.213 83.6517 456.391 83.6569 457.609C85.0423 457.703 89.1413 458.213 92.2871 460.896C94.4538 462.745 95.4277 465.641 95.7923 467.068L115.938 463.609L115.995 451.588L113.115 451.583L84.3496 451.516ZM124.417 62.9583C123.631 62.5051 122.834 62.078 122.058 61.6041C121.74 61.4114 121.584 61.0312 121.667 60.6666L124.24 49.3905C122.402 48.1666 119.829 47.203 117.058 48.4635C114.933 49.4322 112.85 52.677 112.99 57.0051C113.084 59.8437 114.443 66.7135 124.48 71.0103C124.157 68.3541 124.115 65.6562 124.417 62.9583ZM207.162 69.3228C204.98 66.8228 201.928 66.8228 199.678 67.2916L197.245 77.9478C197.162 78.3228 196.85 78.5937 196.469 78.6249C195.834 78.6718 195.209 78.6926 194.574 78.7343C193.605 81.5676 192.282 84.2343 190.646 86.6874C201.824 86.9374 205.99 81.0833 207.282 78.4635C208.928 75.1249 208.881 71.2812 207.162 69.3228ZM154.813 104.505C153.339 103.338 152.693 102.281 152.834 101.286C152.844 101.213 152.881 101.172 152.902 101.104L151.553 100.807C145.428 99.4635 139.928 96.5312 135.443 92.3853L133.933 96.1301C134.704 97.4583 134.834 99.6874 134.662 102.068C135.777 101.26 137.271 101.047 138.61 101.672L138.829 101.771C140.798 102.682 141.652 105.026 140.745 107L138.36 112.146C140.167 112.807 147.501 115.036 154.995 111.104L154.813 104.505ZM192.678 78.8489C190.204 85.578 185.667 91.3072 179.532 95.2447C172.089 100.01 163.24 101.594 154.615 99.703L151.923 99.1093C143.298 97.2187 135.923 92.0728 131.157 84.6301C127.167 78.3958 125.443 71.1718 126.089 63.9218C132.048 67.2499 138.251 70.0885 144.615 72.3176C147.688 73.3958 151.115 72.651 153.131 70.4635C153.563 69.9999 154.032 69.6041 154.527 69.2708C154.089 69.9843 153.808 70.7343 153.787 71.5624C153.756 72.9374 154.438 74.302 155.87 75.7395C156.042 75.9114 156.261 75.9947 156.485 75.9947C156.709 75.9947 156.928 75.9114 157.1 75.7395C157.438 75.401 157.438 74.8489 157.1 74.5103C156.016 73.427 155.501 72.4791 155.521 71.6041C155.553 70.4218 156.579 69.2708 157.824 68.1093C158.449 68.0624 159.079 68.0989 159.699 68.2395C161.938 68.7551 163.761 70.4739 164.568 72.8489C165.594 75.8437 168.313 78.0051 171.495 78.3437C176.021 78.828 180.652 79.0676 185.339 79.0676C187.771 79.0676 190.219 78.9791 192.678 78.8489ZM168.1 83.7812C167.761 83.4374 167.214 83.4322 166.876 83.7655C163.688 86.8697 159.016 88.0833 154.688 86.927C150.355 85.7708 146.907 82.3958 145.693 78.1145C145.568 77.651 145.084 77.3801 144.626 77.5155C144.162 77.6458 143.896 78.1249 144.027 78.5885C145.407 83.4583 149.324 87.2968 154.24 88.6093C155.475 88.9374 156.725 89.0937 157.975 89.0937C161.709 89.0937 165.37 87.6562 168.084 85.0103C168.428 84.677 168.433 84.1249 168.1 83.7812ZM185.016 37.1614C184.735 31.4895 185.199 26.4635 185.641 23.2395C181.761 28.3489 173.131 38.4583 162.464 43.0572C160.917 43.7239 159.282 44.3072 157.6 44.8176C167.126 47.0728 177.089 49.2135 187.568 51.2655C186.152 47.0885 185.271 42.3853 185.016 37.1614Z" fill="#F4D1C5"/>
<path d="M121.959 116.313C122.136 116.792 122.521 118.099 121.902 119.021C121.329 119.88 119.902 120.281 117.803 120.214C110.61 119.948 97.2402 112.349 97.1048 112.271C96.8965 112.151 96.6361 112.12 96.4069 112.198L47.4434 127.984C38.735 117.385 35.8131 104.49 38.5267 88.5938C44.3704 88.2761 49.7663 87.9896 52.2194 87.8646L45.7194 101.911C44.9434 103.578 45.1517 105.448 46.2611 106.906C47.3704 108.37 49.1048 109.063 50.9277 108.76L93.3965 101.693L98.2142 103.932C98.0111 106.167 98.1881 108.047 99.0788 108.964C100.818 110.755 103.141 110.271 104.652 109.646C104.662 111.255 105.219 113.224 107.178 114.328C109.1 115.417 111.011 114.76 112.214 114.089C112.558 115.667 113.48 117.969 115.896 118.24C118.068 118.474 120.162 116.708 121.501 115.266C121.605 115.62 121.761 115.969 121.959 116.313ZM132.563 105.083C132.657 104.484 132.745 103.88 132.813 103.281C133.141 100.422 133.12 97.7292 132.308 96.7865C130.719 94.9531 125.501 93.4167 123.62 92.9792C123.511 92.9531 123.407 92.9063 123.313 92.8386C123.219 92.7708 113.73 86.0469 107.277 84.474C102.438 83.2969 99.86 85.7136 99.0267 86.7292C99.0215 86.7292 99.0215 86.7292 99.0215 86.7344L99.2194 87.0521L99.7923 87.9688L99.8079 87.9896L103.016 89.599C103.412 89.7969 103.6 90.2604 103.443 90.6771C103.35 90.9271 103.256 91.1875 103.167 91.4479C101.886 95.0313 100.61 99.4844 100.079 102.88C99.9746 103.531 99.9017 104.135 99.86 104.693C99.7506 106.172 99.8652 107.286 100.324 107.755C101.803 109.276 104.303 107.948 105.011 107.521C105.053 107.422 105.1 107.313 105.167 107.151C105.324 106.766 105.553 106.214 105.818 105.542C106.881 102.875 108.62 98.2969 109.662 94.4636C109.824 93.8646 109.964 93.2969 110.089 92.7448C110.339 91.6302 110.511 90.6146 110.532 89.8125C110.548 89.3438 110.933 88.974 111.402 88.974C111.412 88.974 111.417 88.974 111.428 88.974C111.907 88.9896 112.287 89.3906 112.271 89.8698C112.24 90.8594 112.027 92.1146 111.704 93.4896C111.574 94.0417 111.423 94.6146 111.256 95.2031C110.162 99.1511 108.443 103.656 107.396 106.271C107.12 106.964 106.896 107.505 106.74 107.885C106.641 108.13 106.568 108.302 106.532 108.385C106.459 108.682 105.798 111.557 108.027 112.813C110.037 113.948 112.261 111.948 112.287 111.927C112.287 111.927 112.287 111.927 112.292 111.927C112.376 111.708 112.542 111.271 112.766 110.677C112.938 110.219 113.141 109.672 113.37 109.042C114.438 106.115 115.995 101.604 116.943 97.8386C117.094 97.2396 117.23 96.6563 117.344 96.1094C117.532 95.2136 117.667 94.3958 117.725 93.6927C117.766 93.2136 118.193 92.8594 118.662 92.9011C119.141 92.9427 119.495 93.3594 119.454 93.8386C119.381 94.7083 119.193 95.7448 118.954 96.8542C118.829 97.4115 118.693 97.9844 118.542 98.5781C117.548 102.448 116.001 106.906 114.954 109.776C114.725 110.406 114.516 110.958 114.344 111.411C114.068 112.151 113.881 112.63 113.844 112.724C113.829 112.766 113.787 112.786 113.766 112.823C113.855 113.682 114.271 116.307 116.089 116.51C117.449 116.651 119.032 115.344 120.183 114.12C120.667 113.604 121.063 113.115 121.339 112.74C121.365 112.703 121.396 112.661 121.423 112.63C121.693 111.974 123.943 106.427 124.714 101.443C124.808 100.823 124.881 100.214 124.923 99.625C125.027 98.1979 124.964 96.8802 124.626 95.8333C124.475 95.375 124.725 94.8854 125.183 94.7396C125.646 94.5886 126.131 94.8386 126.277 95.2969C126.735 96.7188 126.782 98.5052 126.589 100.396C126.532 100.99 126.443 101.589 126.344 102.198C125.49 107.266 123.37 112.474 123.032 113.281C123.027 113.339 123.021 113.411 123.016 113.516C123.001 113.906 123.032 114.557 123.324 115.198C123.381 115.323 123.454 115.443 123.532 115.563C123.568 115.615 123.6 115.667 123.641 115.719C123.943 116.115 124.37 116.464 125.016 116.667C125.292 116.755 125.568 116.771 125.85 116.745C126.527 116.677 127.214 116.313 127.87 115.766C129.329 114.547 130.605 112.464 131.173 110.958C131.646 109.688 132.188 107.438 132.563 105.083ZM174.907 149.661C169.152 147.042 160.584 143.969 151.928 143.734C151.594 143.724 151.266 143.693 150.933 143.693C150.329 143.693 149.735 143.714 149.141 143.734C144.824 143.927 140.839 144.724 137.646 145.76C137.063 145.948 136.506 146.146 135.975 146.349C132.798 147.578 130.693 149.016 130.329 150.182C129.86 151.682 131.485 152.526 132.178 152.818C132.855 152.484 134.485 151.719 136.568 150.891C137.1 150.677 137.652 150.464 138.235 150.255C140.881 149.286 143.949 148.385 146.615 148.167C147.079 148.141 147.511 148.484 147.548 148.964C147.589 149.443 147.23 149.859 146.751 149.901C144.162 150.109 141.084 151.047 138.464 152.026C137.881 152.245 137.324 152.464 136.798 152.677C134.49 153.615 132.818 154.432 132.646 154.521C132.225 154.781 131.126 155.615 130.886 156.563C130.787 156.969 130.855 157.339 131.094 157.745C132.141 159.5 135.079 159.057 135.485 158.99C135.735 158.88 136.469 158.557 137.506 158.141C138.006 157.938 138.568 157.719 139.173 157.484C141.699 156.526 145.001 155.406 147.542 155.042C148.006 154.974 148.454 155.302 148.521 155.781C148.589 156.255 148.261 156.693 147.787 156.76C145.292 157.12 141.896 158.297 139.407 159.26C138.782 159.505 138.225 159.729 137.74 159.927C136.808 160.307 136.199 160.573 136.115 160.609C135.969 160.688 133.548 161.979 134.282 164.307C134.704 165.656 136.813 165.911 138.511 165.854C139.209 165.833 139.829 165.766 140.24 165.688C140.245 165.688 140.251 165.688 140.256 165.688C140.985 165.422 147.141 163.203 150.782 162.568C151.12 162.51 151.454 162.661 151.641 162.938C151.709 163.036 151.761 163.151 151.787 163.276C151.813 163.427 151.787 163.568 151.74 163.698C151.641 163.99 151.402 164.224 151.079 164.281C147.553 164.896 141.256 167.172 140.818 167.333C140.771 167.359 140.652 167.422 140.48 167.521C139.766 167.953 138.298 169.036 138.839 170.479C138.917 170.583 139.089 170.672 139.318 170.745C141.204 171.354 147.865 170.906 155.021 169.604C155.074 169.594 155.126 169.589 155.178 169.589C155.282 169.589 155.386 169.604 155.485 169.641C155.521 169.656 158.511 170.766 161.995 171.625C163.199 171.927 164.459 172.193 165.683 172.375C165.85 172.401 166.006 172.474 166.131 172.589C166.204 172.651 168.006 174.266 170.709 176.682C175.188 180.688 182.136 186.885 187.834 191.906C199.287 187.146 205.225 178.057 205.985 164.151L174.907 149.661Z" fill="#F4B47E"/>
<path d="M95.27 468.922L115.926 465.375L115.859 480.344C113.348 481.151 103.056 484.276 90.2231 485.818C66.8429 488.625 51.5095 487.688 48.1502 483.25C47.3273 482.162 47.2543 480.844 47.9314 479.208C49.9679 474.292 56.3793 470.068 63.171 466.802C64.3689 466.828 71.3585 467.261 74.4054 473.87C74.5512 474.182 74.8689 474.37 75.197 474.37C75.3168 474.37 75.4418 474.349 75.5564 474.292C75.9939 474.089 76.1866 473.573 75.9835 473.141C73.5929 467.948 69.1814 466.104 66.1502 465.438C67.0043 465.068 67.8585 464.708 68.697 464.365C69.9002 464.386 77.4366 464.714 80.5043 471.365C80.6502 471.682 80.9679 471.87 81.296 471.87C81.4158 471.87 81.5408 471.844 81.6554 471.787C82.0929 471.589 82.2804 471.073 82.0825 470.636C79.7543 465.594 75.3273 463.724 72.1502 463.031C73.046 462.703 73.9106 462.391 74.7439 462.104C74.7804 462.109 74.8168 462.125 74.8533 462.13C74.9523 462.125 83.52 461.932 86.8377 469.13C86.9835 469.448 87.296 469.636 87.6241 469.636C87.7491 469.636 87.8689 469.609 87.9887 469.557C88.4262 469.354 88.6137 468.839 88.4106 468.401C86.1137 463.417 81.77 461.547 78.5981 460.833C81.2283 460.011 82.9418 459.557 83.0148 459.542C83.1554 459.505 83.2752 459.427 83.3741 459.333C84.3481 459.391 88.296 459.776 91.1606 462.224C93.5825 464.287 94.2595 468.172 94.27 468.214C94.3064 468.438 94.4314 468.641 94.6241 468.776C94.77 468.88 94.947 468.938 95.1241 468.938C95.1762 468.932 95.2231 468.932 95.27 468.922ZM195.14 474.333C193.838 474.042 189.348 473.151 186.124 473.932C179.916 475.427 178.765 479.156 178.723 479.313C178.609 479.693 178.265 479.943 177.885 479.943C177.806 479.943 177.728 479.932 177.65 479.912C177.192 479.781 176.921 479.313 177.046 478.849C177.103 478.651 178.452 473.99 185.718 472.245C188.228 471.636 191.286 471.906 193.405 472.24C192.635 471.323 191.864 470.432 191.098 469.568C191.046 469.563 190.994 469.573 190.942 469.563C190.89 469.547 185.338 468.156 181.551 469.073C175.28 470.583 173.525 475.266 173.452 475.464C173.327 475.823 172.994 476.042 172.635 476.042C172.541 476.042 172.442 476.026 172.348 475.99C171.895 475.828 171.661 475.339 171.817 474.886C171.9 474.651 173.921 469.125 181.15 467.386C183.796 466.74 187.056 467.078 189.176 467.432C188.359 466.537 187.567 465.688 186.817 464.896C186.697 464.927 186.567 464.943 186.437 464.922C186.379 464.912 180.937 463.984 177.114 464.912C170.775 466.438 168.124 471.886 168.098 471.943C167.947 472.255 167.635 472.438 167.312 472.438C167.187 472.438 167.062 472.412 166.942 472.354C166.51 472.151 166.322 471.636 166.525 471.203C166.645 470.948 169.536 464.948 176.707 463.219C179.504 462.547 182.931 462.75 184.973 462.974C183.15 461.099 181.765 459.745 181.161 459.162C180.713 459.068 176.369 458.214 170.062 460.38C164.187 462.396 160.687 468.016 160.65 468.073C160.489 468.333 160.207 468.484 159.911 468.484C159.812 468.484 159.707 468.469 159.609 468.432L149.874 464.823L150.76 479.833C151.801 480.766 156.713 484.776 169.864 490.646C183.119 496.557 198.728 498.208 203.275 494.167C204.629 492.958 204.957 491.302 204.275 489.094C202.942 484.792 199.228 479.38 195.14 474.333ZM133.27 142.359C133.431 143.568 134.515 144.417 135.734 144.261L136.562 144.151C136.598 144.146 136.64 144.146 136.676 144.146C136.728 144.146 136.77 144.182 136.822 144.193C140.885 142.833 145.952 141.953 150.89 141.953C150.905 141.953 150.916 141.953 150.931 141.953C151.14 141.953 151.343 141.979 151.551 141.979C152.254 141.537 152.681 140.719 152.567 139.844L152.536 139.609C152.463 139.021 152.161 138.505 151.697 138.146C151.234 137.787 150.655 137.636 150.072 137.708L135.135 139.656C133.937 139.818 133.082 140.922 133.239 142.125L133.27 142.359ZM153.041 218.802C139.228 220.599 126.52 210.823 124.718 196.99C123.364 186.615 128.582 176.578 137.577 171.615C139.728 173.719 149.207 172.412 155.098 171.354C156.181 171.745 160.812 173.365 165.166 174.057C165.723 174.557 167.286 175.953 169.416 177.859C172.275 181.396 174.207 185.708 174.827 190.448C175.702 197.151 173.911 203.787 169.796 209.146C168.827 210.406 167.749 211.552 166.588 212.594C166.411 212.667 166.265 212.792 166.171 212.958C164.364 214.505 162.369 215.792 160.213 216.766C160.181 216.771 160.15 216.766 160.124 216.776C160.056 216.797 160.004 216.839 159.952 216.87C157.775 217.823 155.457 218.484 153.041 218.802ZM150.197 215.427C162.072 215.427 171.734 205.755 171.734 193.87C171.734 192.354 171.562 190.807 171.228 189.271C171.176 189.042 171.041 188.844 170.848 188.724C170.65 188.599 170.411 188.552 170.187 188.609C165.546 189.667 159.916 189.261 153.457 187.396C142.926 184.359 135.65 184.052 131.4 184.333C131.082 184.354 130.801 184.547 130.666 184.833C129.338 187.708 128.661 190.75 128.661 193.87C128.661 205.755 138.322 215.427 150.197 215.427ZM119.744 364.807L136.067 364.516C130.905 327.203 126.041 295.302 123.806 288.474C122.343 295.479 120.911 327.448 119.744 364.807ZM165.598 215.625C164.254 216.604 162.822 217.438 161.322 218.146C161.489 220.125 161.77 225.672 162.124 233.609L165.598 215.625ZM36.7543 88.6928C30.6658 89.0261 24.3845 89.3751 20.6814 89.6095C15.0252 89.9584 9.921 92.5157 6.69183 96.6147C3.07204 101.203 1.84808 107.594 3.15017 115.099C6.26996 133.068 29.197 133.328 31.0252 133.276L45.6814 128.552C37.0356 117.734 34.1085 104.672 36.7543 88.6928ZM50.6398 107.047L93.3741 99.9376C93.421 99.9272 93.4679 99.9272 93.5148 99.9272C93.645 99.9272 93.7648 99.9532 93.8793 100.005L98.447 102.125C98.6189 101.068 98.8377 99.9792 99.0981 98.8959L93.27 96.198C90.6762 96.6407 69.921 100.182 63.4731 101.104C61.7179 101.354 60.0877 101.656 58.6606 101.922C56.5616 102.313 55.0304 102.594 53.9418 102.594C53.0304 102.594 52.4314 102.396 52.0564 101.901C51.6658 101.38 51.6762 100.693 52.0981 99.8542C53.4835 97.0834 66.3273 71.7553 66.3273 71.7553C66.4418 71.5365 66.6398 71.3751 66.8741 71.3074C67.1085 71.2449 67.3637 71.2865 67.572 71.4167L100.832 92.8907C101.103 92.0678 101.353 91.349 101.546 90.8022L98.8064 89.4324C98.8012 89.4324 98.8012 89.422 98.796 89.422L98.7804 89.4167C98.6241 89.3438 98.4939 89.224 98.4002 89.073L97.7179 87.9272L97.2335 87.1563C97.2231 87.1303 97.2283 87.1042 97.2127 87.0834L76.1866 51.8438C75.5825 50.8334 74.5408 50.2449 73.3377 50.323C72.1658 50.3855 71.1606 51.0626 70.671 52.1355L47.2908 102.646C46.796 103.714 46.9262 104.917 47.6398 105.854C48.3533 106.792 49.4731 107.234 50.6398 107.047ZM44.697 373.547L77.2491 375.651C77.27 375.651 77.2856 375.636 77.3064 375.636C77.4054 375.63 77.5043 375.646 77.6033 375.672L88.5773 376.386L103.734 239.771C103.723 239.729 103.702 239.698 103.697 239.651L95.2595 136.818C95.2283 136.474 95.4054 136.146 95.7075 135.984L103.629 131.693L97.3898 124.589C97.2127 124.386 97.1398 124.109 97.1918 123.849L98.8689 115.203C97.8116 114.646 97.0043 114.203 96.5773 113.964L35.3637 133.698C50.4262 135.365 75.8012 139.141 76.0825 139.182C76.3168 139.214 76.5304 139.349 76.6658 139.547C76.8012 139.745 76.8533 139.99 76.8012 140.224C76.5668 141.287 53.4627 247.438 44.697 373.547ZM98.9783 123.761L105.655 131.37C105.827 131.568 105.9 131.833 105.853 132.094C105.812 132.354 105.645 132.583 105.411 132.708L97.0356 137.245L104.718 230.875L116.812 121.87C111.801 121.354 104.885 118.245 100.478 116.026L98.9783 123.761ZM138.098 103.344L137.879 103.245C136.78 102.734 135.473 103.219 134.963 104.318L134.614 105.073C134.536 105.24 134.4 105.359 134.249 105.448C133.786 108.24 133.114 110.719 132.791 111.568C132.228 113.078 130.843 115.49 129.03 117.031C129.02 117.104 129.01 117.177 128.984 117.24L128.629 118C128.385 118.531 128.359 119.13 128.562 119.682C128.765 120.234 129.166 120.672 129.702 120.922L129.921 121.021C130.452 121.271 131.051 121.292 131.598 121.089C132.15 120.891 132.588 120.484 132.832 119.948L139.166 106.271C139.676 105.167 139.197 103.854 138.098 103.344ZM190.103 196.214C185.52 192.203 179.254 186.636 174.119 182.063C175.332 184.589 176.171 187.333 176.546 190.224C177.478 197.386 175.572 204.479 171.176 210.203C170.124 211.573 168.952 212.813 167.692 213.938L162.452 241.073C164.109 279.703 166.853 353.927 167.609 374.552L214.15 370.146C212.645 358.474 196.89 236.62 190.093 196.438C190.082 196.359 190.093 196.287 190.103 196.214ZM176.234 148.365L218.968 168.292C211.207 150.547 200.463 129.932 192.504 122.99C187.26 118.412 179.098 114.76 171.192 111.537L175.921 131.984C176.004 132.349 175.848 132.724 175.536 132.917L168.989 137.016L176.76 142.271C177.041 142.464 177.187 142.802 177.129 143.141L176.234 148.365ZM166.937 136.25L174.088 131.776L169.223 110.74C168.385 110.401 167.546 110.068 166.723 109.74C162.989 108.25 159.478 106.833 156.572 105.458L157.593 142.49C164.025 143.469 170.036 145.63 174.598 147.63L175.327 143.401L166.911 137.708C166.666 137.542 166.525 137.266 166.53 136.974C166.536 136.677 166.687 136.406 166.937 136.25ZM124.702 61.1303C124.301 60.8959 123.89 60.6824 123.494 60.4428L125.749 50.5574L126.176 48.6876L126.28 48.2449L126.671 46.5209L128.39 38.9949C128.718 39.0938 129.062 39.1824 129.395 39.2761C129.947 39.4376 130.51 39.5886 131.067 39.7501C134.744 40.7865 138.504 41.797 142.312 42.7917L130.197 57.1928C129.89 57.5626 129.937 58.1095 130.301 58.4167C130.468 58.5522 130.666 58.6199 130.864 58.6199C131.109 58.6199 131.353 58.5157 131.53 58.3126L143.963 43.5365C144.03 43.448 144.082 43.3542 144.114 43.2553C146.129 43.7761 148.135 44.3022 150.187 44.8126C151.484 45.1303 152.765 45.4584 154.077 45.7761C164.874 48.3803 176.239 50.8386 188.265 53.1772C188.937 53.3074 189.593 53.4428 190.27 53.573C191.129 53.7345 192.02 53.8959 192.895 54.0574L185.244 63.2449C184.937 63.6147 184.989 64.1615 185.353 64.4688C185.52 64.6042 185.713 64.672 185.911 64.672C186.161 64.672 186.405 64.5626 186.577 64.3595L194.744 54.547C194.775 54.5105 194.791 54.4584 194.817 54.4167C195.963 54.6303 197.088 54.8438 198.244 55.0574C198.484 55.1042 198.723 55.1459 198.963 55.1928L193.416 61.7709C193.103 62.1355 193.15 62.6876 193.52 62.9949C193.681 63.1303 193.879 63.198 194.077 63.198C194.322 63.198 194.572 63.0938 194.744 62.8907L200.447 56.1303L198.489 64.7084L198.275 65.6511L198.218 65.9011L197.775 67.8386L195.697 76.9376C195.504 76.9532 195.306 76.9584 195.114 76.9688C194.504 77.0157 193.9 77.0313 193.291 77.0678C187.447 77.4063 181.676 77.3751 176.036 76.9845L179.4 72.8542C179.702 72.4845 179.645 71.9324 179.275 71.6303C178.905 71.3282 178.353 71.3855 178.051 71.7553L173.937 76.8074C173.187 76.7397 172.426 76.6928 171.681 76.6147C169.166 76.3438 167.02 74.6459 166.213 72.2865C165.207 69.3386 162.916 67.198 160.082 66.547C159.489 66.4115 158.885 66.3438 158.291 66.3438C158.265 66.3438 158.244 66.3542 158.223 66.3542C157.822 66.3542 157.421 66.422 157.025 66.4845C155.119 66.7865 153.301 67.724 151.859 69.2865C150.301 70.974 147.619 71.5313 145.187 70.6772C138.697 68.4011 132.374 65.4792 126.306 62.0417C125.77 61.7397 125.234 61.4428 124.702 61.1303ZM171.911 72.1147C174.129 72.6563 176.76 69.6511 177.796 65.4011C178.827 61.1511 177.869 57.2709 175.65 56.7292C173.437 56.1876 170.801 59.198 169.77 63.448C168.739 67.698 169.697 71.5782 171.911 72.1147ZM143.228 65.2084C145.442 65.7501 148.077 62.7397 149.109 58.4897C150.14 54.2449 149.181 50.3595 146.968 49.823C144.749 49.2813 142.119 52.2865 141.082 56.5365C140.051 60.7865 141.01 64.6667 143.228 65.2084ZM220.067 170.719L207.666 164.938C206.728 178.688 200.541 188.177 189.265 193.167C193.036 196.484 196.056 199.104 197.082 199.896C200.098 202.224 211.911 206.073 221.306 197.136C229.921 188.938 221.249 172.813 220.067 170.719Z" fill="white"/>
<path d="M93.2441 94.4428C93.015 94.4792 70.0514 98.4063 63.2285 99.3803C61.4473 99.6355 59.7962 99.9428 58.3483 100.214C56.4421 100.568 54.291 100.958 53.5566 100.844C53.5775 100.787 53.6087 100.719 53.6504 100.63C54.8796 98.1667 65.1868 77.849 67.4421 73.4011L100.255 94.5834L99.4941 97.1667L93.7546 94.5105C93.5931 94.4324 93.4108 94.4115 93.2441 94.4428ZM150.197 213.688C161.114 213.688 169.999 204.797 169.999 193.87C169.999 192.755 169.895 191.62 169.697 190.484C164.942 191.37 159.327 190.896 152.973 189.063C143.114 186.219 136.218 185.823 132.031 186.037C130.947 188.537 130.395 191.172 130.395 193.87C130.4 204.797 139.281 213.688 150.197 213.688ZM134.494 132.969C135.473 133.651 136.708 133.917 137.807 133.677C138.755 133.469 139.588 132.818 140.161 131.844C140.812 130.729 141.01 129.349 140.676 128.234C139.755 125.177 136.223 121.839 134.567 120.401C133.755 122.359 132.156 126.693 132.562 129.667C132.755 131.057 133.437 132.229 134.494 132.969ZM180.14 375.115L166.859 376.37C166.833 376.375 166.801 376.375 166.775 376.375C166.567 376.375 166.364 376.297 166.202 376.162C166.025 376 165.916 375.776 165.906 375.537C164.515 337.547 162.166 275.047 160.729 241.25C160.718 241.193 160.723 241.136 160.723 241.078C160.687 240.224 160.65 239.386 160.614 238.568L105.682 237.927L90.2129 377.401C90.1608 377.844 89.7858 378.172 89.3483 378.172C89.3275 378.172 89.3119 378.172 89.291 378.172L78.3066 377.464L83.541 449.776L115.937 449.854C116.051 443.766 116.77 406.318 117.885 369.162C117.916 368.115 117.947 367.094 117.979 366.073C117.921 365.964 117.885 365.839 117.885 365.708C117.88 365.552 117.932 365.412 117.999 365.287C120.411 286.844 122.244 286.151 123.348 285.74C123.598 285.646 124.031 285.698 124.255 285.828C128.525 288.417 144.083 410.339 148.916 449.021L149.27 449.016C153.202 448.953 166.88 448.734 175.02 448.615C175.057 448.615 175.093 448.63 175.13 448.636L180.359 448.557L180.14 375.115Z" fill="#ADE1DA"/>
</svg>
