<svg width="357" height="501" viewBox="0 0 357 501" fill="none" xmlns="http://www.w3.org/2000/svg">
<path d="M333.396 381.401C331.328 370.562 326.599 360.521 323.12 350.099C319.479 339.354 314.958 328.963 310.979 319.422C306.198 306.906 301.37 294.38 295.177 282.474C290.016 272.005 283.531 262.297 277.537 252.302C273.62 245.818 269.828 239.219 265.089 233.281C260.682 227.432 255.412 222.333 250.219 217.198C247.51 214.562 245.037 211.693 242.412 208.974C240.01 206.349 236.651 203.385 232.922 205.307C229.49 206.745 226.271 208.651 222.828 210.073C220.443 211.146 215.828 212.599 212.38 214.213C205.948 217.479 198.203 222.562 192.698 224.729C186.432 227.359 180.786 228.891 174.682 228.844C169.167 228.74 164.807 228.588 160.068 227.406C157.547 226.776 153.656 225.115 152.38 228.37C151.568 230.333 152.313 232.552 153.063 234.422C153.979 236.687 155.188 238.823 156.479 240.896C159.219 245.13 162.037 249.312 164.745 253.568C165.068 254.104 165.542 254.307 166.01 254.292C170.641 260.76 175.26 267.234 180.083 273.562C189.266 285.302 198.042 295.937 207.635 307.651C214.479 315.812 222.349 328.703 229.651 339.141C234.115 345.609 238.302 352.266 242.224 359.083C245.365 364.312 248.318 369.661 250.688 375.292C253.662 381.859 256.589 390.307 258.698 398.359C260.693 406.224 261.99 414.24 263.292 422.245C265.323 434.031 266.427 444.151 267.51 456.292C267.823 459.865 268.094 463.437 268.438 467.005C268.734 469.667 269.078 472.422 270.443 474.776C273.964 480 279.891 473.562 283.063 470.995C287.703 466.906 291.922 462.37 296.37 458.083C299.807 454.687 303.615 451.698 306.979 448.224C313.526 441.687 319.458 434.505 323.724 426.26C325.88 422.213 328.75 418.547 330.573 414.328C332.641 409.052 333.573 403.391 334.359 397.802C335.255 392.318 334.516 386.792 333.396 381.401Z" fill="#E3AE27"/>
<mask id="mask0_153_499" style="mask-type:luminance" maskUnits="userSpaceOnUse" x="226" y="187" width="131" height="226">
<path d="M226.412 187.807H356.063V412.354H226.412V187.807Z" fill="white"/>
</mask>
<g mask="url(#mask0_153_499)">
<path d="M347.804 303.073C341.465 287.865 331.757 274.391 321.205 261.839C316.21 255.641 311.059 249.568 305.892 243.505C299.762 236.073 293.319 228.75 285.33 223.261C280.976 220.156 275.637 218.834 271.288 215.745C271.908 216.255 269.981 214.677 269.632 214.349C267.762 212.662 266.048 210.807 264.205 209.094C261.663 206.682 259.012 204.386 256.288 202.172C256.246 202.104 256.2 202.031 256.137 201.969C251.158 197.047 245.043 193.495 238.97 190.094C238.47 189.834 237.96 189.578 237.455 189.339C237.007 189.125 236.559 188.927 236.106 188.729C235.934 188.703 235.559 188.505 235.559 188.495C234.585 188.052 233.439 187.542 232.559 188.365C231.481 190.073 231.877 190.13 231.366 190.964C230.21 193.115 229.611 194.052 228.392 195.375C227.835 196.052 227.033 196.604 226.72 197.443C226.215 198.88 226.637 200.547 227.325 201.854C229.252 204.604 231.918 206.761 234.2 209.209C237.189 212.266 240.059 215.453 242.809 218.729C249.2 227.021 256.455 238.505 263.173 248.125C269.017 256.662 275.048 265.078 280.793 273.688C285.845 281.396 290.762 289.188 295.72 296.953C299.95 303.802 304.231 310.636 308.022 317.74C312.377 326.521 315.642 334.88 318.231 344.927C321.778 360.177 324.772 376.542 326.486 390.88C326.939 395.229 327.272 399.589 327.642 403.948C327.95 406.339 327.757 408.922 328.845 411.12C332.116 415.323 336.658 406.406 337.892 403.927C339.929 399.74 340.892 396.589 342.601 392.959C343.908 390.787 345.293 388.656 346.502 386.427C349.642 379.641 352.408 372.573 353.814 365.209C354.944 358.761 355.981 352.261 356.064 345.703C356.153 331.11 353.314 316.584 347.804 303.073Z" fill="#2C516E"/>
</g>
<path d="M280.709 463.411C280.313 453.213 277.173 443.396 275.001 433.495C272.418 422.891 270.397 412.114 266.97 401.734C264.053 392.818 259.345 383.38 256.256 375.828C253.933 370.229 251.871 364.526 249.496 358.948C246.24 351.411 242.636 344.026 238.824 336.75C235.017 329.667 230.892 322.719 225.923 316.38C217.412 305.255 207.787 295.083 198.22 284.885C193.74 280.052 191.1 276.052 186.933 270.818C183.548 266.641 179.761 262.807 176.402 258.609C172.751 253.896 167.746 244.739 162.902 239.104C160.365 236.104 156.985 234.016 154.173 231.302C150.168 227.516 147.282 223.927 144.49 220.021C141.636 215.932 139.152 211.588 136.261 207.521C132.761 202.359 128.892 197.364 126.277 191.677C124.787 188.323 123.199 184.114 121.204 179.911C119.246 176.307 116.964 172.88 115.329 169.109C112.563 163.229 109.204 153 100.855 156.187C100.438 156.312 100.147 156.594 99.9697 156.932C99.0374 157.036 98.1051 157.161 97.2144 157.453C94.0582 158.797 92.7353 162.255 91.5582 165.234C89.0634 172.203 88.0478 179.63 85.1519 186.463C83.0894 191.854 77.3551 199.479 73.7509 205.443C70.9957 210.276 67.9801 215.448 68.3655 221.208C68.4905 222.146 68.2717 223.312 68.6311 224.203C68.6988 225.594 68.8967 226.984 69.2561 228.349C71.4176 235.271 76.3238 240.812 80.9801 246.198C86.4697 252.125 90.4488 258.661 95.6051 265.687C100.944 273.078 106.423 280.391 111.199 288.161C115.152 294.656 118.553 301.489 121.803 308.359C122.725 310.427 122.886 310.818 123.787 313.01C124.433 315.036 126.126 316.792 128.371 316.745C132.126 316.448 135.61 314.807 139.084 313.469C143.673 311.562 148.267 309.641 152.985 308.073C156.142 307.083 160.293 305.833 163.506 305.193C162.642 305.969 161.735 306.693 160.829 307.417C153.35 313.354 146.475 320.005 139.819 326.833C137.98 328.88 135.678 330.901 135.105 333.698C134.829 335.87 135.907 338.182 137.61 339.516C139.834 341.213 142.631 341.844 145.277 342.562C148.079 343.323 150.881 344.083 153.673 344.864C166.839 348.474 179.652 351.739 191.027 357.713C200.178 362.114 208.636 367.792 216.756 373.859C227.938 382.042 239.199 392.422 248.642 403.963C252.345 408.505 258.365 414.401 260.99 417.943C269.673 429.13 269.751 444.364 273.043 458.484C273.699 461.495 274.714 464.417 275.631 467.359C275.98 468.474 276.282 469.609 276.694 470.708C276.918 471.219 277.074 471.818 277.558 472.151C278.11 472.635 279.037 472.698 279.584 472.172C280.152 471.755 280.251 470.974 280.365 470.323C280.714 468.042 280.746 465.713 280.709 463.411Z" fill="#2C516E"/>
<path d="M255.188 110.172C257.511 102.312 257.761 93.9739 257.349 85.8385C256.735 77.8072 255.026 69.8905 253.323 62.0312C250.698 50.7239 246.115 39.828 239.625 30.1874C233.256 21.5989 224.37 14.9582 214.511 10.8801C203.886 6.34366 192.511 3.62491 181.026 2.46345C173.802 1.8072 166.526 2.01554 159.282 2.22908C154.433 2.35928 149.677 3.50512 145.167 5.26033C141.162 6.71345 137.177 8.2447 133.292 9.99991C130.177 11.4687 127.011 12.8593 124.073 14.6718C117.167 19.2707 111.198 25.2135 106.407 31.9791C102.438 37.7291 99.8025 44.2499 97.3702 50.7655C93.8181 60.2812 92.141 70.4062 91.2139 80.4895C90.8077 85.8489 91.4327 91.2135 91.5941 96.5728C91.6045 97.0416 91.6254 97.5155 91.6462 97.9843C90.4535 97.5989 89.1827 97.4843 87.9483 97.8124C83.1514 99.1666 82.7035 105.359 83.4848 109.495C84.6775 115.141 85.8441 117.766 85.3077 123.057C85.1566 125.141 84.8441 127.234 85.0525 129.323C85.292 131.984 86.1723 134.583 87.641 136.818C89.0368 138.818 90.5941 141.224 90.6618 141.932C91.3181 143.5 90.9014 148.219 91.8025 151.713C92.891 156.031 95.8181 161.193 100.823 161.229C101.615 161.172 102.573 160.995 103.433 160.641C104.881 170.302 107.922 179.672 112.521 188.312C114.542 192.323 116.693 196.281 119.297 199.953C121.709 203.443 124.558 206.594 127.271 209.849C133 216.609 138.511 223.646 145.526 229.146C152.589 235.094 161.261 238.724 170.131 241.021C174.782 242.338 179.495 243.63 184.349 243.823C195.006 244.099 211.448 239.088 219.016 231.453C220.938 229.49 222.308 227.073 223.224 224.5C224.386 221.005 224.62 219.245 226.443 216.729C227.375 215.562 232.532 211.677 234.495 209.156C237.297 206.167 239.271 201.776 241.329 197.031C243.98 190.63 246.167 184.026 247.792 177.297C249.579 169.635 249.334 163.51 251.797 155.635C257.224 141.411 255.625 136.547 253.084 123.969C252.719 118.984 253.75 115.448 255.188 110.172Z" fill="#F9CFC2"/>
<path d="M292.281 365.125C291.724 362.406 291.161 359.672 290.344 357.016C289.177 353.724 287.703 350.542 286.573 347.234C284.906 342.188 284.505 336.854 283.385 331.677C281.458 324.474 278.463 317.5 274.672 311.078C270.75 304.828 264.937 300.188 259.864 294.938C256.781 291.698 254.849 288.896 252.333 284.625C248.703 278.219 245.88 272.917 244.208 266.281C242.547 260.323 242.12 253.635 237.859 248.802C236.125 246.953 233.911 245.391 231.359 244.974C229.385 244.557 227.37 244.865 225.37 244.797C224.771 244.708 225.302 244.849 224.14 244.609C223.724 244.537 222.849 244.26 222.521 244.162C221.135 243.406 220.963 243.214 220.38 242.281C219.64 241 219.234 239.547 219.167 238.615C219.026 236.635 219.469 234.646 219.208 232.672C217.995 228.198 212.771 232.688 210.302 233.635C207.411 235.099 205.01 236.141 201.198 236.932C195.479 238.297 188.245 238.083 181.375 237.245C177.26 236.802 172.698 236.057 167.922 234.281C166.396 233.766 164.88 233.203 163.385 232.599C162.318 232.156 161.005 231.443 160.015 232.375C158.125 233.943 161.765 237.912 162.646 239.458C166.604 244.797 170.927 249.958 175.995 254.281C179.463 257.135 182.937 260.094 186.88 262.281C189.89 263.792 192.187 264.432 194.489 265.583C196.989 266.807 199.255 268.464 201.521 270.063C205.208 272.839 207.911 274.802 211.588 278.214C215.411 282.057 219.13 286.026 222.531 290.255C229.51 299.25 237.213 311.891 244.125 322.552C250.406 332.385 258.458 342.958 261.807 352.953C264.536 360.198 265.969 367.912 269.286 374.938C270.578 377.646 271.963 380.391 274.135 382.505C275.177 383.563 276.406 384.453 277.833 384.906C278.146 385.047 278.5 385.073 278.833 385C278.979 385.146 279.151 385.26 279.375 385.313C281.463 385.807 283.703 386.63 285.776 385.646C286.864 385.219 287.734 384.401 288.651 383.698C289.781 382.76 290.88 381.698 291.599 380.406C292.719 378.162 292.989 375.62 292.984 373.141C293.01 370.453 292.807 367.766 292.281 365.125Z" fill="#8B1619"/>
<path d="M243.224 212.703C242.703 208.448 241.635 204.276 239.885 200.354C238.589 197.135 236.641 194.25 234.62 191.448C232.807 188.917 231.062 186.328 229.13 183.88C227.24 181.667 225.359 179.406 223.13 177.521C221.917 176.615 218.089 173.474 216.443 174.464C216.354 174.469 216.266 174.474 216.182 174.49C215.24 174.734 214.927 175.635 215.146 176.365C214.276 176.859 213.573 177.094 212.203 177.521C208.823 178.313 207.109 182.375 205.109 183.245C203.448 183.984 200.719 184.547 198.021 184.417C197.734 184.464 194.474 183.526 193.865 183C192.01 182.083 191.365 180.698 188.927 179.625C187.672 179.13 186.312 179.391 185.073 179.802C183.182 180.229 182.536 180.464 181.094 180.422C180.677 180.38 180.682 180.391 179.552 180.047C178.948 179.854 178.318 179.688 177.687 179.688C177.411 179.13 176.786 178.734 176.13 178.943C172.578 179.49 169.411 181.297 166.323 183.031C161.458 185.917 156.88 189.49 153.76 194.271C150.76 198.531 148.917 203.458 147.984 208.568C146.724 214.552 146.62 220.896 148.651 226.724C150.234 231.604 152.094 236.537 155.312 240.599C157.068 242.844 158.786 245.245 161.224 246.797C162.615 247.802 164.646 247.891 164.927 246.474C165.604 247.208 166.344 247.875 167.297 248.208C169.266 248.37 169.505 247.13 169.234 245.672C169.635 246.208 170.099 246.682 170.693 246.984C171.495 247.375 172.521 246.839 172.703 245.979C172.917 244.422 172.161 242.922 171.839 241.427C171.693 240.875 171.557 240.323 171.427 239.771C172.37 240.802 173.443 241.703 174.729 242.328C176.104 243.073 178.13 242.396 178.37 240.74C178.687 238.807 178.266 236.854 177.844 234.932C178.13 234.859 178.401 234.714 178.604 234.479C179.396 233.531 179.089 232.151 179.073 231.005C178.984 228.964 178.687 226.917 178.896 224.875C178.964 224.328 178.891 224.599 179.104 223.526C179.214 222.99 179.391 222.469 179.599 221.964C179.531 222.115 179.469 222.219 179.609 221.927C179.625 221.885 179.641 221.839 179.661 221.797C179.646 221.833 179.63 221.87 179.615 221.912C179.74 221.646 179.88 221.396 180.031 221.146C180.635 221.406 181.917 221.964 183.12 222.01C186.12 222.104 187.177 218.844 187.667 216.427C188.536 212.818 188.583 209.635 189.365 206.708C190.63 207.203 192.125 206.854 193.292 206.104C193.479 205.948 194.182 205.604 194.427 205.474C195.281 205.193 194.823 205.297 195.651 205.281C196.953 205.537 198.203 205.932 199.5 205.74C200.854 205.651 202.068 205.01 203.339 204.609C204.578 204.182 204.927 204.526 206.745 204.037C207.057 203.917 207.974 203.703 208.307 203.62C208.365 203.62 208.422 203.615 208.474 203.615C208.396 203.599 208.38 203.578 208.49 203.62C208.604 203.667 208.661 203.693 208.719 203.724C208.979 204.016 208.865 203.839 209.552 204.948C210.911 207.609 211.516 211.151 211.812 214.474C212.036 216.214 213.599 216.75 215.151 216.781C216.375 216.771 217.437 216.12 218.292 215.292C218.932 214.714 219.469 214.031 219.974 213.333C220.281 213.734 220.516 214.359 220.911 215.625C221.297 217.203 221.266 216.964 221.307 218.729C221.307 219.609 221.141 220.516 221.359 221.385C222.62 224.323 225.922 221.599 227.437 220.146C227.453 220.391 227.469 220.656 227.495 220.995C227.542 221.958 227.307 222.964 227.62 223.896C227.995 225.313 229.792 225.427 230.844 224.688C231.203 224.417 231.542 224.115 231.854 223.792C231.687 225.656 231.286 227.214 230.927 229.672C230.167 234.375 236.49 233.99 239.13 232.135C242.182 229.75 243.161 225.63 243.682 221.969C244.057 218.88 243.641 215.766 243.224 212.703Z" fill="#7F8E99"/>
<path d="M177.63 118.344C176.771 116.786 175.688 115.359 174.443 114.094C174.177 113.844 173.938 113.542 173.693 113.26C173.453 112.807 173.182 112.38 172.828 112.01C172.084 111.219 170.964 111.198 169.979 111.479C169.922 111.495 169.875 111.505 169.818 111.516C167.391 111.141 164.938 111.396 162.521 111.734C159.047 112.224 155.604 112.922 152.162 113.589C148.651 114.255 145.198 115.161 141.776 116.193C137.891 117.25 134.235 119.13 131.245 121.844C130.245 122.771 127.979 125.203 130.464 126.635C131.438 127.281 132.568 127.672 133.74 127.724C139.896 127.865 148.016 125.193 153.714 124.589C156.865 124.172 164.011 123.49 168.511 124.021C168.912 124.026 171.776 124.599 173.365 124.969C174.682 125.229 176.073 125.63 177.401 125.25C180.261 124.135 178.615 120.312 177.63 118.344Z" fill="#7F8E99"/>
<path d="M217.432 166.01C216.687 165.042 215.671 164.063 214.453 163.781C213.281 163.542 212.374 164.969 212.989 165.964C213.176 166.318 213.531 166.5 213.874 166.672C214.057 166.776 214.229 166.891 214.4 167.016C214.432 167.047 214.463 167.073 214.499 167.109C215.432 168.13 215.557 168.167 215.968 169.604C216.598 172.682 215.025 175.573 212.801 176.484C211.64 177 211.218 176.552 209.463 177.047C208.609 177.323 207.864 177.88 207.421 178.667C207.166 179.151 207.005 179.672 206.796 180.177C205.911 181.88 205.755 182.089 204.255 183.432C202.525 184.927 198.135 185.333 194.958 182.891C194.14 182.391 192.041 179.333 190.015 178.672C188.187 177.943 186.145 178.13 184.338 178.833C182.328 179.479 182.223 179.552 180.953 179.214C178.979 178.516 177.229 176.688 176.656 173.484C176.333 171.927 176.551 168.87 178.051 167.708C178.239 167.583 178.578 167.359 178.822 167.229C178.718 167.266 178.692 167.255 178.874 167.198C178.937 167.167 178.994 167.141 179.031 167.13C178.999 167.151 178.968 167.167 178.932 167.182C179.796 166.823 180.801 166.833 181.546 166.333C182.833 165.438 181.765 163.344 180.281 163.787C178.567 164.182 176.786 164.693 175.578 166.052C173.265 168.724 173.255 172.693 174.359 175.891C175.531 179.146 177.859 181.224 180.551 181.948C182.286 182.427 184.041 181.88 185.645 181.208C185.265 181.37 186.51 180.927 186.796 180.901C186.848 180.891 186.88 180.885 186.9 180.885C188.671 180.859 187.833 180.844 189.15 181.125C189.437 181.198 190.275 181.646 190.953 182.333C192.057 183.474 193.088 184.714 194.489 185.505C199.666 188.469 205.578 187.771 208.791 182.37C209.265 181.609 209.567 180.76 210.02 179.99C210.114 179.932 210.208 179.875 210.307 179.823C210.9 179.62 211.666 179.787 213.088 179.464C216.567 178.458 218.926 175.037 219.015 171.469C219.098 169.542 218.692 167.526 217.432 166.01Z" fill="#B77B63"/>
<path d="M178.822 167.229C178.854 167.219 178.89 167.203 178.932 167.182C178.859 167.208 178.838 167.219 178.822 167.229Z" fill="#B77B63"/>
<path d="M180.069 135.536C177.308 132.906 174.22 130.396 170.589 129.109C168.428 128.281 166.136 127.844 163.834 127.677C162.173 127.531 160.48 127.521 158.865 127.995C153.761 129.172 148.735 133.109 144.668 134.5C143.751 134.828 142.829 135.177 141.865 135.37C141.365 135.521 140.761 135.448 140.329 135.766C139.496 136.338 140.188 137.75 141.168 137.443C143.85 137.099 146.392 136.073 148.876 135.057C150.86 134.021 154.923 131.833 155.933 131.391C156.35 131.213 156.746 131.068 157.131 130.927C157.537 133.953 158.975 135.797 162.063 136.901C165.272 138.026 170.704 135.687 171.589 133.042C171.709 132.745 171.746 132.427 171.839 132.13C174.964 133.875 176.85 135.333 179.324 137.88C180.037 138.937 181.402 138.896 181.558 137.557C181.475 136.687 180.579 136.177 180.069 135.536Z" fill="#85503C"/>
<path d="M177.537 137.75C176.944 137.656 176.345 137.964 175.751 138.047C170.61 139.172 164.907 139.391 159.777 138.214C157.324 137.63 156.1 137.219 154.079 136.109C152.97 135.464 151.97 137.151 153.084 137.813C160.313 141.708 170.142 141.813 177.845 139.328C178.444 138.922 178.23 137.922 177.537 137.75Z" fill="#85503C"/>
<path d="M205.896 132.11C206.099 131.214 206.745 130.375 206.745 129.458C206.651 128.266 204.812 128.151 204.536 129.307C203.323 132.172 202.552 135.297 202.687 138.422C202.718 139.136 202.771 139.849 202.854 140.557C202.859 140.88 202.953 141.208 203.192 141.438C203.687 141.953 204.599 141.828 204.953 141.208C205.234 140.729 205.031 140.146 205.026 139.62C204.969 138.625 204.896 137.62 204.989 136.625C205.104 135.469 205.333 133.917 205.896 132.11Z" fill="#B77B63"/>
<path d="M191.126 137.573C190.36 134.943 189.313 132.386 187.876 130.047C187.365 129.391 187.157 128.339 186.318 128.037C185.422 127.755 184.594 128.828 185.094 129.63C187.172 133.068 188.376 135.438 189.204 139.406C189.428 140.349 190.803 140.526 191.266 139.677C191.615 139.016 191.235 138.255 191.126 137.573Z" fill="#B77B63"/>
<path d="M211.078 100.063C210.157 100.021 209.224 100.344 208.297 100.432C204.75 100.964 201.959 101.531 198.063 101.401C195.339 101.271 192.287 100.594 189.089 99.7136C184.438 98.4636 180.193 96.0678 175.578 94.7188C174.907 94.6251 174.177 94.1407 173.521 94.448C172.891 94.7917 173.016 95.8178 173.724 95.9897C179.839 97.5313 184.526 100.714 190.938 102.12C193.261 102.625 195.61 103.141 197.99 103.245C200.646 103.365 203.302 103.052 205.927 102.656C207.599 102.391 209.271 102.094 210.938 101.776C211.214 101.745 211.464 101.589 211.605 101.349C211.891 100.87 211.62 100.203 211.078 100.063Z" fill="#B77B63"/>
<path d="M227.021 89.9584C224.745 89.3855 222.376 89.1615 220.042 89.5157C216.912 89.9792 214.042 91.3855 211.089 92.4584C207.423 93.7605 203.949 94.8334 200.673 94.8386C197.063 94.9532 193.449 93.9688 189.449 92.823C186.079 91.9063 182.876 90.2813 179.542 89.3594C178.641 89.4324 178.532 90.8438 179.428 91.0522C186.261 93.6876 193.261 96.7917 200.699 96.8907C204.495 96.9167 208.183 95.7501 211.735 94.5053C215.308 93.1719 219.115 91.3907 222.209 91.4376C224.808 91.4011 224.261 91.4792 226.792 91.8803C227.615 91.9844 228.886 92.6615 229.245 91.5261C229.506 90.2605 227.86 90.2397 227.021 89.9584Z" fill="#B77B63"/>
<path d="M263.802 83.1251C263.484 79.0626 262.739 75.047 262.072 71.0261C260.036 58.2136 255.041 45.9011 247.203 35.5313C246.911 35.1511 246.614 34.7709 246.317 34.3907C243.437 29.9845 240.119 25.8647 236.312 22.1824C234.671 20.4063 232.75 18.9428 230.677 17.7397C230.333 17.4741 229.994 17.2084 229.64 16.9636C226.651 14.9116 223.52 13.0053 220.088 11.7866C217.484 10.8751 214.848 10.0574 212.197 9.30739C206.76 6.86468 201.25 4.57301 195.416 3.23968C191.343 2.17197 187.151 1.76051 182.973 1.35947C179.848 1.07822 176.739 0.625094 173.604 0.45322C163.567 -0.0363643 153.296 0.338636 143.598 3.17197C136.156 5.46364 129.354 9.41155 122.942 13.7657C119.807 16.0157 116.687 18.3699 114.171 21.3178C114.057 21.4741 113.937 21.6147 113.822 21.7501C109.479 25.8126 105.625 30.547 103.437 35.4428C103.39 35.5105 103.359 35.5834 103.333 35.6563C102.192 37.2813 101.088 39.0105 100.088 40.9324C98.0829 45.1928 96.6349 49.6511 95.5933 54.2136C94.2912 58.1772 93.1193 62.198 92.4162 66.3074C91.7547 69.9897 91.6506 73.7293 91.3589 77.448C91.0776 83.2188 90.2183 88.9845 90.4839 94.7657C90.6558 96.6043 90.8797 98.448 91.3693 100.234C91.6818 101.302 92.0776 102.406 92.9006 103.198C93.9474 104.099 94.161 103.979 94.661 104.557C94.7079 104.641 94.7808 104.755 94.8537 104.849C95.9162 106.703 96.3954 109.511 98.7599 110.094C98.8954 110.125 99.036 110.141 99.1766 110.167C99.4995 110.703 99.9839 114.912 100.864 116.542C101.26 117.302 101.744 118.073 102.484 118.537C102.515 118.552 102.552 118.573 102.588 118.594C102.687 118.677 102.781 118.761 102.869 118.859C102.984 119.021 103.078 119.193 103.166 119.37C103.546 120.365 103.739 121.417 103.984 122.453C104.979 127.636 108.692 133.859 113.333 127.25C115.312 123.781 116.656 119.886 117.27 115.932C117.671 113.417 117.322 110.891 117.026 108.386C116.276 104.802 118.822 101.406 119.156 97.0261C119.208 91.047 117.02 86.7136 117.505 81.2813C117.567 79.1668 119.27 73.7032 120.182 71.8907C121.364 69.3803 123.005 67.0834 123.901 64.4376C125.239 60.3282 124.552 57.6095 125.885 53.9324C127.015 50.4688 129.734 45.422 131.953 42.8282C133.14 41.4741 134.473 40.2188 135.411 38.6563C136.937 36.1511 137.432 33.2032 137.932 30.3595C138.526 26.9272 139.526 24.8959 141.328 22.9063C142.416 21.6668 143.552 20.4741 144.843 19.448C144.88 19.4116 144.916 19.3803 144.953 19.3491C145.354 19.5261 145.828 19.5366 146.255 19.2761C149.51 17.323 151.536 15.9168 153.984 16.0418C154.625 16.0418 157.656 16.7136 159.562 16.7918C162.453 16.8751 165.354 16.7084 168.208 16.2449C171.776 15.5678 172.994 13.8126 175.541 14.2136C180.791 15.3334 190.557 16.3803 197.406 16.7657C199.916 16.7397 202.39 16.1043 204.906 16.1824C207.593 16.323 209.838 16.6095 213.057 17.6668C213.312 17.7918 213.755 18.0001 213.911 18.0991C215.651 19.073 215.734 19.2501 217.041 20.3282C220.083 22.9584 223.901 25.1563 225.265 27.1563C226.359 28.5418 227.052 30.2657 228.395 31.448C231.145 33.7136 233.52 34.4949 235.536 36.6668C236.781 37.9116 237.354 39.8178 238.39 42.3178C238.583 42.6824 238.812 43.0261 239.046 43.3699C239.072 43.6251 239.187 43.8803 239.421 44.1251C239.682 44.4168 239.942 44.698 240.192 44.9688C240.286 45.1043 240.38 45.2345 240.468 45.3699C241.046 46.073 241.463 46.9376 242.119 47.5626C242.333 47.7501 242.588 47.8334 242.854 47.8491C244.812 50.0678 246.161 52.1043 246.682 55.5313C246.885 56.4584 246.958 60.6824 247.411 62.9532C248.25 68.1303 252.588 71.6251 253.203 75.8803C253.744 78.047 253.614 82.672 253.723 86.1251C253.786 88.9897 254.562 94.2449 254.229 95.6616C253.432 99.6876 251.677 103.505 251.317 107.609C251.25 108.958 251.38 110.313 251.442 111.662C251.484 112.302 251.593 112.948 251.89 113.526C251.963 113.688 252.057 113.844 252.14 114C252.166 114.094 252.171 114.141 252.182 114.182C252.208 114.537 252.177 114.896 252.14 115.25C251.697 117.849 250.817 120.37 250.854 123.037C250.89 124.688 251.062 126.391 251.734 127.912C252.395 129.089 254.166 129.406 254.973 128.198C256.203 126.458 256.729 124.297 257.343 122.281C258.031 119.474 258.723 116.667 259.447 113.87C260.416 109.615 261.765 105.453 262.661 101.182C262.875 99.8751 263.015 98.5626 263.098 97.2501C263.38 95.5834 263.572 93.9011 263.661 92.2084C263.822 89.1824 263.973 86.1511 263.802 83.1251Z" fill="#7F8E99"/>
<mask id="mask1_153_499" style="mask-type:luminance" maskUnits="userSpaceOnUse" x="0" y="220" width="280" height="281">
<path d="M0 220H280V500.422H0V220Z" fill="white"/>
</mask>
<g mask="url(#mask1_153_499)">
<path d="M279.668 469.021C278.834 462.318 276.293 456 274.433 449.542C271.85 440.839 269.944 431.953 267.459 423.224C265.444 416.344 263.86 409.333 261.579 402.526C259.511 396.292 256.735 390.281 253.449 384.599C250.147 379.396 246.048 374.766 242.126 370.026C234.761 361.219 226.699 353.021 219.444 344.12C214.767 338.401 209.928 332.818 205.355 327.01C200.084 320.49 195.074 313.745 189.605 307.375C179.678 295.745 168.251 285.49 156.381 275.885C148.871 269.823 141.282 263.849 133.537 258.083C125.84 252.688 118.209 247.198 110.449 241.896C104.418 237.635 95.9489 232.755 91.1781 229.151C89.2978 227.781 87.8239 225.917 86.0843 224.391C85.9385 224.208 85.7978 224.026 85.6468 223.849C85.0687 223.177 84.4749 222.521 83.8499 221.896C83.5947 221.62 83.277 221.375 82.8812 221.385C81.4489 220.208 79.3395 219.24 77.8551 220.839C77.4541 221.286 77.2978 221.844 77.1885 222.411C72.3239 229.974 65.0999 236.177 58.4124 242.958C49.9853 251.573 42.1468 260.797 35.2822 270.714C29.6833 278.823 24.6833 287.339 19.9072 295.958C14.4228 305.802 9.89159 316.13 6.37076 326.833C4.05825 333.557 1.5843 340.318 0.808255 347.432C0.277004 352.078 -0.30112 356.833 0.433255 361.484C1.50096 365.76 2.19888 370.12 3.54263 374.328C4.85513 378.833 6.79263 383.12 8.69888 387.396C12.2614 395.323 15.7874 403.354 20.7926 410.5C24.1676 415.411 28.5218 419.536 32.6103 423.844C37.2405 428.646 41.7562 433.557 46.3864 438.354C54.928 447.078 63.027 456.297 72.2405 464.323C78.9228 469.839 86.3499 474.438 93.9385 478.594C101.121 482.276 108.595 485.333 116.027 488.464C124.074 491.807 132.376 494.484 140.845 496.536C148.47 498.568 156.22 500.286 164.142 500.37C171.824 500.406 179.496 499.99 187.168 499.625C192.027 499.365 196.902 499.359 201.746 498.917C207.157 498.385 212.522 497.458 217.886 496.589C223.688 495.693 229.47 494.667 235.131 493.078C239.965 491.74 244.85 490.547 249.595 488.906C254.303 487.229 258.881 485.214 263.496 483.286C267.933 481.219 272.876 479.859 276.485 476.396C278.938 474.214 280.319 472.542 279.668 469.021Z" fill="#2C516E"/>
</g>
<path d="M107.333 142.734C107.104 141.271 106.479 139.927 106.062 138.521C105.583 136.719 105.598 136.583 105.515 134.958C105.562 133.786 105.697 133.078 106.182 132.255C106.249 132.172 106.281 132.141 106.312 132.109C107.854 131.417 106.89 129.167 105.312 129.937C104.197 130.224 102.927 132.896 102.942 135.036C102.947 137.182 103.453 139.292 104.244 141.271C104.848 143.062 104.953 144.203 104.807 144.583C103.401 144.542 103.119 144.312 102.515 142.125C101.963 139.594 102.02 139.323 101.624 136.286C101.536 134.776 101.015 132.755 98.437 132.042C97.312 131.63 96.8641 131.458 96.4526 131.057C95.8276 130.708 95.0932 127.411 95.3068 127.062C95.6401 125.76 95.838 125.677 95.8589 125.51C96.0984 125.099 96.088 124.516 95.7651 124.151C95.2912 123.453 94.1349 123.542 93.7391 124.271C93.2755 125.187 92.7807 126.125 92.7026 127.167C92.6245 129.604 93.3901 132.573 95.7807 133.682C97.7703 134.526 98.9109 134.614 98.9839 135.104C99.4734 136.432 99.3797 140.771 100.166 143.526C101.26 148.505 108.713 148.781 107.333 142.734Z" fill="#B77B63"/>
<path d="M235.557 188.495C235.635 188.526 235.718 188.568 235.801 188.604C235.614 188.511 235.557 188.49 235.557 188.495Z" fill="#2C516E"/>
<path d="M239.922 131.594C239.735 131.036 239.136 130.745 238.714 130.375C234.891 127.417 230.156 125.391 225.276 125.391C220.344 125.698 215.193 127.12 211.474 130.526C210.016 132.036 208.349 133.594 207.651 135.615C207.485 136.505 208.802 136.958 209.235 136.161C210.448 133.651 212.651 131.589 214.927 130.13C215.167 129.984 215.438 129.839 215.714 129.698C216.104 132.203 217.339 134.156 220.219 134.849C221.969 135.276 224.057 135.13 225 134.849C225.344 134.786 227.016 134.016 226.667 134.141C226.714 134.12 226.766 134.099 226.854 134.057C229.458 132.547 230.271 130.104 230.005 128.073C232.86 128.891 235.521 130.313 237.453 131.844C238.016 132.313 238.026 132.271 238.261 132.474C238.479 132.677 238.516 132.646 238.323 132.526C238.5 132.703 238.745 132.807 239 132.807C239.61 132.823 240.094 132.182 239.922 131.594Z" fill="#85503C"/>
<path d="M232.693 134.203C232.406 134.146 232.114 134.156 231.859 134.312C230.963 134.724 231.37 134.557 230.458 134.906C226.646 136.12 223.625 136.49 219.375 135.943C216.703 135.646 213.791 135.427 211.245 136.396C210.375 136.995 211.104 138.458 212.114 138.141C215.448 137.245 218.359 137.984 221.953 138.318C225.651 138.458 229.411 137.802 232.781 136.255C233.745 135.937 233.677 134.448 232.693 134.203Z" fill="#85503C"/>
<path d="M256.942 408.943C256.38 408.12 255.812 407.297 255.234 406.484C253.198 403.635 250.984 400.917 248.625 398.338C242.526 391.76 236.083 385.484 228.994 379.974C223.869 375.786 218.161 372.422 212.849 368.5C205.135 362.76 197.005 355.432 187.177 351.115C182.104 348.849 176.953 346.698 171.614 345.146C166.974 343.766 162.172 343.073 157.479 341.896C151.922 340.588 146.906 337.713 141.442 336.115C140.453 335.818 139.432 335.635 138.427 335.422C138.911 334.557 139.453 333.729 140.047 332.932C142.354 330.203 144.708 327.573 147.031 324.917C151.26 320.578 155.661 316.401 159.583 311.771C160.994 310.151 162.411 308.531 163.948 307.026C164.776 306.073 166 305.234 166.307 303.969C166.515 303.036 165.708 302.13 164.776 302.115C163.802 302.13 162.88 302.578 161.942 302.818C159.484 303.568 156.984 304.198 154.547 305.021C150.583 306.286 146.765 307.963 142.807 309.255C140.614 309.943 138.312 310.229 136.099 310.859C133.323 311.583 130.724 312.833 128.151 314.078C128.031 314.141 127.802 314.25 127.619 314.328C127.515 314.37 127.406 314.411 127.291 314.448C126.807 313.74 126.354 313.005 125.901 312.271C124.255 309.583 123.01 306.672 121.744 303.786C116.109 290 108.765 273.286 98.7497 260.401C95.5622 255.849 88.9164 250.062 84.1716 245.312C80.8799 242.073 77.3018 238.625 75.1247 235.479C74.208 234.24 73.4268 232.906 72.6507 231.568C72.2914 231.036 72.1247 230.318 71.4476 230.135C70.5414 229.87 69.6351 230.937 70.1768 231.786C76.3487 243.51 89.432 251.906 96.4216 261.562C102.797 269.885 107.442 279.344 112.083 288.703C115.479 295.849 117.838 302.604 121.484 310.286C122.328 312.031 123.307 313.713 124.364 315.338C124.869 316.12 125.375 317.026 126.328 317.312C127.25 317.62 128.203 317.266 129.047 316.88C130.401 316.266 131.729 315.588 133.093 314.995C135.057 313.995 139.646 313.042 142.958 312.271C146.453 311.219 149.802 309.734 153.255 308.552C155.692 307.687 158.172 306.958 160.656 306.24C156.552 310.713 152.609 315.333 148.224 319.531C145.468 322.146 143.015 325.042 140.526 327.901C138.552 330.167 136.333 332.432 135.286 335.302C134.828 337.141 136.187 338.167 137.896 338.292C139.276 338.578 140.651 338.901 141.989 339.344C146.297 340.797 150.364 342.901 154.724 344.182C159.974 345.713 165.432 346.385 170.682 347.932C179.036 350.536 185.458 353.115 192.989 357.526C198.833 360.995 202.489 364.318 207.76 368.297C212.604 372.213 217.927 375.453 222.984 379.078C228.437 383.052 234.479 388.094 239.953 393.594C243.578 397.24 247.203 400.906 250.411 404.927C251.479 406.089 253.5 409.318 255.203 411.448C255.948 412.109 257.286 411.656 257.51 410.687C257.703 410.031 257.328 409.437 256.942 408.943Z" fill="#091930"/>
<path d="M118.734 45.1823C118.161 44.5677 117.036 45.0313 117.062 45.875C116.661 49.5209 116.094 53.125 113.891 56.1719C113.745 56.3542 113.484 56.6823 113.385 56.7761C113.042 57.2396 112.484 57.5521 112.24 58.0677C111.729 59.099 113.208 60.0886 113.99 59.25C116.146 57.3698 117.224 54.6354 118.062 51.9792C118.479 50.6042 118.62 49.1719 118.797 47.7604C118.786 46.9219 119.339 45.8854 118.734 45.1823Z" fill="#FCFBE7"/>
<path d="M119.01 56.401C118.557 55.5572 117.187 55.7343 116.958 56.6718C116.666 57.7864 116.005 60.0468 115.875 60.1666C115.375 60.9999 114.594 61.9322 113.338 62.9739C113.286 63.0155 113.229 63.0624 113.182 63.0989C112.635 63.5155 112.057 63.8905 111.463 64.2343C110.953 64.4687 110.5 64.9843 110.63 65.578C110.672 66.1614 111.234 66.6041 111.802 66.6093C112.406 66.5885 112.896 66.1405 113.406 65.8541C115.073 64.7603 116.515 63.3437 117.63 61.6926C118.385 60.4478 118.635 58.9791 119.036 57.5989C119.166 57.2082 119.245 56.7707 119.01 56.401Z" fill="#FCFBE7"/>
<path d="M111.693 69.6875C109.057 71.7344 106.224 73.6771 104.344 76.5C103.984 77.1302 103.161 77.9532 103.734 78.6771C104.302 79.4115 105.224 78.9323 105.5 78.1875C106.182 77.1302 106.208 77.1355 106.937 76.25C108.984 73.9375 110.896 72.8698 112.953 71.1198C113.63 70.3334 112.568 69.1355 111.693 69.6875Z" fill="#FCFBE7"/>
<path d="M109.824 77.9688C107.048 80.0834 104.22 82.4427 102.626 85.6094C102.319 86.3646 102.23 86.3594 102.173 86.7396C102.121 86.9792 102.194 87.2604 102.36 87.4479C102.626 87.8386 103.199 87.9219 103.6 87.6927C104.053 87.3906 104.183 86.7917 104.485 86.3594C105.173 85.1927 105.22 85.0886 105.928 84.2552C107.73 82.1406 109.386 80.8906 111.136 79.4688C111.85 78.6459 110.741 77.3906 109.824 77.9688Z" fill="#FCFBE7"/>
<path d="M106.833 86.5678C105.672 89.1251 104.463 91.6824 103.651 94.3855C103.479 95.2969 102.781 96.4584 103.213 97.3386C103.687 98.2136 105.104 98.0313 105.338 97.0626C106.349 93.2865 107.338 91.1615 108.906 87.7761C109.677 86.4063 107.656 85.2188 106.833 86.5678Z" fill="#FCFBE7"/>
<path d="M135.87 15.1043C134.511 17.1824 132.948 19.5887 131.839 20.8282C130.438 22.2709 129.573 22.7657 128.37 23.7605C127.558 24.7866 128.995 26.0522 129.969 25.2032C133.49 23.1199 135.636 19.5834 137.818 16.2397C138.553 14.9689 136.625 13.8387 135.87 15.1043Z" fill="#FCFBE7"/>
<path d="M131.896 26.2187C130.521 28.5833 129.37 29.6041 127.245 31.0729C126.605 31.625 125.558 31.8645 125.25 32.7083C125.042 33.401 125.615 34.1354 126.328 34.125C127.219 34.0052 127.912 33.2604 128.662 32.8177C130.823 31.302 132.912 29.3906 133.907 26.9114C134.125 25.7812 132.443 25.2031 131.896 26.2187Z" fill="#FCFBE7"/>
<path d="M113.948 33.7813C111.219 35.5469 107.875 36.9323 106.208 39.8646C105.724 40.7396 104.609 42.0677 105.828 42.8281C107.167 43.5313 107.677 41.7865 108.271 40.9427C108.984 39.8177 109.052 39.8334 109.974 39.1354C111.359 38.1302 112.818 37.2292 114.297 36.375C114.818 36.0261 115.552 35.8125 115.719 35.1406C116.031 34.1406 114.833 33.224 113.948 33.7813Z" fill="#FCFBE7"/>
<path d="M111.949 41.3594C109.069 45.3282 106.871 49.8178 105.985 54.6667C105.907 54.9896 105.688 56.2188 105.631 56.5469C105.532 56.9428 105.668 57.4219 106.017 57.6563C106.418 58.0053 107.063 57.9376 107.433 57.573C107.866 57.0834 107.824 56.349 108.032 55.7501C108.475 53.9636 108.996 52.1928 109.683 50.4844C109.933 49.7865 111.48 46.6511 112.485 45.0834C113.027 44.0886 113.975 43.2501 114.293 42.1667C114.553 40.849 112.584 40.1771 111.949 41.3594Z" fill="#FCFBE7"/>
<path d="M208.677 167.375C207.151 164.99 206.224 162.969 206.14 160.891C206.052 158.078 206.364 155.25 205.838 152.469C205.646 151.021 205.297 149.604 204.943 148.187C204.88 147.963 204.729 147.771 204.531 147.656C203.875 147.245 202.989 147.922 203.219 148.661C203.828 151.167 204.151 152.687 204.265 154.943C204.344 156.958 204.114 158.979 204.167 160.995C204.297 164.37 206.156 167.328 208.068 169.984C208.64 170.484 209.604 169.99 209.578 169.245C209.489 168.557 208.969 167.99 208.677 167.375Z" fill="#B77B63"/>
<path d="M165.157 128.969C164.125 128.745 162.938 129.021 162.11 129.703C161.568 129.937 161.104 130.349 160.87 130.911C159.854 133.208 162.474 135.474 165.198 134.521C166.354 134.104 167.433 133.047 167.365 131.739C167.276 130.484 166.422 129.255 165.157 128.969Z" fill="#091930"/>
<path d="M225.874 128.511C225.421 127.479 224.447 126.979 223.468 126.974C222.124 126.615 220.713 127.599 220.411 128.927C220.244 129.292 220.494 130.912 220.38 130C220.426 130.537 220.583 131.073 220.9 131.521C222.89 134.307 227.348 131.589 225.874 128.511Z" fill="#091930"/>
<path d="M162.401 130.286C162.38 130.193 162.334 130.094 162.287 129.995C162.136 129.719 161.943 129.505 161.703 129.338C161.438 129.146 161.24 129.042 161.037 128.969C160.063 128.667 159.167 129.687 159.438 130.594C159.443 130.693 159.443 130.786 159.469 130.88C159.63 131.375 159.927 131.677 160.266 131.823C161.224 132.526 162.834 131.656 162.401 130.286Z" fill="white"/>
<path d="M219.854 130.276C219.63 130.187 219.598 130.161 219.854 130.276Z" fill="white"/>
<path d="M221.302 129.125C221.307 129.078 221.302 129.031 221.302 128.984C221.296 128.911 221.291 128.844 221.275 128.776C221.192 128.427 221.01 128.135 220.703 127.964C219.781 127.396 218.562 128.333 218.88 129.37C218.973 129.74 219.249 130.021 219.588 130.167C219.645 130.193 219.677 130.198 219.708 130.208C219.76 130.234 219.807 130.26 219.864 130.276C220.515 130.443 221.104 130.042 221.229 129.484C221.26 129.391 221.281 129.307 221.291 129.214C221.296 129.182 221.302 129.156 221.302 129.125Z" fill="white"/>
<path d="M250.057 120.521C248.844 118.073 246.015 117.005 243.526 116.323C239.812 115.589 236.073 114.833 232.292 114.578C228.578 114.453 224.89 115.068 221.208 115.458C218.302 115.906 215.125 115.87 212.51 117.359C210.844 118.547 209.536 120.412 209.443 122.505C209.37 124.432 210.594 126.177 212.198 126.375C212.135 126.375 212.099 126.386 212.109 126.401C212.417 126.458 212.755 126.495 213.036 126.333C213.364 126.214 219.765 125.636 220.979 125.917C224.146 126.323 227.177 127.427 230.344 127.844C233.771 128.287 237.25 127.75 240.614 127.094C242.713 126.651 244.687 125.787 246.745 125.208C247.989 124.766 249.463 124.406 250.281 123.292C250.943 122.063 250.167 120.849 250.057 120.521Z" fill="#7F8E99"/>
</svg>
