<?xml version="1.0" encoding="UTF-8" standalone="no"?>
<svg
   version="1.1"
   width="252.89931"
   height="237.5293"
   viewBox="0 0 252.89931 237.5293"
   xml:space="preserve"
   id="svg6"
   sodipodi:docname="24-hours-7-days-9196.svg"
   xmlns:inkscape="http://www.inkscape.org/namespaces/inkscape"
   xmlns:sodipodi="http://sodipodi.sourceforge.net/DTD/sodipodi-0.dtd"
   xmlns="http://www.w3.org/2000/svg"
   xmlns:svg="http://www.w3.org/2000/svg"><sodipodi:namedview
   id="namedview6"
   pagecolor="#ffffff"
   bordercolor="#000000"
   borderopacity="0.25"
   inkscape:showpageshadow="2"
   inkscape:pageopacity="0.0"
   inkscape:pagecheckerboard="0"
   inkscape:deskcolor="#d1d1d1"><inkscape:page
     x="0"
     y="0"
     width="252.89931"
     height="237.5293"
     id="page2"
     margin="0"
     bleed="0" /></sodipodi:namedview>

<defs
   id="defs1" />
<g
   style="opacity:1;fill:none;fill-rule:nonzero;stroke:none;stroke-width:0;stroke-linecap:butt;stroke-linejoin:miter;stroke-miterlimit:10;stroke-dasharray:none"
   transform="matrix(2.81,0,0,2.81,-2.6673482e-8,-7.6853502)"
   id="g6">
	
	
	
	
	
	<g
   id="g7"
   inkscape:export-filename="24-7-icon"
   inkscape:export-xdpi="96"
   inkscape:export-ydpi="96"><path
     d="m 25.098,46.604 h -8.424 c -0.749,0 -1.434,-0.418 -1.777,-1.083 -0.343,-0.665 -0.286,-1.466 0.147,-2.076 l 7.684,-10.802 c 0.437,-0.613 0.498,-1.388 0.164,-2.073 -0.15,-0.309 -0.609,-1.031 -1.612,-1.077 l -0.115,-0.002 c -1.373,0 -2.49,1.117 -2.49,2.49 0,1.104 -0.896,2 -2,2 -1.104,0 -2,-0.896 -2,-2 0,-3.579 2.911,-6.49 6.49,-6.49 0.098,0 0.194,0.002 0.291,0.006 2.187,0.099 4.066,1.34 5.032,3.32 0.971,1.992 0.78,4.346 -0.5,6.145 l -5.437,7.643 h 4.547 c 1.104,0 2,0.896 2,2 0,1.104 -0.895,1.999 -2,1.999 z"
     style="opacity:1;fill:#1f255b;fill-opacity:1;fill-rule:nonzero;stroke:none;stroke-width:1;stroke-linecap:butt;stroke-linejoin:miter;stroke-miterlimit:10;stroke-dasharray:none"
     stroke-linecap="round"
     id="path1" /><path
     d="m 40.326,46.604 c -1.104,0 -2,-0.896 -2,-2 V 43.423 H 30.33 c -0.75,0 -1.437,-0.419 -1.779,-1.086 -0.342,-0.667 -0.283,-1.47 0.154,-2.08 l 9.996,-13.933 c 0.505,-0.706 1.408,-1.005 2.237,-0.738 0.827,0.266 1.388,1.035 1.388,1.904 v 11.933 h 1.2 c 1.104,0 2,0.896 2,2 0,1.104 -0.896,2 -2,2 h -1.2 v 1.181 c 0,1.104 -0.895,2 -2,2 z m -6.099,-7.181 h 4.1 v -5.714 z"
     style="opacity:1;fill:#1f255b;fill-opacity:1;fill-rule:nonzero;stroke:none;stroke-width:1;stroke-linecap:butt;stroke-linejoin:miter;stroke-miterlimit:10;stroke-dasharray:none"
     stroke-linecap="round"
     id="path2" /><path
     d="m 58.815,64.51 c -0.344,0 -0.692,-0.089 -1.01,-0.274 -0.953,-0.56 -1.272,-1.785 -0.714,-2.737 l 8.272,-14.103 h -6.547 c -1.104,0 -2,-0.895 -2,-2 0,-1.104 0.896,-2 2,-2 h 10.039 c 0.717,0 1.379,0.384 1.735,1.006 0.356,0.622 0.353,1.388 -0.01,2.006 L 60.54,63.521 c -0.37,0.635 -1.038,0.989 -1.725,0.989 z"
     style="opacity:1;fill:#1f255b;fill-opacity:1;fill-rule:nonzero;stroke:none;stroke-width:1;stroke-linecap:butt;stroke-linejoin:miter;stroke-miterlimit:10;stroke-dasharray:none"
     stroke-linecap="round"
     id="path3" /><path
     d="m 40.35,64.51 c -0.333,0 -0.671,-0.083 -0.982,-0.259 -0.961,-0.543 -1.301,-1.764 -0.757,-2.725 l 19.783,-35.02 c 0.543,-0.96 1.764,-1.301 2.725,-0.757 0.962,0.543 1.301,1.763 0.758,2.725 L 42.093,63.493 c -0.367,0.652 -1.045,1.017 -1.743,1.017 z"
     style="opacity:1;fill:#1f255b;fill-opacity:1;fill-rule:nonzero;stroke:none;stroke-width:1;stroke-linecap:butt;stroke-linejoin:miter;stroke-miterlimit:10;stroke-dasharray:none"
     stroke-linecap="round"
     id="path4" /><path
     d="M 42.265,87.265 C 18.96,87.265 0,68.305 0,45 0,21.695 18.96,2.735 42.265,2.735 65.57,2.735 84.53,21.695 84.53,45 c 0,1.104 -0.896,2 -2,2 -1.104,0 -2,-0.896 -2,-2 C 80.53,23.9 63.364,6.735 42.265,6.735 21.166,6.735 4,23.9 4,45 c 0,21.1 17.166,38.265 38.265,38.265 13.546,0 26.214,-7.273 33.059,-18.982 0.558,-0.953 1.781,-1.274 2.736,-0.717 0.953,0.558 1.274,1.782 0.717,2.736 -7.559,12.93 -21.549,20.963 -36.512,20.963 z"
     style="opacity:1;fill:#8ec544;fill-opacity:1;fill-rule:nonzero;stroke:none;stroke-width:1;stroke-linecap:butt;stroke-linejoin:miter;stroke-miterlimit:10;stroke-dasharray:none"
     stroke-linecap="round"
     id="path5" /><path
     d="m 82.53,47 c -0.512,0 -1.023,-0.195 -1.414,-0.586 l -5.47,-5.47 c -0.781,-0.781 -0.781,-2.047 0,-2.828 0.781,-0.781 2.047,-0.781 2.828,0 l 4.056,4.055 4.056,-4.055 c 0.781,-0.781 2.047,-0.781 2.828,0 0.781,0.781 0.781,2.047 0,2.828 l -5.47,5.47 C 83.554,46.805 83.042,47 82.53,47 Z"
     style="opacity:1;fill:#8ec544;fill-opacity:1;fill-rule:nonzero;stroke:none;stroke-width:1;stroke-linecap:butt;stroke-linejoin:miter;stroke-miterlimit:10;stroke-dasharray:none"
     stroke-linecap="round"
     id="path6" /></g>
</g>
</svg>
