<svg id="Layer_1" data-name="Layer 1" xmlns="http://www.w3.org/2000/svg" viewBox="0 0 133.69 43.05"><defs><style>.cls-1{font-size:14.37px;font-family:GillSansMT-Bold, Gill Sans MT;font-weight:700;}.cls-1,.cls-3{fill:#233167;}.cls-2,.cls-4{fill:#8cc642;}.cls-2,.cls-3{fill-rule:evenodd;}.cls-4{font-size:7.99px;font-family:GillSansMT, Gill Sans MT;}.cls-5{letter-spacing:-0.02em;}.cls-6{letter-spacing:0em;}.cls-7{letter-spacing:-0.02em;}.cls-8{letter-spacing:-0.01em;}</style></defs><text class="cls-1" transform="translate(42.63 19.3)">CleanRooms</text><path class="cls-2" d="M14.13,17.82h2.43v1.07l5-3.71,11.61,8.58a11.6,11.6,0,0,0-3.36-7.21L21.58,8.3l-8.26,8.25a11.52,11.52,0,0,0-2.22,3.11L7.5,22.32a14.16,14.16,0,0,1,4-7.62L21.58,4.58,31.69,14.7a14.23,14.23,0,0,1,4.18,10.11c0,.3,0,.61,0,.91l2.43,1.79-1.57,2.1L21.58,18.44l-7.45,5.5V17.82Z"/><path class="cls-3" d="M31.69,34.93l-.38.38h0a14.35,14.35,0,0,1-19.43,0h0l-.39-.38A14.18,14.18,0,0,1,7.8,28.62l-1.35,1-1.56-2.1,2.42-1.79h0l2.65-2h0l3-2.18v3.26L10.1,26.91a11.6,11.6,0,0,0,3.21,6.15h0a11.72,11.72,0,0,0,16.51,0h0a11.61,11.61,0,0,0,2.51-3.74l2.16,1.6a14.18,14.18,0,0,1-2.82,4Zm-2.31-4.08h0a10.12,10.12,0,0,1-9.55,2.49,9.14,9.14,0,0,1-6.52-6.73l-1,.62a9.78,9.78,0,0,0,17,3.62Z"/><path class="cls-2" d="M20.41,18.67A3.46,3.46,0,0,1,23.69,22,3.45,3.45,0,0,1,27,18.67a3.43,3.43,0,0,1-3.28-3.28,3.45,3.45,0,0,1-3.28,3.28Z"/><path class="cls-3" d="M25.22,20.78a1.09,1.09,0,0,1,1.06,1.06,1.11,1.11,0,0,1,1.07-1.06,1.13,1.13,0,0,1-1.07-1.07,1.11,1.11,0,0,1-1.06,1.07Z"/><path class="cls-2" d="M21.17,20.27a.55.55,0,0,1,.52.53.56.56,0,0,1,.53-.53.55.55,0,0,1-.53-.52.54.54,0,0,1-.52.52Z"/><text class="cls-4" transform="translate(45.21 29.64)">The o<tspan class="cls-5" x="19.27" y="0">r</tspan><tspan class="cls-6" x="22.31" y="0">der of </tspan><tspan class="cls-7" x="44.21" y="0">y</tspan><tspan class="cls-6" x="47.55" y="0">our li</tspan><tspan class="cls-8" x="64.83" y="0">f</tspan><tspan x="66.75" y="0">e</tspan></text></svg>