<svg xmlns="http://www.w3.org/2000/svg" xmlns:xlink="http://www.w3.org/1999/xlink" version="1.1" width="256" height="256" viewBox="0 0 256 256" xml:space="preserve">

<defs>
</defs>
<g style="stroke: none; stroke-width: 0; stroke-dasharray: none; stroke-linecap: butt; stroke-linejoin: miter; stroke-miterlimit: 10; fill: none; fill-rule: nonzero; opacity: 1;" transform="translate(1.4065934065934016 1.4065934065934016) scale(2.81 2.81)" >
	<path d="M 13.636 18.872 l 0.159 0.002 c 0.098 0.002 0.196 0.008 0.291 0.014 c 0.128 0.008 0.256 0.017 0.385 0.032 c 0.103 0.012 0.204 0.029 0.306 0.045 c 0.121 0.019 0.242 0.038 0.365 0.064 c 0.095 0.02 0.189 0.045 0.283 0.07 l 0.081 0.021 c 0.098 0.025 0.196 0.049 0.294 0.079 c 0.09 0.028 0.179 0.061 0.267 0.094 l 0.063 0.023 l 0.104 0.037 c 0.07 0.025 0.14 0.049 0.209 0.078 c 0.088 0.037 0.174 0.08 0.261 0.122 l 0.079 0.038 l 0.142 0.067 c 0.047 0.022 0.095 0.043 0.142 0.068 c 0.091 0.048 0.178 0.104 0.266 0.158 l 0.083 0.051 l 0.169 0.101 l 0.082 0.048 c 0.113 0.075 0.22 0.16 0.329 0.244 l 0.045 0.034 c 0.061 0.047 0.123 0.092 0.185 0.137 l 0.012 0.006 c 0.193 0.158 0.374 0.322 0.539 0.486 l 6.742 6.742 c 0.165 0.165 0.328 0.346 0.461 0.507 l 0.033 0.046 c 0.044 0.061 0.089 0.123 0.136 0.184 l 0.038 0.049 c 0.082 0.107 0.165 0.212 0.235 0.317 l 0.055 0.093 l 0.098 0.165 l 0.053 0.087 c 0.053 0.087 0.108 0.173 0.156 0.263 c 0.025 0.047 0.046 0.096 0.069 0.144 l 0.066 0.14 l 0.038 0.08 c 0.042 0.086 0.084 0.172 0.121 0.26 c 0.028 0.067 0.051 0.135 0.076 0.203 l 0.039 0.108 l 0.024 0.066 c 0.032 0.089 0.066 0.177 0.094 0.269 c 0.029 0.094 0.052 0.189 0.077 0.284 l 0.021 0.081 c 0.025 0.098 0.051 0.195 0.072 0.295 c 0.025 0.119 0.044 0.239 0.063 0.359 c 0.016 0.103 0.033 0.206 0.046 0.312 c 0.015 0.127 0.024 0.255 0.032 0.381 c 0.006 0.097 0.012 0.194 0.014 0.291 c 0.003 0.135 0.002 0.269 -0.002 0.401 c -0.003 0.091 -0.007 0.182 -0.013 0.273 c -0.009 0.14 -0.022 0.28 -0.039 0.416 c -0.01 0.084 -0.023 0.167 -0.036 0.252 c -0.023 0.145 -0.049 0.289 -0.08 0.432 c -0.015 0.067 -0.032 0.133 -0.055 0.223 c -0.038 0.149 -0.078 0.298 -0.124 0.443 l -0.036 0.102 l -0.033 0.092 c -0.054 0.152 -0.109 0.304 -0.168 0.442 l -0.023 0.05 l -0.057 0.122 c -0.071 0.156 -0.144 0.311 -0.221 0.45 l -0.08 0.136 c -0.084 0.146 -0.169 0.292 -0.263 0.432 c -0.029 0.038 -0.057 0.077 -0.084 0.115 c -0.141 0.202 -0.259 0.357 -0.369 0.489 c -0.172 0.206 -0.31 0.359 -0.434 0.483 l -4.561 4.561 c -1.845 1.845 -1.845 4.848 0 6.693 l 19.715 19.715 c 0.894 0.894 2.082 1.386 3.347 1.386 c 1.264 0 2.453 -0.492 3.347 -1.386 l 4.561 -4.561 c 0.126 -0.126 0.275 -0.26 0.484 -0.434 c 0.133 -0.111 0.288 -0.228 0.49 -0.37 c 0.037 -0.026 0.074 -0.053 0.113 -0.082 c 0.142 -0.095 0.289 -0.181 0.439 -0.267 l 0.117 -0.07 c 0.153 -0.084 0.309 -0.157 0.467 -0.23 l 0.119 -0.056 l 0.036 -0.017 c 0.15 -0.065 0.303 -0.12 0.46 -0.175 l 0.091 -0.032 l 0.096 -0.034 c 0.148 -0.047 0.297 -0.087 0.474 -0.132 c 0.064 -0.016 0.129 -0.033 0.194 -0.048 c 0.144 -0.032 0.289 -0.057 0.437 -0.081 c 0.082 -0.013 0.164 -0.025 0.243 -0.035 c 0.14 -0.017 0.28 -0.03 0.424 -0.04 c 0.089 -0.006 0.179 -0.01 0.266 -0.013 c 0.082 -0.002 0.164 -0.004 0.246 -0.004 l 0.159 0.002 c 0.098 0.002 0.196 0.008 0.291 0.014 c 0.128 0.008 0.256 0.017 0.385 0.032 c 0.103 0.012 0.204 0.029 0.306 0.045 c 0.121 0.019 0.242 0.038 0.365 0.064 c 0.095 0.02 0.189 0.045 0.283 0.07 l 0.081 0.021 c 0.098 0.025 0.196 0.049 0.294 0.079 c 0.09 0.028 0.178 0.061 0.267 0.094 l 0.064 0.023 l 0.104 0.037 c 0.07 0.025 0.14 0.049 0.209 0.078 c 0.088 0.037 0.174 0.08 0.261 0.121 l 0.079 0.038 l 0.142 0.067 c 0.047 0.022 0.095 0.043 0.142 0.068 c 0.091 0.048 0.178 0.104 0.266 0.158 l 0.083 0.051 l 0.169 0.101 l 0.082 0.048 c 0.113 0.075 0.221 0.161 0.33 0.244 l 0.044 0.034 c 0.061 0.047 0.123 0.092 0.185 0.137 l 0.012 0.006 c 0.193 0.158 0.374 0.322 0.539 0.486 l 6.742 6.742 c 0.165 0.165 0.328 0.346 0.461 0.507 l 0.033 0.046 c 0.044 0.061 0.089 0.123 0.136 0.184 l 0.038 0.049 c 0.082 0.107 0.165 0.212 0.235 0.317 l 0.055 0.093 l 0.098 0.165 l 0.053 0.087 c 0.053 0.087 0.108 0.173 0.156 0.263 c 0.025 0.047 0.046 0.096 0.069 0.144 l 0.066 0.14 l 0.038 0.08 c 0.042 0.086 0.084 0.172 0.121 0.26 c 0.028 0.067 0.051 0.135 0.076 0.203 l 0.039 0.108 l 0.024 0.066 c 0.032 0.089 0.066 0.177 0.094 0.269 c 0.029 0.094 0.052 0.189 0.077 0.285 l 0.021 0.08 c 0.025 0.098 0.052 0.196 0.073 0.297 c 0.025 0.119 0.044 0.239 0.063 0.359 c 0.016 0.103 0.033 0.206 0.046 0.312 c 0.015 0.127 0.024 0.255 0.032 0.381 c 0.006 0.097 0.012 0.194 0.014 0.292 c 0.003 0.135 0.002 0.269 -0.002 0.401 c -0.003 0.091 -0.007 0.182 -0.013 0.273 c -0.009 0.14 -0.022 0.28 -0.039 0.416 c -0.01 0.084 -0.023 0.167 -0.036 0.252 c -0.023 0.145 -0.049 0.289 -0.08 0.432 c -0.015 0.067 -0.032 0.133 -0.055 0.223 c -0.038 0.149 -0.078 0.298 -0.124 0.443 l -0.036 0.103 l -0.032 0.091 c -0.054 0.152 -0.109 0.304 -0.168 0.442 l -0.023 0.05 l -0.057 0.122 c -0.071 0.156 -0.144 0.311 -0.221 0.45 l -0.08 0.136 c -0.084 0.146 -0.169 0.292 -0.263 0.432 c -0.029 0.038 -0.057 0.077 -0.084 0.115 c -0.141 0.202 -0.259 0.357 -0.369 0.489 c -0.172 0.206 -0.31 0.359 -0.434 0.484 l -0.028 0.028 l -0.028 0.029 c -3.157 3.318 -7.947 5.145 -13.488 5.145 c -10.522 0 -22.667 -6.398 -34.214 -18.032 C 9.524 57.092 3.126 44.852 3.238 34.267 c 0.057 -5.423 1.884 -10.118 5.144 -13.22 l 0.029 -0.028 l 0.028 -0.028 c 0.126 -0.126 0.275 -0.26 0.484 -0.434 c 0.132 -0.111 0.288 -0.228 0.49 -0.369 c 0.037 -0.026 0.074 -0.053 0.113 -0.082 c 0.142 -0.095 0.289 -0.181 0.439 -0.267 l 0.117 -0.071 c 0.153 -0.084 0.309 -0.157 0.467 -0.23 l 0.119 -0.056 l 0.036 -0.017 c 0.151 -0.065 0.304 -0.12 0.46 -0.175 l 0.091 -0.032 l 0.096 -0.034 c 0.148 -0.047 0.297 -0.087 0.472 -0.132 c 0.065 -0.016 0.13 -0.033 0.196 -0.048 c 0.144 -0.032 0.289 -0.057 0.437 -0.081 c 0.082 -0.013 0.164 -0.025 0.243 -0.035 c 0.14 -0.017 0.28 -0.03 0.424 -0.04 c 0.089 -0.006 0.179 -0.01 0.266 -0.013 C 13.472 18.874 13.554 18.872 13.636 18.872 M 13.636 15.635 c -0.114 0 -0.227 0.002 -0.341 0.005 c -0.129 0.004 -0.258 0.01 -0.388 0.018 c -0.202 0.013 -0.403 0.032 -0.604 0.057 c -0.118 0.015 -0.236 0.032 -0.353 0.051 c -0.21 0.033 -0.418 0.071 -0.626 0.116 c -0.106 0.023 -0.211 0.05 -0.316 0.077 c -0.217 0.055 -0.432 0.113 -0.645 0.182 c -0.092 0.03 -0.183 0.063 -0.274 0.095 c -0.222 0.078 -0.443 0.16 -0.661 0.254 c -0.077 0.033 -0.152 0.071 -0.228 0.105 c -0.227 0.104 -0.453 0.212 -0.673 0.333 c -0.06 0.033 -0.117 0.07 -0.176 0.104 c -0.233 0.134 -0.463 0.272 -0.687 0.424 c -0.037 0.025 -0.071 0.053 -0.107 0.079 c -0.242 0.169 -0.48 0.346 -0.71 0.538 l 0 0 c -0.238 0.199 -0.472 0.405 -0.696 0.628 c -9.348 8.894 -10.184 29.495 12.82 52.327 C 32.603 84.763 45.44 90 55.465 90 c 6.766 0 12.249 -2.384 15.833 -6.151 c 0.223 -0.223 0.429 -0.458 0.628 -0.696 c 0 0 0 0 0 0 c 0.191 -0.229 0.367 -0.466 0.536 -0.707 c 0.026 -0.037 0.055 -0.073 0.081 -0.11 c 0.152 -0.223 0.289 -0.452 0.422 -0.683 c 0.035 -0.06 0.072 -0.119 0.106 -0.18 c 0.12 -0.22 0.228 -0.444 0.331 -0.67 c 0.036 -0.077 0.074 -0.154 0.107 -0.232 c 0.093 -0.217 0.175 -0.436 0.252 -0.657 c 0.033 -0.092 0.067 -0.184 0.096 -0.277 c 0.068 -0.212 0.127 -0.426 0.181 -0.642 c 0.027 -0.106 0.054 -0.212 0.078 -0.319 c 0.045 -0.207 0.083 -0.414 0.116 -0.623 c 0.019 -0.119 0.036 -0.238 0.051 -0.357 c 0.025 -0.2 0.043 -0.4 0.057 -0.601 c 0.009 -0.13 0.015 -0.26 0.019 -0.391 c 0.006 -0.192 0.007 -0.384 0.002 -0.577 c -0.003 -0.14 -0.011 -0.279 -0.02 -0.419 c -0.012 -0.184 -0.026 -0.366 -0.047 -0.549 c -0.017 -0.149 -0.04 -0.297 -0.064 -0.445 c -0.028 -0.173 -0.056 -0.346 -0.092 -0.518 c -0.033 -0.156 -0.073 -0.311 -0.113 -0.466 c -0.042 -0.162 -0.083 -0.325 -0.133 -0.485 c -0.05 -0.162 -0.11 -0.321 -0.168 -0.481 c -0.055 -0.151 -0.107 -0.302 -0.169 -0.451 c -0.069 -0.167 -0.149 -0.329 -0.228 -0.493 c -0.066 -0.138 -0.128 -0.277 -0.2 -0.412 c -0.092 -0.172 -0.196 -0.339 -0.299 -0.507 c -0.074 -0.121 -0.141 -0.244 -0.22 -0.363 c -0.124 -0.186 -0.262 -0.364 -0.399 -0.544 C 72.14 69.9 72.075 69.802 72 69.71 c -0.219 -0.268 -0.452 -0.528 -0.702 -0.777 l -6.742 -6.742 c -0.25 -0.25 -0.51 -0.483 -0.777 -0.702 c -0.092 -0.075 -0.189 -0.139 -0.282 -0.211 c -0.18 -0.137 -0.359 -0.276 -0.545 -0.4 c -0.118 -0.079 -0.241 -0.146 -0.361 -0.219 c -0.168 -0.103 -0.336 -0.207 -0.508 -0.3 c -0.135 -0.072 -0.274 -0.134 -0.411 -0.199 c -0.164 -0.078 -0.327 -0.159 -0.494 -0.228 c -0.149 -0.062 -0.3 -0.114 -0.452 -0.169 c -0.159 -0.058 -0.318 -0.117 -0.479 -0.167 c -0.162 -0.05 -0.325 -0.091 -0.489 -0.134 c -0.154 -0.04 -0.307 -0.08 -0.462 -0.112 c -0.173 -0.036 -0.347 -0.065 -0.522 -0.093 c -0.147 -0.023 -0.294 -0.046 -0.442 -0.063 c -0.184 -0.021 -0.367 -0.036 -0.551 -0.047 c -0.139 -0.009 -0.278 -0.016 -0.418 -0.02 c -0.079 -0.002 -0.158 -0.003 -0.238 -0.003 c -0.114 0 -0.227 0.002 -0.341 0.005 c -0.129 0.004 -0.258 0.01 -0.388 0.018 c -0.202 0.013 -0.403 0.032 -0.604 0.057 c -0.118 0.015 -0.236 0.032 -0.353 0.051 c -0.21 0.033 -0.418 0.071 -0.626 0.116 c -0.106 0.023 -0.211 0.05 -0.316 0.077 c -0.217 0.055 -0.432 0.113 -0.645 0.182 c -0.092 0.029 -0.183 0.063 -0.274 0.095 c -0.222 0.078 -0.443 0.16 -0.661 0.254 c -0.077 0.033 -0.152 0.071 -0.228 0.105 c -0.227 0.104 -0.453 0.212 -0.673 0.333 c -0.06 0.033 -0.117 0.07 -0.176 0.104 c -0.233 0.134 -0.463 0.272 -0.687 0.424 c -0.037 0.025 -0.071 0.053 -0.107 0.079 c -0.242 0.169 -0.48 0.346 -0.71 0.538 l 0 0 c -0.238 0.199 -0.472 0.405 -0.696 0.628 l -4.561 4.561 c -0.292 0.292 -0.675 0.438 -1.058 0.438 s -0.766 -0.146 -1.058 -0.438 L 23.248 47.037 c -0.584 -0.584 -0.584 -1.532 0 -2.116 l 4.561 -4.561 c 0.223 -0.223 0.429 -0.458 0.628 -0.696 c 0 0 0 0 0 0 c 0.191 -0.229 0.367 -0.466 0.536 -0.707 c 0.026 -0.037 0.055 -0.073 0.081 -0.11 c 0.152 -0.223 0.289 -0.452 0.422 -0.683 c 0.035 -0.06 0.072 -0.119 0.106 -0.18 c 0.12 -0.22 0.228 -0.444 0.331 -0.67 c 0.036 -0.077 0.074 -0.154 0.107 -0.232 c 0.093 -0.217 0.175 -0.436 0.252 -0.657 c 0.033 -0.092 0.067 -0.184 0.096 -0.277 c 0.068 -0.212 0.127 -0.426 0.181 -0.642 c 0.027 -0.106 0.054 -0.212 0.077 -0.319 c 0.045 -0.207 0.083 -0.414 0.116 -0.623 c 0.019 -0.119 0.036 -0.238 0.051 -0.357 c 0.025 -0.2 0.043 -0.4 0.057 -0.601 c 0.009 -0.13 0.015 -0.26 0.019 -0.391 c 0.006 -0.192 0.007 -0.384 0.002 -0.577 c -0.003 -0.14 -0.011 -0.279 -0.02 -0.419 c -0.012 -0.184 -0.026 -0.366 -0.047 -0.549 c -0.017 -0.149 -0.04 -0.297 -0.064 -0.445 c -0.028 -0.173 -0.056 -0.346 -0.092 -0.518 c -0.033 -0.156 -0.073 -0.311 -0.113 -0.466 c -0.042 -0.162 -0.083 -0.325 -0.133 -0.485 c -0.05 -0.162 -0.11 -0.321 -0.168 -0.481 c -0.055 -0.151 -0.107 -0.302 -0.169 -0.451 c -0.069 -0.167 -0.149 -0.329 -0.228 -0.493 c -0.066 -0.138 -0.128 -0.277 -0.2 -0.412 c -0.092 -0.172 -0.196 -0.339 -0.299 -0.507 c -0.074 -0.121 -0.141 -0.244 -0.22 -0.363 c -0.124 -0.186 -0.262 -0.364 -0.399 -0.544 c -0.072 -0.094 -0.136 -0.192 -0.212 -0.284 c -0.219 -0.268 -0.452 -0.528 -0.702 -0.777 l -6.742 -6.742 c -0.25 -0.25 -0.51 -0.483 -0.777 -0.702 c -0.092 -0.075 -0.189 -0.139 -0.282 -0.211 c -0.18 -0.137 -0.359 -0.276 -0.545 -0.4 c -0.118 -0.079 -0.241 -0.146 -0.361 -0.219 c -0.168 -0.103 -0.336 -0.207 -0.508 -0.3 c -0.135 -0.072 -0.274 -0.134 -0.411 -0.199 c -0.164 -0.078 -0.327 -0.159 -0.494 -0.228 c -0.149 -0.062 -0.3 -0.114 -0.452 -0.169 c -0.159 -0.058 -0.318 -0.117 -0.479 -0.167 c -0.162 -0.05 -0.325 -0.091 -0.489 -0.134 c -0.154 -0.04 -0.307 -0.08 -0.462 -0.112 c -0.173 -0.036 -0.347 -0.065 -0.522 -0.093 c -0.147 -0.023 -0.294 -0.046 -0.442 -0.063 c -0.184 -0.021 -0.367 -0.036 -0.551 -0.047 c -0.139 -0.009 -0.278 -0.016 -0.418 -0.02 C 13.794 15.636 13.715 15.635 13.636 15.635 L 13.636 15.635 z" style="stroke: none; stroke-width: 1; stroke-dasharray: none; stroke-linecap: butt; stroke-linejoin: miter; stroke-miterlimit: 10; fill: rgb(0,0,0); fill-rule: nonzero; opacity: 1;" transform=" matrix(1 0 0 1 0 0) " stroke-linecap="round" />
	<path d="M 41.653 49.848 c -0.391 0 -0.774 -0.152 -1.061 -0.439 c -0.426 -0.426 -0.556 -1.064 -0.33 -1.623 l 4.215 -10.424 c -5.871 -9.598 -4.413 -22.167 3.599 -30.178 c 9.579 -9.58 25.164 -9.578 34.741 0 c 9.578 9.578 9.578 25.163 0 34.741 c -8.01 8.011 -20.578 9.469 -30.175 3.599 l -10.427 4.214 C 42.032 49.812 41.842 49.848 41.653 49.848 z M 52.794 42.345 c 0.289 0 0.576 0.083 0.824 0.247 c 8.494 5.583 19.88 4.408 27.077 -2.788 c 8.408 -8.409 8.408 -22.09 0 -30.499 c -8.407 -8.407 -22.09 -8.408 -30.499 0 c -7.198 7.199 -8.371 18.587 -2.787 27.08 c 0.271 0.412 0.322 0.93 0.138 1.387 l -3.179 7.861 l 7.863 -3.178 C 52.413 42.381 52.604 42.345 52.794 42.345 z" style="stroke: none; stroke-width: 1; stroke-dasharray: none; stroke-linecap: butt; stroke-linejoin: miter; stroke-miterlimit: 10; fill: rgb(0,0,0); fill-rule: nonzero; opacity: 1;" transform=" matrix(1 0 0 1 0 0) " stroke-linecap="round" />
	<path d="M 51.452 29.39 c 0 -0.659 0.098 -1.34 0.293 -2.043 c 0.171 -0.62 0.435 -1.304 0.791 -2.051 c 0.645 -1.353 1.582 -2.712 2.813 -4.08 h -5.237 V 19.04 h 7.881 v 2.073 c -1.123 1.25 -1.987 2.566 -2.592 3.948 c -0.328 0.752 -0.574 1.455 -0.74 2.109 c -0.19 0.757 -0.285 1.497 -0.285 2.219 H 51.452 z" style="stroke: none; stroke-width: 1; stroke-dasharray: none; stroke-linecap: butt; stroke-linejoin: miter; stroke-miterlimit: 10; fill: rgb(0,0,0); fill-rule: nonzero; opacity: 1;" transform=" matrix(1 0 0 1 0 0) " stroke-linecap="round" />
	<path d="M 59.728 30.781 l -1.186 0 l 3.734 -12.459 h 1.201 L 59.728 30.781 z" style="stroke: none; stroke-width: 1; stroke-dasharray: none; stroke-linecap: butt; stroke-linejoin: miter; stroke-miterlimit: 10; fill: rgb(0,0,0); fill-rule: nonzero; opacity: 1;" transform=" matrix(1 0 0 1 0 0) " stroke-linecap="round" />
	<path d="M 63.924 29.39 c 0 -0.405 0.054 -0.796 0.162 -1.172 c 0.092 -0.337 0.234 -0.676 0.424 -1.018 c 0.338 -0.635 0.867 -1.235 1.59 -1.802 c 0.234 -0.186 0.577 -0.431 1.029 -0.736 c 0.451 -0.305 0.779 -0.539 0.984 -0.7 c 0.347 -0.288 0.605 -0.58 0.777 -0.875 c 0.17 -0.295 0.256 -0.599 0.256 -0.912 c 0 -0.459 -0.111 -0.812 -0.333 -1.058 c -0.223 -0.247 -0.541 -0.37 -0.956 -0.37 c -0.454 0 -0.8 0.163 -1.036 0.487 c -0.237 0.325 -0.355 0.809 -0.355 1.454 l -2.432 -0.007 c 0 -1.187 0.351 -2.14 1.051 -2.86 c 0.701 -0.72 1.63 -1.08 2.787 -1.08 c 1.152 0 2.085 0.309 2.798 0.927 s 1.069 1.424 1.069 2.42 c 0 0.562 -0.111 1.071 -0.333 1.527 c -0.223 0.457 -0.6 0.932 -1.132 1.425 c -0.269 0.254 -0.737 0.613 -1.406 1.077 s -1.146 0.859 -1.429 1.187 h 4.212 v 2.087 H 63.924 z" style="stroke: none; stroke-width: 1; stroke-dasharray: none; stroke-linecap: butt; stroke-linejoin: miter; stroke-miterlimit: 10; fill: rgb(0,0,0); fill-rule: nonzero; opacity: 1;" transform=" matrix(1 0 0 1 0 0) " stroke-linecap="round" />
	<path d="M 77.123 29.39 v -2.087 H 72.7 v -2.021 l 4.021 -6.24 h 2.952 v 6.357 h 1.113 v 1.904 h -1.113 v 2.087 H 77.123 z M 77.189 25.456 v -4.074 l -2.637 4.079 L 77.189 25.456 z" style="stroke: none; stroke-width: 1; stroke-dasharray: none; stroke-linecap: butt; stroke-linejoin: miter; stroke-miterlimit: 10; fill: rgb(0,0,0); fill-rule: nonzero; opacity: 1;" transform=" matrix(1 0 0 1 0 0) " stroke-linecap="round" />
</g>
</svg>