<svg width="120" height="120" viewBox="0 0 120 120" fill="none" xmlns="http://www.w3.org/2000/svg">
<circle cx="60" cy="60" r="60" fill="white"/>
<mask id="mask0_143_157" style="mask-type:luminance" maskUnits="userSpaceOnUse" x="39" y="18" width="62" height="83">
<path d="M39.4902 18H100.808V100.802H39.4902V18Z" fill="white"/>
</mask>
<g mask="url(#mask0_143_157)">
<path d="M51.9805 54.1146L77.5273 89H51.9805V54.1146ZM40.168 18V100.802H100.803L40.168 18Z" fill="#F6B82F"/>
</g>
<path d="M44.6035 97.6771H40.166V96.5H44.6035V97.6771Z" fill="#495C5C"/>
<path d="M44.6035 93.6718H40.166V92.4895H44.6035V93.6718Z" fill="#495C5C"/>
<path d="M44.6035 89.6613H40.166V88.479H44.6035V89.6613Z" fill="#495C5C"/>
<path d="M44.6035 85.651H40.166V84.4739H44.6035V85.651Z" fill="#495C5C"/>
<path d="M47.3848 81.6405H40.166V80.4634H47.3848V81.6405Z" fill="#495C5C"/>
<path d="M44.6035 77.6354H40.166V76.4531H44.6035V77.6354Z" fill="#495C5C"/>
<path d="M44.6035 73.6249H40.166V72.4426H44.6035V73.6249Z" fill="#495C5C"/>
<path d="M44.6035 69.6146H40.166V68.4375H44.6035V69.6146Z" fill="#495C5C"/>
<path d="M44.6035 65.6093H40.166V64.427H44.6035V65.6093Z" fill="#495C5C"/>
<path d="M47.3848 61.599H40.166V60.4219H47.3848V61.599Z" fill="#495C5C"/>
<path d="M44.6035 57.5885H40.166V56.4114H44.6035V57.5885Z" fill="#495C5C"/>
<path d="M44.6035 53.5832H40.166V52.4009H44.6035V53.5832Z" fill="#495C5C"/>
<path d="M44.6035 49.5729H40.166V48.3906H44.6035V49.5729Z" fill="#495C5C"/>
<path d="M44.6035 45.5624H40.166V44.3801H44.6035V45.5624Z" fill="#495C5C"/>
<path d="M47.3848 41.5521H40.166V40.375H47.3848V41.5521Z" fill="#495C5C"/>
<path d="M44.6035 37.5468H40.166V36.3645H44.6035V37.5468Z" fill="#495C5C"/>
<mask id="mask1_143_157" style="mask-type:luminance" maskUnits="userSpaceOnUse" x="20" y="39" width="15" height="43">
<path d="M20 39.1665H34.1563V81.8332H20V39.1665Z" fill="white"/>
</mask>
<g mask="url(#mask1_143_157)">
<path d="M34.0723 42.8748C34.0723 41.0727 32.6087 39.6091 30.8014 39.6091H23.2702C21.4629 39.6091 19.9941 41.0727 19.9941 42.8748V80.7393H34.0723V42.8748Z" fill="#3C7FCA"/>
</g>
<path d="M38.3848 46.2135C38.2285 45.4739 37.9264 44.8072 37.5566 44.2603C37.1816 43.7083 36.7389 43.2708 36.3014 42.9374C35.8691 42.5989 35.4316 42.3853 35.0723 42.2291C34.89 42.1458 34.6712 42.0833 34.5098 42.0312C34.3171 41.9687 34.2702 41.9635 34.1816 41.9426C34.0358 41.9062 33.9577 41.8853 33.9577 41.8853C33.9421 41.8853 33.9316 41.8853 33.916 41.8801C34.015 42.1926 34.0723 42.526 34.0723 42.8749V45.2655C34.2077 45.3124 34.3483 45.3697 34.4941 45.4687C34.7025 45.5937 34.9264 45.7708 35.1243 46.0103C35.3223 46.2499 35.4941 46.5468 35.6035 46.8905C35.6504 47.0676 35.6973 47.2499 35.7077 47.4374C35.7129 47.5364 35.7285 47.6353 35.7181 47.7343L35.7129 47.8853C35.7129 47.9322 35.7025 48.026 35.6973 48.0989C35.5671 49.3124 35.4316 50.6041 35.2962 51.8958C34.7493 57.0676 34.2025 62.2395 34.2025 62.2395C34.166 62.6249 34.4264 62.9895 34.8118 63.0624C35.2233 63.1405 35.6191 62.8749 35.7025 62.4635C35.7025 62.4635 36.6816 57.3541 37.6608 52.2447C37.9056 50.9687 38.1504 49.6926 38.3796 48.4947C38.3952 48.4166 38.4108 48.3593 38.4264 48.2603L38.4629 47.9635C38.4941 47.7655 38.4941 47.5676 38.4993 47.3697C38.5046 46.9739 38.4629 46.5885 38.3848 46.2135Z" fill="#2B2A30"/>
<path d="M23.2715 39.6094H30.8027C30.9069 39.6094 31.0111 39.6146 31.11 39.625V35.3802C31.11 33.1354 29.2871 31.3125 27.0371 31.3125C24.7871 31.3125 22.959 33.1354 22.959 35.3802V39.625C23.0632 39.6146 23.1673 39.6094 23.2715 39.6094Z" fill="#2B2A30"/>
<mask id="mask2_143_157" style="mask-type:luminance" maskUnits="userSpaceOnUse" x="20" y="80" width="15" height="17">
<path d="M20 80.5H34.1563V96.5H20V80.5Z" fill="white"/>
</mask>
<g mask="url(#mask2_143_157)">
<path d="M29.8483 95.6093H24.2181L19.9941 80.7395H34.0723L29.8483 95.6093Z" fill="#2B2A30"/>
</g>
<path d="M27.9108 99.9271H26.1608L24.8535 95.6094H29.2181L27.9108 99.9271Z" fill="#E3EFF1"/>
<mask id="mask3_143_157" style="mask-type:luminance" maskUnits="userSpaceOnUse" x="26" y="99" width="3" height="2">
<path d="M26.1562 99.1665H28.8229V100.802H26.1562V99.1665Z" fill="white"/>
</mask>
<g mask="url(#mask3_143_157)">
<path d="M27.0371 100.802C27.5215 100.802 27.9121 100.406 27.9121 99.927H26.1621C26.1621 100.406 26.5527 100.802 27.0371 100.802Z" fill="#2B2A30"/>
</g>
<mask id="mask4_143_157" style="mask-type:luminance" maskUnits="userSpaceOnUse" x="62" y="84" width="15" height="17">
<path d="M62.1562 84.5H76.8229V100.802H62.1562V84.5Z" fill="white"/>
</mask>
<g mask="url(#mask4_143_157)">
<path d="M63.724 100.802L62.8125 100.276L66.4375 84.5156L67.2396 86.6042L69.4479 86.2552L70.3021 88.3698L72.5573 88.0521L73.3646 90.1354L75.5729 89.7865L63.724 100.802Z" fill="#F5F5F4"/>
</g>
<path d="M70.3171 88.3645L72.5566 88.052L94.5671 49.9739L91.4577 48.177L69.4473 86.2551L70.2962 88.3541L70.3171 88.3645Z" fill="#F57B33"/>
<path d="M67.2552 86.604L69.4479 86.2551L91.4583 48.1769L89.2552 46.9061C88.8073 46.6509 88.2344 46.8019 87.9792 47.2498L66.4375 84.5155L67.2344 86.5884L67.2552 86.604Z" fill="#F89A3D"/>
<path d="M96.765 51.2395L94.5671 49.9739L72.5566 88.052L73.3535 90.1197L73.3796 90.1301L75.5723 89.7864L97.1087 52.5155C97.3691 52.0728 97.2181 51.4999 96.765 51.2395Z" fill="#CB7B2D"/>
<mask id="mask5_143_157" style="mask-type:luminance" maskUnits="userSpaceOnUse" x="62" y="95" width="7" height="6">
<path d="M62.1562 95.1665H68.8229V100.802H62.1562V95.1665Z" fill="white"/>
</mask>
<g mask="url(#mask5_143_157)">
<path d="M67.5521 97.2394C67.1875 96.6717 66.6667 96.1665 66.0156 95.7863C65.3594 95.4113 64.6562 95.2134 63.9844 95.1821L62.8125 100.276L63.724 100.802L67.5521 97.2394Z" fill="#495C5C"/>
</g>
<path d="M93.6921 58.4375L84.5566 53.1667L84.8743 52.6094L94.0098 57.8802L93.6921 58.4375Z" fill="#F5F5F4"/>
</svg>
