<svg width="94" height="94" viewBox="0 0 94 94" fill="none" xmlns="http://www.w3.org/2000/svg">
<mask id="mask0_143_154" style="mask-type:luminance" maskUnits="userSpaceOnUse" x="0" y="0" width="94" height="94">
<path d="M0.710938 0.75H93.7161V93.7604H0.710938V0.75Z" fill="white"/>
</mask>
<g mask="url(#mask0_143_154)">
<mask id="mask1_143_154" style="mask-type:luminance" maskUnits="userSpaceOnUse" x="0" y="0" width="94" height="94">
<path d="M47.2109 0.75C21.5286 0.75 0.710938 21.5729 0.710938 47.2552C0.710938 72.9375 21.5286 93.7604 47.2109 93.7604C72.8984 93.7604 93.7161 72.9375 93.7161 47.2552C93.7161 21.5729 72.8984 0.75 47.2109 0.75Z" fill="white"/>
</mask>
<g mask="url(#mask1_143_154)">
<path d="M0.710938 0.75H93.7161V93.7604H0.710938V0.75Z" fill="white"/>
</g>
</g>
<mask id="mask2_143_154" style="mask-type:luminance" maskUnits="userSpaceOnUse" x="7" y="7" width="80" height="80">
<path d="M7.94531 7.98438H86.138V86.1823H7.94531V7.98438Z" fill="white"/>
</mask>
<g mask="url(#mask2_143_154)">
<path d="M86.4766 47.25C86.4766 48.5365 86.4141 49.8229 86.2839 51.099C86.1589 52.3802 85.9714 53.651 85.7214 54.9115C85.4714 56.1719 85.1589 57.4219 84.7839 58.651C84.4089 59.8802 83.9766 61.0885 83.487 62.276C82.9922 63.4688 82.4453 64.625 81.8359 65.7604C81.2318 66.8958 80.5703 67.9948 79.8568 69.0677C79.1432 70.1354 78.3776 71.1667 77.5599 72.1615C76.7474 73.1563 75.8828 74.1094 74.9766 75.0156C74.0651 75.9271 73.112 76.7865 72.1172 77.6042C71.1276 78.4219 70.0911 79.1875 69.0234 79.901C67.9557 80.6146 66.8516 81.276 65.7214 81.8802C64.5859 82.4896 63.4245 83.0365 62.237 83.526C61.0495 84.0208 59.8359 84.4531 58.6068 84.8281C57.3776 85.1979 56.1328 85.5104 54.8724 85.7604C53.6068 86.0156 52.3359 86.2031 51.0599 86.3281C49.7786 86.4531 48.4974 86.5156 47.2109 86.5156C45.9245 86.5156 44.6432 86.4531 43.362 86.3281C42.0807 86.2031 40.8099 86.0156 39.5495 85.7604C38.2891 85.5104 37.0443 85.1979 35.8099 84.8281C34.5807 84.4531 33.3724 84.0208 32.1849 83.526C30.9974 83.0365 29.8359 82.4896 28.7005 81.8802C27.5651 81.276 26.4661 80.6146 25.3932 79.901C24.3255 79.1875 23.2943 78.4219 22.2995 77.6042C21.3047 76.7865 20.3568 75.9271 19.4453 75.0156C18.5339 74.1094 17.6745 73.1563 16.8568 72.1615C16.0391 71.1667 15.2786 70.1354 14.5599 69.0677C13.8464 67.9948 13.1849 66.8958 12.5807 65.7604C11.9766 64.625 11.4245 63.4688 10.9349 62.276C10.4401 61.0885 10.0078 59.8802 9.63281 58.651C9.26302 57.4219 8.95052 56.1719 8.70052 54.9115C8.44531 53.651 8.25781 52.3802 8.13281 51.099C8.00781 49.8229 7.94531 48.5365 7.94531 47.25C7.94531 45.9635 8.00781 44.6823 8.13281 43.401C8.25781 42.125 8.44531 40.8542 8.70052 39.5938C8.95052 38.3281 9.26302 37.0833 9.63281 35.8542C10.0078 34.625 10.4401 33.4115 10.9349 32.224C11.4245 31.0365 11.9766 29.875 12.5807 28.7448C13.1849 27.6094 13.8464 26.5052 14.5599 25.4375C15.2786 24.3698 16.0391 23.3385 16.8568 22.3438C17.6745 21.349 18.5339 20.3958 19.4453 19.4896C20.3568 18.5781 21.3047 17.7135 22.2995 16.901C23.2943 16.0833 24.3255 15.3177 25.3932 14.6042C26.4661 13.8906 27.5651 13.2292 28.7005 12.625C29.8359 12.0156 30.9974 11.4687 32.1849 10.974C33.3724 10.4844 34.5807 10.0521 35.8099 9.67708C37.0443 9.30208 38.2891 8.98959 39.5495 8.73959C40.8099 8.48959 42.0807 8.30208 43.362 8.17708C44.6432 8.05208 45.9245 7.98438 47.2109 7.98438C48.4974 7.98438 49.7786 8.05208 51.0599 8.17708C52.3359 8.30208 53.6068 8.48959 54.8724 8.73959C56.1328 8.98959 57.3776 9.30208 58.6068 9.67708C59.8359 10.0521 61.0495 10.4844 62.237 10.974C63.4245 11.4687 64.5859 12.0156 65.7214 12.625C66.8516 13.2292 67.9557 13.8906 69.0234 14.6042C70.0911 15.3177 71.1276 16.0833 72.1172 16.901C73.112 17.7135 74.0651 18.5781 74.9766 19.4896C75.8828 20.3958 76.7474 21.349 77.5599 22.3438C78.3776 23.3385 79.1432 24.3698 79.8568 25.4375C80.5703 26.5052 81.2318 27.6094 81.8359 28.7448C82.4453 29.875 82.9922 31.0365 83.487 32.224C83.9766 33.4115 84.4089 34.625 84.7839 35.8542C85.1589 37.0833 85.4714 38.3281 85.7214 39.5938C85.9714 40.8542 86.1589 42.125 86.2839 43.401C86.4141 44.6823 86.4766 45.9635 86.4766 47.25Z" fill="white"/>
</g>
<mask id="mask3_143_154" style="mask-type:luminance" maskUnits="userSpaceOnUse" x="7" y="7" width="41" height="45">
<path d="M7.94531 7.98438H47.7474V51.3333H7.94531V7.98438Z" fill="white"/>
</mask>
<g mask="url(#mask3_143_154)">
<path d="M47.2109 7.98438C42.0807 7.98438 37.1693 8.96875 32.6745 10.7656L32.8724 11.1875C32.888 11.2188 32.9193 11.2396 32.9609 11.2448L34.3359 11.3594C34.4297 11.3698 34.4661 11.4792 34.3984 11.5365L33.362 12.3646C33.3307 12.3906 33.3151 12.4271 33.3255 12.4635L33.6276 13.6927C33.6484 13.776 33.5495 13.8437 33.4661 13.8021C33.4661 13.8021 32.5807 13.3177 32.2839 13.1563C32.2682 13.151 32.2474 13.1458 32.2318 13.1458C32.2161 13.1458 32.2005 13.151 32.1849 13.1563C31.888 13.3177 30.9974 13.8021 30.9974 13.8021C30.9141 13.8437 30.8151 13.776 30.8359 13.6927L31.138 12.4635C31.1484 12.4271 31.138 12.3906 31.1068 12.3646L30.3724 11.7708H30.3672C24.4193 14.6042 19.2839 18.901 15.4349 24.1771C15.4349 24.1771 15.4349 24.1823 15.4401 24.1823L16.1849 24.125C16.2266 24.1198 16.2578 24.099 16.2734 24.0625L16.8203 22.9063C16.8359 22.8698 16.8776 22.8542 16.9141 22.849C16.9505 22.8542 16.987 22.8698 17.0078 22.9063L17.5495 24.0625C17.5651 24.099 17.6016 24.1198 17.6432 24.125L19.013 24.2396C19.112 24.25 19.1484 24.3594 19.0755 24.4167L18.0391 25.2448C18.013 25.2708 17.9974 25.3073 18.0078 25.3438L18.3099 26.5729C18.3307 26.6563 18.2318 26.724 18.1484 26.6823C18.1484 26.6823 17.2578 26.1979 16.9609 26.0365C16.9453 26.0313 16.9297 26.026 16.9141 26.026C16.8984 26.026 16.8776 26.0313 16.8672 26.0365C16.5703 26.1979 15.6797 26.6823 15.6797 26.6823C15.5964 26.724 15.4974 26.6563 15.5182 26.5729L15.8203 25.3438C15.8307 25.3073 15.8151 25.2708 15.7839 25.2448L15.0807 24.6771C14.2318 25.875 13.4505 27.1354 12.7422 28.4323L13.9089 28.5365C14.0026 28.5417 14.0443 28.651 13.9714 28.7083L12.9349 29.5417C12.9036 29.5625 12.8932 29.599 12.8984 29.6354L13.2057 30.8646C13.2266 30.9531 13.1224 31.0208 13.0391 30.974C13.0391 30.974 12.138 30.4896 11.8411 30.3281C11.8255 30.3229 11.8099 30.3177 11.7943 30.3177C11.7839 30.3177 11.7786 30.3229 11.7682 30.3229C10.1224 33.7656 8.96615 37.4792 8.38281 41.3802L8.28385 42.0469C8.0599 43.75 7.94531 45.4896 7.94531 47.25C7.94531 48.25 7.98177 49.2344 8.05469 50.2135H47.2109V7.98438ZM13.9714 45.8802L12.9349 46.7135C12.9036 46.7344 12.8932 46.776 12.8984 46.8073L13.2057 48.0417C13.2266 48.125 13.1224 48.1927 13.0391 48.1458C13.0391 48.1458 12.1536 47.6615 11.8568 47.5052C11.8411 47.4948 11.8255 47.4948 11.8047 47.4948C11.7891 47.4948 11.7734 47.4948 11.7578 47.5052C11.4609 47.6615 10.5703 48.1458 10.5703 48.1458C10.4922 48.1927 10.388 48.125 10.4089 48.0417L10.7161 46.8073C10.7214 46.776 10.7109 46.7344 10.6797 46.7135L9.64323 45.8802C9.57031 45.8229 9.61198 45.7135 9.70573 45.7083L11.0807 45.5885C11.1172 45.5885 11.1536 45.5625 11.1693 45.5313L11.7161 44.375C11.7318 44.3333 11.7682 44.3177 11.8047 44.3177C11.8464 44.3177 11.8828 44.3333 11.8984 44.375L12.4453 45.5313C12.4609 45.5625 12.4974 45.5885 12.5339 45.5885L13.9089 45.7083C14.0026 45.7135 14.0443 45.8229 13.9714 45.8802ZM13.9714 37.2969L12.9349 38.125C12.9036 38.151 12.8932 38.1875 12.8984 38.224L13.2057 39.4531C13.2266 39.5365 13.1224 39.6042 13.0391 39.5625C13.0391 39.5625 12.1536 39.0781 11.8568 38.9167C11.8411 38.9063 11.8255 38.9063 11.8047 38.9063C11.7891 38.9063 11.7734 38.9063 11.7578 38.9167C11.4609 39.0781 10.5703 39.5625 10.5703 39.5625C10.4922 39.6042 10.388 39.5365 10.4089 39.4531L10.7161 38.224C10.7214 38.1875 10.7109 38.151 10.6797 38.125L9.64323 37.2969C9.57031 37.2344 9.61198 37.1302 9.70573 37.1198L11.0807 37.0052C11.1172 37 11.1536 36.9792 11.1693 36.9427L11.7161 35.7865C11.7318 35.75 11.7682 35.7292 11.8047 35.7292C11.8464 35.7292 11.8828 35.75 11.8984 35.7865L12.4453 36.9427C12.4609 36.9792 12.4974 37 12.5339 37.0052L13.9089 37.1198C14.0026 37.1302 14.0443 37.2344 13.9714 37.2969ZM19.0755 41.5885L18.0391 42.4219C18.013 42.4427 17.9974 42.4792 18.0078 42.5156L18.3099 43.7448C18.3307 43.8333 18.2318 43.8958 18.1484 43.8542C18.1484 43.8542 17.2578 43.3698 16.9609 43.2083C16.9453 43.2031 16.9297 43.1979 16.9141 43.1979C16.8984 43.1979 16.8776 43.2031 16.8672 43.2083C16.5703 43.3698 15.6797 43.8542 15.6797 43.8542C15.5964 43.8958 15.4974 43.8333 15.5182 43.7448L15.8203 42.5156C15.8307 42.4792 15.8151 42.4427 15.7839 42.4219L14.7474 41.5885C14.6797 41.5313 14.7161 41.4219 14.8099 41.4115L16.1849 41.2969C16.2266 41.2917 16.2578 41.2708 16.2734 41.2396L16.8203 40.0781C16.8359 40.0417 16.8776 40.026 16.9141 40.0208C16.9505 40.026 16.987 40.0417 17.0078 40.0781L17.5495 41.2396C17.5651 41.2708 17.6016 41.2917 17.6432 41.2969L19.013 41.4115C19.112 41.4219 19.1484 41.5313 19.0755 41.5885ZM19.0755 33L18.0391 33.8333C18.013 33.8594 17.9974 33.8958 18.0078 33.9323L18.3099 35.1615C18.3307 35.2448 18.2318 35.3125 18.1484 35.2656C18.1484 35.2656 17.2578 34.7813 16.9609 34.625C16.9453 34.6146 16.9297 34.6146 16.9141 34.6146C16.8984 34.6146 16.8776 34.6146 16.8672 34.625C16.5703 34.7865 15.6797 35.2656 15.6797 35.2656C15.5964 35.3125 15.4974 35.2448 15.5182 35.1615L15.8203 33.9323C15.8307 33.8958 15.8151 33.8594 15.7839 33.8333L14.7474 33C14.6797 32.9427 14.7161 32.8333 14.8099 32.8281L16.1849 32.7135C16.2266 32.7083 16.2578 32.6823 16.2734 32.651L16.8203 31.4948C16.8359 31.4583 16.8776 31.4375 16.9141 31.4375C16.9505 31.4375 16.987 31.4583 17.0078 31.4948L17.5495 32.651C17.5651 32.6823 17.6016 32.7083 17.6432 32.7135L19.013 32.8281C19.112 32.8333 19.1484 32.9427 19.0755 33ZM24.1849 45.8802L23.1484 46.7135C23.1172 46.7344 23.1068 46.776 23.112 46.8073L23.4141 48.0417C23.4349 48.125 23.3359 48.1927 23.2526 48.1458C23.2526 48.1458 22.3672 47.6615 22.0703 47.5052C22.0547 47.4948 22.0391 47.4948 22.0182 47.4948C22.0026 47.4948 21.987 47.4948 21.9714 47.5052C21.6745 47.6615 20.7839 48.1458 20.7839 48.1458C20.7057 48.1927 20.6016 48.125 20.6224 48.0417L20.9297 46.8073C20.9349 46.776 20.9245 46.7344 20.8932 46.7135L19.8568 45.8802C19.7839 45.8229 19.8255 45.7135 19.9193 45.7083L21.2943 45.5885C21.3307 45.5885 21.3672 45.5625 21.3828 45.5313L21.9297 44.375C21.9453 44.3333 21.9818 44.3177 22.0182 44.3177C22.0599 44.3177 22.0964 44.3333 22.112 44.375L22.6589 45.5313C22.6745 45.5625 22.7109 45.5885 22.7474 45.5885L24.1224 45.7083C24.2161 45.7135 24.2578 45.8229 24.1849 45.8802ZM24.1849 37.2969L23.1484 38.125C23.1172 38.151 23.1068 38.1875 23.112 38.224L23.4141 39.4531C23.4349 39.5365 23.3359 39.6042 23.2526 39.5625C23.2526 39.5625 22.3672 39.0781 22.0703 38.9167C22.0547 38.9063 22.0391 38.9063 22.0182 38.9063C22.0026 38.9063 21.987 38.9063 21.9714 38.9167C21.6745 39.0781 20.7839 39.5625 20.7839 39.5625C20.7057 39.6042 20.6016 39.5365 20.6224 39.4531L20.9297 38.224C20.9349 38.1875 20.9245 38.151 20.8932 38.125L19.8568 37.2969C19.7839 37.2344 19.8255 37.1302 19.9193 37.1198L21.2943 37.0052C21.3307 37 21.3672 36.9792 21.3828 36.9427L21.9297 35.7865C21.9453 35.75 21.9818 35.7292 22.0182 35.7292C22.0599 35.7292 22.0964 35.75 22.112 35.7865L22.6589 36.9427C22.6745 36.9792 22.7109 37 22.7474 37.0052L24.1224 37.1198C24.2161 37.1302 24.2578 37.2344 24.1849 37.2969ZM24.1849 28.7083L23.1484 29.5417C23.1172 29.5625 23.1068 29.599 23.112 29.6354L23.4141 30.8646C23.4349 30.9531 23.3359 31.0208 23.2526 30.974C23.2526 30.974 22.3672 30.4896 22.0703 30.3281C22.0547 30.3229 22.0391 30.3177 22.0182 30.3177C22.0026 30.3177 21.987 30.3229 21.9714 30.3281C21.6745 30.4896 20.7839 30.974 20.7839 30.974C20.7057 31.0208 20.6016 30.9531 20.6224 30.8646L20.9297 29.6354C20.9349 29.599 20.9245 29.5625 20.8932 29.5417L19.8568 28.7083C19.7839 28.651 19.8255 28.5417 19.9193 28.5365L21.2943 28.4167C21.3307 28.4167 21.3672 28.3906 21.3828 28.3594L21.9297 27.1979C21.9453 27.1615 21.9818 27.1458 22.0182 27.1458C22.0599 27.1458 22.0964 27.1615 22.112 27.1979L22.6589 28.3594C22.6745 28.3906 22.7109 28.4167 22.7474 28.4167L24.1224 28.5365C24.2161 28.5417 24.2578 28.651 24.1849 28.7083ZM24.1849 20.1198L23.1484 20.9531C23.1172 20.9792 23.1068 21.0156 23.112 21.0521L23.4141 22.2813C23.4349 22.3646 23.3359 22.4323 23.2526 22.3854C23.2526 22.3854 22.3672 21.9063 22.0703 21.7448C22.0547 21.7344 22.0391 21.7344 22.0182 21.7344C22.0026 21.7344 21.987 21.7344 21.9714 21.7448C21.6745 21.9063 20.7839 22.3854 20.7839 22.3854C20.7057 22.4323 20.6016 22.3646 20.6224 22.2813L20.9297 21.0521C20.9349 21.0156 20.9245 20.9792 20.8932 20.9531L19.8568 20.1198C19.7839 20.0625 19.8255 19.9531 19.9193 19.9479L21.2943 19.8333C21.3307 19.8281 21.3672 19.8073 21.3828 19.7708L21.9297 18.6146C21.9453 18.5781 21.9818 18.5573 22.0182 18.5573C22.0599 18.5573 22.0964 18.5781 22.112 18.6146L22.6589 19.7708C22.6745 19.8073 22.7109 19.8281 22.7474 19.8333L24.1224 19.9479C24.2161 19.9531 24.2578 20.0625 24.1849 20.1198ZM29.2891 41.5885L28.2526 42.4219C28.2214 42.4427 28.2109 42.4792 28.2214 42.5156L28.5234 43.7448C28.5443 43.8333 28.4453 43.8958 28.362 43.8542C28.362 43.8542 27.4714 43.3698 27.1745 43.2083C27.1589 43.2031 27.1432 43.1979 27.1276 43.1979C27.112 43.1979 27.0911 43.2031 27.0807 43.2083C26.7839 43.3698 25.8932 43.8542 25.8932 43.8542C25.8099 43.8958 25.7109 43.8333 25.7318 43.7448L26.0339 42.5156C26.0443 42.4792 26.0286 42.4427 25.9974 42.4219L24.9609 41.5885C24.8932 41.5313 24.9297 41.4219 25.0234 41.4115L26.3984 41.2969C26.4401 41.2917 26.4714 41.2708 26.487 41.2396L27.0339 40.0781C27.0495 40.0417 27.0911 40.026 27.1276 40.0208C27.1641 40.026 27.2005 40.0417 27.2214 40.0781L27.763 41.2396C27.7786 41.2708 27.8151 41.2917 27.8568 41.2969L29.2266 41.4115C29.3255 41.4219 29.362 41.5313 29.2891 41.5885ZM29.2891 33L28.2526 33.8333C28.2214 33.8594 28.2109 33.8958 28.2214 33.9323L28.5234 35.1615C28.5443 35.2448 28.4453 35.3125 28.362 35.2656C28.362 35.2656 27.4714 34.7813 27.1745 34.625C27.1589 34.6146 27.1432 34.6146 27.1276 34.6146C27.112 34.6146 27.0911 34.6146 27.0807 34.625C26.7839 34.7865 25.8932 35.2656 25.8932 35.2656C25.8099 35.3125 25.7109 35.2448 25.7318 35.1615L26.0339 33.9323C26.0443 33.8958 26.0286 33.8594 25.9974 33.8333L24.9609 33C24.8932 32.9427 24.9297 32.8333 25.0234 32.8281L26.3984 32.7135C26.4401 32.7083 26.4714 32.6823 26.487 32.651L27.0339 31.4948C27.0495 31.4583 27.0911 31.4375 27.1276 31.4375C27.1641 31.4375 27.2005 31.4583 27.2214 31.4948L27.763 32.651C27.7786 32.6823 27.8151 32.7083 27.8568 32.7135L29.2266 32.8281C29.3255 32.8333 29.362 32.9427 29.2891 33ZM29.2891 24.4167L28.2526 25.2448C28.2214 25.2708 28.2109 25.3073 28.2214 25.3438L28.5234 26.5729C28.5443 26.6563 28.4453 26.724 28.362 26.6823C28.362 26.6823 27.4714 26.1979 27.1745 26.0365C27.1589 26.0313 27.1432 26.026 27.1276 26.026C27.112 26.026 27.0911 26.0313 27.0807 26.0365C26.7839 26.1979 25.8932 26.6823 25.8932 26.6823C25.8099 26.724 25.7109 26.6563 25.7318 26.5729L26.0339 25.3438C26.0443 25.3073 26.0286 25.2708 25.9974 25.2448L24.9609 24.4167C24.8932 24.3594 24.9297 24.25 25.0234 24.2396L26.3984 24.125C26.4401 24.1198 26.4714 24.099 26.487 24.0625L27.0339 22.9063C27.0495 22.8698 27.0911 22.8542 27.1276 22.849C27.1641 22.8542 27.2005 22.8698 27.2214 22.9063L27.763 24.0625C27.7786 24.099 27.8151 24.1198 27.8568 24.125L29.2266 24.2396C29.3255 24.25 29.362 24.3594 29.2891 24.4167ZM29.2891 15.8281L28.2526 16.6615C28.2214 16.6823 28.2109 16.7188 28.2214 16.7552L28.5234 17.9844C28.5443 18.0729 28.4453 18.1406 28.362 18.0937C28.362 18.0937 27.4714 17.6094 27.1745 17.4479C27.1589 17.4427 27.1432 17.4375 27.1276 17.4375C27.112 17.4375 27.0911 17.4427 27.0807 17.4479C26.7839 17.6094 25.8932 18.0937 25.8932 18.0937C25.8099 18.1406 25.7109 18.0729 25.7318 17.9844L26.0339 16.7552C26.0443 16.7188 26.0286 16.6823 25.9974 16.6615L24.9609 15.8281C24.8932 15.7708 24.9297 15.6615 25.0234 15.6563L26.3984 15.5365C26.4401 15.5365 26.4714 15.5104 26.487 15.4792L27.0339 14.3229C27.0495 14.2813 27.0911 14.2656 27.1276 14.2656C27.1641 14.2656 27.2005 14.2813 27.2214 14.3229L27.763 15.4792C27.7786 15.5104 27.8151 15.5365 27.8568 15.5365L29.2266 15.6563C29.3255 15.6615 29.362 15.7708 29.2891 15.8281ZM34.3984 45.8802L33.362 46.7135C33.3307 46.7344 33.3151 46.776 33.3255 46.8073L33.6276 48.0417C33.6484 48.125 33.5495 48.1927 33.4661 48.1458C33.4661 48.1458 32.5807 47.6615 32.2839 47.5052C32.2682 47.4948 32.2474 47.4948 32.2318 47.4948C32.2161 47.4948 32.2005 47.4948 32.1849 47.5052C31.888 47.6615 30.9974 48.1458 30.9974 48.1458C30.9141 48.1927 30.8151 48.125 30.8359 48.0417L31.138 46.8073C31.1484 46.776 31.138 46.7344 31.1068 46.7135L30.0703 45.8802C29.9974 45.8229 30.0339 45.7135 30.1328 45.7083L31.5026 45.5885C31.5443 45.5885 31.5807 45.5625 31.5964 45.5313L32.138 44.375C32.1589 44.3333 32.1953 44.3177 32.2318 44.3177C32.2734 44.3177 32.3099 44.3333 32.3255 44.375L32.8724 45.5313C32.888 45.5625 32.9193 45.5885 32.9609 45.5885L34.3359 45.7083C34.4297 45.7135 34.4661 45.8229 34.3984 45.8802ZM34.3984 37.2969L33.362 38.125C33.3307 38.151 33.3151 38.1875 33.3255 38.224L33.6276 39.4531C33.6484 39.5365 33.5495 39.6042 33.4661 39.5625C33.4661 39.5625 32.5807 39.0781 32.2839 38.9167C32.2682 38.9063 32.2474 38.9063 32.2318 38.9063C32.2161 38.9063 32.2005 38.9063 32.1849 38.9167C31.888 39.0781 30.9974 39.5625 30.9974 39.5625C30.9141 39.6042 30.8151 39.5365 30.8359 39.4531L31.138 38.224C31.1484 38.1875 31.138 38.151 31.1068 38.125L30.0703 37.2969C29.9974 37.2344 30.0339 37.1302 30.1328 37.1198L31.5026 37.0052C31.5443 37 31.5807 36.9792 31.5964 36.9427L32.138 35.7865C32.1589 35.75 32.1953 35.7292 32.2318 35.7292C32.2734 35.7292 32.3099 35.75 32.3255 35.7865L32.8724 36.9427C32.888 36.9792 32.9193 37 32.9609 37.0052L34.3359 37.1198C34.4297 37.1302 34.4661 37.2344 34.3984 37.2969ZM34.3984 28.7083L33.362 29.5417C33.3307 29.5625 33.3151 29.599 33.3255 29.6354L33.6276 30.8646C33.6484 30.9531 33.5495 31.0208 33.4661 30.974C33.4661 30.974 32.5807 30.4896 32.2839 30.3281C32.2682 30.3229 32.2474 30.3177 32.2318 30.3177C32.2161 30.3177 32.2005 30.3229 32.1849 30.3281C31.888 30.4896 30.9974 30.974 30.9974 30.974C30.9141 31.0208 30.8151 30.9531 30.8359 30.8646L31.138 29.6354C31.1484 29.599 31.138 29.5625 31.1068 29.5417L30.0703 28.7083C29.9974 28.651 30.0339 28.5417 30.1328 28.5365L31.5026 28.4167C31.5443 28.4167 31.5807 28.3906 31.5964 28.3594L32.138 27.1979C32.1589 27.1615 32.1953 27.1458 32.2318 27.1458C32.2734 27.1458 32.3099 27.1615 32.3255 27.1979L32.8724 28.3594C32.888 28.3906 32.9193 28.4167 32.9609 28.4167L34.3359 28.5365C34.4297 28.5417 34.4661 28.651 34.3984 28.7083ZM34.3984 20.1198L33.362 20.9531C33.3307 20.9792 33.3151 21.0156 33.3255 21.0521L33.6276 22.2813C33.6484 22.3646 33.5495 22.4323 33.4661 22.3854C33.4661 22.3854 32.5807 21.9063 32.2839 21.7448C32.2682 21.7344 32.2474 21.7344 32.2318 21.7344C32.2161 21.7344 32.2005 21.7344 32.1849 21.7448C31.888 21.9063 30.9974 22.3854 30.9974 22.3854C30.9141 22.4323 30.8151 22.3646 30.8359 22.2813L31.138 21.0521C31.1484 21.0156 31.138 20.9792 31.1068 20.9531L30.0703 20.1198C29.9974 20.0625 30.0339 19.9531 30.1328 19.9479L31.5026 19.8333C31.5443 19.8281 31.5807 19.8073 31.5964 19.7708L32.138 18.6146C32.1589 18.5781 32.1953 18.5573 32.2318 18.5573C32.2734 18.5573 32.3099 18.5781 32.3255 18.6146L32.8724 19.7708C32.888 19.8073 32.9193 19.8281 32.9609 19.8333L34.3359 19.9479C34.4297 19.9531 34.4661 20.0625 34.3984 20.1198ZM39.5026 41.5885L38.4661 42.4219C38.4349 42.4427 38.4245 42.4792 38.4349 42.5156L38.737 43.7448C38.7578 43.8333 38.6589 43.8958 38.5755 43.8542C38.5755 43.8542 37.6849 43.3698 37.388 43.2083C37.3724 43.2031 37.3568 43.1979 37.3411 43.1979C37.3255 43.1979 37.3047 43.2031 37.2891 43.2083C36.9922 43.3698 36.1068 43.8542 36.1068 43.8542C36.0234 43.8958 35.9245 43.8333 35.9453 43.7448L36.2474 42.5156C36.2578 42.4792 36.2422 42.4427 36.2109 42.4219L35.1745 41.5885C35.1068 41.5313 35.1432 41.4219 35.237 41.4115L36.612 41.2969C36.6536 41.2917 36.6849 41.2708 36.7005 41.2396L37.2474 40.0781C37.263 40.0417 37.2995 40.026 37.3411 40.0208C37.3776 40.026 37.4141 40.0417 37.4349 40.0781L37.9766 41.2396C37.9922 41.2708 38.0286 41.2917 38.0703 41.2969L39.4401 41.4115C39.5391 41.4219 39.5755 41.5313 39.5026 41.5885ZM39.5026 33L38.4661 33.8333C38.4349 33.8594 38.4245 33.8958 38.4349 33.9323L38.737 35.1615C38.7578 35.2448 38.6589 35.3125 38.5755 35.2656C38.5755 35.2656 37.6849 34.7813 37.388 34.625C37.3724 34.6146 37.3568 34.6146 37.3411 34.6146C37.3255 34.6146 37.3047 34.6146 37.2891 34.625C36.9922 34.7865 36.1068 35.2656 36.1068 35.2656C36.0234 35.3125 35.9245 35.2448 35.9453 35.1615L36.2474 33.9323C36.2578 33.8958 36.2422 33.8594 36.2109 33.8333L35.1745 33C35.1068 32.9427 35.1432 32.8333 35.237 32.8281L36.612 32.7135C36.6536 32.7083 36.6849 32.6823 36.7005 32.651L37.2474 31.4948C37.263 31.4583 37.2995 31.4375 37.3411 31.4375C37.3776 31.4375 37.4141 31.4583 37.4349 31.4948L37.9766 32.651C37.9922 32.6823 38.0286 32.7083 38.0703 32.7135L39.4401 32.8281C39.5391 32.8333 39.5755 32.9427 39.5026 33ZM39.5026 24.4167L38.4661 25.2448C38.4349 25.2708 38.4245 25.3073 38.4349 25.3438L38.737 26.5729C38.7578 26.6563 38.6589 26.724 38.5755 26.6823C38.5755 26.6823 37.6849 26.1979 37.388 26.0365C37.3724 26.0313 37.3568 26.026 37.3411 26.026C37.3255 26.026 37.3047 26.0313 37.2891 26.0365C36.9922 26.1979 36.1068 26.6823 36.1068 26.6823C36.0234 26.724 35.9245 26.6563 35.9453 26.5729L36.2474 25.3438C36.2578 25.3073 36.2422 25.2708 36.2109 25.2448L35.1745 24.4167C35.1068 24.3594 35.1432 24.25 35.237 24.2396L36.612 24.125C36.6536 24.1198 36.6849 24.099 36.7005 24.0625L37.2474 22.9063C37.263 22.8698 37.2995 22.8542 37.3411 22.849C37.3776 22.8542 37.4141 22.8698 37.4349 22.9063L37.9766 24.0625C37.9922 24.099 38.0286 24.1198 38.0703 24.125L39.4401 24.2396C39.5391 24.25 39.5755 24.3594 39.5026 24.4167ZM39.5026 15.8281L38.4661 16.6615C38.4349 16.6823 38.4245 16.7188 38.4349 16.7552L38.737 17.9844C38.7578 18.0729 38.6589 18.1406 38.5755 18.0937C38.5755 18.0937 37.6849 17.6094 37.388 17.4479C37.3724 17.4427 37.3568 17.4375 37.3411 17.4375C37.3255 17.4375 37.3047 17.4427 37.2891 17.4479C36.9922 17.6094 36.1068 18.0937 36.1068 18.0937C36.0234 18.1406 35.9245 18.0729 35.9453 17.9844L36.2474 16.7552C36.2578 16.7188 36.2422 16.6823 36.2109 16.6615L35.1745 15.8281C35.1068 15.7708 35.1432 15.6615 35.237 15.6563L36.612 15.5365C36.6536 15.5365 36.6849 15.5104 36.7005 15.4792L37.2474 14.3229C37.263 14.2813 37.2995 14.2656 37.3411 14.2656C37.3776 14.2656 37.4141 14.2813 37.4349 14.3229L37.9766 15.4792C37.9922 15.5104 38.0286 15.5365 38.0703 15.5365L39.4401 15.6563C39.5391 15.6615 39.5755 15.7708 39.5026 15.8281ZM44.612 45.8802L43.5755 46.7135C43.5443 46.7344 43.5286 46.776 43.5391 46.8073L43.8411 48.0417C43.862 48.125 43.763 48.1927 43.6797 48.1458C43.6797 48.1458 42.7891 47.6615 42.4922 47.5052C42.4818 47.4948 42.4609 47.4948 42.4453 47.4948C42.4297 47.4948 42.4141 47.4948 42.3984 47.5052C42.1016 47.6615 41.2109 48.1458 41.2109 48.1458C41.1276 48.1927 41.0286 48.125 41.0495 48.0417L41.3516 46.8073C41.362 46.776 41.3464 46.7344 41.3203 46.7135L40.2839 45.8802C40.2109 45.8229 40.2474 45.7135 40.3464 45.7083L41.7161 45.5885C41.7578 45.5885 41.7943 45.5625 41.8099 45.5313L42.3516 44.375C42.3724 44.3333 42.4089 44.3177 42.4453 44.3177C42.4818 44.3177 42.5234 44.3333 42.5391 44.375L43.0859 45.5313C43.1016 45.5625 43.1328 45.5885 43.1745 45.5885L44.5495 45.7083C44.6432 45.7135 44.6797 45.8229 44.612 45.8802ZM44.612 37.2969L43.5755 38.125C43.5443 38.151 43.5286 38.1875 43.5391 38.224L43.8411 39.4531C43.862 39.5365 43.763 39.6042 43.6797 39.5625C43.6797 39.5625 42.7891 39.0781 42.4922 38.9167C42.4818 38.9063 42.4609 38.9063 42.4453 38.9063C42.4297 38.9063 42.4141 38.9063 42.3984 38.9167C42.1016 39.0781 41.2109 39.5625 41.2109 39.5625C41.1276 39.6042 41.0286 39.5365 41.0495 39.4531L41.3516 38.224C41.362 38.1875 41.3464 38.151 41.3203 38.125L40.2839 37.2969C40.2109 37.2344 40.2474 37.1302 40.3464 37.1198L41.7161 37.0052C41.7578 37 41.7943 36.9792 41.8099 36.9427L42.3516 35.7865C42.3724 35.75 42.4089 35.7292 42.4453 35.7292C42.4818 35.7292 42.5234 35.75 42.5391 35.7865L43.0859 36.9427C43.1016 36.9792 43.1328 37 43.1745 37.0052L44.5495 37.1198C44.6432 37.1302 44.6797 37.2344 44.612 37.2969ZM44.612 28.7083L43.5755 29.5417C43.5443 29.5625 43.5286 29.599 43.5391 29.6354L43.8411 30.8646C43.862 30.9531 43.763 31.0208 43.6797 30.974C43.6797 30.974 42.7891 30.4896 42.4922 30.3281C42.4818 30.3229 42.4609 30.3177 42.4453 30.3177C42.4297 30.3177 42.4141 30.3229 42.3984 30.3281C42.1016 30.4896 41.2109 30.974 41.2109 30.974C41.1276 31.0208 41.0286 30.9531 41.0495 30.8646L41.3516 29.6354C41.362 29.599 41.3464 29.5625 41.3203 29.5417L40.2839 28.7083C40.2109 28.651 40.2474 28.5417 40.3464 28.5365L41.7161 28.4167C41.7578 28.4167 41.7943 28.3906 41.8099 28.3594L42.3516 27.1979C42.3724 27.1615 42.4089 27.1458 42.4453 27.1458C42.4818 27.1458 42.5234 27.1615 42.5391 27.1979L43.0859 28.3594C43.1016 28.3906 43.1328 28.4167 43.1745 28.4167L44.5495 28.5365C44.6432 28.5417 44.6797 28.651 44.612 28.7083ZM44.612 20.1198L43.5755 20.9531C43.5443 20.9792 43.5286 21.0156 43.5391 21.0521L43.8411 22.2813C43.862 22.3646 43.763 22.4323 43.6797 22.3854C43.6797 22.3854 42.7891 21.9063 42.4922 21.7448C42.4818 21.7344 42.4609 21.7344 42.4453 21.7344C42.4297 21.7344 42.4141 21.7344 42.3984 21.7448C42.1016 21.9063 41.2109 22.3854 41.2109 22.3854C41.1276 22.4323 41.0286 22.3646 41.0495 22.2813L41.3516 21.0521C41.362 21.0156 41.3464 20.9792 41.3203 20.9531L40.2839 20.1198C40.2109 20.0625 40.2474 19.9531 40.3464 19.9479L41.7161 19.8333C41.7578 19.8281 41.7943 19.8073 41.8099 19.7708L42.3516 18.6146C42.3724 18.5781 42.4089 18.5573 42.4453 18.5573C42.4818 18.5573 42.5234 18.5781 42.5391 18.6146L43.0859 19.7708C43.1016 19.8073 43.1328 19.8281 43.1745 19.8333L44.5495 19.9479C44.6432 19.9531 44.6797 20.0625 44.612 20.1198ZM44.612 11.5365L43.5755 12.3646C43.5443 12.3906 43.5286 12.4271 43.5391 12.4635L43.8411 13.6927C43.862 13.776 43.763 13.8437 43.6797 13.8021C43.6797 13.8021 42.7891 13.3177 42.4922 13.1563C42.4818 13.151 42.4609 13.1458 42.4453 13.1458C42.4297 13.1458 42.4141 13.151 42.3984 13.1563C42.1016 13.3177 41.2109 13.8021 41.2109 13.8021C41.1276 13.8437 41.0286 13.776 41.0495 13.6927L41.3516 12.4635C41.362 12.4271 41.3464 12.3906 41.3203 12.3646L40.2839 11.5365C40.2109 11.4792 40.2474 11.3698 40.3464 11.3594L41.7161 11.2448C41.7578 11.2396 41.7943 11.2188 41.8099 11.1875L42.3516 10.026C42.3724 9.98959 42.4089 9.97396 42.4453 9.96875C42.4818 9.97396 42.5234 9.98959 42.5391 10.026L43.0859 11.1875C43.1016 11.2188 43.1328 11.2396 43.1745 11.2448L44.5495 11.3594C44.6432 11.3698 44.6797 11.4792 44.612 11.5365Z" fill="#0A2F98"/>
</g>
<path d="M80.2109 25.9636C78.8307 23.8386 77.263 21.8595 75.5182 20.0417H47.2109V25.9688H80.2057C80.2109 25.9688 80.2109 25.9636 80.2109 25.9636Z" fill="#D80510"/>
<mask id="mask4_143_154" style="mask-type:luminance" maskUnits="userSpaceOnUse" x="46" y="31" width="41" height="9">
<path d="M46.4141 31.3333H86.138V39.3333H46.4141V31.3333Z" fill="white"/>
</mask>
<g mask="url(#mask4_143_154)">
<path d="M85.3984 38.0884C84.9089 36.0467 84.2682 34.0675 83.4714 32.1665H47.2109V38.0884H85.3984Z" fill="#D80510"/>
</g>
<mask id="mask5_143_154" style="mask-type:luminance" maskUnits="userSpaceOnUse" x="46" y="7" width="24" height="7">
<path d="M46.4141 7.98438H69.0807V14H46.4141V7.98438Z" fill="white"/>
</mask>
<g mask="url(#mask5_143_154)">
<path d="M67.8464 13.8385C61.8516 10.1302 54.7578 7.98438 47.2109 7.98438V13.8437H67.8411C67.8464 13.8437 67.8464 13.8385 67.8464 13.8385Z" fill="#D80510"/>
</g>
<mask id="mask6_143_154" style="mask-type:luminance" maskUnits="userSpaceOnUse" x="26" y="79" width="44" height="8">
<path d="M26.4141 79.3333H69.0807V86.1822H26.4141V79.3333Z" fill="white"/>
</mask>
<g mask="url(#mask6_143_154)">
<path d="M26.5762 80.6614C26.5762 80.6614 26.5762 80.6614 26.5762 80.6666C32.571 84.3749 39.6595 86.5155 47.2116 86.5155C54.7585 86.5155 61.8522 84.3749 67.847 80.6666C67.847 80.6614 67.847 80.6614 67.8418 80.6614H26.5762Z" fill="#D80510"/>
</g>
<path d="M14.2109 68.5364C14.2109 68.5364 14.2109 68.5364 14.2109 68.5416C15.5859 70.6614 17.1536 72.6458 18.9036 74.4635H75.5182C77.263 72.6458 78.8307 70.6614 80.2109 68.5416C80.2109 68.5364 80.2109 68.5364 80.2057 68.5364H14.2109Z" fill="#D80510"/>
<mask id="mask7_143_154" style="mask-type:luminance" maskUnits="userSpaceOnUse" x="46" y="43" width="41" height="9">
<path d="M46.4141 43.3333H86.138V51.3333H46.4141V43.3333Z" fill="white"/>
</mask>
<g mask="url(#mask7_143_154)">
<path d="M86.3672 44.2916C86.3672 44.2864 86.362 44.2864 86.362 44.2864L47.2109 44.2916V50.2135H86.362H86.3672C86.4401 49.2343 86.4766 48.2499 86.4766 47.2499C86.4766 46.2551 86.4401 45.2655 86.3672 44.2916Z" fill="#D80510"/>
</g>
<mask id="mask8_143_154" style="mask-type:luminance" maskUnits="userSpaceOnUse" x="7" y="55" width="80" height="9">
<path d="M7.94531 55.3333H86.138V63.3333H7.94531V55.3333Z" fill="white"/>
</mask>
<g mask="url(#mask8_143_154)">
<path d="M9.02279 56.4114C9.01758 56.4114 9.01758 56.4166 9.01758 56.4166C9.50716 58.453 10.153 60.4322 10.9447 62.3385C10.9447 62.3385 10.9447 62.3385 10.9499 62.3385H83.4707C84.2676 60.4322 84.9082 58.453 85.3978 56.4166V56.4114H9.02279Z" fill="#D80510"/>
</g>
</svg>
