<svg width="120" height="120" viewBox="0 0 120 120" fill="none" xmlns="http://www.w3.org/2000/svg">
<circle cx="60" cy="60" r="60" fill="white"/>
<path d="M92.4691 76.2082C89.7816 77.8228 86.7659 78.6665 83.667 79.052C82.6826 73.8645 80.6097 68.4634 78.8649 64.453C80.2086 62.6926 81.5003 60.8905 82.7243 59.0467C83.4951 57.8905 84.292 56.6613 85.0836 55.3853C88.0107 56.8749 90.7503 58.604 93.1982 60.6092C99.2555 65.5624 99.6045 71.9322 92.4691 76.2082ZM79.5628 91.5728C74.1461 96.0103 65.5055 92.6249 60.5836 89.1822C59.6774 88.552 58.818 87.8749 57.9847 87.1613C60.3909 84.8905 62.6305 82.5363 64.6461 80.4322C69.3909 81.1301 74.0159 81.4895 78.2607 81.4895C79.6097 81.4895 81.0211 81.427 82.4534 81.2863C83.0472 85.2967 82.5576 89.1197 79.5628 91.5728ZM35.5524 91.8332C33.3232 87.1509 35.7764 79.8124 38.8961 73.2342C41.1826 74.2342 43.5628 75.1509 46.0003 75.979C48.3857 80.0311 51.1514 83.8905 54.3389 87.0988C46.4326 93.6509 38.4534 97.9374 35.5524 91.8332ZM30.4795 65.953C25.3961 62.5728 20.2243 57.3905 26.8649 52.6405C29.1409 51.0103 31.8441 49.9165 34.7139 49.177C35.917 53.203 37.2607 56.7499 38.0628 58.9009C38.8545 61.0155 39.7503 63.2707 40.7607 65.5884C40.2347 66.5676 39.7295 67.5467 39.2347 68.5207C38.9899 69.0103 38.6774 69.6301 38.3232 70.3488C35.5836 69.0624 32.9534 67.604 30.4795 65.953ZM39.3961 27.0728C47.7503 27.0728 54.943 31.9842 60.9274 38.7551C58.5368 40.8957 56.2764 43.2342 54.1461 45.703C51.2868 45.6145 48.4482 45.6613 45.6618 45.8436C42.8701 46.0259 39.7086 46.203 36.5576 46.6561C34.0628 38.4217 31.8805 27.0728 39.3961 27.0728ZM77.7034 61.8697C75.917 58.0103 74.0055 54.177 71.8493 50.4947C75.4743 51.427 79.0264 52.6197 82.3753 54.0988C80.8284 56.9217 79.1878 59.5988 77.7034 61.8697ZM62.3857 40.4686C64.1045 42.5624 65.7086 44.7967 67.2086 47.0988C63.8597 46.4738 60.4743 46.0624 57.0993 45.8436C57.1774 45.7603 57.2555 45.677 57.3336 45.5988C58.8857 43.9947 60.5732 42.2238 62.3857 40.4686ZM42.3493 62.703C41.1878 59.8228 40.1305 56.9478 39.1253 54.177C38.7347 53.104 37.9847 51.0936 37.1826 48.6405C41.3076 47.8749 45.6149 47.7238 49.3909 47.7238C50.3857 47.7238 51.3909 47.7447 52.4118 47.7759C48.6045 52.479 45.2503 57.5832 42.3493 62.703ZM44.2399 72.828C42.7868 72.2915 41.3545 71.7134 39.9482 71.0936C40.5368 69.9217 41.1357 68.7915 41.7139 67.7186C42.4951 69.4165 43.3389 71.1301 44.2399 72.828ZM47.6461 74.0051C46.0107 71.0728 44.568 68.0051 43.2607 64.9165C43.8857 63.802 44.4534 62.7915 44.9222 61.9322C47.7191 56.8176 51.2503 52.203 55.167 47.9061C59.6461 48.1874 64.3076 48.7967 68.9066 49.7967C71.8336 54.6249 74.292 59.5884 76.2816 63.9895C74.8857 66.0155 73.7503 67.5207 73.1566 68.203C71.9847 69.5467 68.5732 73.4582 64.2347 77.8801C58.6774 77.0051 53.0576 75.7551 47.6461 74.0051ZM49.4743 77.0832C53.6253 78.3228 57.8909 79.3072 62.0941 80.0259C60.2191 81.8749 58.2191 83.7499 56.193 85.5207C53.6357 83.0259 51.4274 80.1665 49.4743 77.0832ZM78.1097 68.1874C79.3076 71.0207 81.1201 75.1092 82.0576 79.2082C79.2868 79.4165 76.4795 79.2967 73.792 79.052C71.4795 78.8436 69.1253 78.578 66.7503 78.2499C70.4534 74.4686 74.0368 70.5415 77.3441 66.3957C77.6097 67.0103 77.8649 67.604 78.1097 68.1874ZM81.2555 30.3228C92.0628 30.3228 88.8024 41.703 83.4639 52.0572C79.2086 50.1717 74.7243 48.729 70.1305 47.6978C68.292 44.8176 66.2711 42.0676 64.0003 39.5051C63.9118 39.4061 63.8232 39.302 63.7295 39.1978C68.7868 34.5259 74.7295 30.3228 81.2555 30.3228ZM92.5941 57.0728C90.5732 55.7134 88.4586 54.4895 86.2764 53.3853C89.0472 48.5624 91.3493 43.1405 90.9899 37.8436C90.3336 28.1144 80.9378 26.5363 73.3441 30.2447C69.3857 32.1769 65.693 34.6822 62.2555 37.5988C56.3909 31.3749 45.4951 21.6613 37.4639 24.6405C30.3649 27.2707 31.6253 37.9478 34.1097 47.0728C30.2711 47.8384 26.6045 49.1405 23.8441 51.5259C17.5003 56.9947 23.0003 63.6613 28.3076 67.3801C31.0003 69.2707 34.0368 70.9842 37.2972 72.5051C33.3024 81.1197 27.1618 97.3384 39.042 97.3384C45.0524 97.3384 50.943 93.4582 56.167 88.8228C60.8909 92.9947 66.4691 95.7134 73.0264 95.7134C83.0576 95.7134 85.0264 88.9165 84.0003 81.1092C89.443 80.3645 94.9691 78.3853 98.2659 74.078C103.36 67.4322 98.4378 61.0103 92.5941 57.0728Z" fill="#86AADF"/>
<path d="M68.552 62.1094C68.1093 65.9479 64.6874 68.8385 61.0572 69.7135C57.0415 70.6823 53.2811 67.5469 52.4113 63.7292C51.7447 60.7917 52.7499 57.9167 54.8384 55.9583C56.5572 52.9479 61.2499 52.5 64.1718 53.849C67.2551 55.276 68.927 58.8073 68.552 62.1094Z" fill="#F46A61"/>
<mask id="mask0_143_156" style="mask-type:luminance" maskUnits="userSpaceOnUse" x="17" y="20" width="87" height="81">
<path d="M17 20H103.766V100.807H17V20Z" fill="white"/>
</mask>
<g mask="url(#mask0_143_156)">
<path d="M92.641 64.5626C91.3181 64.4324 90.2764 64.6564 89.0524 63.9324C87.9066 63.2553 87.3129 62.2605 86.7712 61.0886C86.667 60.8647 86.3129 60.9793 86.3181 61.2084C86.3545 62.672 87.4222 63.9272 88.6254 64.6616C89.7191 65.3282 91.6306 65.9012 92.7764 65.073C93.0004 64.9064 92.917 64.5886 92.641 64.5626ZM68.0108 69.1095C66.3754 69.7084 64.9691 70.7397 63.2556 71.2189C61.4379 71.7241 59.6462 71.7084 57.7816 71.7084C57.4483 71.7084 57.3754 72.2032 57.6983 72.2918C59.5733 72.8022 61.6462 72.5991 63.5004 72.1095C65.1774 71.6616 67.2191 70.9116 68.2972 69.4793C68.4274 69.3074 68.2087 69.0366 68.0108 69.1095ZM49.3806 20.3178C48.2295 19.8959 46.3129 19.7605 45.4431 20.8022C45.3441 20.922 45.4014 21.1459 45.5837 21.1355C46.1983 21.1095 46.7764 20.8751 47.3962 20.8647C48.1566 20.8491 48.9379 21.0418 49.5993 21.4116C50.6722 22.0001 51.1149 23.6668 52.3233 23.8959C52.5577 23.9428 52.7087 23.7241 52.6149 23.5157C52.0316 22.1616 50.7764 20.8334 49.3806 20.3178ZM39.391 29.323C37.5629 29.5886 36.3024 31.9168 35.8858 33.5209C35.5108 34.9793 35.3649 37.823 36.8962 38.7136C37.1045 38.8334 37.3702 38.6824 37.3702 38.4428C37.3702 37.7397 36.9952 37.0991 36.8649 36.4064C36.7035 35.5522 36.7452 34.6616 36.9483 33.8126C37.1462 33.0053 37.4795 32.2397 37.9691 31.5626C38.4587 30.8855 39.1462 30.4272 39.6618 29.7866C39.8441 29.5626 39.6722 29.2814 39.391 29.323ZM102.834 65.5366C102.683 65.2345 102.224 65.448 102.302 65.7605C102.849 67.9949 103.084 70.1772 102.521 72.4428C102.261 73.4845 101.855 74.4793 101.323 75.4116C100.776 76.3699 100 77.172 99.4535 78.1251C99.3181 78.3595 99.5837 78.5991 99.8129 78.4793C101.834 77.4272 102.974 74.6251 103.453 72.5262C103.969 70.2345 103.907 67.6668 102.834 65.5366ZM92.8545 29.9584C91.0212 27.4845 88.1254 25.8647 85.0577 25.6095C84.792 25.5886 84.7452 26.0001 84.9952 26.0626C87.9066 26.7814 90.7608 28.1928 92.4431 30.7709C93.3754 32.198 93.8129 33.8334 93.9691 35.5209C94.1202 37.1303 93.7295 38.8907 94.0681 40.4584C94.1254 40.7345 94.4952 40.6876 94.5733 40.4584C95.167 38.7918 94.9587 36.448 94.7191 34.7241C94.4795 33.0001 93.891 31.3595 92.8545 29.9584ZM81.0941 95.9428C79.2504 96.8334 77.5212 97.797 75.4899 98.198C73.4222 98.6043 71.2556 98.5366 69.2035 98.0678C68.8337 97.9845 68.6879 98.5157 69.0472 98.6355C72.9431 99.9324 78.4327 99.4845 81.4014 96.3387C81.6045 96.1251 81.3493 95.8178 81.0941 95.9428ZM63.9014 97.7605C62.6931 97.0262 61.3545 96.5626 60.167 95.7605C58.9014 94.9064 57.9222 93.797 56.7608 92.8282C56.5889 92.6824 56.3493 92.8595 56.4535 93.0626C57.6462 95.4897 61.0629 97.9741 63.7816 98.2137C64.0316 98.2345 64.0941 97.8751 63.9014 97.7605ZM36.6097 99.8282C33.2452 99.9689 30.792 98.1772 29.8441 94.9168C28.8493 91.4949 29.7712 87.9897 29.4952 84.5209C29.4691 84.2293 29.016 84.1199 28.9483 84.448C28.4847 86.5782 28.3649 88.8959 28.3441 91.073C28.3233 92.9324 28.5264 94.7866 29.2712 96.5001C30.4118 99.1355 33.7347 102.011 36.7347 100.281C36.9379 100.162 36.8545 99.8178 36.6097 99.8282ZM22.0212 65.7345C22.1931 65.8907 22.0524 66.1824 21.8337 66.1824C19.7243 66.1876 18.2139 63.8126 17.5785 62.0678C16.5733 59.3074 17.0733 56.3699 17.641 53.5782C17.7139 53.2189 18.3129 53.3022 18.2816 53.6616C18.0368 56.1043 17.6774 58.7501 18.3754 61.1459C18.6774 62.1824 19.1983 63.1824 19.9118 63.9949C20.5264 64.6876 21.3337 65.1251 22.0212 65.7345Z" fill="#2E2E30"/>
</g>
<path d="M47.938 55.0936C46.9536 54.5311 45.8026 54.1301 44.6828 54.5051C44.214 54.6613 43.6723 55.0103 43.3859 55.4582C42.6046 56.4634 42.5161 58.0832 43.0161 59.3488C43.9588 61.7655 46.188 61.953 48.1255 60.4946C49.0682 59.7863 49.8546 58.7915 49.8182 57.5571C49.7869 56.3696 48.8963 55.6353 47.938 55.0936ZM95.5265 56.9842C92.214 52.6509 85.839 57.7446 88.6619 61.4686C91.2713 64.9113 98.589 60.9998 95.5265 56.9842ZM49.9328 29.8696C47.9796 31.453 44.7817 31.9269 43.5786 29.1769C42.9432 27.7238 43.3286 26.2811 44.2557 25.2498C45.3442 23.0103 47.8078 21.9634 50.0994 23.6769C52.313 25.328 51.9692 28.2134 49.9328 29.8696Z" fill="#F6B737"/>
<path d="M46.9383 55.4738C46.7091 55.4634 46.5477 55.8019 46.7404 55.9529C47.1831 56.3123 47.6414 56.5467 47.9123 57.0832C48.1466 57.5519 48.0893 58.0936 48.3029 58.5519C48.355 58.6613 48.5112 58.6613 48.5893 58.5884C49.0841 58.1196 48.8289 57.229 48.5529 56.7082C48.2404 56.1248 47.6414 55.505 46.9383 55.4738ZM91.881 56.9373C92.006 56.8384 91.9383 56.604 91.7873 56.5779C89.2039 56.0571 87.7456 61.2863 90.9956 61.2915C91.1883 61.2915 91.256 61.0675 91.1466 60.9321C90.9175 60.6665 90.6362 60.4946 90.3914 60.2498C89.9227 59.7759 89.9643 59.0884 90.2508 58.5259C90.631 57.7707 91.2664 57.4529 91.881 56.9373ZM46.3029 24.2967C45.256 24.9842 44.3289 25.8592 44.381 27.2186C44.4123 28.0311 44.9591 29.3696 45.9748 29.1561C46.131 29.1196 46.1727 28.9425 46.1154 28.8123C45.7873 28.1457 45.1935 27.8436 45.2248 26.9894C45.256 26.0936 45.9018 25.1873 46.532 24.5988C46.6935 24.4529 46.4852 24.1769 46.3029 24.2967ZM63.9695 66.4165C63.1779 66.505 62.4435 66.8748 61.657 67.0363C60.6883 67.2342 59.7039 67.2863 58.7248 67.2238C58.4331 67.2029 58.3706 67.6665 58.6518 67.7238C60.3133 68.0779 62.8445 68.1561 64.1623 66.8748C64.3185 66.729 64.2143 66.3904 63.9695 66.4165ZM57.2716 55.7967C56.0945 57.2915 55.3758 59.0884 55.105 60.9686C54.9591 61.9477 54.8445 63.0259 55.1518 63.9894C55.4487 64.9217 56.1831 65.5779 56.7039 66.3852C56.8237 66.5675 56.6258 66.7602 56.4383 66.729C54.0841 66.3227 53.7404 63.2759 53.9904 61.38C54.2925 59.0884 55.0633 56.8384 56.9852 55.4269C57.2248 55.255 57.4227 55.6092 57.2716 55.7967Z" fill="white"/>
</svg>
